<?xml version="1.0" encoding="utf-8"?>
<svg xmlns="http://www.w3.org/2000/svg" xmlns:xlink="http://www.w3.org/1999/xlink" width="600" height="400" viewBox="0 0 2400 1600">
<defs>
  <clipPath id="clip030">
    <rect x="0" y="0" width="2400" height="1600"/>
  </clipPath>
</defs>
<path clip-path="url(#clip030)" d="
M0 1600 L2400 1600 L2400 0 L0 0  Z
  " fill="#ffffff" fill-rule="evenodd" fill-opacity="1"/>
<defs>
  <clipPath id="clip031">
    <rect x="480" y="0" width="1681" height="1600"/>
  </clipPath>
</defs>
<path clip-path="url(#clip030)" d="
M316.301 1423.18 L2352.76 1423.18 L2352.76 123.472 L316.301 123.472  Z
  " fill="#ffffff" fill-rule="evenodd" fill-opacity="1"/>
<defs>
  <clipPath id="clip032">
    <rect x="316" y="123" width="2037" height="1301"/>
  </clipPath>
</defs>
<polyline clip-path="url(#clip032)" style="stroke:#000000; stroke-linecap:butt; stroke-linejoin:round; stroke-width:2; stroke-opacity:0.1; fill:none" points="
  480.669,1423.18 480.669,123.472 
  "/>
<polyline clip-path="url(#clip032)" style="stroke:#000000; stroke-linecap:butt; stroke-linejoin:round; stroke-width:2; stroke-opacity:0.1; fill:none" points="
  1014.33,1423.18 1014.33,123.472 
  "/>
<polyline clip-path="url(#clip032)" style="stroke:#000000; stroke-linecap:butt; stroke-linejoin:round; stroke-width:2; stroke-opacity:0.1; fill:none" points="
  1547.99,1423.18 1547.99,123.472 
  "/>
<polyline clip-path="url(#clip032)" style="stroke:#000000; stroke-linecap:butt; stroke-linejoin:round; stroke-width:2; stroke-opacity:0.1; fill:none" points="
  2081.66,1423.18 2081.66,123.472 
  "/>
<polyline clip-path="url(#clip030)" style="stroke:#000000; stroke-linecap:butt; stroke-linejoin:round; stroke-width:4; stroke-opacity:1; fill:none" points="
  316.301,1423.18 2352.76,1423.18 
  "/>
<polyline clip-path="url(#clip030)" style="stroke:#000000; stroke-linecap:butt; stroke-linejoin:round; stroke-width:4; stroke-opacity:1; fill:none" points="
  480.669,1423.18 480.669,1404.28 
  "/>
<polyline clip-path="url(#clip030)" style="stroke:#000000; stroke-linecap:butt; stroke-linejoin:round; stroke-width:4; stroke-opacity:1; fill:none" points="
  1014.33,1423.18 1014.33,1404.28 
  "/>
<polyline clip-path="url(#clip030)" style="stroke:#000000; stroke-linecap:butt; stroke-linejoin:round; stroke-width:4; stroke-opacity:1; fill:none" points="
  1547.99,1423.18 1547.99,1404.28 
  "/>
<polyline clip-path="url(#clip030)" style="stroke:#000000; stroke-linecap:butt; stroke-linejoin:round; stroke-width:4; stroke-opacity:1; fill:none" points="
  2081.66,1423.18 2081.66,1404.28 
  "/>
<path clip-path="url(#clip030)" d="M480.669 1454.1 Q477.058 1454.1 475.229 1457.66 Q473.424 1461.2 473.424 1468.33 Q473.424 1475.44 475.229 1479.01 Q477.058 1482.55 480.669 1482.55 Q484.303 1482.55 486.109 1479.01 Q487.937 1475.44 487.937 1468.33 Q487.937 1461.2 486.109 1457.66 Q484.303 1454.1 480.669 1454.1 M480.669 1450.39 Q486.479 1450.39 489.535 1455 Q492.613 1459.58 492.613 1468.33 Q492.613 1477.06 489.535 1481.67 Q486.479 1486.25 480.669 1486.25 Q474.859 1486.25 471.78 1481.67 Q468.725 1477.06 468.725 1468.33 Q468.725 1459.58 471.78 1455 Q474.859 1450.39 480.669 1450.39 Z" fill="#000000" fill-rule="evenodd" fill-opacity="1" /><path clip-path="url(#clip030)" d="M989.019 1481.64 L996.658 1481.64 L996.658 1455.28 L988.347 1456.95 L988.347 1452.69 L996.611 1451.02 L1001.29 1451.02 L1001.29 1481.64 L1008.93 1481.64 L1008.93 1485.58 L989.019 1485.58 L989.019 1481.64 Z" fill="#000000" fill-rule="evenodd" fill-opacity="1" /><path clip-path="url(#clip030)" d="M1028.37 1454.1 Q1024.76 1454.1 1022.93 1457.66 Q1021.13 1461.2 1021.13 1468.33 Q1021.13 1475.44 1022.93 1479.01 Q1024.76 1482.55 1028.37 1482.55 Q1032 1482.55 1033.81 1479.01 Q1035.64 1475.44 1035.64 1468.33 Q1035.64 1461.2 1033.81 1457.66 Q1032 1454.1 1028.37 1454.1 M1028.37 1450.39 Q1034.18 1450.39 1037.24 1455 Q1040.31 1459.58 1040.31 1468.33 Q1040.31 1477.06 1037.24 1481.67 Q1034.18 1486.25 1028.37 1486.25 Q1022.56 1486.25 1019.48 1481.67 Q1016.43 1477.06 1016.43 1468.33 Q1016.43 1459.58 1019.48 1455 Q1022.56 1450.39 1028.37 1450.39 Z" fill="#000000" fill-rule="evenodd" fill-opacity="1" /><path clip-path="url(#clip030)" d="M1526.77 1481.64 L1543.09 1481.64 L1543.09 1485.58 L1521.14 1485.58 L1521.14 1481.64 Q1523.8 1478.89 1528.39 1474.26 Q1532.99 1469.61 1534.17 1468.27 Q1536.42 1465.74 1537.3 1464.01 Q1538.2 1462.25 1538.2 1460.56 Q1538.2 1457.8 1536.26 1456.07 Q1534.34 1454.33 1531.23 1454.33 Q1529.04 1454.33 1526.58 1455.09 Q1524.15 1455.86 1521.37 1457.41 L1521.37 1452.69 Q1524.2 1451.55 1526.65 1450.97 Q1529.1 1450.39 1531.14 1450.39 Q1536.51 1450.39 1539.71 1453.08 Q1542.9 1455.77 1542.9 1460.26 Q1542.9 1462.39 1542.09 1464.31 Q1541.3 1466.2 1539.2 1468.8 Q1538.62 1469.47 1535.52 1472.69 Q1532.41 1475.88 1526.77 1481.64 Z" fill="#000000" fill-rule="evenodd" fill-opacity="1" /><path clip-path="url(#clip030)" d="M1562.9 1454.1 Q1559.29 1454.1 1557.46 1457.66 Q1555.66 1461.2 1555.66 1468.33 Q1555.66 1475.44 1557.46 1479.01 Q1559.29 1482.55 1562.9 1482.55 Q1566.53 1482.55 1568.34 1479.01 Q1570.17 1475.44 1570.17 1468.33 Q1570.17 1461.2 1568.34 1457.66 Q1566.53 1454.1 1562.9 1454.1 M1562.9 1450.39 Q1568.71 1450.39 1571.77 1455 Q1574.85 1459.58 1574.85 1468.33 Q1574.85 1477.06 1571.77 1481.67 Q1568.71 1486.25 1562.9 1486.25 Q1557.09 1486.25 1554.01 1481.67 Q1550.96 1477.06 1550.96 1468.33 Q1550.96 1459.58 1554.01 1455 Q1557.09 1450.39 1562.9 1450.39 Z" fill="#000000" fill-rule="evenodd" fill-opacity="1" /><path clip-path="url(#clip030)" d="M2070.5 1466.95 Q2073.85 1467.66 2075.73 1469.93 Q2077.63 1472.2 2077.63 1475.53 Q2077.63 1480.65 2074.11 1483.45 Q2070.59 1486.25 2064.11 1486.25 Q2061.93 1486.25 2059.62 1485.81 Q2057.33 1485.39 2054.87 1484.54 L2054.87 1480.02 Q2056.82 1481.16 2059.13 1481.74 Q2061.45 1482.32 2063.97 1482.32 Q2068.37 1482.32 2070.66 1480.58 Q2072.97 1478.84 2072.97 1475.53 Q2072.97 1472.48 2070.82 1470.77 Q2068.69 1469.03 2064.87 1469.03 L2060.85 1469.03 L2060.85 1465.19 L2065.06 1465.19 Q2068.51 1465.19 2070.34 1463.82 Q2072.16 1462.43 2072.16 1459.84 Q2072.16 1457.18 2070.27 1455.77 Q2068.39 1454.33 2064.87 1454.33 Q2062.95 1454.33 2060.75 1454.75 Q2058.55 1455.16 2055.91 1456.04 L2055.91 1451.88 Q2058.58 1451.14 2060.89 1450.77 Q2063.23 1450.39 2065.29 1450.39 Q2070.61 1450.39 2073.72 1452.83 Q2076.82 1455.23 2076.82 1459.35 Q2076.82 1462.22 2075.17 1464.21 Q2073.53 1466.18 2070.5 1466.95 Z" fill="#000000" fill-rule="evenodd" fill-opacity="1" /><path clip-path="url(#clip030)" d="M2096.49 1454.1 Q2092.88 1454.1 2091.05 1457.66 Q2089.25 1461.2 2089.25 1468.33 Q2089.25 1475.44 2091.05 1479.01 Q2092.88 1482.55 2096.49 1482.55 Q2100.13 1482.55 2101.93 1479.01 Q2103.76 1475.44 2103.76 1468.33 Q2103.76 1461.2 2101.93 1457.66 Q2100.13 1454.1 2096.49 1454.1 M2096.49 1450.39 Q2102.3 1450.39 2105.36 1455 Q2108.44 1459.58 2108.44 1468.33 Q2108.44 1477.06 2105.36 1481.67 Q2102.3 1486.25 2096.49 1486.25 Q2090.68 1486.25 2087.6 1481.67 Q2084.55 1477.06 2084.55 1468.33 Q2084.55 1459.58 2087.6 1455 Q2090.68 1450.39 2096.49 1450.39 Z" fill="#000000" fill-rule="evenodd" fill-opacity="1" /><path clip-path="url(#clip030)" d="M1007.63 1526.86 L998.912 1550.51 L1016.39 1550.51 L1007.63 1526.86 M1004.01 1520.52 L1011.29 1520.52 L1029.4 1568.04 L1022.72 1568.04 L1018.39 1555.85 L996.971 1555.85 L992.642 1568.04 L985.863 1568.04 L1004.01 1520.52 Z" fill="#000000" fill-rule="evenodd" fill-opacity="1" /><path clip-path="url(#clip030)" d="M1028.07 1532.4 L1034.27 1532.4 L1045.41 1562.31 L1056.55 1532.4 L1062.76 1532.4 L1049.39 1568.04 L1041.44 1568.04 L1028.07 1532.4 Z" fill="#000000" fill-rule="evenodd" fill-opacity="1" /><path clip-path="url(#clip030)" d="M1101.34 1548.76 L1101.34 1551.62 L1074.41 1551.62 Q1074.79 1557.67 1078.04 1560.85 Q1081.32 1564 1087.14 1564 Q1090.51 1564 1093.67 1563.17 Q1096.85 1562.35 1099.97 1560.69 L1099.97 1566.23 Q1096.82 1567.57 1093.51 1568.27 Q1090.2 1568.97 1086.79 1568.97 Q1078.26 1568.97 1073.26 1564 Q1068.3 1559.04 1068.3 1550.57 Q1068.3 1541.82 1073.01 1536.69 Q1077.75 1531.54 1085.77 1531.54 Q1092.97 1531.54 1097.14 1536.18 Q1101.34 1540.8 1101.34 1548.76 M1095.48 1547.04 Q1095.42 1542.23 1092.77 1539.37 Q1090.16 1536.5 1085.84 1536.5 Q1080.93 1536.5 1077.97 1539.27 Q1075.05 1542.04 1074.6 1547.07 L1095.48 1547.04 Z" fill="#000000" fill-rule="evenodd" fill-opacity="1" /><path clip-path="url(#clip030)" d="M1131.61 1537.87 Q1130.62 1537.3 1129.44 1537.04 Q1128.3 1536.76 1126.89 1536.76 Q1121.93 1536.76 1119.26 1540 Q1116.61 1543.22 1116.61 1549.27 L1116.61 1568.04 L1110.73 1568.04 L1110.73 1532.4 L1116.61 1532.4 L1116.61 1537.93 Q1118.46 1534.69 1121.42 1533.13 Q1124.38 1531.54 1128.61 1531.54 Q1129.22 1531.54 1129.95 1531.63 Q1130.68 1531.7 1131.57 1531.85 L1131.61 1537.87 Z" fill="#000000" fill-rule="evenodd" fill-opacity="1" /><path clip-path="url(#clip030)" d="M1153.95 1550.12 Q1146.85 1550.12 1144.11 1551.75 Q1141.38 1553.37 1141.38 1557.29 Q1141.38 1560.4 1143.41 1562.25 Q1145.48 1564.07 1149.02 1564.07 Q1153.89 1564.07 1156.81 1560.63 Q1159.77 1557.16 1159.77 1551.43 L1159.77 1550.12 L1153.95 1550.12 M1165.63 1547.71 L1165.63 1568.04 L1159.77 1568.04 L1159.77 1562.63 Q1157.77 1565.88 1154.78 1567.44 Q1151.78 1568.97 1147.46 1568.97 Q1141.98 1568.97 1138.74 1565.91 Q1135.52 1562.82 1135.52 1557.67 Q1135.52 1551.65 1139.53 1548.6 Q1143.57 1545.54 1151.56 1545.54 L1159.77 1545.54 L1159.77 1544.97 Q1159.77 1540.93 1157.1 1538.73 Q1154.46 1536.5 1149.65 1536.5 Q1146.6 1536.5 1143.7 1537.23 Q1140.8 1537.97 1138.13 1539.43 L1138.13 1534.02 Q1141.35 1532.78 1144.37 1532.17 Q1147.39 1531.54 1150.26 1531.54 Q1157.99 1531.54 1161.81 1535.55 Q1165.63 1539.56 1165.63 1547.71 Z" fill="#000000" fill-rule="evenodd" fill-opacity="1" /><path clip-path="url(#clip030)" d="M1201.15 1549.81 Q1201.15 1543.44 1198.51 1539.94 Q1195.9 1536.44 1191.16 1536.44 Q1186.45 1536.44 1183.8 1539.94 Q1181.19 1543.44 1181.19 1549.81 Q1181.19 1556.14 1183.8 1559.64 Q1186.45 1563.14 1191.16 1563.14 Q1195.9 1563.14 1198.51 1559.64 Q1201.15 1556.14 1201.15 1549.81 M1207.01 1563.62 Q1207.01 1572.72 1202.97 1577.15 Q1198.92 1581.6 1190.58 1581.6 Q1187.5 1581.6 1184.76 1581.13 Q1182.02 1580.68 1179.44 1579.72 L1179.44 1574.03 Q1182.02 1575.43 1184.54 1576.1 Q1187.05 1576.76 1189.66 1576.76 Q1195.42 1576.76 1198.29 1573.74 Q1201.15 1570.75 1201.15 1564.67 L1201.15 1561.77 Q1199.34 1564.92 1196.5 1566.48 Q1193.67 1568.04 1189.72 1568.04 Q1183.17 1568.04 1179.16 1563.05 Q1175.15 1558.05 1175.15 1549.81 Q1175.15 1541.53 1179.16 1536.53 Q1183.17 1531.54 1189.72 1531.54 Q1193.67 1531.54 1196.5 1533.1 Q1199.34 1534.66 1201.15 1537.81 L1201.15 1532.4 L1207.01 1532.4 L1207.01 1563.62 Z" fill="#000000" fill-rule="evenodd" fill-opacity="1" /><path clip-path="url(#clip030)" d="M1249.56 1548.76 L1249.56 1551.62 L1222.64 1551.62 Q1223.02 1557.67 1226.26 1560.85 Q1229.54 1564 1235.37 1564 Q1238.74 1564 1241.89 1563.17 Q1245.07 1562.35 1248.19 1560.69 L1248.19 1566.23 Q1245.04 1567.57 1241.73 1568.27 Q1238.42 1568.97 1235.02 1568.97 Q1226.49 1568.97 1221.49 1564 Q1216.52 1559.04 1216.52 1550.57 Q1216.52 1541.82 1221.23 1536.69 Q1225.98 1531.54 1234 1531.54 Q1241.19 1531.54 1245.36 1536.18 Q1249.56 1540.8 1249.56 1548.76 M1243.71 1547.04 Q1243.64 1542.23 1241 1539.37 Q1238.39 1536.5 1234.06 1536.5 Q1229.16 1536.5 1226.2 1539.27 Q1223.27 1542.04 1222.83 1547.07 L1243.71 1547.04 Z" fill="#000000" fill-rule="evenodd" fill-opacity="1" /><path clip-path="url(#clip030)" d="M1273.56 1520.52 L1313.76 1520.52 L1313.76 1525.93 L1296.89 1525.93 L1296.89 1568.04 L1290.43 1568.04 L1290.43 1525.93 L1273.56 1525.93 L1273.56 1520.52 Z" fill="#000000" fill-rule="evenodd" fill-opacity="1" /><path clip-path="url(#clip030)" d="M1339.13 1548.76 L1339.13 1551.62 L1312.2 1551.62 Q1312.58 1557.67 1315.83 1560.85 Q1319.11 1564 1324.93 1564 Q1328.31 1564 1331.46 1563.17 Q1334.64 1562.35 1337.76 1560.69 L1337.76 1566.23 Q1334.61 1567.57 1331.3 1568.27 Q1327.99 1568.97 1324.58 1568.97 Q1316.05 1568.97 1311.05 1564 Q1306.09 1559.04 1306.09 1550.57 Q1306.09 1541.82 1310.8 1536.69 Q1315.54 1531.54 1323.56 1531.54 Q1330.76 1531.54 1334.93 1536.18 Q1339.13 1540.8 1339.13 1548.76 M1333.27 1547.04 Q1333.21 1542.23 1330.57 1539.37 Q1327.96 1536.5 1323.63 1536.5 Q1318.73 1536.5 1315.77 1539.27 Q1312.84 1542.04 1312.39 1547.07 L1333.27 1547.04 Z" fill="#000000" fill-rule="evenodd" fill-opacity="1" /><path clip-path="url(#clip030)" d="M1376.49 1539.24 Q1378.69 1535.29 1381.75 1533.41 Q1384.8 1531.54 1388.94 1531.54 Q1394.51 1531.54 1397.53 1535.45 Q1400.56 1539.33 1400.56 1546.53 L1400.56 1568.04 L1394.67 1568.04 L1394.67 1546.72 Q1394.67 1541.59 1392.85 1539.11 Q1391.04 1536.63 1387.32 1536.63 Q1382.76 1536.63 1380.12 1539.65 Q1377.48 1542.68 1377.48 1547.9 L1377.48 1568.04 L1371.59 1568.04 L1371.59 1546.72 Q1371.59 1541.56 1369.78 1539.11 Q1367.96 1536.63 1364.18 1536.63 Q1359.69 1536.63 1357.05 1539.68 Q1354.41 1542.71 1354.41 1547.9 L1354.41 1568.04 L1348.52 1568.04 L1348.52 1532.4 L1354.41 1532.4 L1354.41 1537.93 Q1356.41 1534.66 1359.21 1533.1 Q1362.01 1531.54 1365.86 1531.54 Q1369.75 1531.54 1372.45 1533.51 Q1375.19 1535.48 1376.49 1539.24 Z" fill="#000000" fill-rule="evenodd" fill-opacity="1" /><path clip-path="url(#clip030)" d="M1417.9 1562.7 L1417.9 1581.6 L1412.01 1581.6 L1412.01 1532.4 L1417.9 1532.4 L1417.9 1537.81 Q1419.75 1534.62 1422.55 1533.1 Q1425.38 1531.54 1429.3 1531.54 Q1435.79 1531.54 1439.83 1536.69 Q1443.91 1541.85 1443.91 1550.25 Q1443.91 1558.65 1439.83 1563.81 Q1435.79 1568.97 1429.3 1568.97 Q1425.38 1568.97 1422.55 1567.44 Q1419.75 1565.88 1417.9 1562.7 M1437.83 1550.25 Q1437.83 1543.79 1435.15 1540.13 Q1432.51 1536.44 1427.87 1536.44 Q1423.22 1536.44 1420.55 1540.13 Q1417.9 1543.79 1417.9 1550.25 Q1417.9 1556.71 1420.55 1560.4 Q1423.22 1564.07 1427.87 1564.07 Q1432.51 1564.07 1435.15 1560.4 Q1437.83 1556.71 1437.83 1550.25 Z" fill="#000000" fill-rule="evenodd" fill-opacity="1" /><path clip-path="url(#clip030)" d="M1484.11 1548.76 L1484.11 1551.62 L1457.18 1551.62 Q1457.56 1557.67 1460.81 1560.85 Q1464.09 1564 1469.91 1564 Q1473.28 1564 1476.44 1563.17 Q1479.62 1562.35 1482.74 1560.69 L1482.74 1566.23 Q1479.59 1567.57 1476.28 1568.27 Q1472.97 1568.97 1469.56 1568.97 Q1461.03 1568.97 1456.03 1564 Q1451.07 1559.04 1451.07 1550.57 Q1451.07 1541.82 1455.78 1536.69 Q1460.52 1531.54 1468.54 1531.54 Q1475.74 1531.54 1479.91 1536.18 Q1484.11 1540.8 1484.11 1548.76 M1478.25 1547.04 Q1478.19 1542.23 1475.54 1539.37 Q1472.93 1536.5 1468.61 1536.5 Q1463.7 1536.5 1460.74 1539.27 Q1457.82 1542.04 1457.37 1547.07 L1478.25 1547.04 Z" fill="#000000" fill-rule="evenodd" fill-opacity="1" /><path clip-path="url(#clip030)" d="M1514.38 1537.87 Q1513.39 1537.3 1512.21 1537.04 Q1511.07 1536.76 1509.66 1536.76 Q1504.7 1536.76 1502.03 1540 Q1499.38 1543.22 1499.38 1549.27 L1499.38 1568.04 L1493.5 1568.04 L1493.5 1532.4 L1499.38 1532.4 L1499.38 1537.93 Q1501.23 1534.69 1504.19 1533.13 Q1507.15 1531.54 1511.38 1531.54 Q1511.99 1531.54 1512.72 1531.63 Q1513.45 1531.7 1514.34 1531.85 L1514.38 1537.87 Z" fill="#000000" fill-rule="evenodd" fill-opacity="1" /><path clip-path="url(#clip030)" d="M1536.72 1550.12 Q1529.62 1550.12 1526.88 1551.75 Q1524.15 1553.37 1524.15 1557.29 Q1524.15 1560.4 1526.18 1562.25 Q1528.25 1564.07 1531.79 1564.07 Q1536.66 1564.07 1539.58 1560.63 Q1542.54 1557.16 1542.54 1551.43 L1542.54 1550.12 L1536.72 1550.12 M1548.4 1547.71 L1548.4 1568.04 L1542.54 1568.04 L1542.54 1562.63 Q1540.54 1565.88 1537.55 1567.44 Q1534.55 1568.97 1530.23 1568.97 Q1524.75 1568.97 1521.51 1565.91 Q1518.29 1562.82 1518.29 1557.67 Q1518.29 1551.65 1522.3 1548.6 Q1526.34 1545.54 1534.33 1545.54 L1542.54 1545.54 L1542.54 1544.97 Q1542.54 1540.93 1539.87 1538.73 Q1537.23 1536.5 1532.42 1536.5 Q1529.37 1536.5 1526.47 1537.23 Q1523.57 1537.97 1520.9 1539.43 L1520.9 1534.02 Q1524.12 1532.78 1527.14 1532.17 Q1530.16 1531.54 1533.03 1531.54 Q1540.76 1531.54 1544.58 1535.55 Q1548.4 1539.56 1548.4 1547.71 Z" fill="#000000" fill-rule="evenodd" fill-opacity="1" /><path clip-path="url(#clip030)" d="M1566.26 1522.27 L1566.26 1532.4 L1578.32 1532.4 L1578.32 1536.95 L1566.26 1536.95 L1566.26 1556.3 Q1566.26 1560.66 1567.43 1561.9 Q1568.64 1563.14 1572.3 1563.14 L1578.32 1563.14 L1578.32 1568.04 L1572.3 1568.04 Q1565.52 1568.04 1562.95 1565.53 Q1560.37 1562.98 1560.37 1556.3 L1560.37 1536.95 L1556.07 1536.95 L1556.07 1532.4 L1560.37 1532.4 L1560.37 1522.27 L1566.26 1522.27 Z" fill="#000000" fill-rule="evenodd" fill-opacity="1" /><path clip-path="url(#clip030)" d="M1585.42 1553.98 L1585.42 1532.4 L1591.27 1532.4 L1591.27 1553.75 Q1591.27 1558.81 1593.25 1561.36 Q1595.22 1563.87 1599.17 1563.87 Q1603.91 1563.87 1606.65 1560.85 Q1609.42 1557.83 1609.42 1552.61 L1609.42 1532.4 L1615.27 1532.4 L1615.27 1568.04 L1609.42 1568.04 L1609.42 1562.57 Q1607.28 1565.82 1604.45 1567.41 Q1601.65 1568.97 1597.93 1568.97 Q1591.78 1568.97 1588.6 1565.15 Q1585.42 1561.33 1585.42 1553.98 M1600.15 1531.54 L1600.15 1531.54 Z" fill="#000000" fill-rule="evenodd" fill-opacity="1" /><path clip-path="url(#clip030)" d="M1647.99 1537.87 Q1647.01 1537.3 1645.83 1537.04 Q1644.68 1536.76 1643.28 1536.76 Q1638.32 1536.76 1635.64 1540 Q1633 1543.22 1633 1549.27 L1633 1568.04 L1627.11 1568.04 L1627.11 1532.4 L1633 1532.4 L1633 1537.93 Q1634.85 1534.69 1637.81 1533.13 Q1640.77 1531.54 1645 1531.54 Q1645.6 1531.54 1646.34 1531.63 Q1647.07 1531.7 1647.96 1531.85 L1647.99 1537.87 Z" fill="#000000" fill-rule="evenodd" fill-opacity="1" /><path clip-path="url(#clip030)" d="M1683.19 1548.76 L1683.19 1551.62 L1656.27 1551.62 Q1656.65 1557.67 1659.9 1560.85 Q1663.17 1564 1669 1564 Q1672.37 1564 1675.52 1563.17 Q1678.71 1562.35 1681.83 1560.69 L1681.83 1566.23 Q1678.67 1567.57 1675.36 1568.27 Q1672.05 1568.97 1668.65 1568.97 Q1660.12 1568.97 1655.12 1564 Q1650.16 1559.04 1650.16 1550.57 Q1650.16 1541.82 1654.87 1536.69 Q1659.61 1531.54 1667.63 1531.54 Q1674.82 1531.54 1678.99 1536.18 Q1683.19 1540.8 1683.19 1548.76 M1677.34 1547.04 Q1677.27 1542.23 1674.63 1539.37 Q1672.02 1536.5 1667.69 1536.5 Q1662.79 1536.5 1659.83 1539.27 Q1656.9 1542.04 1656.46 1547.07 L1677.34 1547.04 Z" fill="#000000" fill-rule="evenodd" fill-opacity="1" /><polyline clip-path="url(#clip032)" style="stroke:#000000; stroke-linecap:butt; stroke-linejoin:round; stroke-width:2; stroke-opacity:0.1; fill:none" points="
  316.301,1201.35 2352.76,1201.35 
  "/>
<polyline clip-path="url(#clip032)" style="stroke:#000000; stroke-linecap:butt; stroke-linejoin:round; stroke-width:2; stroke-opacity:0.1; fill:none" points="
  316.301,907.358 2352.76,907.358 
  "/>
<polyline clip-path="url(#clip032)" style="stroke:#000000; stroke-linecap:butt; stroke-linejoin:round; stroke-width:2; stroke-opacity:0.1; fill:none" points="
  316.301,613.367 2352.76,613.367 
  "/>
<polyline clip-path="url(#clip032)" style="stroke:#000000; stroke-linecap:butt; stroke-linejoin:round; stroke-width:2; stroke-opacity:0.1; fill:none" points="
  316.301,319.376 2352.76,319.376 
  "/>
<polyline clip-path="url(#clip030)" style="stroke:#000000; stroke-linecap:butt; stroke-linejoin:round; stroke-width:4; stroke-opacity:1; fill:none" points="
  316.301,1423.18 316.301,123.472 
  "/>
<polyline clip-path="url(#clip030)" style="stroke:#000000; stroke-linecap:butt; stroke-linejoin:round; stroke-width:4; stroke-opacity:1; fill:none" points="
  316.301,1201.35 335.199,1201.35 
  "/>
<polyline clip-path="url(#clip030)" style="stroke:#000000; stroke-linecap:butt; stroke-linejoin:round; stroke-width:4; stroke-opacity:1; fill:none" points="
  316.301,907.358 335.199,907.358 
  "/>
<polyline clip-path="url(#clip030)" style="stroke:#000000; stroke-linecap:butt; stroke-linejoin:round; stroke-width:4; stroke-opacity:1; fill:none" points="
  316.301,613.367 335.199,613.367 
  "/>
<polyline clip-path="url(#clip030)" style="stroke:#000000; stroke-linecap:butt; stroke-linejoin:round; stroke-width:4; stroke-opacity:1; fill:none" points="
  316.301,319.376 335.199,319.376 
  "/>
<path clip-path="url(#clip030)" d="M114.26 1201.8 L143.936 1201.8 L143.936 1205.74 L114.26 1205.74 L114.26 1201.8 Z" fill="#000000" fill-rule="evenodd" fill-opacity="1" /><path clip-path="url(#clip030)" d="M164.028 1187.15 Q160.417 1187.15 158.589 1190.71 Q156.783 1194.25 156.783 1201.38 Q156.783 1208.49 158.589 1212.06 Q160.417 1215.6 164.028 1215.6 Q167.663 1215.6 169.468 1212.06 Q171.297 1208.49 171.297 1201.38 Q171.297 1194.25 169.468 1190.71 Q167.663 1187.15 164.028 1187.15 M164.028 1183.44 Q169.839 1183.44 172.894 1188.05 Q175.973 1192.63 175.973 1201.38 Q175.973 1210.11 172.894 1214.72 Q169.839 1219.3 164.028 1219.3 Q158.218 1219.3 155.14 1214.72 Q152.084 1210.11 152.084 1201.38 Q152.084 1192.63 155.14 1188.05 Q158.218 1183.44 164.028 1183.44 Z" fill="#000000" fill-rule="evenodd" fill-opacity="1" /><path clip-path="url(#clip030)" d="M184.19 1212.75 L189.075 1212.75 L189.075 1218.63 L184.19 1218.63 L184.19 1212.75 Z" fill="#000000" fill-rule="evenodd" fill-opacity="1" /><path clip-path="url(#clip030)" d="M209.26 1187.15 Q205.649 1187.15 203.82 1190.71 Q202.014 1194.25 202.014 1201.38 Q202.014 1208.49 203.82 1212.06 Q205.649 1215.6 209.26 1215.6 Q212.894 1215.6 214.699 1212.06 Q216.528 1208.49 216.528 1201.38 Q216.528 1194.25 214.699 1190.71 Q212.894 1187.15 209.26 1187.15 M209.26 1183.44 Q215.07 1183.44 218.125 1188.05 Q221.204 1192.63 221.204 1201.38 Q221.204 1210.11 218.125 1214.72 Q215.07 1219.3 209.26 1219.3 Q203.449 1219.3 200.371 1214.72 Q197.315 1210.11 197.315 1201.38 Q197.315 1192.63 200.371 1188.05 Q203.449 1183.44 209.26 1183.44 Z" fill="#000000" fill-rule="evenodd" fill-opacity="1" /><path clip-path="url(#clip030)" d="M239.422 1187.15 Q235.81 1187.15 233.982 1190.71 Q232.176 1194.25 232.176 1201.38 Q232.176 1208.49 233.982 1212.06 Q235.81 1215.6 239.422 1215.6 Q243.056 1215.6 244.861 1212.06 Q246.69 1208.49 246.69 1201.38 Q246.69 1194.25 244.861 1190.71 Q243.056 1187.15 239.422 1187.15 M239.422 1183.44 Q245.232 1183.44 248.287 1188.05 Q251.366 1192.63 251.366 1201.38 Q251.366 1210.11 248.287 1214.72 Q245.232 1219.3 239.422 1219.3 Q233.611 1219.3 230.533 1214.72 Q227.477 1210.11 227.477 1201.38 Q227.477 1192.63 230.533 1188.05 Q233.611 1183.44 239.422 1183.44 Z" fill="#000000" fill-rule="evenodd" fill-opacity="1" /><path clip-path="url(#clip030)" d="M260.394 1214.69 L268.032 1214.69 L268.032 1188.33 L259.722 1190 L259.722 1185.74 L267.986 1184.07 L272.662 1184.07 L272.662 1214.69 L280.301 1214.69 L280.301 1218.63 L260.394 1218.63 L260.394 1214.69 Z" fill="#000000" fill-rule="evenodd" fill-opacity="1" /><path clip-path="url(#clip030)" d="M162.802 893.157 Q159.19 893.157 157.362 896.722 Q155.556 900.264 155.556 907.393 Q155.556 914.5 157.362 918.064 Q159.19 921.606 162.802 921.606 Q166.436 921.606 168.241 918.064 Q170.07 914.5 170.07 907.393 Q170.07 900.264 168.241 896.722 Q166.436 893.157 162.802 893.157 M162.802 889.453 Q168.612 889.453 171.667 894.06 Q174.746 898.643 174.746 907.393 Q174.746 916.12 171.667 920.726 Q168.612 925.31 162.802 925.31 Q156.991 925.31 153.913 920.726 Q150.857 916.12 150.857 907.393 Q150.857 898.643 153.913 894.06 Q156.991 889.453 162.802 889.453 Z" fill="#000000" fill-rule="evenodd" fill-opacity="1" /><path clip-path="url(#clip030)" d="M182.963 918.759 L187.848 918.759 L187.848 924.638 L182.963 924.638 L182.963 918.759 Z" fill="#000000" fill-rule="evenodd" fill-opacity="1" /><path clip-path="url(#clip030)" d="M208.033 893.157 Q204.422 893.157 202.593 896.722 Q200.787 900.264 200.787 907.393 Q200.787 914.5 202.593 918.064 Q204.422 921.606 208.033 921.606 Q211.667 921.606 213.473 918.064 Q215.301 914.5 215.301 907.393 Q215.301 900.264 213.473 896.722 Q211.667 893.157 208.033 893.157 M208.033 889.453 Q213.843 889.453 216.898 894.06 Q219.977 898.643 219.977 907.393 Q219.977 916.12 216.898 920.726 Q213.843 925.31 208.033 925.31 Q202.223 925.31 199.144 920.726 Q196.088 916.12 196.088 907.393 Q196.088 898.643 199.144 894.06 Q202.223 889.453 208.033 889.453 Z" fill="#000000" fill-rule="evenodd" fill-opacity="1" /><path clip-path="url(#clip030)" d="M238.195 893.157 Q234.584 893.157 232.755 896.722 Q230.949 900.264 230.949 907.393 Q230.949 914.5 232.755 918.064 Q234.584 921.606 238.195 921.606 Q241.829 921.606 243.634 918.064 Q245.463 914.5 245.463 907.393 Q245.463 900.264 243.634 896.722 Q241.829 893.157 238.195 893.157 M238.195 889.453 Q244.005 889.453 247.06 894.06 Q250.139 898.643 250.139 907.393 Q250.139 916.12 247.06 920.726 Q244.005 925.31 238.195 925.31 Q232.385 925.31 229.306 920.726 Q226.25 916.12 226.25 907.393 Q226.25 898.643 229.306 894.06 Q232.385 889.453 238.195 889.453 Z" fill="#000000" fill-rule="evenodd" fill-opacity="1" /><path clip-path="url(#clip030)" d="M268.357 893.157 Q264.745 893.157 262.917 896.722 Q261.111 900.264 261.111 907.393 Q261.111 914.5 262.917 918.064 Q264.745 921.606 268.357 921.606 Q271.991 921.606 273.796 918.064 Q275.625 914.5 275.625 907.393 Q275.625 900.264 273.796 896.722 Q271.991 893.157 268.357 893.157 M268.357 889.453 Q274.167 889.453 277.222 894.06 Q280.301 898.643 280.301 907.393 Q280.301 916.12 277.222 920.726 Q274.167 925.31 268.357 925.31 Q262.546 925.31 259.468 920.726 Q256.412 916.12 256.412 907.393 Q256.412 898.643 259.468 894.06 Q262.546 889.453 268.357 889.453 Z" fill="#000000" fill-rule="evenodd" fill-opacity="1" /><path clip-path="url(#clip030)" d="M164.028 599.166 Q160.417 599.166 158.589 602.731 Q156.783 606.272 156.783 613.402 Q156.783 620.509 158.589 624.073 Q160.417 627.615 164.028 627.615 Q167.663 627.615 169.468 624.073 Q171.297 620.509 171.297 613.402 Q171.297 606.272 169.468 602.731 Q167.663 599.166 164.028 599.166 M164.028 595.462 Q169.839 595.462 172.894 600.069 Q175.973 604.652 175.973 613.402 Q175.973 622.129 172.894 626.735 Q169.839 631.319 164.028 631.319 Q158.218 631.319 155.14 626.735 Q152.084 622.129 152.084 613.402 Q152.084 604.652 155.14 600.069 Q158.218 595.462 164.028 595.462 Z" fill="#000000" fill-rule="evenodd" fill-opacity="1" /><path clip-path="url(#clip030)" d="M184.19 624.768 L189.075 624.768 L189.075 630.647 L184.19 630.647 L184.19 624.768 Z" fill="#000000" fill-rule="evenodd" fill-opacity="1" /><path clip-path="url(#clip030)" d="M209.26 599.166 Q205.649 599.166 203.82 602.731 Q202.014 606.272 202.014 613.402 Q202.014 620.509 203.82 624.073 Q205.649 627.615 209.26 627.615 Q212.894 627.615 214.699 624.073 Q216.528 620.509 216.528 613.402 Q216.528 606.272 214.699 602.731 Q212.894 599.166 209.26 599.166 M209.26 595.462 Q215.07 595.462 218.125 600.069 Q221.204 604.652 221.204 613.402 Q221.204 622.129 218.125 626.735 Q215.07 631.319 209.26 631.319 Q203.449 631.319 200.371 626.735 Q197.315 622.129 197.315 613.402 Q197.315 604.652 200.371 600.069 Q203.449 595.462 209.26 595.462 Z" fill="#000000" fill-rule="evenodd" fill-opacity="1" /><path clip-path="url(#clip030)" d="M239.422 599.166 Q235.81 599.166 233.982 602.731 Q232.176 606.272 232.176 613.402 Q232.176 620.509 233.982 624.073 Q235.81 627.615 239.422 627.615 Q243.056 627.615 244.861 624.073 Q246.69 620.509 246.69 613.402 Q246.69 606.272 244.861 602.731 Q243.056 599.166 239.422 599.166 M239.422 595.462 Q245.232 595.462 248.287 600.069 Q251.366 604.652 251.366 613.402 Q251.366 622.129 248.287 626.735 Q245.232 631.319 239.422 631.319 Q233.611 631.319 230.533 626.735 Q227.477 622.129 227.477 613.402 Q227.477 604.652 230.533 600.069 Q233.611 595.462 239.422 595.462 Z" fill="#000000" fill-rule="evenodd" fill-opacity="1" /><path clip-path="url(#clip030)" d="M260.394 626.712 L268.032 626.712 L268.032 600.347 L259.722 602.013 L259.722 597.754 L267.986 596.087 L272.662 596.087 L272.662 626.712 L280.301 626.712 L280.301 630.647 L260.394 630.647 L260.394 626.712 Z" fill="#000000" fill-rule="evenodd" fill-opacity="1" /><path clip-path="url(#clip030)" d="M164.399 305.175 Q160.788 305.175 158.959 308.74 Q157.153 312.281 157.153 319.411 Q157.153 326.517 158.959 330.082 Q160.788 333.624 164.399 333.624 Q168.033 333.624 169.839 330.082 Q171.667 326.517 171.667 319.411 Q171.667 312.281 169.839 308.74 Q168.033 305.175 164.399 305.175 M164.399 301.471 Q170.209 301.471 173.264 306.078 Q176.343 310.661 176.343 319.411 Q176.343 328.138 173.264 332.744 Q170.209 337.328 164.399 337.328 Q158.589 337.328 155.51 332.744 Q152.454 328.138 152.454 319.411 Q152.454 310.661 155.51 306.078 Q158.589 301.471 164.399 301.471 Z" fill="#000000" fill-rule="evenodd" fill-opacity="1" /><path clip-path="url(#clip030)" d="M184.561 330.777 L189.445 330.777 L189.445 336.656 L184.561 336.656 L184.561 330.777 Z" fill="#000000" fill-rule="evenodd" fill-opacity="1" /><path clip-path="url(#clip030)" d="M209.63 305.175 Q206.019 305.175 204.19 308.74 Q202.385 312.281 202.385 319.411 Q202.385 326.517 204.19 330.082 Q206.019 333.624 209.63 333.624 Q213.264 333.624 215.07 330.082 Q216.898 326.517 216.898 319.411 Q216.898 312.281 215.07 308.74 Q213.264 305.175 209.63 305.175 M209.63 301.471 Q215.44 301.471 218.496 306.078 Q221.574 310.661 221.574 319.411 Q221.574 328.138 218.496 332.744 Q215.44 337.328 209.63 337.328 Q203.82 337.328 200.741 332.744 Q197.686 328.138 197.686 319.411 Q197.686 310.661 200.741 306.078 Q203.82 301.471 209.63 301.471 Z" fill="#000000" fill-rule="evenodd" fill-opacity="1" /><path clip-path="url(#clip030)" d="M239.792 305.175 Q236.181 305.175 234.352 308.74 Q232.547 312.281 232.547 319.411 Q232.547 326.517 234.352 330.082 Q236.181 333.624 239.792 333.624 Q243.426 333.624 245.232 330.082 Q247.06 326.517 247.06 319.411 Q247.06 312.281 245.232 308.74 Q243.426 305.175 239.792 305.175 M239.792 301.471 Q245.602 301.471 248.658 306.078 Q251.736 310.661 251.736 319.411 Q251.736 328.138 248.658 332.744 Q245.602 337.328 239.792 337.328 Q233.982 337.328 230.903 332.744 Q227.848 328.138 227.848 319.411 Q227.848 310.661 230.903 306.078 Q233.982 301.471 239.792 301.471 Z" fill="#000000" fill-rule="evenodd" fill-opacity="1" /><path clip-path="url(#clip030)" d="M263.982 332.721 L280.301 332.721 L280.301 336.656 L258.357 336.656 L258.357 332.721 Q261.019 329.967 265.602 325.337 Q270.208 320.684 271.389 319.342 Q273.634 316.818 274.514 315.082 Q275.417 313.323 275.417 311.633 Q275.417 308.879 273.472 307.143 Q271.551 305.406 268.449 305.406 Q266.25 305.406 263.796 306.17 Q261.366 306.934 258.588 308.485 L258.588 303.763 Q261.412 302.629 263.866 302.05 Q266.32 301.471 268.357 301.471 Q273.727 301.471 276.921 304.156 Q280.116 306.842 280.116 311.332 Q280.116 313.462 279.306 315.383 Q278.519 317.281 276.412 319.874 Q275.833 320.545 272.732 323.763 Q269.63 326.957 263.982 332.721 Z" fill="#000000" fill-rule="evenodd" fill-opacity="1" /><path clip-path="url(#clip030)" d="M14.479 1139.78 L14.479 1133.93 L64.0042 1133.93 L64.0042 1139.78 L14.479 1139.78 Z" fill="#000000" fill-rule="evenodd" fill-opacity="1" /><path clip-path="url(#clip030)" d="M32.4621 1107.86 Q32.4621 1112.57 36.1542 1115.31 Q39.8145 1118.04 46.212 1118.04 Q52.6095 1118.04 56.3017 1115.34 Q59.9619 1112.6 59.9619 1107.86 Q59.9619 1103.18 56.2698 1100.44 Q52.5777 1097.71 46.212 1097.71 Q39.8781 1097.71 36.186 1100.44 Q32.4621 1103.18 32.4621 1107.86 M27.4968 1107.86 Q27.4968 1100.22 32.4621 1095.86 Q37.4273 1091.5 46.212 1091.5 Q54.9649 1091.5 59.9619 1095.86 Q64.9272 1100.22 64.9272 1107.86 Q64.9272 1115.53 59.9619 1119.89 Q54.9649 1124.22 46.212 1124.22 Q37.4273 1124.22 32.4621 1119.89 Q27.4968 1115.53 27.4968 1107.86 Z" fill="#000000" fill-rule="evenodd" fill-opacity="1" /><path clip-path="url(#clip030)" d="M45.7664 1058.33 Q39.4007 1058.33 35.8996 1060.98 Q32.3984 1063.59 32.3984 1068.33 Q32.3984 1073.04 35.8996 1075.68 Q39.4007 1078.29 45.7664 1078.29 Q52.1003 1078.29 55.6014 1075.68 Q59.1026 1073.04 59.1026 1068.33 Q59.1026 1063.59 55.6014 1060.98 Q52.1003 1058.33 45.7664 1058.33 M59.58 1052.48 Q68.683 1052.48 73.1071 1056.52 Q77.5631 1060.56 77.5631 1068.9 Q77.5631 1071.99 77.0857 1074.73 Q76.6401 1077.46 75.6852 1080.04 L69.9879 1080.04 Q71.3884 1077.46 72.0568 1074.95 Q72.7252 1072.43 72.7252 1069.82 Q72.7252 1064.06 69.7015 1061.2 Q66.7096 1058.33 60.6303 1058.33 L57.7339 1058.33 Q60.885 1060.15 62.4446 1062.98 Q64.0042 1065.81 64.0042 1069.76 Q64.0042 1076.32 59.0071 1080.33 Q54.01 1084.34 45.7664 1084.34 Q37.491 1084.34 32.4939 1080.33 Q27.4968 1076.32 27.4968 1069.76 Q27.4968 1065.81 29.0564 1062.98 Q30.616 1060.15 33.7671 1058.33 L28.3562 1058.33 L28.3562 1052.48 L59.58 1052.48 Z" fill="#000000" fill-rule="evenodd" fill-opacity="1" /><path clip-path="url(#clip030)" d="M14.5426 1026.35 Q21.8632 1030.61 29.0246 1032.68 Q36.186 1034.75 43.5384 1034.75 Q50.8908 1034.75 58.1159 1032.68 Q65.3091 1030.58 72.5979 1026.35 L72.5979 1031.44 Q65.1182 1036.21 57.8931 1038.6 Q50.668 1040.96 43.5384 1040.96 Q36.4406 1040.96 29.2474 1038.6 Q22.0542 1036.25 14.5426 1031.44 L14.5426 1026.35 Z" fill="#000000" fill-rule="evenodd" fill-opacity="1" /><path clip-path="url(#clip030)" d="M16.4842 1014.73 L16.4842 987.421 L21.895 987.421 L21.895 1008.3 L35.8996 1008.3 L35.8996 989.458 L41.3104 989.458 L41.3104 1008.3 L64.0042 1008.3 L64.0042 1014.73 L16.4842 1014.73 Z" fill="#000000" fill-rule="evenodd" fill-opacity="1" /><path clip-path="url(#clip030)" d="M46.0847 967.273 Q46.0847 974.371 47.7079 977.108 Q49.3312 979.845 53.2461 979.845 Q56.3653 979.845 58.2114 977.808 Q60.0256 975.74 60.0256 972.207 Q60.0256 967.337 56.5881 964.409 Q53.1188 961.449 47.3897 961.449 L46.0847 961.449 L46.0847 967.273 M43.6657 955.592 L64.0042 955.592 L64.0042 961.449 L58.5933 961.449 Q61.8398 963.454 63.3994 966.446 Q64.9272 969.437 64.9272 973.766 Q64.9272 979.241 61.8716 982.487 Q58.7843 985.702 53.6281 985.702 Q47.6125 985.702 44.5569 981.691 Q41.5014 977.649 41.5014 969.66 L41.5014 961.449 L40.9285 961.449 Q36.8862 961.449 34.6901 964.122 Q32.4621 966.764 32.4621 971.57 Q32.4621 974.626 33.1941 977.522 Q33.9262 980.418 35.3903 983.092 L29.9795 983.092 Q28.7381 979.877 28.1334 976.854 Q27.4968 973.83 27.4968 970.965 Q27.4968 963.231 31.5072 959.412 Q35.5176 955.592 43.6657 955.592 Z" fill="#000000" fill-rule="evenodd" fill-opacity="1" /><path clip-path="url(#clip030)" d="M33.8307 922.872 Q33.2578 923.859 33.0032 925.037 Q32.7167 926.183 32.7167 927.583 Q32.7167 932.548 35.9632 935.222 Q39.1779 937.864 45.2253 937.864 L64.0042 937.864 L64.0042 943.752 L28.3562 943.752 L28.3562 937.864 L33.8944 937.864 Q30.6479 936.018 29.0883 933.057 Q27.4968 930.097 27.4968 925.864 Q27.4968 925.259 27.5923 924.527 Q27.656 923.795 27.8151 922.904 L33.8307 922.872 Z" fill="#000000" fill-rule="evenodd" fill-opacity="1" /><path clip-path="url(#clip030)" d="M35.1993 890.121 Q31.2526 887.925 29.3747 884.869 Q27.4968 881.814 27.4968 877.676 Q27.4968 872.106 31.4117 869.082 Q35.2948 866.058 42.4881 866.058 L64.0042 866.058 L64.0042 871.947 L42.679 871.947 Q37.5546 871.947 35.072 873.761 Q32.5894 875.575 32.5894 879.299 Q32.5894 883.851 35.6131 886.492 Q38.6368 889.134 43.8567 889.134 L64.0042 889.134 L64.0042 895.022 L42.679 895.022 Q37.5228 895.022 35.072 896.837 Q32.5894 898.651 32.5894 902.438 Q32.5894 906.926 35.6449 909.568 Q38.6686 912.21 43.8567 912.21 L64.0042 912.21 L64.0042 918.098 L28.3562 918.098 L28.3562 912.21 L33.8944 912.21 Q30.616 910.205 29.0564 907.404 Q27.4968 904.603 27.4968 900.752 Q27.4968 896.868 29.4702 894.163 Q31.4436 891.426 35.1993 890.121 Z" fill="#000000" fill-rule="evenodd" fill-opacity="1" /><path clip-path="url(#clip030)" d="M16.4842 833.402 L16.4842 803.356 L21.895 803.356 L21.895 826.973 L35.9632 826.973 L35.9632 804.343 L41.3741 804.343 L41.3741 826.973 L58.5933 826.973 L58.5933 802.783 L64.0042 802.783 L64.0042 833.402 L16.4842 833.402 Z" fill="#000000" fill-rule="evenodd" fill-opacity="1" /><path clip-path="url(#clip030)" d="M35.1993 764.716 Q31.2526 762.52 29.3747 759.465 Q27.4968 756.409 27.4968 752.271 Q27.4968 746.701 31.4117 743.678 Q35.2948 740.654 42.4881 740.654 L64.0042 740.654 L64.0042 746.542 L42.679 746.542 Q37.5546 746.542 35.072 748.356 Q32.5894 750.171 32.5894 753.895 Q32.5894 758.446 35.6131 761.088 Q38.6368 763.73 43.8567 763.73 L64.0042 763.73 L64.0042 769.618 L42.679 769.618 Q37.5228 769.618 35.072 771.432 Q32.5894 773.246 32.5894 777.034 Q32.5894 781.522 35.6449 784.164 Q38.6686 786.805 43.8567 786.805 L64.0042 786.805 L64.0042 792.694 L28.3562 792.694 L28.3562 786.805 L33.8944 786.805 Q30.616 784.8 29.0564 781.999 Q27.4968 779.198 27.4968 775.347 Q27.4968 771.464 29.4702 768.759 Q31.4436 766.021 35.1993 764.716 Z" fill="#000000" fill-rule="evenodd" fill-opacity="1" /><path clip-path="url(#clip030)" d="M58.657 723.307 L77.5631 723.307 L77.5631 729.196 L28.3562 729.196 L28.3562 723.307 L33.7671 723.307 Q30.5842 721.461 29.0564 718.66 Q27.4968 715.828 27.4968 711.913 Q27.4968 705.42 32.6531 701.378 Q37.8093 697.304 46.212 697.304 Q54.6147 697.304 59.771 701.378 Q64.9272 705.42 64.9272 711.913 Q64.9272 715.828 63.3994 718.66 Q61.8398 721.461 58.657 723.307 M46.212 703.383 Q39.7508 703.383 36.0905 706.056 Q32.3984 708.698 32.3984 713.345 Q32.3984 717.992 36.0905 720.666 Q39.7508 723.307 46.212 723.307 Q52.6732 723.307 56.3653 720.666 Q60.0256 717.992 60.0256 713.345 Q60.0256 708.698 56.3653 706.056 Q52.6732 703.383 46.212 703.383 Z" fill="#000000" fill-rule="evenodd" fill-opacity="1" /><path clip-path="url(#clip030)" d="M14.479 687.596 L14.479 681.739 L64.0042 681.739 L64.0042 687.596 L14.479 687.596 Z" fill="#000000" fill-rule="evenodd" fill-opacity="1" /><path clip-path="url(#clip030)" d="M32.4621 655.672 Q32.4621 660.382 36.1542 663.12 Q39.8145 665.857 46.212 665.857 Q52.6095 665.857 56.3017 663.152 Q59.9619 660.414 59.9619 655.672 Q59.9619 650.993 56.2698 648.256 Q52.5777 645.519 46.212 645.519 Q39.8781 645.519 36.186 648.256 Q32.4621 650.993 32.4621 655.672 M27.4968 655.672 Q27.4968 648.033 32.4621 643.672 Q37.4273 639.312 46.212 639.312 Q54.9649 639.312 59.9619 643.672 Q64.9272 648.033 64.9272 655.672 Q64.9272 663.342 59.9619 667.703 Q54.9649 672.032 46.212 672.032 Q37.4273 672.032 32.4621 667.703 Q27.4968 663.342 27.4968 655.672 Z" fill="#000000" fill-rule="evenodd" fill-opacity="1" /><path clip-path="url(#clip030)" d="M67.3143 614.772 Q73.68 617.255 75.6216 619.61 Q77.5631 621.965 77.5631 625.912 L77.5631 630.591 L72.6615 630.591 L72.6615 627.153 Q72.6615 624.734 71.5157 623.398 Q70.3699 622.061 66.1048 620.438 L63.4312 619.387 L28.3562 633.806 L28.3562 627.599 L56.238 616.459 L28.3562 605.319 L28.3562 599.113 L67.3143 614.772 Z" fill="#000000" fill-rule="evenodd" fill-opacity="1" /><path clip-path="url(#clip030)" d="M35.1993 563.274 Q31.2526 561.077 29.3747 558.022 Q27.4968 554.966 27.4968 550.829 Q27.4968 545.259 31.4117 542.235 Q35.2948 539.211 42.4881 539.211 L64.0042 539.211 L64.0042 545.099 L42.679 545.099 Q37.5546 545.099 35.072 546.914 Q32.5894 548.728 32.5894 552.452 Q32.5894 557.003 35.6131 559.645 Q38.6368 562.287 43.8567 562.287 L64.0042 562.287 L64.0042 568.175 L42.679 568.175 Q37.5228 568.175 35.072 569.989 Q32.5894 571.804 32.5894 575.591 Q32.5894 580.079 35.6449 582.721 Q38.6686 585.363 43.8567 585.363 L64.0042 585.363 L64.0042 591.251 L28.3562 591.251 L28.3562 585.363 L33.8944 585.363 Q30.616 583.357 29.0564 580.556 Q27.4968 577.756 27.4968 573.904 Q27.4968 570.021 29.4702 567.316 Q31.4436 564.579 35.1993 563.274 Z" fill="#000000" fill-rule="evenodd" fill-opacity="1" /><path clip-path="url(#clip030)" d="M44.7161 497.038 L47.5806 497.038 L47.5806 523.965 Q53.6281 523.583 56.8109 520.337 Q59.9619 517.059 59.9619 511.234 Q59.9619 507.86 59.1344 504.709 Q58.3069 501.526 56.6518 498.407 L62.1899 498.407 Q63.5267 501.558 64.227 504.868 Q64.9272 508.178 64.9272 511.584 Q64.9272 520.114 59.9619 525.111 Q54.9967 530.076 46.5303 530.076 Q37.7774 530.076 32.6531 525.366 Q27.4968 520.623 27.4968 512.603 Q27.4968 505.409 32.1438 501.24 Q36.7589 497.038 44.7161 497.038 M42.9973 502.895 Q38.1912 502.959 35.3266 505.6 Q32.4621 508.21 32.4621 512.539 Q32.4621 517.44 35.2312 520.401 Q38.0002 523.329 43.0292 523.774 L42.9973 502.895 Z" fill="#000000" fill-rule="evenodd" fill-opacity="1" /><path clip-path="url(#clip030)" d="M42.4881 457.794 L64.0042 457.794 L64.0042 463.65 L42.679 463.65 Q37.6183 463.65 35.1038 465.624 Q32.5894 467.597 32.5894 471.544 Q32.5894 476.286 35.6131 479.023 Q38.6368 481.761 43.8567 481.761 L64.0042 481.761 L64.0042 487.649 L28.3562 487.649 L28.3562 481.761 L33.8944 481.761 Q30.6797 479.66 29.0883 476.827 Q27.4968 473.963 27.4968 470.239 Q27.4968 464.096 31.3163 460.945 Q35.1038 457.794 42.4881 457.794 Z" fill="#000000" fill-rule="evenodd" fill-opacity="1" /><path clip-path="url(#clip030)" d="M18.2347 440.32 L28.3562 440.32 L28.3562 428.257 L32.9077 428.257 L32.9077 440.32 L52.2594 440.32 Q56.6199 440.32 57.8613 439.142 Q59.1026 437.933 59.1026 434.273 L59.1026 428.257 L64.0042 428.257 L64.0042 434.273 Q64.0042 441.052 61.4897 443.63 Q58.9434 446.208 52.2594 446.208 L32.9077 446.208 L32.9077 450.505 L28.3562 450.505 L28.3562 446.208 L18.2347 446.208 L18.2347 440.32 Z" fill="#000000" fill-rule="evenodd" fill-opacity="1" /><path clip-path="url(#clip030)" d="M14.5426 421.477 L14.5426 416.385 Q22.0542 411.611 29.2474 409.255 Q36.4406 406.868 43.5384 406.868 Q50.668 406.868 57.8931 409.255 Q65.1182 411.611 72.5979 416.385 L72.5979 421.477 Q65.3091 417.244 58.1159 415.175 Q50.8908 413.075 43.5384 413.075 Q36.186 413.075 29.0246 415.175 Q21.8632 417.244 14.5426 421.477 Z" fill="#000000" fill-rule="evenodd" fill-opacity="1" /><path clip-path="url(#clip030)" d="M189.905 43.6931 L189.905 65.8515 L203.03 65.8515 Q209.633 65.8515 212.793 63.1374 Q215.993 60.3828 215.993 54.752 Q215.993 49.0808 212.793 46.4072 Q209.633 43.6931 203.03 43.6931 L189.905 43.6931 M189.905 18.8205 L189.905 37.0496 L202.017 37.0496 Q208.012 37.0496 210.929 34.8216 Q213.886 32.5531 213.886 27.935 Q213.886 23.3575 210.929 21.089 Q208.012 18.8205 202.017 18.8205 L189.905 18.8205 M181.722 12.096 L202.625 12.096 Q211.982 12.096 217.046 15.9849 Q222.11 19.8737 222.11 27.0438 Q222.11 32.5936 219.517 35.8748 Q216.924 39.156 211.901 39.9662 Q217.937 41.2625 221.259 45.3944 Q224.621 49.4858 224.621 55.6432 Q224.621 63.745 219.112 68.1605 Q213.603 72.576 203.435 72.576 L181.722 72.576 L181.722 12.096 Z" fill="#000000" fill-rule="evenodd" fill-opacity="1" /><path clip-path="url(#clip030)" d="M238.313 27.2059 L245.767 27.2059 L245.767 72.576 L238.313 72.576 L238.313 27.2059 M238.313 9.54393 L245.767 9.54393 L245.767 18.9825 L238.313 18.9825 L238.313 9.54393 Z" fill="#000000" fill-rule="evenodd" fill-opacity="1" /><path clip-path="url(#clip030)" d="M299.077 45.1919 L299.077 72.576 L291.623 72.576 L291.623 45.4349 Q291.623 38.994 289.112 35.7938 Q286.6 32.5936 281.577 32.5936 Q275.541 32.5936 272.057 36.4419 Q268.573 40.2903 268.573 46.9338 L268.573 72.576 L261.079 72.576 L261.079 27.2059 L268.573 27.2059 L268.573 34.2544 Q271.247 30.163 274.852 28.1376 Q278.498 26.1121 283.238 26.1121 Q291.056 26.1121 295.066 30.9732 Q299.077 35.7938 299.077 45.1919 Z" fill="#000000" fill-rule="evenodd" fill-opacity="1" /><path clip-path="url(#clip030)" d="M351.658 45.1919 L351.658 72.576 L344.204 72.576 L344.204 45.4349 Q344.204 38.994 341.692 35.7938 Q339.181 32.5936 334.158 32.5936 Q328.122 32.5936 324.638 36.4419 Q321.154 40.2903 321.154 46.9338 L321.154 72.576 L313.66 72.576 L313.66 27.2059 L321.154 27.2059 L321.154 34.2544 Q323.828 30.163 327.433 28.1376 Q331.079 26.1121 335.818 26.1121 Q343.637 26.1121 347.647 30.9732 Q351.658 35.7938 351.658 45.1919 Z" fill="#000000" fill-rule="evenodd" fill-opacity="1" /><path clip-path="url(#clip030)" d="M405.332 48.0275 L405.332 51.6733 L371.061 51.6733 Q371.547 59.3701 375.679 63.421 Q379.852 67.4314 387.265 67.4314 Q391.559 67.4314 395.569 66.3781 Q399.62 65.3249 403.59 63.2184 L403.59 70.267 Q399.58 71.9684 395.367 72.8596 Q391.154 73.7508 386.819 73.7508 Q375.963 73.7508 369.603 67.4314 Q363.284 61.1119 363.284 50.3365 Q363.284 39.1965 369.279 32.6746 Q375.315 26.1121 385.523 26.1121 Q394.678 26.1121 399.985 32.0264 Q405.332 37.9003 405.332 48.0275 M397.878 45.84 Q397.797 39.7232 394.435 36.0774 Q391.113 32.4315 385.604 32.4315 Q379.366 32.4315 375.598 35.9558 Q371.872 39.4801 371.304 45.8805 L397.878 45.84 Z" fill="#000000" fill-rule="evenodd" fill-opacity="1" /><path clip-path="url(#clip030)" d="M447.421 34.0924 L447.421 9.54393 L454.875 9.54393 L454.875 72.576 L447.421 72.576 L447.421 65.7705 Q445.071 69.8214 441.466 71.8063 Q437.901 73.7508 432.878 73.7508 Q424.655 73.7508 419.47 67.1883 Q414.325 60.6258 414.325 49.9314 Q414.325 39.2371 419.47 32.6746 Q424.655 26.1121 432.878 26.1121 Q437.901 26.1121 441.466 28.0971 Q445.071 30.0415 447.421 34.0924 M422.022 49.9314 Q422.022 58.1548 425.384 62.8538 Q428.787 67.5124 434.701 67.5124 Q440.615 67.5124 444.018 62.8538 Q447.421 58.1548 447.421 49.9314 Q447.421 41.7081 444.018 37.0496 Q440.615 32.3505 434.701 32.3505 Q428.787 32.3505 425.384 37.0496 Q422.022 41.7081 422.022 49.9314 Z" fill="#000000" fill-rule="evenodd" fill-opacity="1" /><path clip-path="url(#clip030)" d="M488.538 12.096 L539.701 12.096 L539.701 18.9825 L518.231 18.9825 L518.231 72.576 L510.007 72.576 L510.007 18.9825 L488.538 18.9825 L488.538 12.096 Z" fill="#000000" fill-rule="evenodd" fill-opacity="1" /><path clip-path="url(#clip030)" d="M571.986 48.0275 L571.986 51.6733 L537.716 51.6733 Q538.202 59.3701 542.334 63.421 Q546.506 67.4314 553.919 67.4314 Q558.213 67.4314 562.224 66.3781 Q566.274 65.3249 570.244 63.2184 L570.244 70.267 Q566.234 71.9684 562.021 72.8596 Q557.808 73.7508 553.474 73.7508 Q542.617 73.7508 536.257 67.4314 Q529.938 61.1119 529.938 50.3365 Q529.938 39.1965 535.933 32.6746 Q541.969 26.1121 552.177 26.1121 Q561.332 26.1121 566.639 32.0264 Q571.986 37.9003 571.986 48.0275 M564.533 45.84 Q564.452 39.7232 561.089 36.0774 Q557.768 32.4315 552.258 32.4315 Q546.02 32.4315 542.253 35.9558 Q538.526 39.4801 537.959 45.8805 L564.533 45.84 Z" fill="#000000" fill-rule="evenodd" fill-opacity="1" /><path clip-path="url(#clip030)" d="M619.544 35.9153 Q622.339 30.8922 626.228 28.5022 Q630.117 26.1121 635.383 26.1121 Q642.472 26.1121 646.32 31.0947 Q650.169 36.0368 650.169 45.1919 L650.169 72.576 L642.674 72.576 L642.674 45.4349 Q642.674 38.913 640.365 35.7533 Q638.056 32.5936 633.317 32.5936 Q627.524 32.5936 624.162 36.4419 Q620.8 40.2903 620.8 46.9338 L620.8 72.576 L613.305 72.576 L613.305 45.4349 Q613.305 38.8725 610.996 35.7533 Q608.687 32.5936 603.867 32.5936 Q598.155 32.5936 594.793 36.4824 Q591.431 40.3308 591.431 46.9338 L591.431 72.576 L583.936 72.576 L583.936 27.2059 L591.431 27.2059 L591.431 34.2544 Q593.983 30.082 597.547 28.0971 Q601.112 26.1121 606.014 26.1121 Q610.956 26.1121 614.399 28.6237 Q617.883 31.1352 619.544 35.9153 Z" fill="#000000" fill-rule="evenodd" fill-opacity="1" /><path clip-path="url(#clip030)" d="M672.246 65.7705 L672.246 89.8329 L664.752 89.8329 L664.752 27.2059 L672.246 27.2059 L672.246 34.0924 Q674.596 30.0415 678.16 28.0971 Q681.766 26.1121 686.748 26.1121 Q695.012 26.1121 700.157 32.6746 Q705.342 39.2371 705.342 49.9314 Q705.342 60.6258 700.157 67.1883 Q695.012 73.7508 686.748 73.7508 Q681.766 73.7508 678.16 71.8063 Q674.596 69.8214 672.246 65.7705 M697.605 49.9314 Q697.605 41.7081 694.202 37.0496 Q690.84 32.3505 684.925 32.3505 Q679.011 32.3505 675.608 37.0496 Q672.246 41.7081 672.246 49.9314 Q672.246 58.1548 675.608 62.8538 Q679.011 67.5124 684.925 67.5124 Q690.84 67.5124 694.202 62.8538 Q697.605 58.1548 697.605 49.9314 Z" fill="#000000" fill-rule="evenodd" fill-opacity="1" /><path clip-path="url(#clip030)" d="M756.505 48.0275 L756.505 51.6733 L722.234 51.6733 Q722.72 59.3701 726.852 63.421 Q731.025 67.4314 738.438 67.4314 Q742.732 67.4314 746.742 66.3781 Q750.793 65.3249 754.763 63.2184 L754.763 70.267 Q750.753 71.9684 746.54 72.8596 Q742.327 73.7508 737.992 73.7508 Q727.136 73.7508 720.776 67.4314 Q714.457 61.1119 714.457 50.3365 Q714.457 39.1965 720.452 32.6746 Q726.488 26.1121 736.696 26.1121 Q745.851 26.1121 751.158 32.0264 Q756.505 37.9003 756.505 48.0275 M749.051 45.84 Q748.97 39.7232 745.608 36.0774 Q742.286 32.4315 736.777 32.4315 Q730.539 32.4315 726.771 35.9558 Q723.044 39.4801 722.477 45.8805 L749.051 45.84 Z" fill="#000000" fill-rule="evenodd" fill-opacity="1" /><path clip-path="url(#clip030)" d="M795.029 34.1734 Q793.773 33.4443 792.274 33.1202 Q790.816 32.7556 789.034 32.7556 Q782.714 32.7556 779.311 36.8875 Q775.949 40.9789 775.949 48.6757 L775.949 72.576 L768.455 72.576 L768.455 27.2059 L775.949 27.2059 L775.949 34.2544 Q778.299 30.1225 782.066 28.1376 Q785.833 26.1121 791.221 26.1121 Q791.991 26.1121 792.923 26.2337 Q793.854 26.3147 794.988 26.5172 L795.029 34.1734 Z" fill="#000000" fill-rule="evenodd" fill-opacity="1" /><path clip-path="url(#clip030)" d="M823.466 49.7694 Q814.433 49.7694 810.949 51.8354 Q807.465 53.9013 807.465 58.8839 Q807.465 62.8538 810.058 65.2034 Q812.691 67.5124 817.187 67.5124 Q823.385 67.5124 827.112 63.1374 Q830.879 58.7219 830.879 51.4303 L830.879 49.7694 L823.466 49.7694 M838.333 46.6907 L838.333 72.576 L830.879 72.576 L830.879 65.6895 Q828.327 69.8214 824.52 71.8063 Q820.712 73.7508 815.202 73.7508 Q808.235 73.7508 804.103 69.8619 Q800.012 65.9325 800.012 59.3701 Q800.012 51.7138 805.116 47.825 Q810.26 43.9361 820.428 43.9361 L830.879 43.9361 L830.879 43.2069 Q830.879 38.0623 827.477 35.2672 Q824.114 32.4315 817.998 32.4315 Q814.109 32.4315 810.422 33.3632 Q806.736 34.295 803.333 36.1584 L803.333 29.2718 Q807.425 27.692 811.273 26.9223 Q815.121 26.1121 818.767 26.1121 Q828.611 26.1121 833.472 31.2163 Q838.333 36.3204 838.333 46.6907 Z" fill="#000000" fill-rule="evenodd" fill-opacity="1" /><path clip-path="url(#clip030)" d="M861.059 14.324 L861.059 27.2059 L876.412 27.2059 L876.412 32.9987 L861.059 32.9987 L861.059 57.6282 Q861.059 63.1779 862.558 64.7578 Q864.097 66.3376 868.755 66.3376 L876.412 66.3376 L876.412 72.576 L868.755 72.576 Q860.127 72.576 856.846 69.3758 Q853.565 66.1351 853.565 57.6282 L853.565 32.9987 L848.096 32.9987 L848.096 27.2059 L853.565 27.2059 L853.565 14.324 L861.059 14.324 Z" fill="#000000" fill-rule="evenodd" fill-opacity="1" /><path clip-path="url(#clip030)" d="M885.445 54.671 L885.445 27.2059 L892.899 27.2059 L892.899 54.3874 Q892.899 60.8284 895.41 64.0691 Q897.922 67.2693 902.945 67.2693 Q908.981 67.2693 912.465 63.421 Q915.989 59.5726 915.989 52.9291 L915.989 27.2059 L923.443 27.2059 L923.443 72.576 L915.989 72.576 L915.989 65.6084 Q913.275 69.7404 909.67 71.7658 Q906.105 73.7508 901.365 73.7508 Q893.547 73.7508 889.496 68.8897 Q885.445 64.0286 885.445 54.671 M904.201 26.1121 L904.201 26.1121 Z" fill="#000000" fill-rule="evenodd" fill-opacity="1" /><path clip-path="url(#clip030)" d="M965.086 34.1734 Q963.83 33.4443 962.331 33.1202 Q960.873 32.7556 959.091 32.7556 Q952.771 32.7556 949.368 36.8875 Q946.006 40.9789 946.006 48.6757 L946.006 72.576 L938.512 72.576 L938.512 27.2059 L946.006 27.2059 L946.006 34.2544 Q948.356 30.1225 952.123 28.1376 Q955.89 26.1121 961.278 26.1121 Q962.048 26.1121 962.979 26.2337 Q963.911 26.3147 965.045 26.5172 L965.086 34.1734 Z" fill="#000000" fill-rule="evenodd" fill-opacity="1" /><path clip-path="url(#clip030)" d="M1009.89 48.0275 L1009.89 51.6733 L975.618 51.6733 Q976.104 59.3701 980.236 63.421 Q984.409 67.4314 991.822 67.4314 Q996.116 67.4314 1000.13 66.3781 Q1004.18 65.3249 1008.15 63.2184 L1008.15 70.267 Q1004.14 71.9684 999.924 72.8596 Q995.711 73.7508 991.376 73.7508 Q980.52 73.7508 974.16 67.4314 Q967.841 61.1119 967.841 50.3365 Q967.841 39.1965 973.836 32.6746 Q979.872 26.1121 990.08 26.1121 Q999.235 26.1121 1004.54 32.0264 Q1009.89 37.9003 1009.89 48.0275 M1002.44 45.84 Q1002.35 39.7232 998.992 36.0774 Q995.67 32.4315 990.161 32.4315 Q983.923 32.4315 980.155 35.9558 Q976.428 39.4801 975.861 45.8805 L1002.44 45.84 Z" fill="#000000" fill-rule="evenodd" fill-opacity="1" /><path clip-path="url(#clip030)" d="M1077.5 44.2197 Q1080.13 45.1109 1082.6 48.0275 Q1085.11 50.9442 1087.63 56.0483 L1095.93 72.576 L1087.14 72.576 L1079.4 57.061 Q1076.4 50.9847 1073.57 48.9997 Q1070.77 47.0148 1065.91 47.0148 L1057 47.0148 L1057 72.576 L1048.82 72.576 L1048.82 12.096 L1067.29 12.096 Q1077.66 12.096 1082.76 16.4305 Q1087.87 20.7649 1087.87 29.5149 Q1087.87 35.2267 1085.2 38.994 Q1082.56 42.7613 1077.5 44.2197 M1057 18.8205 L1057 40.2903 L1067.29 40.2903 Q1073.2 40.2903 1076.2 37.5762 Q1079.24 34.8216 1079.24 29.5149 Q1079.24 24.2082 1076.2 21.5346 Q1073.2 18.8205 1067.29 18.8205 L1057 18.8205 Z" fill="#000000" fill-rule="evenodd" fill-opacity="1" /><path clip-path="url(#clip030)" d="M1141.22 48.0275 L1141.22 51.6733 L1106.95 51.6733 Q1107.43 59.3701 1111.57 63.421 Q1115.74 67.4314 1123.15 67.4314 Q1127.45 67.4314 1131.46 66.3781 Q1135.51 65.3249 1139.48 63.2184 L1139.48 70.267 Q1135.47 71.9684 1131.25 72.8596 Q1127.04 73.7508 1122.71 73.7508 Q1111.85 73.7508 1105.49 67.4314 Q1099.17 61.1119 1099.17 50.3365 Q1099.17 39.1965 1105.17 32.6746 Q1111.2 26.1121 1121.41 26.1121 Q1130.57 26.1121 1135.87 32.0264 Q1141.22 37.9003 1141.22 48.0275 M1133.77 45.84 Q1133.68 39.7232 1130.32 36.0774 Q1127 32.4315 1121.49 32.4315 Q1115.25 32.4315 1111.49 35.9558 Q1107.76 39.4801 1107.19 45.8805 L1133.77 45.84 Z" fill="#000000" fill-rule="evenodd" fill-opacity="1" /><path clip-path="url(#clip030)" d="M1182.38 28.5427 L1182.38 35.5912 Q1179.22 33.9709 1175.81 33.1607 Q1172.41 32.3505 1168.77 32.3505 Q1163.22 32.3505 1160.42 34.0519 Q1157.67 35.7533 1157.67 39.156 Q1157.67 41.7486 1159.65 43.2475 Q1161.64 44.7058 1167.63 46.0426 L1170.18 46.6097 Q1178.12 48.3111 1181.44 51.4303 Q1184.81 54.509 1184.81 60.0587 Q1184.81 66.3781 1179.78 70.0644 Q1174.8 73.7508 1166.05 73.7508 Q1162.41 73.7508 1158.44 73.0216 Q1154.51 72.3329 1150.13 70.9151 L1150.13 63.2184 Q1154.26 65.3654 1158.27 66.4591 Q1162.28 67.5124 1166.21 67.5124 Q1171.48 67.5124 1174.32 65.73 Q1177.15 63.9071 1177.15 60.6258 Q1177.15 57.5877 1175.08 55.9673 Q1173.06 54.3469 1166.13 52.8481 L1163.54 52.2405 Q1156.61 50.7821 1153.53 47.7845 Q1150.46 44.7463 1150.46 39.4801 Q1150.46 33.0797 1154.99 29.5959 Q1159.53 26.1121 1167.87 26.1121 Q1172.01 26.1121 1175.65 26.7198 Q1179.3 27.3274 1182.38 28.5427 Z" fill="#000000" fill-rule="evenodd" fill-opacity="1" /><path clip-path="url(#clip030)" d="M1203.89 65.7705 L1203.89 89.8329 L1196.39 89.8329 L1196.39 27.2059 L1203.89 27.2059 L1203.89 34.0924 Q1206.24 30.0415 1209.8 28.0971 Q1213.41 26.1121 1218.39 26.1121 Q1226.65 26.1121 1231.8 32.6746 Q1236.98 39.2371 1236.98 49.9314 Q1236.98 60.6258 1231.8 67.1883 Q1226.65 73.7508 1218.39 73.7508 Q1213.41 73.7508 1209.8 71.8063 Q1206.24 69.8214 1203.89 65.7705 M1229.25 49.9314 Q1229.25 41.7081 1225.84 37.0496 Q1222.48 32.3505 1216.57 32.3505 Q1210.65 32.3505 1207.25 37.0496 Q1203.89 41.7081 1203.89 49.9314 Q1203.89 58.1548 1207.25 62.8538 Q1210.65 67.5124 1216.57 67.5124 Q1222.48 67.5124 1225.84 62.8538 Q1229.25 58.1548 1229.25 49.9314 Z" fill="#000000" fill-rule="evenodd" fill-opacity="1" /><path clip-path="url(#clip030)" d="M1266.92 32.4315 Q1260.92 32.4315 1257.44 37.1306 Q1253.96 41.7891 1253.96 49.9314 Q1253.96 58.0738 1257.4 62.7728 Q1260.88 67.4314 1266.92 67.4314 Q1272.87 67.4314 1276.36 62.7323 Q1279.84 58.0333 1279.84 49.9314 Q1279.84 41.8701 1276.36 37.1711 Q1272.87 32.4315 1266.92 32.4315 M1266.92 26.1121 Q1276.64 26.1121 1282.19 32.4315 Q1287.74 38.7509 1287.74 49.9314 Q1287.74 61.0714 1282.19 67.4314 Q1276.64 73.7508 1266.92 73.7508 Q1257.16 73.7508 1251.61 67.4314 Q1246.1 61.0714 1246.1 49.9314 Q1246.1 38.7509 1251.61 32.4315 Q1257.16 26.1121 1266.92 26.1121 Z" fill="#000000" fill-rule="evenodd" fill-opacity="1" /><path clip-path="url(#clip030)" d="M1337.81 45.1919 L1337.81 72.576 L1330.36 72.576 L1330.36 45.4349 Q1330.36 38.994 1327.84 35.7938 Q1325.33 32.5936 1320.31 32.5936 Q1314.27 32.5936 1310.79 36.4419 Q1307.31 40.2903 1307.31 46.9338 L1307.31 72.576 L1299.81 72.576 L1299.81 27.2059 L1307.31 27.2059 L1307.31 34.2544 Q1309.98 30.163 1313.59 28.1376 Q1317.23 26.1121 1321.97 26.1121 Q1329.79 26.1121 1333.8 30.9732 Q1337.81 35.7938 1337.81 45.1919 Z" fill="#000000" fill-rule="evenodd" fill-opacity="1" /><path clip-path="url(#clip030)" d="M1381.6 28.5427 L1381.6 35.5912 Q1378.44 33.9709 1375.04 33.1607 Q1371.63 32.3505 1367.99 32.3505 Q1362.44 32.3505 1359.64 34.0519 Q1356.89 35.7533 1356.89 39.156 Q1356.89 41.7486 1358.87 43.2475 Q1360.86 44.7058 1366.85 46.0426 L1369.41 46.6097 Q1377.35 48.3111 1380.67 51.4303 Q1384.03 54.509 1384.03 60.0587 Q1384.03 66.3781 1379.01 70.0644 Q1374.02 73.7508 1365.27 73.7508 Q1361.63 73.7508 1357.66 73.0216 Q1353.73 72.3329 1349.35 70.9151 L1349.35 63.2184 Q1353.49 65.3654 1357.5 66.4591 Q1361.51 67.5124 1365.44 67.5124 Q1370.7 67.5124 1373.54 65.73 Q1376.37 63.9071 1376.37 60.6258 Q1376.37 57.5877 1374.31 55.9673 Q1372.28 54.3469 1365.36 52.8481 L1362.76 52.2405 Q1355.84 50.7821 1352.76 47.7845 Q1349.68 44.7463 1349.68 39.4801 Q1349.68 33.0797 1354.22 29.5959 Q1358.75 26.1121 1367.1 26.1121 Q1371.23 26.1121 1374.88 26.7198 Q1378.52 27.3274 1381.6 28.5427 Z" fill="#000000" fill-rule="evenodd" fill-opacity="1" /><path clip-path="url(#clip030)" d="M1434.71 48.0275 L1434.71 51.6733 L1400.44 51.6733 Q1400.92 59.3701 1405.05 63.421 Q1409.23 67.4314 1416.64 67.4314 Q1420.93 67.4314 1424.94 66.3781 Q1429 65.3249 1432.97 63.2184 L1432.97 70.267 Q1428.95 71.9684 1424.74 72.8596 Q1420.53 73.7508 1416.19 73.7508 Q1405.34 73.7508 1398.98 67.4314 Q1392.66 61.1119 1392.66 50.3365 Q1392.66 39.1965 1398.65 32.6746 Q1404.69 26.1121 1414.9 26.1121 Q1424.05 26.1121 1429.36 32.0264 Q1434.71 37.9003 1434.71 48.0275 M1427.25 45.84 Q1427.17 39.7232 1423.81 36.0774 Q1420.49 32.4315 1414.98 32.4315 Q1408.74 32.4315 1404.97 35.9558 Q1401.25 39.4801 1400.68 45.8805 L1427.25 45.84 Z" fill="#000000" fill-rule="evenodd" fill-opacity="1" /><path clip-path="url(#clip030)" d="M1448.84 62.2867 L1457.39 62.2867 L1457.39 72.576 L1448.84 72.576 L1448.84 62.2867 M1448.84 29.6769 L1457.39 29.6769 L1457.39 39.9662 L1448.84 39.9662 L1448.84 29.6769 Z" fill="#000000" fill-rule="evenodd" fill-opacity="1" /><path clip-path="url(#clip030)" d="M1501.59 12.096 L1536.34 12.096 L1536.34 18.9825 L1509.77 18.9825 L1509.77 36.8065 L1533.75 36.8065 L1533.75 43.6931 L1509.77 43.6931 L1509.77 72.576 L1501.59 72.576 L1501.59 12.096 Z" fill="#000000" fill-rule="evenodd" fill-opacity="1" /><path clip-path="url(#clip030)" d="M1561.99 49.7694 Q1552.95 49.7694 1549.47 51.8354 Q1545.99 53.9013 1545.99 58.8839 Q1545.99 62.8538 1548.58 65.2034 Q1551.21 67.5124 1555.71 67.5124 Q1561.91 67.5124 1565.63 63.1374 Q1569.4 58.7219 1569.4 51.4303 L1569.4 49.7694 L1561.99 49.7694 M1576.85 46.6907 L1576.85 72.576 L1569.4 72.576 L1569.4 65.6895 Q1566.85 69.8214 1563.04 71.8063 Q1559.23 73.7508 1553.72 73.7508 Q1546.76 73.7508 1542.62 69.8619 Q1538.53 65.9325 1538.53 59.3701 Q1538.53 51.7138 1543.64 47.825 Q1548.78 43.9361 1558.95 43.9361 L1569.4 43.9361 L1569.4 43.2069 Q1569.4 38.0623 1566 35.2672 Q1562.63 32.4315 1556.52 32.4315 Q1552.63 32.4315 1548.94 33.3632 Q1545.26 34.295 1541.85 36.1584 L1541.85 29.2718 Q1545.95 27.692 1549.79 26.9223 Q1553.64 26.1121 1557.29 26.1121 Q1567.13 26.1121 1571.99 31.2163 Q1576.85 36.3204 1576.85 46.6907 Z" fill="#000000" fill-rule="evenodd" fill-opacity="1" /><path clip-path="url(#clip030)" d="M1618.5 34.1734 Q1617.24 33.4443 1615.74 33.1202 Q1614.28 32.7556 1612.5 32.7556 Q1606.18 32.7556 1602.78 36.8875 Q1599.42 40.9789 1599.42 48.6757 L1599.42 72.576 L1591.92 72.576 L1591.92 27.2059 L1599.42 27.2059 L1599.42 34.2544 Q1601.77 30.1225 1605.53 28.1376 Q1609.3 26.1121 1614.69 26.1121 Q1615.46 26.1121 1616.39 26.2337 Q1617.32 26.3147 1618.46 26.5172 L1618.5 34.1734 Z" fill="#000000" fill-rule="evenodd" fill-opacity="1" /><path clip-path="url(#clip030)" d="M1660.18 35.9153 Q1662.98 30.8922 1666.86 28.5022 Q1670.75 26.1121 1676.02 26.1121 Q1683.11 26.1121 1686.96 31.0947 Q1690.81 36.0368 1690.81 45.1919 L1690.81 72.576 L1683.31 72.576 L1683.31 45.4349 Q1683.31 38.913 1681 35.7533 Q1678.69 32.5936 1673.95 32.5936 Q1668.16 32.5936 1664.8 36.4419 Q1661.44 40.2903 1661.44 46.9338 L1661.44 72.576 L1653.94 72.576 L1653.94 45.4349 Q1653.94 38.8725 1651.63 35.7533 Q1649.32 32.5936 1644.5 32.5936 Q1638.79 32.5936 1635.43 36.4824 Q1632.07 40.3308 1632.07 46.9338 L1632.07 72.576 L1624.57 72.576 L1624.57 27.2059 L1632.07 27.2059 L1632.07 34.2544 Q1634.62 30.082 1638.18 28.0971 Q1641.75 26.1121 1646.65 26.1121 Q1651.59 26.1121 1655.04 28.6237 Q1658.52 31.1352 1660.18 35.9153 Z" fill="#000000" fill-rule="evenodd" fill-opacity="1" /><path clip-path="url(#clip030)" d="M1732.37 12.096 L1770.61 12.096 L1770.61 18.9825 L1740.55 18.9825 L1740.55 36.8875 L1769.35 36.8875 L1769.35 43.7741 L1740.55 43.7741 L1740.55 65.6895 L1771.34 65.6895 L1771.34 72.576 L1732.37 72.576 L1732.37 12.096 Z" fill="#000000" fill-rule="evenodd" fill-opacity="1" /><path clip-path="url(#clip030)" d="M1819.79 35.9153 Q1822.58 30.8922 1826.47 28.5022 Q1830.36 26.1121 1835.63 26.1121 Q1842.71 26.1121 1846.56 31.0947 Q1850.41 36.0368 1850.41 45.1919 L1850.41 72.576 L1842.92 72.576 L1842.92 45.4349 Q1842.92 38.913 1840.61 35.7533 Q1838.3 32.5936 1833.56 32.5936 Q1827.77 32.5936 1824.4 36.4419 Q1821.04 40.2903 1821.04 46.9338 L1821.04 72.576 L1813.55 72.576 L1813.55 45.4349 Q1813.55 38.8725 1811.24 35.7533 Q1808.93 32.5936 1804.11 32.5936 Q1798.4 32.5936 1795.04 36.4824 Q1791.67 40.3308 1791.67 46.9338 L1791.67 72.576 L1784.18 72.576 L1784.18 27.2059 L1791.67 27.2059 L1791.67 34.2544 Q1794.23 30.082 1797.79 28.0971 Q1801.35 26.1121 1806.26 26.1121 Q1811.2 26.1121 1814.64 28.6237 Q1818.13 31.1352 1819.79 35.9153 Z" fill="#000000" fill-rule="evenodd" fill-opacity="1" /><path clip-path="url(#clip030)" d="M1872.49 65.7705 L1872.49 89.8329 L1864.99 89.8329 L1864.99 27.2059 L1872.49 27.2059 L1872.49 34.0924 Q1874.84 30.0415 1878.4 28.0971 Q1882.01 26.1121 1886.99 26.1121 Q1895.25 26.1121 1900.4 32.6746 Q1905.58 39.2371 1905.58 49.9314 Q1905.58 60.6258 1900.4 67.1883 Q1895.25 73.7508 1886.99 73.7508 Q1882.01 73.7508 1878.4 71.8063 Q1874.84 69.8214 1872.49 65.7705 M1897.85 49.9314 Q1897.85 41.7081 1894.44 37.0496 Q1891.08 32.3505 1885.17 32.3505 Q1879.25 32.3505 1875.85 37.0496 Q1872.49 41.7081 1872.49 49.9314 Q1872.49 58.1548 1875.85 62.8538 Q1879.25 67.5124 1885.17 67.5124 Q1891.08 67.5124 1894.44 62.8538 Q1897.85 58.1548 1897.85 49.9314 Z" fill="#000000" fill-rule="evenodd" fill-opacity="1" /><path clip-path="url(#clip030)" d="M1917.94 9.54393 L1925.39 9.54393 L1925.39 72.576 L1917.94 72.576 L1917.94 9.54393 Z" fill="#000000" fill-rule="evenodd" fill-opacity="1" /><path clip-path="url(#clip030)" d="M1958.57 32.4315 Q1952.57 32.4315 1949.09 37.1306 Q1945.61 41.7891 1945.61 49.9314 Q1945.61 58.0738 1949.05 62.7728 Q1952.53 67.4314 1958.57 67.4314 Q1964.53 67.4314 1968.01 62.7323 Q1971.49 58.0333 1971.49 49.9314 Q1971.49 41.8701 1968.01 37.1711 Q1964.53 32.4315 1958.57 32.4315 M1958.57 26.1121 Q1968.29 26.1121 1973.84 32.4315 Q1979.39 38.7509 1979.39 49.9314 Q1979.39 61.0714 1973.84 67.4314 Q1968.29 73.7508 1958.57 73.7508 Q1948.81 73.7508 1943.26 67.4314 Q1937.75 61.0714 1937.75 49.9314 Q1937.75 38.7509 1943.26 32.4315 Q1948.81 26.1121 1958.57 26.1121 Z" fill="#000000" fill-rule="evenodd" fill-opacity="1" /><path clip-path="url(#clip030)" d="M2010.62 76.7889 Q2007.46 84.8907 2004.47 87.3618 Q2001.47 89.8329 1996.45 89.8329 L1990.49 89.8329 L1990.49 83.5945 L1994.87 83.5945 Q1997.95 83.5945 1999.65 82.1361 Q2001.35 80.6778 2003.41 75.2496 L2004.75 71.8468 L1986.4 27.2059 L1994.3 27.2059 L2008.48 62.6918 L2022.66 27.2059 L2030.55 27.2059 L2010.62 76.7889 Z" fill="#000000" fill-rule="evenodd" fill-opacity="1" /><path clip-path="url(#clip030)" d="M2076.17 35.9153 Q2078.96 30.8922 2082.85 28.5022 Q2086.74 26.1121 2092.01 26.1121 Q2099.1 26.1121 2102.94 31.0947 Q2106.79 36.0368 2106.79 45.1919 L2106.79 72.576 L2099.3 72.576 L2099.3 45.4349 Q2099.3 38.913 2096.99 35.7533 Q2094.68 32.5936 2089.94 32.5936 Q2084.15 32.5936 2080.79 36.4419 Q2077.42 40.2903 2077.42 46.9338 L2077.42 72.576 L2069.93 72.576 L2069.93 45.4349 Q2069.93 38.8725 2067.62 35.7533 Q2065.31 32.5936 2060.49 32.5936 Q2054.78 32.5936 2051.42 36.4824 Q2048.05 40.3308 2048.05 46.9338 L2048.05 72.576 L2040.56 72.576 L2040.56 27.2059 L2048.05 27.2059 L2048.05 34.2544 Q2050.61 30.082 2054.17 28.0971 Q2057.74 26.1121 2062.64 26.1121 Q2067.58 26.1121 2071.02 28.6237 Q2074.51 31.1352 2076.17 35.9153 Z" fill="#000000" fill-rule="evenodd" fill-opacity="1" /><path clip-path="url(#clip030)" d="M2160.47 48.0275 L2160.47 51.6733 L2126.2 51.6733 Q2126.68 59.3701 2130.81 63.421 Q2134.99 67.4314 2142.4 67.4314 Q2146.69 67.4314 2150.7 66.3781 Q2154.76 65.3249 2158.73 63.2184 L2158.73 70.267 Q2154.71 71.9684 2150.5 72.8596 Q2146.29 73.7508 2141.95 73.7508 Q2131.1 73.7508 2124.74 67.4314 Q2118.42 61.1119 2118.42 50.3365 Q2118.42 39.1965 2124.41 32.6746 Q2130.45 26.1121 2140.66 26.1121 Q2149.81 26.1121 2155.12 32.0264 Q2160.47 37.9003 2160.47 48.0275 M2153.01 45.84 Q2152.93 39.7232 2149.57 36.0774 Q2146.25 32.4315 2140.74 32.4315 Q2134.5 32.4315 2130.73 35.9558 Q2127.01 39.4801 2126.44 45.8805 L2153.01 45.84 Z" fill="#000000" fill-rule="evenodd" fill-opacity="1" /><path clip-path="url(#clip030)" d="M2210.41 45.1919 L2210.41 72.576 L2202.96 72.576 L2202.96 45.4349 Q2202.96 38.994 2200.45 35.7938 Q2197.94 32.5936 2192.92 32.5936 Q2186.88 32.5936 2183.4 36.4419 Q2179.91 40.2903 2179.91 46.9338 L2179.91 72.576 L2172.42 72.576 L2172.42 27.2059 L2179.91 27.2059 L2179.91 34.2544 Q2182.59 30.163 2186.19 28.1376 Q2189.84 26.1121 2194.58 26.1121 Q2202.39 26.1121 2206.4 30.9732 Q2210.41 35.7938 2210.41 45.1919 Z" fill="#000000" fill-rule="evenodd" fill-opacity="1" /><path clip-path="url(#clip030)" d="M2232.65 14.324 L2232.65 27.2059 L2248.01 27.2059 L2248.01 32.9987 L2232.65 32.9987 L2232.65 57.6282 Q2232.65 63.1779 2234.15 64.7578 Q2235.69 66.3376 2240.35 66.3376 L2248.01 66.3376 L2248.01 72.576 L2240.35 72.576 Q2231.72 72.576 2228.44 69.3758 Q2225.16 66.1351 2225.16 57.6282 L2225.16 32.9987 L2219.69 32.9987 L2219.69 27.2059 L2225.16 27.2059 L2225.16 14.324 L2232.65 14.324 Z" fill="#000000" fill-rule="evenodd" fill-opacity="1" /><polyline clip-path="url(#clip032)" style="stroke:#808080; stroke-linecap:butt; stroke-linejoin:round; stroke-width:4; stroke-opacity:1; fill:none" stroke-dasharray="16, 10" points="
  373.936,907.358 587.401,907.358 800.866,907.358 1014.33,907.358 1227.8,907.358 1441.26,907.358 1654.73,907.358 1868.19,907.358 2081.66,907.358 2295.12,907.358 
  
  "/>
<path clip-path="url(#clip032)" d="
M373.936 1386.4 L587.401 1301.51 L800.866 1279.42 L1014.33 1248.35 L1227.8 1112.94 L1441.26 966.178 L1654.73 907.358 L1868.19 888.691 L2081.66 1064.79 L2295.12 733.394 
  L2295.12 160.256 L2081.66 872.879 L1868.19 765.659 L1654.73 907.358 L1441.26 857.144 L1227.8 981.859 L1014.33 1096.28 L800.866 1103.92 L587.401 1120.03 L373.936 1190.19 
   Z
  " fill="#009af9" fill-rule="evenodd" fill-opacity="0.35"/>
<polyline clip-path="url(#clip032)" style="stroke:#009af9; stroke-linecap:butt; stroke-linejoin:round; stroke-width:0; stroke-opacity:1; fill:none" points="
  373.936,1386.4 587.401,1301.51 800.866,1279.42 1014.33,1248.35 1227.8,1112.94 1441.26,966.178 1654.73,907.358 1868.19,888.691 2081.66,1064.79 2295.12,733.394 
  
  "/>
<polyline clip-path="url(#clip032)" style="stroke:#e26f46; stroke-linecap:butt; stroke-linejoin:round; stroke-width:4; stroke-opacity:1; fill:none" points="
  373.936,1288.29 587.401,1210.77 800.866,1191.67 1014.33,1172.31 1227.8,1047.4 1441.26,911.661 1654.73,907.358 1868.19,827.175 2081.66,968.836 2295.12,446.825 
  
  "/>
<circle clip-path="url(#clip032)" cx="373.936" cy="1288.29" r="14" fill="#e26f46" fill-rule="evenodd" fill-opacity="1" stroke="#000000" stroke-opacity="1" stroke-width="0"/>
<circle clip-path="url(#clip032)" cx="587.401" cy="1210.77" r="14" fill="#e26f46" fill-rule="evenodd" fill-opacity="1" stroke="#000000" stroke-opacity="1" stroke-width="0"/>
<circle clip-path="url(#clip032)" cx="800.866" cy="1191.67" r="14" fill="#e26f46" fill-rule="evenodd" fill-opacity="1" stroke="#000000" stroke-opacity="1" stroke-width="0"/>
<circle clip-path="url(#clip032)" cx="1014.33" cy="1172.31" r="14" fill="#e26f46" fill-rule="evenodd" fill-opacity="1" stroke="#000000" stroke-opacity="1" stroke-width="0"/>
<circle clip-path="url(#clip032)" cx="1227.8" cy="1047.4" r="14" fill="#e26f46" fill-rule="evenodd" fill-opacity="1" stroke="#000000" stroke-opacity="1" stroke-width="0"/>
<circle clip-path="url(#clip032)" cx="1441.26" cy="911.661" r="14" fill="#e26f46" fill-rule="evenodd" fill-opacity="1" stroke="#000000" stroke-opacity="1" stroke-width="0"/>
<circle clip-path="url(#clip032)" cx="1654.73" cy="907.358" r="14" fill="#e26f46" fill-rule="evenodd" fill-opacity="1" stroke="#000000" stroke-opacity="1" stroke-width="0"/>
<circle clip-path="url(#clip032)" cx="1868.19" cy="827.175" r="14" fill="#e26f46" fill-rule="evenodd" fill-opacity="1" stroke="#000000" stroke-opacity="1" stroke-width="0"/>
<circle clip-path="url(#clip032)" cx="2081.66" cy="968.836" r="14" fill="#e26f46" fill-rule="evenodd" fill-opacity="1" stroke="#000000" stroke-opacity="1" stroke-width="0"/>
<circle clip-path="url(#clip032)" cx="2295.12" cy="446.825" r="14" fill="#e26f46" fill-rule="evenodd" fill-opacity="1" stroke="#000000" stroke-opacity="1" stroke-width="0"/>
<path clip-path="url(#clip030)" d="
M1600.48 1379.86 L2284.87 1379.86 L2284.87 1224.34 L1600.48 1224.34  Z
  " fill="#ffffff" fill-rule="evenodd" fill-opacity="1"/>
<polyline clip-path="url(#clip030)" style="stroke:#000000; stroke-linecap:butt; stroke-linejoin:round; stroke-width:4; stroke-opacity:1; fill:none" points="
  1600.48,1379.86 2284.87,1379.86 2284.87,1224.34 1600.48,1224.34 1600.48,1379.86 
  "/>
<path clip-path="url(#clip030)" d="
M1623.11 1296.91 L1758.87 1296.91 L1758.87 1255.44 L1623.11 1255.44 L1623.11 1296.91  Z
  " fill="#009af9" fill-rule="evenodd" fill-opacity="0.35"/>
<polyline clip-path="url(#clip030)" style="stroke:#009af9; stroke-linecap:butt; stroke-linejoin:round; stroke-width:0; stroke-opacity:1; fill:none" points="
  1623.11,1255.44 1758.87,1255.44 
  "/>
<path clip-path="url(#clip030)" d="M1783.72 1292.74 L1783.72 1288.48 Q1785.48 1289.31 1787.28 1289.75 Q1789.09 1290.19 1790.83 1290.19 Q1795.46 1290.19 1797.89 1287.09 Q1800.34 1283.97 1800.69 1277.62 Q1799.34 1279.61 1797.28 1280.68 Q1795.22 1281.74 1792.72 1281.74 Q1787.54 1281.74 1784.51 1278.62 Q1781.5 1275.47 1781.5 1270.03 Q1781.5 1264.71 1784.65 1261.49 Q1787.79 1258.27 1793.02 1258.27 Q1799.02 1258.27 1802.17 1262.88 Q1805.34 1267.46 1805.34 1276.21 Q1805.34 1284.38 1801.45 1289.27 Q1797.58 1294.13 1791.03 1294.13 Q1789.27 1294.13 1787.47 1293.78 Q1785.66 1293.43 1783.72 1292.74 M1793.02 1278.09 Q1796.17 1278.09 1798 1275.93 Q1799.85 1273.78 1799.85 1270.03 Q1799.85 1266.3 1798 1264.15 Q1796.17 1261.97 1793.02 1261.97 Q1789.88 1261.97 1788.02 1264.15 Q1786.2 1266.3 1786.2 1270.03 Q1786.2 1273.78 1788.02 1275.93 Q1789.88 1278.09 1793.02 1278.09 Z" fill="#000000" fill-rule="evenodd" fill-opacity="1" /><path clip-path="url(#clip030)" d="M1813.79 1258.9 L1832.14 1258.9 L1832.14 1262.83 L1818.07 1262.83 L1818.07 1271.3 Q1819.09 1270.96 1820.11 1270.79 Q1821.13 1270.61 1822.14 1270.61 Q1827.93 1270.61 1831.31 1273.78 Q1834.69 1276.95 1834.69 1282.37 Q1834.69 1287.95 1831.22 1291.05 Q1827.75 1294.13 1821.43 1294.13 Q1819.25 1294.13 1816.98 1293.76 Q1814.74 1293.39 1812.33 1292.65 L1812.33 1287.95 Q1814.41 1289.08 1816.64 1289.64 Q1818.86 1290.19 1821.33 1290.19 Q1825.34 1290.19 1827.68 1288.09 Q1830.02 1285.98 1830.02 1282.37 Q1830.02 1278.76 1827.68 1276.65 Q1825.34 1274.54 1821.33 1274.54 Q1819.46 1274.54 1817.58 1274.96 Q1815.73 1275.38 1813.79 1276.26 L1813.79 1258.9 Z" fill="#000000" fill-rule="evenodd" fill-opacity="1" /><path clip-path="url(#clip030)" d="M1873.3 1278.25 Q1871.29 1278.25 1870.13 1279.96 Q1869 1281.67 1869 1284.73 Q1869 1287.74 1870.13 1289.47 Q1871.29 1291.19 1873.3 1291.19 Q1875.27 1291.19 1876.4 1289.47 Q1877.56 1287.74 1877.56 1284.73 Q1877.56 1281.7 1876.4 1279.98 Q1875.27 1278.25 1873.3 1278.25 M1873.3 1275.31 Q1876.96 1275.31 1879.11 1277.85 Q1881.26 1280.4 1881.26 1284.73 Q1881.26 1289.06 1879.09 1291.6 Q1876.94 1294.13 1873.3 1294.13 Q1869.6 1294.13 1867.45 1291.6 Q1865.29 1289.06 1865.29 1284.73 Q1865.29 1280.38 1867.45 1277.85 Q1869.62 1275.31 1873.3 1275.31 M1849.41 1261.21 Q1847.42 1261.21 1846.27 1262.95 Q1845.13 1264.66 1845.13 1267.67 Q1845.13 1270.72 1846.27 1272.44 Q1847.4 1274.15 1849.41 1274.15 Q1851.43 1274.15 1852.56 1272.44 Q1853.72 1270.72 1853.72 1267.67 Q1853.72 1264.68 1852.56 1262.95 Q1851.4 1261.21 1849.41 1261.21 M1870.32 1258.27 L1874.02 1258.27 L1852.4 1294.13 L1848.7 1294.13 L1870.32 1258.27 M1849.41 1258.27 Q1853.07 1258.27 1855.25 1260.82 Q1857.42 1263.34 1857.42 1267.67 Q1857.42 1272.04 1855.25 1274.57 Q1853.09 1277.09 1849.41 1277.09 Q1845.73 1277.09 1843.58 1274.57 Q1841.45 1272.02 1841.45 1267.67 Q1841.45 1263.36 1843.6 1260.82 Q1845.76 1258.27 1849.41 1258.27 Z" fill="#000000" fill-rule="evenodd" fill-opacity="1" /><path clip-path="url(#clip030)" d="M1929.48 1261.56 L1929.48 1266.49 Q1927.12 1264.29 1924.44 1263.2 Q1921.77 1262.11 1918.76 1262.11 Q1912.84 1262.11 1909.69 1265.75 Q1906.54 1269.36 1906.54 1276.21 Q1906.54 1283.04 1909.69 1286.67 Q1912.84 1290.28 1918.76 1290.28 Q1921.77 1290.28 1924.44 1289.2 Q1927.12 1288.11 1929.48 1285.91 L1929.48 1290.79 Q1927.03 1292.46 1924.27 1293.29 Q1921.54 1294.13 1918.49 1294.13 Q1910.64 1294.13 1906.13 1289.34 Q1901.61 1284.52 1901.61 1276.21 Q1901.61 1267.88 1906.13 1263.09 Q1910.64 1258.27 1918.49 1258.27 Q1921.59 1258.27 1924.32 1259.1 Q1927.07 1259.91 1929.48 1261.56 Z" fill="#000000" fill-rule="evenodd" fill-opacity="1" /><path clip-path="url(#clip030)" d="M1936.7 1258.9 L1941.38 1258.9 L1941.38 1293.46 L1936.7 1293.46 L1936.7 1258.9 Z" fill="#000000" fill-rule="evenodd" fill-opacity="1" /><polyline clip-path="url(#clip030)" style="stroke:#e26f46; stroke-linecap:butt; stroke-linejoin:round; stroke-width:4; stroke-opacity:1; fill:none" points="
  1623.11,1328.02 1758.87,1328.02 
  "/>
<circle clip-path="url(#clip030)" cx="1690.99" cy="1328.02" r="23" fill="#e26f46" fill-rule="evenodd" fill-opacity="1" stroke="#000000" stroke-opacity="1" stroke-width="0"/>
<path clip-path="url(#clip030)" d="M1786.17 1314.58 L1786.17 1327.56 L1792.05 1327.56 Q1795.32 1327.56 1797.1 1325.88 Q1798.88 1324.19 1798.88 1321.06 Q1798.88 1317.96 1797.1 1316.27 Q1795.32 1314.58 1792.05 1314.58 L1786.17 1314.58 M1781.5 1310.74 L1792.05 1310.74 Q1797.86 1310.74 1800.83 1313.38 Q1803.81 1315.99 1803.81 1321.06 Q1803.81 1326.18 1800.83 1328.79 Q1797.86 1331.41 1792.05 1331.41 L1786.17 1331.41 L1786.17 1345.3 L1781.5 1345.3 L1781.5 1310.74 Z" fill="#000000" fill-rule="evenodd" fill-opacity="1" /><path clip-path="url(#clip030)" d="M1824.09 1323.35 Q1823.37 1322.94 1822.52 1322.75 Q1821.68 1322.54 1820.66 1322.54 Q1817.05 1322.54 1815.11 1324.9 Q1813.19 1327.24 1813.19 1331.64 L1813.19 1345.3 L1808.9 1345.3 L1808.9 1319.37 L1813.19 1319.37 L1813.19 1323.4 Q1814.53 1321.04 1816.68 1319.9 Q1818.83 1318.75 1821.91 1318.75 Q1822.35 1318.75 1822.89 1318.81 Q1823.42 1318.86 1824.07 1318.98 L1824.09 1323.35 Z" fill="#000000" fill-rule="evenodd" fill-opacity="1" /><path clip-path="url(#clip030)" d="M1849.69 1331.27 L1849.69 1333.35 L1830.11 1333.35 Q1830.39 1337.75 1832.75 1340.06 Q1835.13 1342.36 1839.37 1342.36 Q1841.82 1342.36 1844.11 1341.75 Q1846.43 1341.15 1848.7 1339.95 L1848.7 1343.98 Q1846.4 1344.95 1844 1345.46 Q1841.59 1345.97 1839.11 1345.97 Q1832.91 1345.97 1829.27 1342.36 Q1825.66 1338.75 1825.66 1332.59 Q1825.66 1326.22 1829.09 1322.5 Q1832.54 1318.75 1838.37 1318.75 Q1843.6 1318.75 1846.64 1322.13 Q1849.69 1325.48 1849.69 1331.27 M1845.43 1330.02 Q1845.39 1326.52 1843.46 1324.44 Q1841.57 1322.36 1838.42 1322.36 Q1834.85 1322.36 1832.7 1324.37 Q1830.57 1326.38 1830.25 1330.04 L1845.43 1330.02 Z" fill="#000000" fill-rule="evenodd" fill-opacity="1" /><path clip-path="url(#clip030)" d="M1873.74 1323.31 L1873.74 1309.28 L1878 1309.28 L1878 1345.3 L1873.74 1345.3 L1873.74 1341.41 Q1872.4 1343.72 1870.34 1344.86 Q1868.3 1345.97 1865.43 1345.97 Q1860.73 1345.97 1857.77 1342.22 Q1854.83 1338.47 1854.83 1332.36 Q1854.83 1326.25 1857.77 1322.5 Q1860.73 1318.75 1865.43 1318.75 Q1868.3 1318.75 1870.34 1319.88 Q1872.4 1320.99 1873.74 1323.31 M1859.23 1332.36 Q1859.23 1337.06 1861.15 1339.74 Q1863.09 1342.4 1866.47 1342.4 Q1869.85 1342.4 1871.8 1339.74 Q1873.74 1337.06 1873.74 1332.36 Q1873.74 1327.66 1871.8 1325 Q1869.85 1322.31 1866.47 1322.31 Q1863.09 1322.31 1861.15 1325 Q1859.23 1327.66 1859.23 1332.36 Z" fill="#000000" fill-rule="evenodd" fill-opacity="1" /><path clip-path="url(#clip030)" d="M1886.77 1319.37 L1891.03 1319.37 L1891.03 1345.3 L1886.77 1345.3 L1886.77 1319.37 M1886.77 1309.28 L1891.03 1309.28 L1891.03 1314.67 L1886.77 1314.67 L1886.77 1309.28 Z" fill="#000000" fill-rule="evenodd" fill-opacity="1" /><path clip-path="url(#clip030)" d="M1918.6 1320.37 L1918.6 1324.35 Q1916.8 1323.35 1914.97 1322.87 Q1913.16 1322.36 1911.31 1322.36 Q1907.17 1322.36 1904.88 1325 Q1902.58 1327.61 1902.58 1332.36 Q1902.58 1337.1 1904.88 1339.74 Q1907.17 1342.36 1911.31 1342.36 Q1913.16 1342.36 1914.97 1341.87 Q1916.8 1341.36 1918.6 1340.37 L1918.6 1344.3 Q1916.82 1345.13 1914.9 1345.55 Q1913 1345.97 1910.85 1345.97 Q1904.99 1345.97 1901.54 1342.29 Q1898.09 1338.61 1898.09 1332.36 Q1898.09 1326.01 1901.57 1322.38 Q1905.06 1318.75 1911.13 1318.75 Q1913.09 1318.75 1914.97 1319.16 Q1916.84 1319.56 1918.6 1320.37 Z" fill="#000000" fill-rule="evenodd" fill-opacity="1" /><path clip-path="url(#clip030)" d="M1930.22 1312.01 L1930.22 1319.37 L1939 1319.37 L1939 1322.68 L1930.22 1322.68 L1930.22 1336.75 Q1930.22 1339.93 1931.08 1340.83 Q1931.96 1341.73 1934.62 1341.73 L1939 1341.73 L1939 1345.3 L1934.62 1345.3 Q1929.69 1345.3 1927.82 1343.47 Q1925.94 1341.62 1925.94 1336.75 L1925.94 1322.68 L1922.82 1322.68 L1922.82 1319.37 L1925.94 1319.37 L1925.94 1312.01 L1930.22 1312.01 Z" fill="#000000" fill-rule="evenodd" fill-opacity="1" /><path clip-path="url(#clip030)" d="M1966.77 1331.27 L1966.77 1333.35 L1947.19 1333.35 Q1947.47 1337.75 1949.83 1340.06 Q1952.21 1342.36 1956.45 1342.36 Q1958.9 1342.36 1961.2 1341.75 Q1963.51 1341.15 1965.78 1339.95 L1965.78 1343.98 Q1963.49 1344.95 1961.08 1345.46 Q1958.67 1345.97 1956.2 1345.97 Q1949.99 1345.97 1946.36 1342.36 Q1942.75 1338.75 1942.75 1332.59 Q1942.75 1326.22 1946.17 1322.5 Q1949.62 1318.75 1955.45 1318.75 Q1960.69 1318.75 1963.72 1322.13 Q1966.77 1325.48 1966.77 1331.27 M1962.51 1330.02 Q1962.47 1326.52 1960.55 1324.44 Q1958.65 1322.36 1955.5 1322.36 Q1951.94 1322.36 1949.78 1324.37 Q1947.65 1326.38 1947.33 1330.04 L1962.51 1330.02 Z" fill="#000000" fill-rule="evenodd" fill-opacity="1" /><path clip-path="url(#clip030)" d="M1990.82 1323.31 L1990.82 1309.28 L1995.08 1309.28 L1995.08 1345.3 L1990.82 1345.3 L1990.82 1341.41 Q1989.48 1343.72 1987.42 1344.86 Q1985.38 1345.97 1982.51 1345.97 Q1977.82 1345.97 1974.85 1342.22 Q1971.91 1338.47 1971.91 1332.36 Q1971.91 1326.25 1974.85 1322.5 Q1977.82 1318.75 1982.51 1318.75 Q1985.38 1318.75 1987.42 1319.88 Q1989.48 1320.99 1990.82 1323.31 M1976.31 1332.36 Q1976.31 1337.06 1978.23 1339.74 Q1980.18 1342.4 1983.56 1342.4 Q1986.94 1342.4 1988.88 1339.74 Q1990.82 1337.06 1990.82 1332.36 Q1990.82 1327.66 1988.88 1325 Q1986.94 1322.31 1983.56 1322.31 Q1980.18 1322.31 1978.23 1325 Q1976.31 1327.66 1976.31 1332.36 Z" fill="#000000" fill-rule="evenodd" fill-opacity="1" /><path clip-path="url(#clip030)" d="M2035.5 1329.09 Q2037 1329.6 2038.42 1331.27 Q2039.85 1332.94 2041.29 1335.85 L2046.03 1345.3 L2041.01 1345.3 L2036.59 1336.43 Q2034.88 1332.96 2033.25 1331.82 Q2031.66 1330.69 2028.88 1330.69 L2023.79 1330.69 L2023.79 1345.3 L2019.11 1345.3 L2019.11 1310.74 L2029.67 1310.74 Q2035.59 1310.74 2038.51 1313.21 Q2041.43 1315.69 2041.43 1320.69 Q2041.43 1323.95 2039.9 1326.11 Q2038.39 1328.26 2035.5 1329.09 M2023.79 1314.58 L2023.79 1326.85 L2029.67 1326.85 Q2033.05 1326.85 2034.76 1325.3 Q2036.5 1323.72 2036.5 1320.69 Q2036.5 1317.66 2034.76 1316.13 Q2033.05 1314.58 2029.67 1314.58 L2023.79 1314.58 Z" fill="#000000" fill-rule="evenodd" fill-opacity="1" /><path clip-path="url(#clip030)" d="M2071.91 1331.27 L2071.91 1333.35 L2052.33 1333.35 Q2052.61 1337.75 2054.97 1340.06 Q2057.35 1342.36 2061.59 1342.36 Q2064.04 1342.36 2066.33 1341.75 Q2068.65 1341.15 2070.92 1339.95 L2070.92 1343.98 Q2068.63 1344.95 2066.22 1345.46 Q2063.81 1345.97 2061.33 1345.97 Q2055.13 1345.97 2051.5 1342.36 Q2047.88 1338.75 2047.88 1332.59 Q2047.88 1326.22 2051.31 1322.5 Q2054.76 1318.75 2060.59 1318.75 Q2065.82 1318.75 2068.86 1322.13 Q2071.91 1325.48 2071.91 1331.27 M2067.65 1330.02 Q2067.61 1326.52 2065.69 1324.44 Q2063.79 1322.36 2060.64 1322.36 Q2057.07 1322.36 2054.92 1324.37 Q2052.79 1326.38 2052.47 1330.04 L2067.65 1330.02 Z" fill="#000000" fill-rule="evenodd" fill-opacity="1" /><path clip-path="url(#clip030)" d="M2095.43 1320.13 L2095.43 1324.16 Q2093.62 1323.24 2091.68 1322.77 Q2089.74 1322.31 2087.65 1322.31 Q2084.48 1322.31 2082.88 1323.28 Q2081.31 1324.25 2081.31 1326.2 Q2081.31 1327.68 2082.44 1328.54 Q2083.58 1329.37 2087 1330.13 L2088.46 1330.46 Q2093 1331.43 2094.9 1333.21 Q2096.82 1334.97 2096.82 1338.14 Q2096.82 1341.75 2093.95 1343.86 Q2091.1 1345.97 2086.1 1345.97 Q2084.02 1345.97 2081.75 1345.55 Q2079.5 1345.16 2077 1344.35 L2077 1339.95 Q2079.37 1341.18 2081.66 1341.8 Q2083.95 1342.4 2086.19 1342.4 Q2089.2 1342.4 2090.82 1341.38 Q2092.44 1340.34 2092.44 1338.47 Q2092.44 1336.73 2091.26 1335.81 Q2090.11 1334.88 2086.15 1334.02 L2084.67 1333.68 Q2080.71 1332.84 2078.95 1331.13 Q2077.19 1329.39 2077.19 1326.38 Q2077.19 1322.73 2079.78 1320.74 Q2082.37 1318.75 2087.14 1318.75 Q2089.5 1318.75 2091.59 1319.09 Q2093.67 1319.44 2095.43 1320.13 Z" fill="#000000" fill-rule="evenodd" fill-opacity="1" /><path clip-path="url(#clip030)" d="M2107.72 1341.41 L2107.72 1355.16 L2103.44 1355.16 L2103.44 1319.37 L2107.72 1319.37 L2107.72 1323.31 Q2109.06 1320.99 2111.1 1319.88 Q2113.16 1318.75 2116.01 1318.75 Q2120.73 1318.75 2123.67 1322.5 Q2126.63 1326.25 2126.63 1332.36 Q2126.63 1338.47 2123.67 1342.22 Q2120.73 1345.97 2116.01 1345.97 Q2113.16 1345.97 2111.1 1344.86 Q2109.06 1343.72 2107.72 1341.41 M2122.21 1332.36 Q2122.21 1327.66 2120.27 1325 Q2118.35 1322.31 2114.97 1322.31 Q2111.59 1322.31 2109.64 1325 Q2107.72 1327.66 2107.72 1332.36 Q2107.72 1337.06 2109.64 1339.74 Q2111.59 1342.4 2114.97 1342.4 Q2118.35 1342.4 2120.27 1339.74 Q2122.21 1337.06 2122.21 1332.36 Z" fill="#000000" fill-rule="evenodd" fill-opacity="1" /><path clip-path="url(#clip030)" d="M2143.74 1322.36 Q2140.31 1322.36 2138.32 1325.04 Q2136.33 1327.7 2136.33 1332.36 Q2136.33 1337.01 2138.3 1339.69 Q2140.29 1342.36 2143.74 1342.36 Q2147.14 1342.36 2149.13 1339.67 Q2151.12 1336.99 2151.12 1332.36 Q2151.12 1327.75 2149.13 1325.06 Q2147.14 1322.36 2143.74 1322.36 M2143.74 1318.75 Q2149.3 1318.75 2152.47 1322.36 Q2155.64 1325.97 2155.64 1332.36 Q2155.64 1338.72 2152.47 1342.36 Q2149.3 1345.97 2143.74 1345.97 Q2138.16 1345.97 2134.99 1342.36 Q2131.84 1338.72 2131.84 1332.36 Q2131.84 1325.97 2134.99 1322.36 Q2138.16 1318.75 2143.74 1318.75 Z" fill="#000000" fill-rule="evenodd" fill-opacity="1" /><path clip-path="url(#clip030)" d="M2184.25 1329.65 L2184.25 1345.3 L2179.99 1345.3 L2179.99 1329.79 Q2179.99 1326.11 2178.56 1324.28 Q2177.12 1322.45 2174.25 1322.45 Q2170.8 1322.45 2168.81 1324.65 Q2166.82 1326.85 2166.82 1330.64 L2166.82 1345.3 L2162.54 1345.3 L2162.54 1319.37 L2166.82 1319.37 L2166.82 1323.4 Q2168.35 1321.06 2170.41 1319.9 Q2172.49 1318.75 2175.2 1318.75 Q2179.67 1318.75 2181.96 1321.52 Q2184.25 1324.28 2184.25 1329.65 Z" fill="#000000" fill-rule="evenodd" fill-opacity="1" /><path clip-path="url(#clip030)" d="M2209.27 1320.13 L2209.27 1324.16 Q2207.47 1323.24 2205.52 1322.77 Q2203.58 1322.31 2201.49 1322.31 Q2198.32 1322.31 2196.73 1323.28 Q2195.15 1324.25 2195.15 1326.2 Q2195.15 1327.68 2196.29 1328.54 Q2197.42 1329.37 2200.85 1330.13 L2202.3 1330.46 Q2206.84 1331.43 2208.74 1333.21 Q2210.66 1334.97 2210.66 1338.14 Q2210.66 1341.75 2207.79 1343.86 Q2204.94 1345.97 2199.94 1345.97 Q2197.86 1345.97 2195.59 1345.55 Q2193.35 1345.16 2190.85 1344.35 L2190.85 1339.95 Q2193.21 1341.18 2195.5 1341.8 Q2197.79 1342.4 2200.04 1342.4 Q2203.05 1342.4 2204.67 1341.38 Q2206.29 1340.34 2206.29 1338.47 Q2206.29 1336.73 2205.11 1335.81 Q2203.95 1334.88 2199.99 1334.02 L2198.51 1333.68 Q2194.55 1332.84 2192.79 1331.13 Q2191.03 1329.39 2191.03 1326.38 Q2191.03 1322.73 2193.62 1320.74 Q2196.22 1318.75 2200.99 1318.75 Q2203.35 1318.75 2205.43 1319.09 Q2207.51 1319.44 2209.27 1320.13 Z" fill="#000000" fill-rule="evenodd" fill-opacity="1" /><path clip-path="url(#clip030)" d="M2239.62 1331.27 L2239.62 1333.35 L2220.04 1333.35 Q2220.31 1337.75 2222.68 1340.06 Q2225.06 1342.36 2229.3 1342.36 Q2231.75 1342.36 2234.04 1341.75 Q2236.36 1341.15 2238.62 1339.95 L2238.62 1343.98 Q2236.33 1344.95 2233.93 1345.46 Q2231.52 1345.97 2229.04 1345.97 Q2222.84 1345.97 2219.2 1342.36 Q2215.59 1338.75 2215.59 1332.59 Q2215.59 1326.22 2219.02 1322.5 Q2222.47 1318.75 2228.3 1318.75 Q2233.53 1318.75 2236.56 1322.13 Q2239.62 1325.48 2239.62 1331.27 M2235.36 1330.02 Q2235.31 1326.52 2233.39 1324.44 Q2231.49 1322.36 2228.35 1322.36 Q2224.78 1322.36 2222.63 1324.37 Q2220.5 1326.38 2220.18 1330.04 L2235.36 1330.02 Z" fill="#000000" fill-rule="evenodd" fill-opacity="1" /></svg>
