<?xml version="1.0" encoding="utf-8"?>
<svg xmlns="http://www.w3.org/2000/svg" xmlns:xlink="http://www.w3.org/1999/xlink" width="600" height="400" viewBox="0 0 2400 1600">
<defs>
  <clipPath id="clip310">
    <rect x="0" y="0" width="2400" height="1600"/>
  </clipPath>
</defs>
<path clip-path="url(#clip310)" d="
M0 1600 L2400 1600 L2400 0 L0 0  Z
  " fill="#ffffff" fill-rule="evenodd" fill-opacity="1"/>
<defs>
  <clipPath id="clip311">
    <rect x="480" y="0" width="1681" height="1600"/>
  </clipPath>
</defs>
<path clip-path="url(#clip310)" d="
M316.301 1423.18 L2352.76 1423.18 L2352.76 123.472 L316.301 123.472  Z
  " fill="#ffffff" fill-rule="evenodd" fill-opacity="1"/>
<defs>
  <clipPath id="clip312">
    <rect x="316" y="123" width="2037" height="1301"/>
  </clipPath>
</defs>
<polyline clip-path="url(#clip312)" style="stroke:#000000; stroke-linecap:butt; stroke-linejoin:round; stroke-width:2; stroke-opacity:0.1; fill:none" points="
  480.669,1423.18 480.669,123.472 
  "/>
<polyline clip-path="url(#clip312)" style="stroke:#000000; stroke-linecap:butt; stroke-linejoin:round; stroke-width:2; stroke-opacity:0.1; fill:none" points="
  1014.33,1423.18 1014.33,123.472 
  "/>
<polyline clip-path="url(#clip312)" style="stroke:#000000; stroke-linecap:butt; stroke-linejoin:round; stroke-width:2; stroke-opacity:0.1; fill:none" points="
  1547.99,1423.18 1547.99,123.472 
  "/>
<polyline clip-path="url(#clip312)" style="stroke:#000000; stroke-linecap:butt; stroke-linejoin:round; stroke-width:2; stroke-opacity:0.1; fill:none" points="
  2081.66,1423.18 2081.66,123.472 
  "/>
<polyline clip-path="url(#clip310)" style="stroke:#000000; stroke-linecap:butt; stroke-linejoin:round; stroke-width:4; stroke-opacity:1; fill:none" points="
  316.301,1423.18 2352.76,1423.18 
  "/>
<polyline clip-path="url(#clip310)" style="stroke:#000000; stroke-linecap:butt; stroke-linejoin:round; stroke-width:4; stroke-opacity:1; fill:none" points="
  480.669,1423.18 480.669,1404.28 
  "/>
<polyline clip-path="url(#clip310)" style="stroke:#000000; stroke-linecap:butt; stroke-linejoin:round; stroke-width:4; stroke-opacity:1; fill:none" points="
  1014.33,1423.18 1014.33,1404.28 
  "/>
<polyline clip-path="url(#clip310)" style="stroke:#000000; stroke-linecap:butt; stroke-linejoin:round; stroke-width:4; stroke-opacity:1; fill:none" points="
  1547.99,1423.18 1547.99,1404.28 
  "/>
<polyline clip-path="url(#clip310)" style="stroke:#000000; stroke-linecap:butt; stroke-linejoin:round; stroke-width:4; stroke-opacity:1; fill:none" points="
  2081.66,1423.18 2081.66,1404.28 
  "/>
<path clip-path="url(#clip310)" d="M480.669 1454.1 Q477.058 1454.1 475.229 1457.66 Q473.424 1461.2 473.424 1468.33 Q473.424 1475.44 475.229 1479.01 Q477.058 1482.55 480.669 1482.55 Q484.303 1482.55 486.109 1479.01 Q487.937 1475.44 487.937 1468.33 Q487.937 1461.2 486.109 1457.66 Q484.303 1454.1 480.669 1454.1 M480.669 1450.39 Q486.479 1450.39 489.535 1455 Q492.613 1459.58 492.613 1468.33 Q492.613 1477.06 489.535 1481.67 Q486.479 1486.25 480.669 1486.25 Q474.859 1486.25 471.78 1481.67 Q468.725 1477.06 468.725 1468.33 Q468.725 1459.58 471.78 1455 Q474.859 1450.39 480.669 1450.39 Z" fill="#000000" fill-rule="evenodd" fill-opacity="1" /><path clip-path="url(#clip310)" d="M989.019 1481.64 L996.658 1481.64 L996.658 1455.28 L988.347 1456.95 L988.347 1452.69 L996.611 1451.02 L1001.29 1451.02 L1001.29 1481.64 L1008.93 1481.64 L1008.93 1485.58 L989.019 1485.58 L989.019 1481.64 Z" fill="#000000" fill-rule="evenodd" fill-opacity="1" /><path clip-path="url(#clip310)" d="M1028.37 1454.1 Q1024.76 1454.1 1022.93 1457.66 Q1021.13 1461.2 1021.13 1468.33 Q1021.13 1475.44 1022.93 1479.01 Q1024.76 1482.55 1028.37 1482.55 Q1032 1482.55 1033.81 1479.01 Q1035.64 1475.44 1035.64 1468.33 Q1035.64 1461.2 1033.81 1457.66 Q1032 1454.1 1028.37 1454.1 M1028.37 1450.39 Q1034.18 1450.39 1037.24 1455 Q1040.31 1459.58 1040.31 1468.33 Q1040.31 1477.06 1037.24 1481.67 Q1034.18 1486.25 1028.37 1486.25 Q1022.56 1486.25 1019.48 1481.67 Q1016.43 1477.06 1016.43 1468.33 Q1016.43 1459.58 1019.48 1455 Q1022.56 1450.39 1028.37 1450.39 Z" fill="#000000" fill-rule="evenodd" fill-opacity="1" /><path clip-path="url(#clip310)" d="M1526.77 1481.64 L1543.09 1481.64 L1543.09 1485.58 L1521.14 1485.58 L1521.14 1481.64 Q1523.8 1478.89 1528.39 1474.26 Q1532.99 1469.61 1534.17 1468.27 Q1536.42 1465.74 1537.3 1464.01 Q1538.2 1462.25 1538.2 1460.56 Q1538.2 1457.8 1536.26 1456.07 Q1534.34 1454.33 1531.23 1454.33 Q1529.04 1454.33 1526.58 1455.09 Q1524.15 1455.86 1521.37 1457.41 L1521.37 1452.69 Q1524.2 1451.55 1526.65 1450.97 Q1529.1 1450.39 1531.14 1450.39 Q1536.51 1450.39 1539.71 1453.08 Q1542.9 1455.77 1542.9 1460.26 Q1542.9 1462.39 1542.09 1464.31 Q1541.3 1466.2 1539.2 1468.8 Q1538.62 1469.47 1535.52 1472.69 Q1532.41 1475.88 1526.77 1481.64 Z" fill="#000000" fill-rule="evenodd" fill-opacity="1" /><path clip-path="url(#clip310)" d="M1562.9 1454.1 Q1559.29 1454.1 1557.46 1457.66 Q1555.66 1461.2 1555.66 1468.33 Q1555.66 1475.44 1557.46 1479.01 Q1559.29 1482.55 1562.9 1482.55 Q1566.53 1482.55 1568.34 1479.01 Q1570.17 1475.44 1570.17 1468.33 Q1570.17 1461.2 1568.34 1457.66 Q1566.53 1454.1 1562.9 1454.1 M1562.9 1450.39 Q1568.71 1450.39 1571.77 1455 Q1574.85 1459.58 1574.85 1468.33 Q1574.85 1477.06 1571.77 1481.67 Q1568.71 1486.25 1562.9 1486.25 Q1557.09 1486.25 1554.01 1481.67 Q1550.96 1477.06 1550.96 1468.33 Q1550.96 1459.58 1554.01 1455 Q1557.09 1450.39 1562.9 1450.39 Z" fill="#000000" fill-rule="evenodd" fill-opacity="1" /><path clip-path="url(#clip310)" d="M2070.5 1466.95 Q2073.85 1467.66 2075.73 1469.93 Q2077.63 1472.2 2077.63 1475.53 Q2077.63 1480.65 2074.11 1483.45 Q2070.59 1486.25 2064.11 1486.25 Q2061.93 1486.25 2059.62 1485.81 Q2057.33 1485.39 2054.87 1484.54 L2054.87 1480.02 Q2056.82 1481.16 2059.13 1481.74 Q2061.45 1482.32 2063.97 1482.32 Q2068.37 1482.32 2070.66 1480.58 Q2072.97 1478.84 2072.97 1475.53 Q2072.97 1472.48 2070.82 1470.77 Q2068.69 1469.03 2064.87 1469.03 L2060.85 1469.03 L2060.85 1465.19 L2065.06 1465.19 Q2068.51 1465.19 2070.34 1463.82 Q2072.16 1462.43 2072.16 1459.84 Q2072.16 1457.18 2070.27 1455.77 Q2068.39 1454.33 2064.87 1454.33 Q2062.95 1454.33 2060.75 1454.75 Q2058.55 1455.16 2055.91 1456.04 L2055.91 1451.88 Q2058.58 1451.14 2060.89 1450.77 Q2063.23 1450.39 2065.29 1450.39 Q2070.61 1450.39 2073.72 1452.83 Q2076.82 1455.23 2076.82 1459.35 Q2076.82 1462.22 2075.17 1464.21 Q2073.53 1466.18 2070.5 1466.95 Z" fill="#000000" fill-rule="evenodd" fill-opacity="1" /><path clip-path="url(#clip310)" d="M2096.49 1454.1 Q2092.88 1454.1 2091.05 1457.66 Q2089.25 1461.2 2089.25 1468.33 Q2089.25 1475.44 2091.05 1479.01 Q2092.88 1482.55 2096.49 1482.55 Q2100.13 1482.55 2101.93 1479.01 Q2103.76 1475.44 2103.76 1468.33 Q2103.76 1461.2 2101.93 1457.66 Q2100.13 1454.1 2096.49 1454.1 M2096.49 1450.39 Q2102.3 1450.39 2105.36 1455 Q2108.44 1459.58 2108.44 1468.33 Q2108.44 1477.06 2105.36 1481.67 Q2102.3 1486.25 2096.49 1486.25 Q2090.68 1486.25 2087.6 1481.67 Q2084.55 1477.06 2084.55 1468.33 Q2084.55 1459.58 2087.6 1455 Q2090.68 1450.39 2096.49 1450.39 Z" fill="#000000" fill-rule="evenodd" fill-opacity="1" /><path clip-path="url(#clip310)" d="M1007.63 1526.86 L998.912 1550.51 L1016.39 1550.51 L1007.63 1526.86 M1004.01 1520.52 L1011.29 1520.52 L1029.4 1568.04 L1022.72 1568.04 L1018.39 1555.85 L996.971 1555.85 L992.642 1568.04 L985.863 1568.04 L1004.01 1520.52 Z" fill="#000000" fill-rule="evenodd" fill-opacity="1" /><path clip-path="url(#clip310)" d="M1028.07 1532.4 L1034.27 1532.4 L1045.41 1562.31 L1056.55 1532.4 L1062.76 1532.4 L1049.39 1568.04 L1041.44 1568.04 L1028.07 1532.4 Z" fill="#000000" fill-rule="evenodd" fill-opacity="1" /><path clip-path="url(#clip310)" d="M1101.34 1548.76 L1101.34 1551.62 L1074.41 1551.62 Q1074.79 1557.67 1078.04 1560.85 Q1081.32 1564 1087.14 1564 Q1090.51 1564 1093.67 1563.17 Q1096.85 1562.35 1099.97 1560.69 L1099.97 1566.23 Q1096.82 1567.57 1093.51 1568.27 Q1090.2 1568.97 1086.79 1568.97 Q1078.26 1568.97 1073.26 1564 Q1068.3 1559.04 1068.3 1550.57 Q1068.3 1541.82 1073.01 1536.69 Q1077.75 1531.54 1085.77 1531.54 Q1092.97 1531.54 1097.14 1536.18 Q1101.34 1540.8 1101.34 1548.76 M1095.48 1547.04 Q1095.42 1542.23 1092.77 1539.37 Q1090.16 1536.5 1085.84 1536.5 Q1080.93 1536.5 1077.97 1539.27 Q1075.05 1542.04 1074.6 1547.07 L1095.48 1547.04 Z" fill="#000000" fill-rule="evenodd" fill-opacity="1" /><path clip-path="url(#clip310)" d="M1131.61 1537.87 Q1130.62 1537.3 1129.44 1537.04 Q1128.3 1536.76 1126.89 1536.76 Q1121.93 1536.76 1119.26 1540 Q1116.61 1543.22 1116.61 1549.27 L1116.61 1568.04 L1110.73 1568.04 L1110.73 1532.4 L1116.61 1532.4 L1116.61 1537.93 Q1118.46 1534.69 1121.42 1533.13 Q1124.38 1531.54 1128.61 1531.54 Q1129.22 1531.54 1129.95 1531.63 Q1130.68 1531.7 1131.57 1531.85 L1131.61 1537.87 Z" fill="#000000" fill-rule="evenodd" fill-opacity="1" /><path clip-path="url(#clip310)" d="M1153.95 1550.12 Q1146.85 1550.12 1144.11 1551.75 Q1141.38 1553.37 1141.38 1557.29 Q1141.38 1560.4 1143.41 1562.25 Q1145.48 1564.07 1149.02 1564.07 Q1153.89 1564.07 1156.81 1560.63 Q1159.77 1557.16 1159.77 1551.43 L1159.77 1550.12 L1153.95 1550.12 M1165.63 1547.71 L1165.63 1568.04 L1159.77 1568.04 L1159.77 1562.63 Q1157.77 1565.88 1154.78 1567.44 Q1151.78 1568.97 1147.46 1568.97 Q1141.98 1568.97 1138.74 1565.91 Q1135.52 1562.82 1135.52 1557.67 Q1135.52 1551.65 1139.53 1548.6 Q1143.57 1545.54 1151.56 1545.54 L1159.77 1545.54 L1159.77 1544.97 Q1159.77 1540.93 1157.1 1538.73 Q1154.46 1536.5 1149.65 1536.5 Q1146.6 1536.5 1143.7 1537.23 Q1140.8 1537.97 1138.13 1539.43 L1138.13 1534.02 Q1141.35 1532.78 1144.37 1532.17 Q1147.39 1531.54 1150.26 1531.54 Q1157.99 1531.54 1161.81 1535.55 Q1165.63 1539.56 1165.63 1547.71 Z" fill="#000000" fill-rule="evenodd" fill-opacity="1" /><path clip-path="url(#clip310)" d="M1201.15 1549.81 Q1201.15 1543.44 1198.51 1539.94 Q1195.9 1536.44 1191.16 1536.44 Q1186.45 1536.44 1183.8 1539.94 Q1181.19 1543.44 1181.19 1549.81 Q1181.19 1556.14 1183.8 1559.64 Q1186.45 1563.14 1191.16 1563.14 Q1195.9 1563.14 1198.51 1559.64 Q1201.15 1556.14 1201.15 1549.81 M1207.01 1563.62 Q1207.01 1572.72 1202.97 1577.15 Q1198.92 1581.6 1190.58 1581.6 Q1187.5 1581.6 1184.76 1581.13 Q1182.02 1580.68 1179.44 1579.72 L1179.44 1574.03 Q1182.02 1575.43 1184.54 1576.1 Q1187.05 1576.76 1189.66 1576.76 Q1195.42 1576.76 1198.29 1573.74 Q1201.15 1570.75 1201.15 1564.67 L1201.15 1561.77 Q1199.34 1564.92 1196.5 1566.48 Q1193.67 1568.04 1189.72 1568.04 Q1183.17 1568.04 1179.16 1563.05 Q1175.15 1558.05 1175.15 1549.81 Q1175.15 1541.53 1179.16 1536.53 Q1183.17 1531.54 1189.72 1531.54 Q1193.67 1531.54 1196.5 1533.1 Q1199.34 1534.66 1201.15 1537.81 L1201.15 1532.4 L1207.01 1532.4 L1207.01 1563.62 Z" fill="#000000" fill-rule="evenodd" fill-opacity="1" /><path clip-path="url(#clip310)" d="M1249.56 1548.76 L1249.56 1551.62 L1222.64 1551.62 Q1223.02 1557.67 1226.26 1560.85 Q1229.54 1564 1235.37 1564 Q1238.74 1564 1241.89 1563.17 Q1245.07 1562.35 1248.19 1560.69 L1248.19 1566.23 Q1245.04 1567.57 1241.73 1568.27 Q1238.42 1568.97 1235.02 1568.97 Q1226.49 1568.97 1221.49 1564 Q1216.52 1559.04 1216.52 1550.57 Q1216.52 1541.82 1221.23 1536.69 Q1225.98 1531.54 1234 1531.54 Q1241.19 1531.54 1245.36 1536.18 Q1249.56 1540.8 1249.56 1548.76 M1243.71 1547.04 Q1243.64 1542.23 1241 1539.37 Q1238.39 1536.5 1234.06 1536.5 Q1229.16 1536.5 1226.2 1539.27 Q1223.27 1542.04 1222.83 1547.07 L1243.71 1547.04 Z" fill="#000000" fill-rule="evenodd" fill-opacity="1" /><path clip-path="url(#clip310)" d="M1273.56 1520.52 L1313.76 1520.52 L1313.76 1525.93 L1296.89 1525.93 L1296.89 1568.04 L1290.43 1568.04 L1290.43 1525.93 L1273.56 1525.93 L1273.56 1520.52 Z" fill="#000000" fill-rule="evenodd" fill-opacity="1" /><path clip-path="url(#clip310)" d="M1339.13 1548.76 L1339.13 1551.62 L1312.2 1551.62 Q1312.58 1557.67 1315.83 1560.85 Q1319.11 1564 1324.93 1564 Q1328.31 1564 1331.46 1563.17 Q1334.64 1562.35 1337.76 1560.69 L1337.76 1566.23 Q1334.61 1567.57 1331.3 1568.27 Q1327.99 1568.97 1324.58 1568.97 Q1316.05 1568.97 1311.05 1564 Q1306.09 1559.04 1306.09 1550.57 Q1306.09 1541.82 1310.8 1536.69 Q1315.54 1531.54 1323.56 1531.54 Q1330.76 1531.54 1334.93 1536.18 Q1339.13 1540.8 1339.13 1548.76 M1333.27 1547.04 Q1333.21 1542.23 1330.57 1539.37 Q1327.96 1536.5 1323.63 1536.5 Q1318.73 1536.5 1315.77 1539.27 Q1312.84 1542.04 1312.39 1547.07 L1333.27 1547.04 Z" fill="#000000" fill-rule="evenodd" fill-opacity="1" /><path clip-path="url(#clip310)" d="M1376.49 1539.24 Q1378.69 1535.29 1381.75 1533.41 Q1384.8 1531.54 1388.94 1531.54 Q1394.51 1531.54 1397.53 1535.45 Q1400.56 1539.33 1400.56 1546.53 L1400.56 1568.04 L1394.67 1568.04 L1394.67 1546.72 Q1394.67 1541.59 1392.85 1539.11 Q1391.04 1536.63 1387.32 1536.63 Q1382.76 1536.63 1380.12 1539.65 Q1377.48 1542.68 1377.48 1547.9 L1377.48 1568.04 L1371.59 1568.04 L1371.59 1546.72 Q1371.59 1541.56 1369.78 1539.11 Q1367.96 1536.63 1364.18 1536.63 Q1359.69 1536.63 1357.05 1539.68 Q1354.41 1542.71 1354.41 1547.9 L1354.41 1568.04 L1348.52 1568.04 L1348.52 1532.4 L1354.41 1532.4 L1354.41 1537.93 Q1356.41 1534.66 1359.21 1533.1 Q1362.01 1531.54 1365.86 1531.54 Q1369.75 1531.54 1372.45 1533.51 Q1375.19 1535.48 1376.49 1539.24 Z" fill="#000000" fill-rule="evenodd" fill-opacity="1" /><path clip-path="url(#clip310)" d="M1417.9 1562.7 L1417.9 1581.6 L1412.01 1581.6 L1412.01 1532.4 L1417.9 1532.4 L1417.9 1537.81 Q1419.75 1534.62 1422.55 1533.1 Q1425.38 1531.54 1429.3 1531.54 Q1435.79 1531.54 1439.83 1536.69 Q1443.91 1541.85 1443.91 1550.25 Q1443.91 1558.65 1439.83 1563.81 Q1435.79 1568.97 1429.3 1568.97 Q1425.38 1568.97 1422.55 1567.44 Q1419.75 1565.88 1417.9 1562.7 M1437.83 1550.25 Q1437.83 1543.79 1435.15 1540.13 Q1432.51 1536.44 1427.87 1536.44 Q1423.22 1536.44 1420.55 1540.13 Q1417.9 1543.79 1417.9 1550.25 Q1417.9 1556.71 1420.55 1560.4 Q1423.22 1564.07 1427.87 1564.07 Q1432.51 1564.07 1435.15 1560.4 Q1437.83 1556.71 1437.83 1550.25 Z" fill="#000000" fill-rule="evenodd" fill-opacity="1" /><path clip-path="url(#clip310)" d="M1484.11 1548.76 L1484.11 1551.62 L1457.18 1551.62 Q1457.56 1557.67 1460.81 1560.85 Q1464.09 1564 1469.91 1564 Q1473.28 1564 1476.44 1563.17 Q1479.62 1562.35 1482.74 1560.69 L1482.74 1566.23 Q1479.59 1567.57 1476.28 1568.27 Q1472.97 1568.97 1469.56 1568.97 Q1461.03 1568.97 1456.03 1564 Q1451.07 1559.04 1451.07 1550.57 Q1451.07 1541.82 1455.78 1536.69 Q1460.52 1531.54 1468.54 1531.54 Q1475.74 1531.54 1479.91 1536.18 Q1484.11 1540.8 1484.11 1548.76 M1478.25 1547.04 Q1478.19 1542.23 1475.54 1539.37 Q1472.93 1536.5 1468.61 1536.5 Q1463.7 1536.5 1460.74 1539.27 Q1457.82 1542.04 1457.37 1547.07 L1478.25 1547.04 Z" fill="#000000" fill-rule="evenodd" fill-opacity="1" /><path clip-path="url(#clip310)" d="M1514.38 1537.87 Q1513.39 1537.3 1512.21 1537.04 Q1511.07 1536.76 1509.66 1536.76 Q1504.7 1536.76 1502.03 1540 Q1499.38 1543.22 1499.38 1549.27 L1499.38 1568.04 L1493.5 1568.04 L1493.5 1532.4 L1499.38 1532.4 L1499.38 1537.93 Q1501.23 1534.69 1504.19 1533.13 Q1507.15 1531.54 1511.38 1531.54 Q1511.99 1531.54 1512.72 1531.63 Q1513.45 1531.7 1514.34 1531.85 L1514.38 1537.87 Z" fill="#000000" fill-rule="evenodd" fill-opacity="1" /><path clip-path="url(#clip310)" d="M1536.72 1550.12 Q1529.62 1550.12 1526.88 1551.75 Q1524.15 1553.37 1524.15 1557.29 Q1524.15 1560.4 1526.18 1562.25 Q1528.25 1564.07 1531.79 1564.07 Q1536.66 1564.07 1539.58 1560.63 Q1542.54 1557.16 1542.54 1551.43 L1542.54 1550.12 L1536.72 1550.12 M1548.4 1547.71 L1548.4 1568.04 L1542.54 1568.04 L1542.54 1562.63 Q1540.54 1565.88 1537.55 1567.44 Q1534.55 1568.97 1530.23 1568.97 Q1524.75 1568.97 1521.51 1565.91 Q1518.29 1562.82 1518.29 1557.67 Q1518.29 1551.65 1522.3 1548.6 Q1526.34 1545.54 1534.33 1545.54 L1542.54 1545.54 L1542.54 1544.97 Q1542.54 1540.93 1539.87 1538.73 Q1537.23 1536.5 1532.42 1536.5 Q1529.37 1536.5 1526.47 1537.23 Q1523.57 1537.97 1520.9 1539.43 L1520.9 1534.02 Q1524.12 1532.78 1527.14 1532.17 Q1530.16 1531.54 1533.03 1531.54 Q1540.76 1531.54 1544.58 1535.55 Q1548.4 1539.56 1548.4 1547.71 Z" fill="#000000" fill-rule="evenodd" fill-opacity="1" /><path clip-path="url(#clip310)" d="M1566.26 1522.27 L1566.26 1532.4 L1578.32 1532.4 L1578.32 1536.95 L1566.26 1536.95 L1566.26 1556.3 Q1566.26 1560.66 1567.43 1561.9 Q1568.64 1563.14 1572.3 1563.14 L1578.32 1563.14 L1578.32 1568.04 L1572.3 1568.04 Q1565.52 1568.04 1562.95 1565.53 Q1560.37 1562.98 1560.37 1556.3 L1560.37 1536.95 L1556.07 1536.95 L1556.07 1532.4 L1560.37 1532.4 L1560.37 1522.27 L1566.26 1522.27 Z" fill="#000000" fill-rule="evenodd" fill-opacity="1" /><path clip-path="url(#clip310)" d="M1585.42 1553.98 L1585.42 1532.4 L1591.27 1532.4 L1591.27 1553.75 Q1591.27 1558.81 1593.25 1561.36 Q1595.22 1563.87 1599.17 1563.87 Q1603.91 1563.87 1606.65 1560.85 Q1609.42 1557.83 1609.42 1552.61 L1609.42 1532.4 L1615.27 1532.4 L1615.27 1568.04 L1609.42 1568.04 L1609.42 1562.57 Q1607.28 1565.82 1604.45 1567.41 Q1601.65 1568.97 1597.93 1568.97 Q1591.78 1568.97 1588.6 1565.15 Q1585.42 1561.33 1585.42 1553.98 M1600.15 1531.54 L1600.15 1531.54 Z" fill="#000000" fill-rule="evenodd" fill-opacity="1" /><path clip-path="url(#clip310)" d="M1647.99 1537.87 Q1647.01 1537.3 1645.83 1537.04 Q1644.68 1536.76 1643.28 1536.76 Q1638.32 1536.76 1635.64 1540 Q1633 1543.22 1633 1549.27 L1633 1568.04 L1627.11 1568.04 L1627.11 1532.4 L1633 1532.4 L1633 1537.93 Q1634.85 1534.69 1637.81 1533.13 Q1640.77 1531.54 1645 1531.54 Q1645.6 1531.54 1646.34 1531.63 Q1647.07 1531.7 1647.96 1531.85 L1647.99 1537.87 Z" fill="#000000" fill-rule="evenodd" fill-opacity="1" /><path clip-path="url(#clip310)" d="M1683.19 1548.76 L1683.19 1551.62 L1656.27 1551.62 Q1656.65 1557.67 1659.9 1560.85 Q1663.17 1564 1669 1564 Q1672.37 1564 1675.52 1563.17 Q1678.71 1562.35 1681.83 1560.69 L1681.83 1566.23 Q1678.67 1567.57 1675.36 1568.27 Q1672.05 1568.97 1668.65 1568.97 Q1660.12 1568.97 1655.12 1564 Q1650.16 1559.04 1650.16 1550.57 Q1650.16 1541.82 1654.87 1536.69 Q1659.61 1531.54 1667.63 1531.54 Q1674.82 1531.54 1678.99 1536.18 Q1683.19 1540.8 1683.19 1548.76 M1677.34 1547.04 Q1677.27 1542.23 1674.63 1539.37 Q1672.02 1536.5 1667.69 1536.5 Q1662.79 1536.5 1659.83 1539.27 Q1656.9 1542.04 1656.46 1547.07 L1677.34 1547.04 Z" fill="#000000" fill-rule="evenodd" fill-opacity="1" /><polyline clip-path="url(#clip312)" style="stroke:#000000; stroke-linecap:butt; stroke-linejoin:round; stroke-width:2; stroke-opacity:0.1; fill:none" points="
  316.301,1201.35 2352.76,1201.35 
  "/>
<polyline clip-path="url(#clip312)" style="stroke:#000000; stroke-linecap:butt; stroke-linejoin:round; stroke-width:2; stroke-opacity:0.1; fill:none" points="
  316.301,907.358 2352.76,907.358 
  "/>
<polyline clip-path="url(#clip312)" style="stroke:#000000; stroke-linecap:butt; stroke-linejoin:round; stroke-width:2; stroke-opacity:0.1; fill:none" points="
  316.301,613.367 2352.76,613.367 
  "/>
<polyline clip-path="url(#clip312)" style="stroke:#000000; stroke-linecap:butt; stroke-linejoin:round; stroke-width:2; stroke-opacity:0.1; fill:none" points="
  316.301,319.376 2352.76,319.376 
  "/>
<polyline clip-path="url(#clip310)" style="stroke:#000000; stroke-linecap:butt; stroke-linejoin:round; stroke-width:4; stroke-opacity:1; fill:none" points="
  316.301,1423.18 316.301,123.472 
  "/>
<polyline clip-path="url(#clip310)" style="stroke:#000000; stroke-linecap:butt; stroke-linejoin:round; stroke-width:4; stroke-opacity:1; fill:none" points="
  316.301,1201.35 335.199,1201.35 
  "/>
<polyline clip-path="url(#clip310)" style="stroke:#000000; stroke-linecap:butt; stroke-linejoin:round; stroke-width:4; stroke-opacity:1; fill:none" points="
  316.301,907.358 335.199,907.358 
  "/>
<polyline clip-path="url(#clip310)" style="stroke:#000000; stroke-linecap:butt; stroke-linejoin:round; stroke-width:4; stroke-opacity:1; fill:none" points="
  316.301,613.367 335.199,613.367 
  "/>
<polyline clip-path="url(#clip310)" style="stroke:#000000; stroke-linecap:butt; stroke-linejoin:round; stroke-width:4; stroke-opacity:1; fill:none" points="
  316.301,319.376 335.199,319.376 
  "/>
<path clip-path="url(#clip310)" d="M114.26 1201.8 L143.936 1201.8 L143.936 1205.74 L114.26 1205.74 L114.26 1201.8 Z" fill="#000000" fill-rule="evenodd" fill-opacity="1" /><path clip-path="url(#clip310)" d="M164.028 1187.15 Q160.417 1187.15 158.589 1190.71 Q156.783 1194.25 156.783 1201.38 Q156.783 1208.49 158.589 1212.06 Q160.417 1215.6 164.028 1215.6 Q167.663 1215.6 169.468 1212.06 Q171.297 1208.49 171.297 1201.38 Q171.297 1194.25 169.468 1190.71 Q167.663 1187.15 164.028 1187.15 M164.028 1183.44 Q169.839 1183.44 172.894 1188.05 Q175.973 1192.63 175.973 1201.38 Q175.973 1210.11 172.894 1214.72 Q169.839 1219.3 164.028 1219.3 Q158.218 1219.3 155.14 1214.72 Q152.084 1210.11 152.084 1201.38 Q152.084 1192.63 155.14 1188.05 Q158.218 1183.44 164.028 1183.44 Z" fill="#000000" fill-rule="evenodd" fill-opacity="1" /><path clip-path="url(#clip310)" d="M184.19 1212.75 L189.075 1212.75 L189.075 1218.63 L184.19 1218.63 L184.19 1212.75 Z" fill="#000000" fill-rule="evenodd" fill-opacity="1" /><path clip-path="url(#clip310)" d="M209.26 1187.15 Q205.649 1187.15 203.82 1190.71 Q202.014 1194.25 202.014 1201.38 Q202.014 1208.49 203.82 1212.06 Q205.649 1215.6 209.26 1215.6 Q212.894 1215.6 214.699 1212.06 Q216.528 1208.49 216.528 1201.38 Q216.528 1194.25 214.699 1190.71 Q212.894 1187.15 209.26 1187.15 M209.26 1183.44 Q215.07 1183.44 218.125 1188.05 Q221.204 1192.63 221.204 1201.38 Q221.204 1210.11 218.125 1214.72 Q215.07 1219.3 209.26 1219.3 Q203.449 1219.3 200.371 1214.72 Q197.315 1210.11 197.315 1201.38 Q197.315 1192.63 200.371 1188.05 Q203.449 1183.44 209.26 1183.44 Z" fill="#000000" fill-rule="evenodd" fill-opacity="1" /><path clip-path="url(#clip310)" d="M239.422 1187.15 Q235.81 1187.15 233.982 1190.71 Q232.176 1194.25 232.176 1201.38 Q232.176 1208.49 233.982 1212.06 Q235.81 1215.6 239.422 1215.6 Q243.056 1215.6 244.861 1212.06 Q246.69 1208.49 246.69 1201.38 Q246.69 1194.25 244.861 1190.71 Q243.056 1187.15 239.422 1187.15 M239.422 1183.44 Q245.232 1183.44 248.287 1188.05 Q251.366 1192.63 251.366 1201.38 Q251.366 1210.11 248.287 1214.72 Q245.232 1219.3 239.422 1219.3 Q233.611 1219.3 230.533 1214.72 Q227.477 1210.11 227.477 1201.38 Q227.477 1192.63 230.533 1188.05 Q233.611 1183.44 239.422 1183.44 Z" fill="#000000" fill-rule="evenodd" fill-opacity="1" /><path clip-path="url(#clip310)" d="M260.394 1214.69 L268.032 1214.69 L268.032 1188.33 L259.722 1190 L259.722 1185.74 L267.986 1184.07 L272.662 1184.07 L272.662 1214.69 L280.301 1214.69 L280.301 1218.63 L260.394 1218.63 L260.394 1214.69 Z" fill="#000000" fill-rule="evenodd" fill-opacity="1" /><path clip-path="url(#clip310)" d="M162.802 893.157 Q159.19 893.157 157.362 896.722 Q155.556 900.264 155.556 907.393 Q155.556 914.5 157.362 918.064 Q159.19 921.606 162.802 921.606 Q166.436 921.606 168.241 918.064 Q170.07 914.5 170.07 907.393 Q170.07 900.264 168.241 896.722 Q166.436 893.157 162.802 893.157 M162.802 889.453 Q168.612 889.453 171.667 894.06 Q174.746 898.643 174.746 907.393 Q174.746 916.12 171.667 920.726 Q168.612 925.31 162.802 925.31 Q156.991 925.31 153.913 920.726 Q150.857 916.12 150.857 907.393 Q150.857 898.643 153.913 894.06 Q156.991 889.453 162.802 889.453 Z" fill="#000000" fill-rule="evenodd" fill-opacity="1" /><path clip-path="url(#clip310)" d="M182.963 918.759 L187.848 918.759 L187.848 924.638 L182.963 924.638 L182.963 918.759 Z" fill="#000000" fill-rule="evenodd" fill-opacity="1" /><path clip-path="url(#clip310)" d="M208.033 893.157 Q204.422 893.157 202.593 896.722 Q200.787 900.264 200.787 907.393 Q200.787 914.5 202.593 918.064 Q204.422 921.606 208.033 921.606 Q211.667 921.606 213.473 918.064 Q215.301 914.5 215.301 907.393 Q215.301 900.264 213.473 896.722 Q211.667 893.157 208.033 893.157 M208.033 889.453 Q213.843 889.453 216.898 894.06 Q219.977 898.643 219.977 907.393 Q219.977 916.12 216.898 920.726 Q213.843 925.31 208.033 925.31 Q202.223 925.31 199.144 920.726 Q196.088 916.12 196.088 907.393 Q196.088 898.643 199.144 894.06 Q202.223 889.453 208.033 889.453 Z" fill="#000000" fill-rule="evenodd" fill-opacity="1" /><path clip-path="url(#clip310)" d="M238.195 893.157 Q234.584 893.157 232.755 896.722 Q230.949 900.264 230.949 907.393 Q230.949 914.5 232.755 918.064 Q234.584 921.606 238.195 921.606 Q241.829 921.606 243.634 918.064 Q245.463 914.5 245.463 907.393 Q245.463 900.264 243.634 896.722 Q241.829 893.157 238.195 893.157 M238.195 889.453 Q244.005 889.453 247.06 894.06 Q250.139 898.643 250.139 907.393 Q250.139 916.12 247.06 920.726 Q244.005 925.31 238.195 925.31 Q232.385 925.31 229.306 920.726 Q226.25 916.12 226.25 907.393 Q226.25 898.643 229.306 894.06 Q232.385 889.453 238.195 889.453 Z" fill="#000000" fill-rule="evenodd" fill-opacity="1" /><path clip-path="url(#clip310)" d="M268.357 893.157 Q264.745 893.157 262.917 896.722 Q261.111 900.264 261.111 907.393 Q261.111 914.5 262.917 918.064 Q264.745 921.606 268.357 921.606 Q271.991 921.606 273.796 918.064 Q275.625 914.5 275.625 907.393 Q275.625 900.264 273.796 896.722 Q271.991 893.157 268.357 893.157 M268.357 889.453 Q274.167 889.453 277.222 894.06 Q280.301 898.643 280.301 907.393 Q280.301 916.12 277.222 920.726 Q274.167 925.31 268.357 925.31 Q262.546 925.31 259.468 920.726 Q256.412 916.12 256.412 907.393 Q256.412 898.643 259.468 894.06 Q262.546 889.453 268.357 889.453 Z" fill="#000000" fill-rule="evenodd" fill-opacity="1" /><path clip-path="url(#clip310)" d="M164.028 599.166 Q160.417 599.166 158.589 602.731 Q156.783 606.272 156.783 613.402 Q156.783 620.509 158.589 624.073 Q160.417 627.615 164.028 627.615 Q167.663 627.615 169.468 624.073 Q171.297 620.509 171.297 613.402 Q171.297 606.272 169.468 602.731 Q167.663 599.166 164.028 599.166 M164.028 595.462 Q169.839 595.462 172.894 600.069 Q175.973 604.652 175.973 613.402 Q175.973 622.129 172.894 626.735 Q169.839 631.319 164.028 631.319 Q158.218 631.319 155.14 626.735 Q152.084 622.129 152.084 613.402 Q152.084 604.652 155.14 600.069 Q158.218 595.462 164.028 595.462 Z" fill="#000000" fill-rule="evenodd" fill-opacity="1" /><path clip-path="url(#clip310)" d="M184.19 624.768 L189.075 624.768 L189.075 630.647 L184.19 630.647 L184.19 624.768 Z" fill="#000000" fill-rule="evenodd" fill-opacity="1" /><path clip-path="url(#clip310)" d="M209.26 599.166 Q205.649 599.166 203.82 602.731 Q202.014 606.272 202.014 613.402 Q202.014 620.509 203.82 624.073 Q205.649 627.615 209.26 627.615 Q212.894 627.615 214.699 624.073 Q216.528 620.509 216.528 613.402 Q216.528 606.272 214.699 602.731 Q212.894 599.166 209.26 599.166 M209.26 595.462 Q215.07 595.462 218.125 600.069 Q221.204 604.652 221.204 613.402 Q221.204 622.129 218.125 626.735 Q215.07 631.319 209.26 631.319 Q203.449 631.319 200.371 626.735 Q197.315 622.129 197.315 613.402 Q197.315 604.652 200.371 600.069 Q203.449 595.462 209.26 595.462 Z" fill="#000000" fill-rule="evenodd" fill-opacity="1" /><path clip-path="url(#clip310)" d="M239.422 599.166 Q235.81 599.166 233.982 602.731 Q232.176 606.272 232.176 613.402 Q232.176 620.509 233.982 624.073 Q235.81 627.615 239.422 627.615 Q243.056 627.615 244.861 624.073 Q246.69 620.509 246.69 613.402 Q246.69 606.272 244.861 602.731 Q243.056 599.166 239.422 599.166 M239.422 595.462 Q245.232 595.462 248.287 600.069 Q251.366 604.652 251.366 613.402 Q251.366 622.129 248.287 626.735 Q245.232 631.319 239.422 631.319 Q233.611 631.319 230.533 626.735 Q227.477 622.129 227.477 613.402 Q227.477 604.652 230.533 600.069 Q233.611 595.462 239.422 595.462 Z" fill="#000000" fill-rule="evenodd" fill-opacity="1" /><path clip-path="url(#clip310)" d="M260.394 626.712 L268.032 626.712 L268.032 600.347 L259.722 602.013 L259.722 597.754 L267.986 596.087 L272.662 596.087 L272.662 626.712 L280.301 626.712 L280.301 630.647 L260.394 630.647 L260.394 626.712 Z" fill="#000000" fill-rule="evenodd" fill-opacity="1" /><path clip-path="url(#clip310)" d="M164.399 305.175 Q160.788 305.175 158.959 308.74 Q157.153 312.281 157.153 319.411 Q157.153 326.517 158.959 330.082 Q160.788 333.624 164.399 333.624 Q168.033 333.624 169.839 330.082 Q171.667 326.517 171.667 319.411 Q171.667 312.281 169.839 308.74 Q168.033 305.175 164.399 305.175 M164.399 301.471 Q170.209 301.471 173.264 306.078 Q176.343 310.661 176.343 319.411 Q176.343 328.138 173.264 332.744 Q170.209 337.328 164.399 337.328 Q158.589 337.328 155.51 332.744 Q152.454 328.138 152.454 319.411 Q152.454 310.661 155.51 306.078 Q158.589 301.471 164.399 301.471 Z" fill="#000000" fill-rule="evenodd" fill-opacity="1" /><path clip-path="url(#clip310)" d="M184.561 330.777 L189.445 330.777 L189.445 336.656 L184.561 336.656 L184.561 330.777 Z" fill="#000000" fill-rule="evenodd" fill-opacity="1" /><path clip-path="url(#clip310)" d="M209.63 305.175 Q206.019 305.175 204.19 308.74 Q202.385 312.281 202.385 319.411 Q202.385 326.517 204.19 330.082 Q206.019 333.624 209.63 333.624 Q213.264 333.624 215.07 330.082 Q216.898 326.517 216.898 319.411 Q216.898 312.281 215.07 308.74 Q213.264 305.175 209.63 305.175 M209.63 301.471 Q215.44 301.471 218.496 306.078 Q221.574 310.661 221.574 319.411 Q221.574 328.138 218.496 332.744 Q215.44 337.328 209.63 337.328 Q203.82 337.328 200.741 332.744 Q197.686 328.138 197.686 319.411 Q197.686 310.661 200.741 306.078 Q203.82 301.471 209.63 301.471 Z" fill="#000000" fill-rule="evenodd" fill-opacity="1" /><path clip-path="url(#clip310)" d="M239.792 305.175 Q236.181 305.175 234.352 308.74 Q232.547 312.281 232.547 319.411 Q232.547 326.517 234.352 330.082 Q236.181 333.624 239.792 333.624 Q243.426 333.624 245.232 330.082 Q247.06 326.517 247.06 319.411 Q247.06 312.281 245.232 308.74 Q243.426 305.175 239.792 305.175 M239.792 301.471 Q245.602 301.471 248.658 306.078 Q251.736 310.661 251.736 319.411 Q251.736 328.138 248.658 332.744 Q245.602 337.328 239.792 337.328 Q233.982 337.328 230.903 332.744 Q227.848 328.138 227.848 319.411 Q227.848 310.661 230.903 306.078 Q233.982 301.471 239.792 301.471 Z" fill="#000000" fill-rule="evenodd" fill-opacity="1" /><path clip-path="url(#clip310)" d="M263.982 332.721 L280.301 332.721 L280.301 336.656 L258.357 336.656 L258.357 332.721 Q261.019 329.967 265.602 325.337 Q270.208 320.684 271.389 319.342 Q273.634 316.818 274.514 315.082 Q275.417 313.323 275.417 311.633 Q275.417 308.879 273.472 307.143 Q271.551 305.406 268.449 305.406 Q266.25 305.406 263.796 306.17 Q261.366 306.934 258.588 308.485 L258.588 303.763 Q261.412 302.629 263.866 302.05 Q266.32 301.471 268.357 301.471 Q273.727 301.471 276.921 304.156 Q280.116 306.842 280.116 311.332 Q280.116 313.462 279.306 315.383 Q278.519 317.281 276.412 319.874 Q275.833 320.545 272.732 323.763 Q269.63 326.957 263.982 332.721 Z" fill="#000000" fill-rule="evenodd" fill-opacity="1" /><path clip-path="url(#clip310)" d="M14.479 1139.78 L14.479 1133.93 L64.0042 1133.93 L64.0042 1139.78 L14.479 1139.78 Z" fill="#000000" fill-rule="evenodd" fill-opacity="1" /><path clip-path="url(#clip310)" d="M32.4621 1107.86 Q32.4621 1112.57 36.1542 1115.31 Q39.8145 1118.04 46.212 1118.04 Q52.6095 1118.04 56.3017 1115.34 Q59.9619 1112.6 59.9619 1107.86 Q59.9619 1103.18 56.2698 1100.44 Q52.5777 1097.71 46.212 1097.71 Q39.8781 1097.71 36.186 1100.44 Q32.4621 1103.18 32.4621 1107.86 M27.4968 1107.86 Q27.4968 1100.22 32.4621 1095.86 Q37.4273 1091.5 46.212 1091.5 Q54.9649 1091.5 59.9619 1095.86 Q64.9272 1100.22 64.9272 1107.86 Q64.9272 1115.53 59.9619 1119.89 Q54.9649 1124.22 46.212 1124.22 Q37.4273 1124.22 32.4621 1119.89 Q27.4968 1115.53 27.4968 1107.86 Z" fill="#000000" fill-rule="evenodd" fill-opacity="1" /><path clip-path="url(#clip310)" d="M45.7664 1058.33 Q39.4007 1058.33 35.8996 1060.98 Q32.3984 1063.59 32.3984 1068.33 Q32.3984 1073.04 35.8996 1075.68 Q39.4007 1078.29 45.7664 1078.29 Q52.1003 1078.29 55.6014 1075.68 Q59.1026 1073.04 59.1026 1068.33 Q59.1026 1063.59 55.6014 1060.98 Q52.1003 1058.33 45.7664 1058.33 M59.58 1052.48 Q68.683 1052.48 73.1071 1056.52 Q77.5631 1060.56 77.5631 1068.9 Q77.5631 1071.99 77.0857 1074.73 Q76.6401 1077.46 75.6852 1080.04 L69.9879 1080.04 Q71.3884 1077.46 72.0568 1074.95 Q72.7252 1072.43 72.7252 1069.82 Q72.7252 1064.06 69.7015 1061.2 Q66.7096 1058.33 60.6303 1058.33 L57.7339 1058.33 Q60.885 1060.15 62.4446 1062.98 Q64.0042 1065.81 64.0042 1069.76 Q64.0042 1076.32 59.0071 1080.33 Q54.01 1084.34 45.7664 1084.34 Q37.491 1084.34 32.4939 1080.33 Q27.4968 1076.32 27.4968 1069.76 Q27.4968 1065.81 29.0564 1062.98 Q30.616 1060.15 33.7671 1058.33 L28.3562 1058.33 L28.3562 1052.48 L59.58 1052.48 Z" fill="#000000" fill-rule="evenodd" fill-opacity="1" /><path clip-path="url(#clip310)" d="M14.5426 1026.35 Q21.8632 1030.61 29.0246 1032.68 Q36.186 1034.75 43.5384 1034.75 Q50.8908 1034.75 58.1159 1032.68 Q65.3091 1030.58 72.5979 1026.35 L72.5979 1031.44 Q65.1182 1036.21 57.8931 1038.6 Q50.668 1040.96 43.5384 1040.96 Q36.4406 1040.96 29.2474 1038.6 Q22.0542 1036.25 14.5426 1031.44 L14.5426 1026.35 Z" fill="#000000" fill-rule="evenodd" fill-opacity="1" /><path clip-path="url(#clip310)" d="M16.4842 1014.73 L16.4842 987.421 L21.895 987.421 L21.895 1008.3 L35.8996 1008.3 L35.8996 989.458 L41.3104 989.458 L41.3104 1008.3 L64.0042 1008.3 L64.0042 1014.73 L16.4842 1014.73 Z" fill="#000000" fill-rule="evenodd" fill-opacity="1" /><path clip-path="url(#clip310)" d="M46.0847 967.273 Q46.0847 974.371 47.7079 977.108 Q49.3312 979.845 53.2461 979.845 Q56.3653 979.845 58.2114 977.808 Q60.0256 975.74 60.0256 972.207 Q60.0256 967.337 56.5881 964.409 Q53.1188 961.449 47.3897 961.449 L46.0847 961.449 L46.0847 967.273 M43.6657 955.592 L64.0042 955.592 L64.0042 961.449 L58.5933 961.449 Q61.8398 963.454 63.3994 966.446 Q64.9272 969.437 64.9272 973.766 Q64.9272 979.241 61.8716 982.487 Q58.7843 985.702 53.6281 985.702 Q47.6125 985.702 44.5569 981.691 Q41.5014 977.649 41.5014 969.66 L41.5014 961.449 L40.9285 961.449 Q36.8862 961.449 34.6901 964.122 Q32.4621 966.764 32.4621 971.57 Q32.4621 974.626 33.1941 977.522 Q33.9262 980.418 35.3903 983.092 L29.9795 983.092 Q28.7381 979.877 28.1334 976.854 Q27.4968 973.83 27.4968 970.965 Q27.4968 963.231 31.5072 959.412 Q35.5176 955.592 43.6657 955.592 Z" fill="#000000" fill-rule="evenodd" fill-opacity="1" /><path clip-path="url(#clip310)" d="M33.8307 922.872 Q33.2578 923.859 33.0032 925.037 Q32.7167 926.183 32.7167 927.583 Q32.7167 932.548 35.9632 935.222 Q39.1779 937.864 45.2253 937.864 L64.0042 937.864 L64.0042 943.752 L28.3562 943.752 L28.3562 937.864 L33.8944 937.864 Q30.6479 936.018 29.0883 933.057 Q27.4968 930.097 27.4968 925.864 Q27.4968 925.259 27.5923 924.527 Q27.656 923.795 27.8151 922.904 L33.8307 922.872 Z" fill="#000000" fill-rule="evenodd" fill-opacity="1" /><path clip-path="url(#clip310)" d="M35.1993 890.121 Q31.2526 887.925 29.3747 884.869 Q27.4968 881.814 27.4968 877.676 Q27.4968 872.106 31.4117 869.082 Q35.2948 866.058 42.4881 866.058 L64.0042 866.058 L64.0042 871.947 L42.679 871.947 Q37.5546 871.947 35.072 873.761 Q32.5894 875.575 32.5894 879.299 Q32.5894 883.851 35.6131 886.492 Q38.6368 889.134 43.8567 889.134 L64.0042 889.134 L64.0042 895.022 L42.679 895.022 Q37.5228 895.022 35.072 896.837 Q32.5894 898.651 32.5894 902.438 Q32.5894 906.926 35.6449 909.568 Q38.6686 912.21 43.8567 912.21 L64.0042 912.21 L64.0042 918.098 L28.3562 918.098 L28.3562 912.21 L33.8944 912.21 Q30.616 910.205 29.0564 907.404 Q27.4968 904.603 27.4968 900.752 Q27.4968 896.868 29.4702 894.163 Q31.4436 891.426 35.1993 890.121 Z" fill="#000000" fill-rule="evenodd" fill-opacity="1" /><path clip-path="url(#clip310)" d="M16.4842 833.402 L16.4842 803.356 L21.895 803.356 L21.895 826.973 L35.9632 826.973 L35.9632 804.343 L41.3741 804.343 L41.3741 826.973 L58.5933 826.973 L58.5933 802.783 L64.0042 802.783 L64.0042 833.402 L16.4842 833.402 Z" fill="#000000" fill-rule="evenodd" fill-opacity="1" /><path clip-path="url(#clip310)" d="M35.1993 764.716 Q31.2526 762.52 29.3747 759.465 Q27.4968 756.409 27.4968 752.271 Q27.4968 746.701 31.4117 743.678 Q35.2948 740.654 42.4881 740.654 L64.0042 740.654 L64.0042 746.542 L42.679 746.542 Q37.5546 746.542 35.072 748.356 Q32.5894 750.171 32.5894 753.895 Q32.5894 758.446 35.6131 761.088 Q38.6368 763.73 43.8567 763.73 L64.0042 763.73 L64.0042 769.618 L42.679 769.618 Q37.5228 769.618 35.072 771.432 Q32.5894 773.246 32.5894 777.034 Q32.5894 781.522 35.6449 784.164 Q38.6686 786.805 43.8567 786.805 L64.0042 786.805 L64.0042 792.694 L28.3562 792.694 L28.3562 786.805 L33.8944 786.805 Q30.616 784.8 29.0564 781.999 Q27.4968 779.198 27.4968 775.347 Q27.4968 771.464 29.4702 768.759 Q31.4436 766.021 35.1993 764.716 Z" fill="#000000" fill-rule="evenodd" fill-opacity="1" /><path clip-path="url(#clip310)" d="M58.657 723.307 L77.5631 723.307 L77.5631 729.196 L28.3562 729.196 L28.3562 723.307 L33.7671 723.307 Q30.5842 721.461 29.0564 718.66 Q27.4968 715.828 27.4968 711.913 Q27.4968 705.42 32.6531 701.378 Q37.8093 697.304 46.212 697.304 Q54.6147 697.304 59.771 701.378 Q64.9272 705.42 64.9272 711.913 Q64.9272 715.828 63.3994 718.66 Q61.8398 721.461 58.657 723.307 M46.212 703.383 Q39.7508 703.383 36.0905 706.056 Q32.3984 708.698 32.3984 713.345 Q32.3984 717.992 36.0905 720.666 Q39.7508 723.307 46.212 723.307 Q52.6732 723.307 56.3653 720.666 Q60.0256 717.992 60.0256 713.345 Q60.0256 708.698 56.3653 706.056 Q52.6732 703.383 46.212 703.383 Z" fill="#000000" fill-rule="evenodd" fill-opacity="1" /><path clip-path="url(#clip310)" d="M14.479 687.596 L14.479 681.739 L64.0042 681.739 L64.0042 687.596 L14.479 687.596 Z" fill="#000000" fill-rule="evenodd" fill-opacity="1" /><path clip-path="url(#clip310)" d="M32.4621 655.672 Q32.4621 660.382 36.1542 663.12 Q39.8145 665.857 46.212 665.857 Q52.6095 665.857 56.3017 663.152 Q59.9619 660.414 59.9619 655.672 Q59.9619 650.993 56.2698 648.256 Q52.5777 645.519 46.212 645.519 Q39.8781 645.519 36.186 648.256 Q32.4621 650.993 32.4621 655.672 M27.4968 655.672 Q27.4968 648.033 32.4621 643.672 Q37.4273 639.312 46.212 639.312 Q54.9649 639.312 59.9619 643.672 Q64.9272 648.033 64.9272 655.672 Q64.9272 663.342 59.9619 667.703 Q54.9649 672.032 46.212 672.032 Q37.4273 672.032 32.4621 667.703 Q27.4968 663.342 27.4968 655.672 Z" fill="#000000" fill-rule="evenodd" fill-opacity="1" /><path clip-path="url(#clip310)" d="M67.3143 614.772 Q73.68 617.255 75.6216 619.61 Q77.5631 621.965 77.5631 625.912 L77.5631 630.591 L72.6615 630.591 L72.6615 627.153 Q72.6615 624.734 71.5157 623.398 Q70.3699 622.061 66.1048 620.438 L63.4312 619.387 L28.3562 633.806 L28.3562 627.599 L56.238 616.459 L28.3562 605.319 L28.3562 599.113 L67.3143 614.772 Z" fill="#000000" fill-rule="evenodd" fill-opacity="1" /><path clip-path="url(#clip310)" d="M35.1993 563.274 Q31.2526 561.077 29.3747 558.022 Q27.4968 554.966 27.4968 550.829 Q27.4968 545.259 31.4117 542.235 Q35.2948 539.211 42.4881 539.211 L64.0042 539.211 L64.0042 545.099 L42.679 545.099 Q37.5546 545.099 35.072 546.914 Q32.5894 548.728 32.5894 552.452 Q32.5894 557.003 35.6131 559.645 Q38.6368 562.287 43.8567 562.287 L64.0042 562.287 L64.0042 568.175 L42.679 568.175 Q37.5228 568.175 35.072 569.989 Q32.5894 571.804 32.5894 575.591 Q32.5894 580.079 35.6449 582.721 Q38.6686 585.363 43.8567 585.363 L64.0042 585.363 L64.0042 591.251 L28.3562 591.251 L28.3562 585.363 L33.8944 585.363 Q30.616 583.357 29.0564 580.556 Q27.4968 577.756 27.4968 573.904 Q27.4968 570.021 29.4702 567.316 Q31.4436 564.579 35.1993 563.274 Z" fill="#000000" fill-rule="evenodd" fill-opacity="1" /><path clip-path="url(#clip310)" d="M44.7161 497.038 L47.5806 497.038 L47.5806 523.965 Q53.6281 523.583 56.8109 520.337 Q59.9619 517.059 59.9619 511.234 Q59.9619 507.86 59.1344 504.709 Q58.3069 501.526 56.6518 498.407 L62.1899 498.407 Q63.5267 501.558 64.227 504.868 Q64.9272 508.178 64.9272 511.584 Q64.9272 520.114 59.9619 525.111 Q54.9967 530.076 46.5303 530.076 Q37.7774 530.076 32.6531 525.366 Q27.4968 520.623 27.4968 512.603 Q27.4968 505.409 32.1438 501.24 Q36.7589 497.038 44.7161 497.038 M42.9973 502.895 Q38.1912 502.959 35.3266 505.6 Q32.4621 508.21 32.4621 512.539 Q32.4621 517.44 35.2312 520.401 Q38.0002 523.329 43.0292 523.774 L42.9973 502.895 Z" fill="#000000" fill-rule="evenodd" fill-opacity="1" /><path clip-path="url(#clip310)" d="M42.4881 457.794 L64.0042 457.794 L64.0042 463.65 L42.679 463.65 Q37.6183 463.65 35.1038 465.624 Q32.5894 467.597 32.5894 471.544 Q32.5894 476.286 35.6131 479.023 Q38.6368 481.761 43.8567 481.761 L64.0042 481.761 L64.0042 487.649 L28.3562 487.649 L28.3562 481.761 L33.8944 481.761 Q30.6797 479.66 29.0883 476.827 Q27.4968 473.963 27.4968 470.239 Q27.4968 464.096 31.3163 460.945 Q35.1038 457.794 42.4881 457.794 Z" fill="#000000" fill-rule="evenodd" fill-opacity="1" /><path clip-path="url(#clip310)" d="M18.2347 440.32 L28.3562 440.32 L28.3562 428.257 L32.9077 428.257 L32.9077 440.32 L52.2594 440.32 Q56.6199 440.32 57.8613 439.142 Q59.1026 437.933 59.1026 434.273 L59.1026 428.257 L64.0042 428.257 L64.0042 434.273 Q64.0042 441.052 61.4897 443.63 Q58.9434 446.208 52.2594 446.208 L32.9077 446.208 L32.9077 450.505 L28.3562 450.505 L28.3562 446.208 L18.2347 446.208 L18.2347 440.32 Z" fill="#000000" fill-rule="evenodd" fill-opacity="1" /><path clip-path="url(#clip310)" d="M14.5426 421.477 L14.5426 416.385 Q22.0542 411.611 29.2474 409.255 Q36.4406 406.868 43.5384 406.868 Q50.668 406.868 57.8931 409.255 Q65.1182 411.611 72.5979 416.385 L72.5979 421.477 Q65.3091 417.244 58.1159 415.175 Q50.8908 413.075 43.5384 413.075 Q36.186 413.075 29.0246 415.175 Q21.8632 417.244 14.5426 421.477 Z" fill="#000000" fill-rule="evenodd" fill-opacity="1" /><path clip-path="url(#clip310)" d="M229.462 43.6931 L229.462 65.8515 L242.587 65.8515 Q249.19 65.8515 252.35 63.1374 Q255.55 60.3828 255.55 54.752 Q255.55 49.0808 252.35 46.4072 Q249.19 43.6931 242.587 43.6931 L229.462 43.6931 M229.462 18.8205 L229.462 37.0496 L241.574 37.0496 Q247.57 37.0496 250.486 34.8216 Q253.443 32.5531 253.443 27.935 Q253.443 23.3575 250.486 21.089 Q247.57 18.8205 241.574 18.8205 L229.462 18.8205 M221.279 12.096 L242.182 12.096 Q251.539 12.096 256.603 15.9849 Q261.667 19.8737 261.667 27.0438 Q261.667 32.5936 259.074 35.8748 Q256.482 39.156 251.458 39.9662 Q257.494 41.2625 260.816 45.3944 Q264.178 49.4858 264.178 55.6432 Q264.178 63.745 258.669 68.1605 Q253.16 72.576 242.992 72.576 L221.279 72.576 L221.279 12.096 Z" fill="#000000" fill-rule="evenodd" fill-opacity="1" /><path clip-path="url(#clip310)" d="M277.87 27.2059 L285.324 27.2059 L285.324 72.576 L277.87 72.576 L277.87 27.2059 M277.87 9.54393 L285.324 9.54393 L285.324 18.9825 L277.87 18.9825 L277.87 9.54393 Z" fill="#000000" fill-rule="evenodd" fill-opacity="1" /><path clip-path="url(#clip310)" d="M338.634 45.1919 L338.634 72.576 L331.18 72.576 L331.18 45.4349 Q331.18 38.994 328.669 35.7938 Q326.157 32.5936 321.134 32.5936 Q315.098 32.5936 311.614 36.4419 Q308.131 40.2903 308.131 46.9338 L308.131 72.576 L300.636 72.576 L300.636 27.2059 L308.131 27.2059 L308.131 34.2544 Q310.804 30.163 314.409 28.1376 Q318.055 26.1121 322.795 26.1121 Q330.613 26.1121 334.623 30.9732 Q338.634 35.7938 338.634 45.1919 Z" fill="#000000" fill-rule="evenodd" fill-opacity="1" /><path clip-path="url(#clip310)" d="M391.215 45.1919 L391.215 72.576 L383.761 72.576 L383.761 45.4349 Q383.761 38.994 381.249 35.7938 Q378.738 32.5936 373.715 32.5936 Q367.679 32.5936 364.195 36.4419 Q360.711 40.2903 360.711 46.9338 L360.711 72.576 L353.217 72.576 L353.217 27.2059 L360.711 27.2059 L360.711 34.2544 Q363.385 30.163 366.99 28.1376 Q370.636 26.1121 375.376 26.1121 Q383.194 26.1121 387.204 30.9732 Q391.215 35.7938 391.215 45.1919 Z" fill="#000000" fill-rule="evenodd" fill-opacity="1" /><path clip-path="url(#clip310)" d="M444.889 48.0275 L444.889 51.6733 L410.618 51.6733 Q411.105 59.3701 415.236 63.421 Q419.409 67.4314 426.822 67.4314 Q431.116 67.4314 435.126 66.3781 Q439.177 65.3249 443.147 63.2184 L443.147 70.267 Q439.137 71.9684 434.924 72.8596 Q430.711 73.7508 426.376 73.7508 Q415.52 73.7508 409.16 67.4314 Q402.841 61.1119 402.841 50.3365 Q402.841 39.1965 408.836 32.6746 Q414.872 26.1121 425.08 26.1121 Q434.235 26.1121 439.542 32.0264 Q444.889 37.9003 444.889 48.0275 M437.435 45.84 Q437.354 39.7232 433.992 36.0774 Q430.67 32.4315 425.161 32.4315 Q418.923 32.4315 415.155 35.9558 Q411.429 39.4801 410.861 45.8805 L437.435 45.84 Z" fill="#000000" fill-rule="evenodd" fill-opacity="1" /><path clip-path="url(#clip310)" d="M486.978 34.0924 L486.978 9.54393 L494.432 9.54393 L494.432 72.576 L486.978 72.576 L486.978 65.7705 Q484.628 69.8214 481.023 71.8063 Q477.458 73.7508 472.435 73.7508 Q464.212 73.7508 459.027 67.1883 Q453.882 60.6258 453.882 49.9314 Q453.882 39.2371 459.027 32.6746 Q464.212 26.1121 472.435 26.1121 Q477.458 26.1121 481.023 28.0971 Q484.628 30.0415 486.978 34.0924 M461.579 49.9314 Q461.579 58.1548 464.941 62.8538 Q468.344 67.5124 474.258 67.5124 Q480.172 67.5124 483.575 62.8538 Q486.978 58.1548 486.978 49.9314 Q486.978 41.7081 483.575 37.0496 Q480.172 32.3505 474.258 32.3505 Q468.344 32.3505 464.941 37.0496 Q461.579 41.7081 461.579 49.9314 Z" fill="#000000" fill-rule="evenodd" fill-opacity="1" /><path clip-path="url(#clip310)" d="M528.095 12.096 L579.258 12.096 L579.258 18.9825 L557.788 18.9825 L557.788 72.576 L549.564 72.576 L549.564 18.9825 L528.095 18.9825 L528.095 12.096 Z" fill="#000000" fill-rule="evenodd" fill-opacity="1" /><path clip-path="url(#clip310)" d="M611.543 48.0275 L611.543 51.6733 L577.273 51.6733 Q577.759 59.3701 581.891 63.421 Q586.063 67.4314 593.476 67.4314 Q597.77 67.4314 601.781 66.3781 Q605.832 65.3249 609.801 63.2184 L609.801 70.267 Q605.791 71.9684 601.578 72.8596 Q597.365 73.7508 593.031 73.7508 Q582.174 73.7508 575.814 67.4314 Q569.495 61.1119 569.495 50.3365 Q569.495 39.1965 575.49 32.6746 Q581.526 26.1121 591.734 26.1121 Q600.889 26.1121 606.196 32.0264 Q611.543 37.9003 611.543 48.0275 M604.09 45.84 Q604.009 39.7232 600.646 36.0774 Q597.325 32.4315 591.815 32.4315 Q585.577 32.4315 581.81 35.9558 Q578.083 39.4801 577.516 45.8805 L604.09 45.84 Z" fill="#000000" fill-rule="evenodd" fill-opacity="1" /><path clip-path="url(#clip310)" d="M659.101 35.9153 Q661.896 30.8922 665.785 28.5022 Q669.674 26.1121 674.94 26.1121 Q682.029 26.1121 685.877 31.0947 Q689.726 36.0368 689.726 45.1919 L689.726 72.576 L682.232 72.576 L682.232 45.4349 Q682.232 38.913 679.923 35.7533 Q677.614 32.5936 672.874 32.5936 Q667.081 32.5936 663.719 36.4419 Q660.357 40.2903 660.357 46.9338 L660.357 72.576 L652.863 72.576 L652.863 45.4349 Q652.863 38.8725 650.553 35.7533 Q648.244 32.5936 643.424 32.5936 Q637.712 32.5936 634.35 36.4824 Q630.988 40.3308 630.988 46.9338 L630.988 72.576 L623.493 72.576 L623.493 27.2059 L630.988 27.2059 L630.988 34.2544 Q633.54 30.082 637.104 28.0971 Q640.669 26.1121 645.571 26.1121 Q650.513 26.1121 653.956 28.6237 Q657.44 31.1352 659.101 35.9153 Z" fill="#000000" fill-rule="evenodd" fill-opacity="1" /><path clip-path="url(#clip310)" d="M711.803 65.7705 L711.803 89.8329 L704.309 89.8329 L704.309 27.2059 L711.803 27.2059 L711.803 34.0924 Q714.153 30.0415 717.717 28.0971 Q721.323 26.1121 726.305 26.1121 Q734.569 26.1121 739.714 32.6746 Q744.899 39.2371 744.899 49.9314 Q744.899 60.6258 739.714 67.1883 Q734.569 73.7508 726.305 73.7508 Q721.323 73.7508 717.717 71.8063 Q714.153 69.8214 711.803 65.7705 M737.162 49.9314 Q737.162 41.7081 733.759 37.0496 Q730.397 32.3505 724.482 32.3505 Q718.568 32.3505 715.165 37.0496 Q711.803 41.7081 711.803 49.9314 Q711.803 58.1548 715.165 62.8538 Q718.568 67.5124 724.482 67.5124 Q730.397 67.5124 733.759 62.8538 Q737.162 58.1548 737.162 49.9314 Z" fill="#000000" fill-rule="evenodd" fill-opacity="1" /><path clip-path="url(#clip310)" d="M796.062 48.0275 L796.062 51.6733 L761.791 51.6733 Q762.277 59.3701 766.409 63.421 Q770.582 67.4314 777.995 67.4314 Q782.289 67.4314 786.299 66.3781 Q790.35 65.3249 794.32 63.2184 L794.32 70.267 Q790.31 71.9684 786.097 72.8596 Q781.884 73.7508 777.549 73.7508 Q766.693 73.7508 760.333 67.4314 Q754.014 61.1119 754.014 50.3365 Q754.014 39.1965 760.009 32.6746 Q766.045 26.1121 776.253 26.1121 Q785.408 26.1121 790.715 32.0264 Q796.062 37.9003 796.062 48.0275 M788.608 45.84 Q788.527 39.7232 785.165 36.0774 Q781.843 32.4315 776.334 32.4315 Q770.096 32.4315 766.328 35.9558 Q762.602 39.4801 762.034 45.8805 L788.608 45.84 Z" fill="#000000" fill-rule="evenodd" fill-opacity="1" /><path clip-path="url(#clip310)" d="M834.586 34.1734 Q833.33 33.4443 831.831 33.1202 Q830.373 32.7556 828.591 32.7556 Q822.271 32.7556 818.869 36.8875 Q815.506 40.9789 815.506 48.6757 L815.506 72.576 L808.012 72.576 L808.012 27.2059 L815.506 27.2059 L815.506 34.2544 Q817.856 30.1225 821.623 28.1376 Q825.391 26.1121 830.778 26.1121 Q831.548 26.1121 832.48 26.2337 Q833.411 26.3147 834.546 26.5172 L834.586 34.1734 Z" fill="#000000" fill-rule="evenodd" fill-opacity="1" /><path clip-path="url(#clip310)" d="M863.023 49.7694 Q853.99 49.7694 850.506 51.8354 Q847.022 53.9013 847.022 58.8839 Q847.022 62.8538 849.615 65.2034 Q852.248 67.5124 856.745 67.5124 Q862.942 67.5124 866.669 63.1374 Q870.437 58.7219 870.437 51.4303 L870.437 49.7694 L863.023 49.7694 M877.89 46.6907 L877.89 72.576 L870.437 72.576 L870.437 65.6895 Q867.885 69.8214 864.077 71.8063 Q860.269 73.7508 854.76 73.7508 Q847.792 73.7508 843.66 69.8619 Q839.569 65.9325 839.569 59.3701 Q839.569 51.7138 844.673 47.825 Q849.817 43.9361 859.985 43.9361 L870.437 43.9361 L870.437 43.2069 Q870.437 38.0623 867.034 35.2672 Q863.672 32.4315 857.555 32.4315 Q853.666 32.4315 849.98 33.3632 Q846.293 34.295 842.89 36.1584 L842.89 29.2718 Q846.982 27.692 850.83 26.9223 Q854.679 26.1121 858.324 26.1121 Q868.168 26.1121 873.029 31.2163 Q877.89 36.3204 877.89 46.6907 Z" fill="#000000" fill-rule="evenodd" fill-opacity="1" /><path clip-path="url(#clip310)" d="M900.616 14.324 L900.616 27.2059 L915.969 27.2059 L915.969 32.9987 L900.616 32.9987 L900.616 57.6282 Q900.616 63.1779 902.115 64.7578 Q903.654 66.3376 908.313 66.3376 L915.969 66.3376 L915.969 72.576 L908.313 72.576 Q899.684 72.576 896.403 69.3758 Q893.122 66.1351 893.122 57.6282 L893.122 32.9987 L887.653 32.9987 L887.653 27.2059 L893.122 27.2059 L893.122 14.324 L900.616 14.324 Z" fill="#000000" fill-rule="evenodd" fill-opacity="1" /><path clip-path="url(#clip310)" d="M925.002 54.671 L925.002 27.2059 L932.456 27.2059 L932.456 54.3874 Q932.456 60.8284 934.967 64.0691 Q937.479 67.2693 942.502 67.2693 Q948.538 67.2693 952.022 63.421 Q955.546 59.5726 955.546 52.9291 L955.546 27.2059 L963 27.2059 L963 72.576 L955.546 72.576 L955.546 65.6084 Q952.832 69.7404 949.227 71.7658 Q945.662 73.7508 940.922 73.7508 Q933.104 73.7508 929.053 68.8897 Q925.002 64.0286 925.002 54.671 M943.758 26.1121 L943.758 26.1121 Z" fill="#000000" fill-rule="evenodd" fill-opacity="1" /><path clip-path="url(#clip310)" d="M1004.64 34.1734 Q1003.39 33.4443 1001.89 33.1202 Q1000.43 32.7556 998.648 32.7556 Q992.328 32.7556 988.926 36.8875 Q985.563 40.9789 985.563 48.6757 L985.563 72.576 L978.069 72.576 L978.069 27.2059 L985.563 27.2059 L985.563 34.2544 Q987.913 30.1225 991.68 28.1376 Q995.447 26.1121 1000.84 26.1121 Q1001.6 26.1121 1002.54 26.2337 Q1003.47 26.3147 1004.6 26.5172 L1004.64 34.1734 Z" fill="#000000" fill-rule="evenodd" fill-opacity="1" /><path clip-path="url(#clip310)" d="M1049.45 48.0275 L1049.45 51.6733 L1015.18 51.6733 Q1015.66 59.3701 1019.79 63.421 Q1023.97 67.4314 1031.38 67.4314 Q1035.67 67.4314 1039.68 66.3781 Q1043.73 65.3249 1047.7 63.2184 L1047.7 70.267 Q1043.69 71.9684 1039.48 72.8596 Q1035.27 73.7508 1030.93 73.7508 Q1020.08 73.7508 1013.72 67.4314 Q1007.4 61.1119 1007.4 50.3365 Q1007.4 39.1965 1013.39 32.6746 Q1019.43 26.1121 1029.64 26.1121 Q1038.79 26.1121 1044.1 32.0264 Q1049.45 37.9003 1049.45 48.0275 M1041.99 45.84 Q1041.91 39.7232 1038.55 36.0774 Q1035.23 32.4315 1029.72 32.4315 Q1023.48 32.4315 1019.71 35.9558 Q1015.99 39.4801 1015.42 45.8805 L1041.99 45.84 Z" fill="#000000" fill-rule="evenodd" fill-opacity="1" /><path clip-path="url(#clip310)" d="M1117.06 44.2197 Q1119.69 45.1109 1122.16 48.0275 Q1124.67 50.9442 1127.18 56.0483 L1135.49 72.576 L1126.7 72.576 L1118.96 57.061 Q1115.96 50.9847 1113.13 48.9997 Q1110.33 47.0148 1105.47 47.0148 L1096.56 47.0148 L1096.56 72.576 L1088.38 72.576 L1088.38 12.096 L1106.85 12.096 Q1117.22 12.096 1122.32 16.4305 Q1127.43 20.7649 1127.43 29.5149 Q1127.43 35.2267 1124.75 38.994 Q1122.12 42.7613 1117.06 44.2197 M1096.56 18.8205 L1096.56 40.2903 L1106.85 40.2903 Q1112.76 40.2903 1115.76 37.5762 Q1118.8 34.8216 1118.8 29.5149 Q1118.8 24.2082 1115.76 21.5346 Q1112.76 18.8205 1106.85 18.8205 L1096.56 18.8205 Z" fill="#000000" fill-rule="evenodd" fill-opacity="1" /><path clip-path="url(#clip310)" d="M1180.78 48.0275 L1180.78 51.6733 L1146.51 51.6733 Q1146.99 59.3701 1151.12 63.421 Q1155.3 67.4314 1162.71 67.4314 Q1167 67.4314 1171.01 66.3781 Q1175.06 65.3249 1179.03 63.2184 L1179.03 70.267 Q1175.02 71.9684 1170.81 72.8596 Q1166.6 73.7508 1162.26 73.7508 Q1151.41 73.7508 1145.05 67.4314 Q1138.73 61.1119 1138.73 50.3365 Q1138.73 39.1965 1144.72 32.6746 Q1150.76 26.1121 1160.97 26.1121 Q1170.12 26.1121 1175.43 32.0264 Q1180.78 37.9003 1180.78 48.0275 M1173.32 45.84 Q1173.24 39.7232 1169.88 36.0774 Q1166.56 32.4315 1161.05 32.4315 Q1154.81 32.4315 1151.04 35.9558 Q1147.32 39.4801 1146.75 45.8805 L1173.32 45.84 Z" fill="#000000" fill-rule="evenodd" fill-opacity="1" /><path clip-path="url(#clip310)" d="M1221.93 28.5427 L1221.93 35.5912 Q1218.77 33.9709 1215.37 33.1607 Q1211.97 32.3505 1208.32 32.3505 Q1202.77 32.3505 1199.98 34.0519 Q1197.22 35.7533 1197.22 39.156 Q1197.22 41.7486 1199.21 43.2475 Q1201.19 44.7058 1207.19 46.0426 L1209.74 46.6097 Q1217.68 48.3111 1221 51.4303 Q1224.36 54.509 1224.36 60.0587 Q1224.36 66.3781 1219.34 70.0644 Q1214.36 73.7508 1205.61 73.7508 Q1201.96 73.7508 1197.99 73.0216 Q1194.06 72.3329 1189.69 70.9151 L1189.69 63.2184 Q1193.82 65.3654 1197.83 66.4591 Q1201.84 67.5124 1205.77 67.5124 Q1211.04 67.5124 1213.87 65.73 Q1216.71 63.9071 1216.71 60.6258 Q1216.71 57.5877 1214.64 55.9673 Q1212.62 54.3469 1205.69 52.8481 L1203.1 52.2405 Q1196.17 50.7821 1193.09 47.7845 Q1190.01 44.7463 1190.01 39.4801 Q1190.01 33.0797 1194.55 29.5959 Q1199.09 26.1121 1207.43 26.1121 Q1211.56 26.1121 1215.21 26.7198 Q1218.85 27.3274 1221.93 28.5427 Z" fill="#000000" fill-rule="evenodd" fill-opacity="1" /><path clip-path="url(#clip310)" d="M1243.44 65.7705 L1243.44 89.8329 L1235.95 89.8329 L1235.95 27.2059 L1243.44 27.2059 L1243.44 34.0924 Q1245.79 30.0415 1249.36 28.0971 Q1252.96 26.1121 1257.95 26.1121 Q1266.21 26.1121 1271.35 32.6746 Q1276.54 39.2371 1276.54 49.9314 Q1276.54 60.6258 1271.35 67.1883 Q1266.21 73.7508 1257.95 73.7508 Q1252.96 73.7508 1249.36 71.8063 Q1245.79 69.8214 1243.44 65.7705 M1268.8 49.9314 Q1268.8 41.7081 1265.4 37.0496 Q1262.04 32.3505 1256.12 32.3505 Q1250.21 32.3505 1246.81 37.0496 Q1243.44 41.7081 1243.44 49.9314 Q1243.44 58.1548 1246.81 62.8538 Q1250.21 67.5124 1256.12 67.5124 Q1262.04 67.5124 1265.4 62.8538 Q1268.8 58.1548 1268.8 49.9314 Z" fill="#000000" fill-rule="evenodd" fill-opacity="1" /><path clip-path="url(#clip310)" d="M1306.48 32.4315 Q1300.48 32.4315 1297 37.1306 Q1293.51 41.7891 1293.51 49.9314 Q1293.51 58.0738 1296.96 62.7728 Q1300.44 67.4314 1306.48 67.4314 Q1312.43 67.4314 1315.91 62.7323 Q1319.4 58.0333 1319.4 49.9314 Q1319.4 41.8701 1315.91 37.1711 Q1312.43 32.4315 1306.48 32.4315 M1306.48 26.1121 Q1316.2 26.1121 1321.75 32.4315 Q1327.3 38.7509 1327.3 49.9314 Q1327.3 61.0714 1321.75 67.4314 Q1316.2 73.7508 1306.48 73.7508 Q1296.71 73.7508 1291.16 67.4314 Q1285.65 61.0714 1285.65 49.9314 Q1285.65 38.7509 1291.16 32.4315 Q1296.71 26.1121 1306.48 26.1121 Z" fill="#000000" fill-rule="evenodd" fill-opacity="1" /><path clip-path="url(#clip310)" d="M1377.37 45.1919 L1377.37 72.576 L1369.91 72.576 L1369.91 45.4349 Q1369.91 38.994 1367.4 35.7938 Q1364.89 32.5936 1359.87 32.5936 Q1353.83 32.5936 1350.35 36.4419 Q1346.86 40.2903 1346.86 46.9338 L1346.86 72.576 L1339.37 72.576 L1339.37 27.2059 L1346.86 27.2059 L1346.86 34.2544 Q1349.54 30.163 1353.14 28.1376 Q1356.79 26.1121 1361.53 26.1121 Q1369.35 26.1121 1373.36 30.9732 Q1377.37 35.7938 1377.37 45.1919 Z" fill="#000000" fill-rule="evenodd" fill-opacity="1" /><path clip-path="url(#clip310)" d="M1421.16 28.5427 L1421.16 35.5912 Q1418 33.9709 1414.59 33.1607 Q1411.19 32.3505 1407.55 32.3505 Q1402 32.3505 1399.2 34.0519 Q1396.45 35.7533 1396.45 39.156 Q1396.45 41.7486 1398.43 43.2475 Q1400.42 44.7058 1406.41 46.0426 L1408.96 46.6097 Q1416.9 48.3111 1420.23 51.4303 Q1423.59 54.509 1423.59 60.0587 Q1423.59 66.3781 1418.56 70.0644 Q1413.58 73.7508 1404.83 73.7508 Q1401.19 73.7508 1397.22 73.0216 Q1393.29 72.3329 1388.91 70.9151 L1388.91 63.2184 Q1393.04 65.3654 1397.05 66.4591 Q1401.06 67.5124 1404.99 67.5124 Q1410.26 67.5124 1413.1 65.73 Q1415.93 63.9071 1415.93 60.6258 Q1415.93 57.5877 1413.87 55.9673 Q1411.84 54.3469 1404.91 52.8481 L1402.32 52.2405 Q1395.39 50.7821 1392.31 47.7845 Q1389.24 44.7463 1389.24 39.4801 Q1389.24 33.0797 1393.77 29.5959 Q1398.31 26.1121 1406.65 26.1121 Q1410.79 26.1121 1414.43 26.7198 Q1418.08 27.3274 1421.16 28.5427 Z" fill="#000000" fill-rule="evenodd" fill-opacity="1" /><path clip-path="url(#clip310)" d="M1474.26 48.0275 L1474.26 51.6733 L1439.99 51.6733 Q1440.48 59.3701 1444.61 63.421 Q1448.78 67.4314 1456.2 67.4314 Q1460.49 67.4314 1464.5 66.3781 Q1468.55 65.3249 1472.52 63.2184 L1472.52 70.267 Q1468.51 71.9684 1464.3 72.8596 Q1460.09 73.7508 1455.75 73.7508 Q1444.9 73.7508 1438.54 67.4314 Q1432.22 61.1119 1432.22 50.3365 Q1432.22 39.1965 1438.21 32.6746 Q1444.25 26.1121 1454.46 26.1121 Q1463.61 26.1121 1468.92 32.0264 Q1474.26 37.9003 1474.26 48.0275 M1466.81 45.84 Q1466.73 39.7232 1463.37 36.0774 Q1460.05 32.4315 1454.54 32.4315 Q1448.3 32.4315 1444.53 35.9558 Q1440.8 39.4801 1440.24 45.8805 L1466.81 45.84 Z" fill="#000000" fill-rule="evenodd" fill-opacity="1" /><path clip-path="url(#clip310)" d="M1488.4 62.2867 L1496.95 62.2867 L1496.95 72.576 L1488.4 72.576 L1488.4 62.2867 M1488.4 29.6769 L1496.95 29.6769 L1496.95 39.9662 L1488.4 39.9662 L1488.4 29.6769 Z" fill="#000000" fill-rule="evenodd" fill-opacity="1" /><path clip-path="url(#clip310)" d="M1541.14 12.096 L1575.9 12.096 L1575.9 18.9825 L1549.33 18.9825 L1549.33 36.8065 L1573.31 36.8065 L1573.31 43.6931 L1549.33 43.6931 L1549.33 72.576 L1541.14 72.576 L1541.14 12.096 Z" fill="#000000" fill-rule="evenodd" fill-opacity="1" /><path clip-path="url(#clip310)" d="M1601.54 49.7694 Q1592.51 49.7694 1589.03 51.8354 Q1585.54 53.9013 1585.54 58.8839 Q1585.54 62.8538 1588.14 65.2034 Q1590.77 67.5124 1595.26 67.5124 Q1601.46 67.5124 1605.19 63.1374 Q1608.96 58.7219 1608.96 51.4303 L1608.96 49.7694 L1601.54 49.7694 M1616.41 46.6907 L1616.41 72.576 L1608.96 72.576 L1608.96 65.6895 Q1606.4 69.8214 1602.6 71.8063 Q1598.79 73.7508 1593.28 73.7508 Q1586.31 73.7508 1582.18 69.8619 Q1578.09 65.9325 1578.09 59.3701 Q1578.09 51.7138 1583.19 47.825 Q1588.34 43.9361 1598.51 43.9361 L1608.96 43.9361 L1608.96 43.2069 Q1608.96 38.0623 1605.55 35.2672 Q1602.19 32.4315 1596.08 32.4315 Q1592.19 32.4315 1588.5 33.3632 Q1584.81 34.295 1581.41 36.1584 L1581.41 29.2718 Q1585.5 27.692 1589.35 26.9223 Q1593.2 26.1121 1596.84 26.1121 Q1606.69 26.1121 1611.55 31.2163 Q1616.41 36.3204 1616.41 46.6907 Z" fill="#000000" fill-rule="evenodd" fill-opacity="1" /><path clip-path="url(#clip310)" d="M1658.05 34.1734 Q1656.8 33.4443 1655.3 33.1202 Q1653.84 32.7556 1652.06 32.7556 Q1645.74 32.7556 1642.34 36.8875 Q1638.97 40.9789 1638.97 48.6757 L1638.97 72.576 L1631.48 72.576 L1631.48 27.2059 L1638.97 27.2059 L1638.97 34.2544 Q1641.32 30.1225 1645.09 28.1376 Q1648.86 26.1121 1654.25 26.1121 Q1655.02 26.1121 1655.95 26.2337 Q1656.88 26.3147 1658.01 26.5172 L1658.05 34.1734 Z" fill="#000000" fill-rule="evenodd" fill-opacity="1" /><path clip-path="url(#clip310)" d="M1699.74 35.9153 Q1702.53 30.8922 1706.42 28.5022 Q1710.31 26.1121 1715.58 26.1121 Q1722.67 26.1121 1726.51 31.0947 Q1730.36 36.0368 1730.36 45.1919 L1730.36 72.576 L1722.87 72.576 L1722.87 45.4349 Q1722.87 38.913 1720.56 35.7533 Q1718.25 32.5936 1713.51 32.5936 Q1707.72 32.5936 1704.36 36.4419 Q1700.99 40.2903 1700.99 46.9338 L1700.99 72.576 L1693.5 72.576 L1693.5 45.4349 Q1693.5 38.8725 1691.19 35.7533 Q1688.88 32.5936 1684.06 32.5936 Q1678.35 32.5936 1674.99 36.4824 Q1671.62 40.3308 1671.62 46.9338 L1671.62 72.576 L1664.13 72.576 L1664.13 27.2059 L1671.62 27.2059 L1671.62 34.2544 Q1674.18 30.082 1677.74 28.0971 Q1681.31 26.1121 1686.21 26.1121 Q1691.15 26.1121 1694.59 28.6237 Q1698.08 31.1352 1699.74 35.9153 Z" fill="#000000" fill-rule="evenodd" fill-opacity="1" /><path clip-path="url(#clip310)" d="M1771.92 12.096 L1810.17 12.096 L1810.17 18.9825 L1780.11 18.9825 L1780.11 36.8875 L1808.91 36.8875 L1808.91 43.7741 L1780.11 43.7741 L1780.11 65.6895 L1810.89 65.6895 L1810.89 72.576 L1771.92 72.576 L1771.92 12.096 Z" fill="#000000" fill-rule="evenodd" fill-opacity="1" /><path clip-path="url(#clip310)" d="M1859.34 35.9153 Q1862.14 30.8922 1866.03 28.5022 Q1869.92 26.1121 1875.18 26.1121 Q1882.27 26.1121 1886.12 31.0947 Q1889.97 36.0368 1889.97 45.1919 L1889.97 72.576 L1882.47 72.576 L1882.47 45.4349 Q1882.47 38.913 1880.16 35.7533 Q1877.86 32.5936 1873.12 32.5936 Q1867.32 32.5936 1863.96 36.4419 Q1860.6 40.2903 1860.6 46.9338 L1860.6 72.576 L1853.1 72.576 L1853.1 45.4349 Q1853.1 38.8725 1850.8 35.7533 Q1848.49 32.5936 1843.67 32.5936 Q1837.95 32.5936 1834.59 36.4824 Q1831.23 40.3308 1831.23 46.9338 L1831.23 72.576 L1823.74 72.576 L1823.74 27.2059 L1831.23 27.2059 L1831.23 34.2544 Q1833.78 30.082 1837.35 28.0971 Q1840.91 26.1121 1845.81 26.1121 Q1850.76 26.1121 1854.2 28.6237 Q1857.68 31.1352 1859.34 35.9153 Z" fill="#000000" fill-rule="evenodd" fill-opacity="1" /><path clip-path="url(#clip310)" d="M1912.05 65.7705 L1912.05 89.8329 L1904.55 89.8329 L1904.55 27.2059 L1912.05 27.2059 L1912.05 34.0924 Q1914.4 30.0415 1917.96 28.0971 Q1921.57 26.1121 1926.55 26.1121 Q1934.81 26.1121 1939.96 32.6746 Q1945.14 39.2371 1945.14 49.9314 Q1945.14 60.6258 1939.96 67.1883 Q1934.81 73.7508 1926.55 73.7508 Q1921.57 73.7508 1917.96 71.8063 Q1914.4 69.8214 1912.05 65.7705 M1937.4 49.9314 Q1937.4 41.7081 1934 37.0496 Q1930.64 32.3505 1924.72 32.3505 Q1918.81 32.3505 1915.41 37.0496 Q1912.05 41.7081 1912.05 49.9314 Q1912.05 58.1548 1915.41 62.8538 Q1918.81 67.5124 1924.72 67.5124 Q1930.64 67.5124 1934 62.8538 Q1937.4 58.1548 1937.4 49.9314 Z" fill="#000000" fill-rule="evenodd" fill-opacity="1" /><path clip-path="url(#clip310)" d="M1957.5 9.54393 L1964.95 9.54393 L1964.95 72.576 L1957.5 72.576 L1957.5 9.54393 Z" fill="#000000" fill-rule="evenodd" fill-opacity="1" /><path clip-path="url(#clip310)" d="M1998.13 32.4315 Q1992.13 32.4315 1988.65 37.1306 Q1985.16 41.7891 1985.16 49.9314 Q1985.16 58.0738 1988.61 62.7728 Q1992.09 67.4314 1998.13 67.4314 Q2004.08 67.4314 2007.57 62.7323 Q2011.05 58.0333 2011.05 49.9314 Q2011.05 41.8701 2007.57 37.1711 Q2004.08 32.4315 1998.13 32.4315 M1998.13 26.1121 Q2007.85 26.1121 2013.4 32.4315 Q2018.95 38.7509 2018.95 49.9314 Q2018.95 61.0714 2013.4 67.4314 Q2007.85 73.7508 1998.13 73.7508 Q1988.36 73.7508 1982.81 67.4314 Q1977.31 61.0714 1977.31 49.9314 Q1977.31 38.7509 1982.81 32.4315 Q1988.36 26.1121 1998.13 26.1121 Z" fill="#000000" fill-rule="evenodd" fill-opacity="1" /><path clip-path="url(#clip310)" d="M2050.18 76.7889 Q2047.02 84.8907 2044.02 87.3618 Q2041.03 89.8329 2036 89.8329 L2030.05 89.8329 L2030.05 83.5945 L2034.42 83.5945 Q2037.5 83.5945 2039.2 82.1361 Q2040.9 80.6778 2042.97 75.2496 L2044.31 71.8468 L2025.96 27.2059 L2033.86 27.2059 L2048.03 62.6918 L2062.21 27.2059 L2070.11 27.2059 L2050.18 76.7889 Z" fill="#000000" fill-rule="evenodd" fill-opacity="1" /><path clip-path="url(#clip310)" d="M2115.73 35.9153 Q2118.52 30.8922 2122.41 28.5022 Q2126.3 26.1121 2131.56 26.1121 Q2138.65 26.1121 2142.5 31.0947 Q2146.35 36.0368 2146.35 45.1919 L2146.35 72.576 L2138.86 72.576 L2138.86 45.4349 Q2138.86 38.913 2136.55 35.7533 Q2134.24 32.5936 2129.5 32.5936 Q2123.71 32.5936 2120.34 36.4419 Q2116.98 40.2903 2116.98 46.9338 L2116.98 72.576 L2109.49 72.576 L2109.49 45.4349 Q2109.49 38.8725 2107.18 35.7533 Q2104.87 32.5936 2100.05 32.5936 Q2094.34 32.5936 2090.97 36.4824 Q2087.61 40.3308 2087.61 46.9338 L2087.61 72.576 L2080.12 72.576 L2080.12 27.2059 L2087.61 27.2059 L2087.61 34.2544 Q2090.16 30.082 2093.73 28.0971 Q2097.29 26.1121 2102.2 26.1121 Q2107.14 26.1121 2110.58 28.6237 Q2114.06 31.1352 2115.73 35.9153 Z" fill="#000000" fill-rule="evenodd" fill-opacity="1" /><path clip-path="url(#clip310)" d="M2200.02 48.0275 L2200.02 51.6733 L2165.75 51.6733 Q2166.24 59.3701 2170.37 63.421 Q2174.54 67.4314 2181.96 67.4314 Q2186.25 67.4314 2190.26 66.3781 Q2194.31 65.3249 2198.28 63.2184 L2198.28 70.267 Q2194.27 71.9684 2190.06 72.8596 Q2185.85 73.7508 2181.51 73.7508 Q2170.66 73.7508 2164.3 67.4314 Q2157.98 61.1119 2157.98 50.3365 Q2157.98 39.1965 2163.97 32.6746 Q2170.01 26.1121 2180.22 26.1121 Q2189.37 26.1121 2194.68 32.0264 Q2200.02 37.9003 2200.02 48.0275 M2192.57 45.84 Q2192.49 39.7232 2189.13 36.0774 Q2185.81 32.4315 2180.3 32.4315 Q2174.06 32.4315 2170.29 35.9558 Q2166.56 39.4801 2166 45.8805 L2192.57 45.84 Z" fill="#000000" fill-rule="evenodd" fill-opacity="1" /><path clip-path="url(#clip310)" d="M2249.97 45.1919 L2249.97 72.576 L2242.52 72.576 L2242.52 45.4349 Q2242.52 38.994 2240.01 35.7938 Q2237.5 32.5936 2232.47 32.5936 Q2226.44 32.5936 2222.95 36.4419 Q2219.47 40.2903 2219.47 46.9338 L2219.47 72.576 L2211.97 72.576 L2211.97 27.2059 L2219.47 27.2059 L2219.47 34.2544 Q2222.14 30.163 2225.75 28.1376 Q2229.39 26.1121 2234.13 26.1121 Q2241.95 26.1121 2245.96 30.9732 Q2249.97 35.7938 2249.97 45.1919 Z" fill="#000000" fill-rule="evenodd" fill-opacity="1" /><path clip-path="url(#clip310)" d="M2272.21 14.324 L2272.21 27.2059 L2287.56 27.2059 L2287.56 32.9987 L2272.21 32.9987 L2272.21 57.6282 Q2272.21 63.1779 2273.71 64.7578 Q2275.25 66.3376 2279.91 66.3376 L2287.56 66.3376 L2287.56 72.576 L2279.91 72.576 Q2271.28 72.576 2268 69.3758 Q2264.72 66.1351 2264.72 57.6282 L2264.72 32.9987 L2259.25 32.9987 L2259.25 27.2059 L2264.72 27.2059 L2264.72 14.324 L2272.21 14.324 Z" fill="#000000" fill-rule="evenodd" fill-opacity="1" /><polyline clip-path="url(#clip312)" style="stroke:#808080; stroke-linecap:butt; stroke-linejoin:round; stroke-width:4; stroke-opacity:1; fill:none" stroke-dasharray="16, 10" points="
  373.936,907.358 587.401,907.358 800.866,907.358 1014.33,907.358 1227.8,907.358 1441.26,907.358 1654.73,907.358 1868.19,907.358 2081.66,907.358 2295.12,907.358 
  
  "/>
<path clip-path="url(#clip312)" d="
M373.936 1386.4 L587.401 1301.51 L800.866 1279.42 L1014.33 1248.35 L1227.8 1112.94 L1441.26 966.178 L1654.73 907.358 L1868.19 888.691 L2081.66 1064.79 L2295.12 733.394 
  L2295.12 160.256 L2081.66 872.879 L1868.19 765.659 L1654.73 907.358 L1441.26 857.144 L1227.8 981.859 L1014.33 1096.28 L800.866 1103.92 L587.401 1120.03 L373.936 1190.19 
   Z
  " fill="#009af9" fill-rule="evenodd" fill-opacity="0.35"/>
<polyline clip-path="url(#clip312)" style="stroke:#009af9; stroke-linecap:butt; stroke-linejoin:round; stroke-width:0; stroke-opacity:1; fill:none" points="
  373.936,1386.4 587.401,1301.51 800.866,1279.42 1014.33,1248.35 1227.8,1112.94 1441.26,966.178 1654.73,907.358 1868.19,888.691 2081.66,1064.79 2295.12,733.394 
  
  "/>
<polyline clip-path="url(#clip312)" style="stroke:#e26f46; stroke-linecap:butt; stroke-linejoin:round; stroke-width:4; stroke-opacity:1; fill:none" points="
  373.936,1288.29 587.401,1210.77 800.866,1191.67 1014.33,1172.31 1227.8,1047.4 1441.26,911.661 1654.73,907.358 1868.19,827.175 2081.66,968.836 2295.12,446.825 
  
  "/>
<path clip-path="url(#clip310)" d="
M1600.48 1379.86 L2284.87 1379.86 L2284.87 1224.34 L1600.48 1224.34  Z
  " fill="#ffffff" fill-rule="evenodd" fill-opacity="1"/>
<polyline clip-path="url(#clip310)" style="stroke:#000000; stroke-linecap:butt; stroke-linejoin:round; stroke-width:4; stroke-opacity:1; fill:none" points="
  1600.48,1379.86 2284.87,1379.86 2284.87,1224.34 1600.48,1224.34 1600.48,1379.86 
  "/>
<path clip-path="url(#clip310)" d="
M1623.11 1296.91 L1758.87 1296.91 L1758.87 1255.44 L1623.11 1255.44 L1623.11 1296.91  Z
  " fill="#009af9" fill-rule="evenodd" fill-opacity="0.35"/>
<polyline clip-path="url(#clip310)" style="stroke:#009af9; stroke-linecap:butt; stroke-linejoin:round; stroke-width:0; stroke-opacity:1; fill:none" points="
  1623.11,1255.44 1758.87,1255.44 
  "/>
<path clip-path="url(#clip310)" d="M1783.72 1292.74 L1783.72 1288.48 Q1785.48 1289.31 1787.28 1289.75 Q1789.09 1290.19 1790.83 1290.19 Q1795.46 1290.19 1797.89 1287.09 Q1800.34 1283.97 1800.69 1277.62 Q1799.34 1279.61 1797.28 1280.68 Q1795.22 1281.74 1792.72 1281.74 Q1787.54 1281.74 1784.51 1278.62 Q1781.5 1275.47 1781.5 1270.03 Q1781.5 1264.71 1784.65 1261.49 Q1787.79 1258.27 1793.02 1258.27 Q1799.02 1258.27 1802.17 1262.88 Q1805.34 1267.46 1805.34 1276.21 Q1805.34 1284.38 1801.45 1289.27 Q1797.58 1294.13 1791.03 1294.13 Q1789.27 1294.13 1787.47 1293.78 Q1785.66 1293.43 1783.72 1292.74 M1793.02 1278.09 Q1796.17 1278.09 1798 1275.93 Q1799.85 1273.78 1799.85 1270.03 Q1799.85 1266.3 1798 1264.15 Q1796.17 1261.97 1793.02 1261.97 Q1789.88 1261.97 1788.02 1264.15 Q1786.2 1266.3 1786.2 1270.03 Q1786.2 1273.78 1788.02 1275.93 Q1789.88 1278.09 1793.02 1278.09 Z" fill="#000000" fill-rule="evenodd" fill-opacity="1" /><path clip-path="url(#clip310)" d="M1813.79 1258.9 L1832.14 1258.9 L1832.14 1262.83 L1818.07 1262.83 L1818.07 1271.3 Q1819.09 1270.96 1820.11 1270.79 Q1821.13 1270.61 1822.14 1270.61 Q1827.93 1270.61 1831.31 1273.78 Q1834.69 1276.95 1834.69 1282.37 Q1834.69 1287.95 1831.22 1291.05 Q1827.75 1294.13 1821.43 1294.13 Q1819.25 1294.13 1816.98 1293.76 Q1814.74 1293.39 1812.33 1292.65 L1812.33 1287.95 Q1814.41 1289.08 1816.64 1289.64 Q1818.86 1290.19 1821.33 1290.19 Q1825.34 1290.19 1827.68 1288.09 Q1830.02 1285.98 1830.02 1282.37 Q1830.02 1278.76 1827.68 1276.65 Q1825.34 1274.54 1821.33 1274.54 Q1819.46 1274.54 1817.58 1274.96 Q1815.73 1275.38 1813.79 1276.26 L1813.79 1258.9 Z" fill="#000000" fill-rule="evenodd" fill-opacity="1" /><path clip-path="url(#clip310)" d="M1873.3 1278.25 Q1871.29 1278.25 1870.13 1279.96 Q1869 1281.67 1869 1284.73 Q1869 1287.74 1870.13 1289.47 Q1871.29 1291.19 1873.3 1291.19 Q1875.27 1291.19 1876.4 1289.47 Q1877.56 1287.74 1877.56 1284.73 Q1877.56 1281.7 1876.4 1279.98 Q1875.27 1278.25 1873.3 1278.25 M1873.3 1275.31 Q1876.96 1275.31 1879.11 1277.85 Q1881.26 1280.4 1881.26 1284.73 Q1881.26 1289.06 1879.09 1291.6 Q1876.94 1294.13 1873.3 1294.13 Q1869.6 1294.13 1867.45 1291.6 Q1865.29 1289.06 1865.29 1284.73 Q1865.29 1280.38 1867.45 1277.85 Q1869.62 1275.31 1873.3 1275.31 M1849.41 1261.21 Q1847.42 1261.21 1846.27 1262.95 Q1845.13 1264.66 1845.13 1267.67 Q1845.13 1270.72 1846.27 1272.44 Q1847.4 1274.15 1849.41 1274.15 Q1851.43 1274.15 1852.56 1272.44 Q1853.72 1270.72 1853.72 1267.67 Q1853.72 1264.68 1852.56 1262.95 Q1851.4 1261.21 1849.41 1261.21 M1870.32 1258.27 L1874.02 1258.27 L1852.4 1294.13 L1848.7 1294.13 L1870.32 1258.27 M1849.41 1258.27 Q1853.07 1258.27 1855.25 1260.82 Q1857.42 1263.34 1857.42 1267.67 Q1857.42 1272.04 1855.25 1274.57 Q1853.09 1277.09 1849.41 1277.09 Q1845.73 1277.09 1843.58 1274.57 Q1841.45 1272.02 1841.45 1267.67 Q1841.45 1263.36 1843.6 1260.82 Q1845.76 1258.27 1849.41 1258.27 Z" fill="#000000" fill-rule="evenodd" fill-opacity="1" /><path clip-path="url(#clip310)" d="M1929.48 1261.56 L1929.48 1266.49 Q1927.12 1264.29 1924.44 1263.2 Q1921.77 1262.11 1918.76 1262.11 Q1912.84 1262.11 1909.69 1265.75 Q1906.54 1269.36 1906.54 1276.21 Q1906.54 1283.04 1909.69 1286.67 Q1912.84 1290.28 1918.76 1290.28 Q1921.77 1290.28 1924.44 1289.2 Q1927.12 1288.11 1929.48 1285.91 L1929.48 1290.79 Q1927.03 1292.46 1924.27 1293.29 Q1921.54 1294.13 1918.49 1294.13 Q1910.64 1294.13 1906.13 1289.34 Q1901.61 1284.52 1901.61 1276.21 Q1901.61 1267.88 1906.13 1263.09 Q1910.64 1258.27 1918.49 1258.27 Q1921.59 1258.27 1924.32 1259.1 Q1927.07 1259.91 1929.48 1261.56 Z" fill="#000000" fill-rule="evenodd" fill-opacity="1" /><path clip-path="url(#clip310)" d="M1936.7 1258.9 L1941.38 1258.9 L1941.38 1293.46 L1936.7 1293.46 L1936.7 1258.9 Z" fill="#000000" fill-rule="evenodd" fill-opacity="1" /><polyline clip-path="url(#clip310)" style="stroke:#e26f46; stroke-linecap:butt; stroke-linejoin:round; stroke-width:4; stroke-opacity:1; fill:none" points="
  1623.11,1328.02 1758.87,1328.02 
  "/>
<path clip-path="url(#clip310)" d="M1786.17 1314.58 L1786.17 1327.56 L1792.05 1327.56 Q1795.32 1327.56 1797.1 1325.88 Q1798.88 1324.19 1798.88 1321.06 Q1798.88 1317.96 1797.1 1316.27 Q1795.32 1314.58 1792.05 1314.58 L1786.17 1314.58 M1781.5 1310.74 L1792.05 1310.74 Q1797.86 1310.74 1800.83 1313.38 Q1803.81 1315.99 1803.81 1321.06 Q1803.81 1326.18 1800.83 1328.79 Q1797.86 1331.41 1792.05 1331.41 L1786.17 1331.41 L1786.17 1345.3 L1781.5 1345.3 L1781.5 1310.74 Z" fill="#000000" fill-rule="evenodd" fill-opacity="1" /><path clip-path="url(#clip310)" d="M1824.09 1323.35 Q1823.37 1322.94 1822.52 1322.75 Q1821.68 1322.54 1820.66 1322.54 Q1817.05 1322.54 1815.11 1324.9 Q1813.19 1327.24 1813.19 1331.64 L1813.19 1345.3 L1808.9 1345.3 L1808.9 1319.37 L1813.19 1319.37 L1813.19 1323.4 Q1814.53 1321.04 1816.68 1319.9 Q1818.83 1318.75 1821.91 1318.75 Q1822.35 1318.75 1822.89 1318.81 Q1823.42 1318.86 1824.07 1318.98 L1824.09 1323.35 Z" fill="#000000" fill-rule="evenodd" fill-opacity="1" /><path clip-path="url(#clip310)" d="M1849.69 1331.27 L1849.69 1333.35 L1830.11 1333.35 Q1830.39 1337.75 1832.75 1340.06 Q1835.13 1342.36 1839.37 1342.36 Q1841.82 1342.36 1844.11 1341.75 Q1846.43 1341.15 1848.7 1339.95 L1848.7 1343.98 Q1846.4 1344.95 1844 1345.46 Q1841.59 1345.97 1839.11 1345.97 Q1832.91 1345.97 1829.27 1342.36 Q1825.66 1338.75 1825.66 1332.59 Q1825.66 1326.22 1829.09 1322.5 Q1832.54 1318.75 1838.37 1318.75 Q1843.6 1318.75 1846.64 1322.13 Q1849.69 1325.48 1849.69 1331.27 M1845.43 1330.02 Q1845.39 1326.52 1843.46 1324.44 Q1841.57 1322.36 1838.42 1322.36 Q1834.85 1322.36 1832.7 1324.37 Q1830.57 1326.38 1830.25 1330.04 L1845.43 1330.02 Z" fill="#000000" fill-rule="evenodd" fill-opacity="1" /><path clip-path="url(#clip310)" d="M1873.74 1323.31 L1873.74 1309.28 L1878 1309.28 L1878 1345.3 L1873.74 1345.3 L1873.74 1341.41 Q1872.4 1343.72 1870.34 1344.86 Q1868.3 1345.97 1865.43 1345.97 Q1860.73 1345.97 1857.77 1342.22 Q1854.83 1338.47 1854.83 1332.36 Q1854.83 1326.25 1857.77 1322.5 Q1860.73 1318.75 1865.43 1318.75 Q1868.3 1318.75 1870.34 1319.88 Q1872.4 1320.99 1873.74 1323.31 M1859.23 1332.36 Q1859.23 1337.06 1861.15 1339.74 Q1863.09 1342.4 1866.47 1342.4 Q1869.85 1342.4 1871.8 1339.74 Q1873.74 1337.06 1873.74 1332.36 Q1873.74 1327.66 1871.8 1325 Q1869.85 1322.31 1866.47 1322.31 Q1863.09 1322.31 1861.15 1325 Q1859.23 1327.66 1859.23 1332.36 Z" fill="#000000" fill-rule="evenodd" fill-opacity="1" /><path clip-path="url(#clip310)" d="M1886.77 1319.37 L1891.03 1319.37 L1891.03 1345.3 L1886.77 1345.3 L1886.77 1319.37 M1886.77 1309.28 L1891.03 1309.28 L1891.03 1314.67 L1886.77 1314.67 L1886.77 1309.28 Z" fill="#000000" fill-rule="evenodd" fill-opacity="1" /><path clip-path="url(#clip310)" d="M1918.6 1320.37 L1918.6 1324.35 Q1916.8 1323.35 1914.97 1322.87 Q1913.16 1322.36 1911.31 1322.36 Q1907.17 1322.36 1904.88 1325 Q1902.58 1327.61 1902.58 1332.36 Q1902.58 1337.1 1904.88 1339.74 Q1907.17 1342.36 1911.31 1342.36 Q1913.16 1342.36 1914.97 1341.87 Q1916.8 1341.36 1918.6 1340.37 L1918.6 1344.3 Q1916.82 1345.13 1914.9 1345.55 Q1913 1345.97 1910.85 1345.97 Q1904.99 1345.97 1901.54 1342.29 Q1898.09 1338.61 1898.09 1332.36 Q1898.09 1326.01 1901.57 1322.38 Q1905.06 1318.75 1911.13 1318.75 Q1913.09 1318.75 1914.97 1319.16 Q1916.84 1319.56 1918.6 1320.37 Z" fill="#000000" fill-rule="evenodd" fill-opacity="1" /><path clip-path="url(#clip310)" d="M1930.22 1312.01 L1930.22 1319.37 L1939 1319.37 L1939 1322.68 L1930.22 1322.68 L1930.22 1336.75 Q1930.22 1339.93 1931.08 1340.83 Q1931.96 1341.73 1934.62 1341.73 L1939 1341.73 L1939 1345.3 L1934.62 1345.3 Q1929.69 1345.3 1927.82 1343.47 Q1925.94 1341.62 1925.94 1336.75 L1925.94 1322.68 L1922.82 1322.68 L1922.82 1319.37 L1925.94 1319.37 L1925.94 1312.01 L1930.22 1312.01 Z" fill="#000000" fill-rule="evenodd" fill-opacity="1" /><path clip-path="url(#clip310)" d="M1966.77 1331.27 L1966.77 1333.35 L1947.19 1333.35 Q1947.47 1337.75 1949.83 1340.06 Q1952.21 1342.36 1956.45 1342.36 Q1958.9 1342.36 1961.2 1341.75 Q1963.51 1341.15 1965.78 1339.95 L1965.78 1343.98 Q1963.49 1344.95 1961.08 1345.46 Q1958.67 1345.97 1956.2 1345.97 Q1949.99 1345.97 1946.36 1342.36 Q1942.75 1338.75 1942.75 1332.59 Q1942.75 1326.22 1946.17 1322.5 Q1949.62 1318.75 1955.45 1318.75 Q1960.69 1318.75 1963.72 1322.13 Q1966.77 1325.48 1966.77 1331.27 M1962.51 1330.02 Q1962.47 1326.52 1960.55 1324.44 Q1958.65 1322.36 1955.5 1322.36 Q1951.94 1322.36 1949.78 1324.37 Q1947.65 1326.38 1947.33 1330.04 L1962.51 1330.02 Z" fill="#000000" fill-rule="evenodd" fill-opacity="1" /><path clip-path="url(#clip310)" d="M1990.82 1323.31 L1990.82 1309.28 L1995.08 1309.28 L1995.08 1345.3 L1990.82 1345.3 L1990.82 1341.41 Q1989.48 1343.72 1987.42 1344.86 Q1985.38 1345.97 1982.51 1345.97 Q1977.82 1345.97 1974.85 1342.22 Q1971.91 1338.47 1971.91 1332.36 Q1971.91 1326.25 1974.85 1322.5 Q1977.82 1318.75 1982.51 1318.75 Q1985.38 1318.75 1987.42 1319.88 Q1989.48 1320.99 1990.82 1323.31 M1976.31 1332.36 Q1976.31 1337.06 1978.23 1339.74 Q1980.18 1342.4 1983.56 1342.4 Q1986.94 1342.4 1988.88 1339.74 Q1990.82 1337.06 1990.82 1332.36 Q1990.82 1327.66 1988.88 1325 Q1986.94 1322.31 1983.56 1322.31 Q1980.18 1322.31 1978.23 1325 Q1976.31 1327.66 1976.31 1332.36 Z" fill="#000000" fill-rule="evenodd" fill-opacity="1" /><path clip-path="url(#clip310)" d="M2035.5 1329.09 Q2037 1329.6 2038.42 1331.27 Q2039.85 1332.94 2041.29 1335.85 L2046.03 1345.3 L2041.01 1345.3 L2036.59 1336.43 Q2034.88 1332.96 2033.25 1331.82 Q2031.66 1330.69 2028.88 1330.69 L2023.79 1330.69 L2023.79 1345.3 L2019.11 1345.3 L2019.11 1310.74 L2029.67 1310.74 Q2035.59 1310.74 2038.51 1313.21 Q2041.43 1315.69 2041.43 1320.69 Q2041.43 1323.95 2039.9 1326.11 Q2038.39 1328.26 2035.5 1329.09 M2023.79 1314.58 L2023.79 1326.85 L2029.67 1326.85 Q2033.05 1326.85 2034.76 1325.3 Q2036.5 1323.72 2036.5 1320.69 Q2036.5 1317.66 2034.76 1316.13 Q2033.05 1314.58 2029.67 1314.58 L2023.79 1314.58 Z" fill="#000000" fill-rule="evenodd" fill-opacity="1" /><path clip-path="url(#clip310)" d="M2071.91 1331.27 L2071.91 1333.35 L2052.33 1333.35 Q2052.61 1337.75 2054.97 1340.06 Q2057.35 1342.36 2061.59 1342.36 Q2064.04 1342.36 2066.33 1341.75 Q2068.65 1341.15 2070.92 1339.95 L2070.92 1343.98 Q2068.63 1344.95 2066.22 1345.46 Q2063.81 1345.97 2061.33 1345.97 Q2055.13 1345.97 2051.5 1342.36 Q2047.88 1338.75 2047.88 1332.59 Q2047.88 1326.22 2051.31 1322.5 Q2054.76 1318.75 2060.59 1318.75 Q2065.82 1318.75 2068.86 1322.13 Q2071.91 1325.48 2071.91 1331.27 M2067.65 1330.02 Q2067.61 1326.52 2065.69 1324.44 Q2063.79 1322.36 2060.64 1322.36 Q2057.07 1322.36 2054.92 1324.37 Q2052.79 1326.38 2052.47 1330.04 L2067.65 1330.02 Z" fill="#000000" fill-rule="evenodd" fill-opacity="1" /><path clip-path="url(#clip310)" d="M2095.43 1320.13 L2095.43 1324.16 Q2093.62 1323.24 2091.68 1322.77 Q2089.74 1322.31 2087.65 1322.31 Q2084.48 1322.31 2082.88 1323.28 Q2081.31 1324.25 2081.31 1326.2 Q2081.31 1327.68 2082.44 1328.54 Q2083.58 1329.37 2087 1330.13 L2088.46 1330.46 Q2093 1331.43 2094.9 1333.21 Q2096.82 1334.97 2096.82 1338.14 Q2096.82 1341.75 2093.95 1343.86 Q2091.1 1345.97 2086.1 1345.97 Q2084.02 1345.97 2081.75 1345.55 Q2079.5 1345.16 2077 1344.35 L2077 1339.95 Q2079.37 1341.18 2081.66 1341.8 Q2083.95 1342.4 2086.19 1342.4 Q2089.2 1342.4 2090.82 1341.38 Q2092.44 1340.34 2092.44 1338.47 Q2092.44 1336.73 2091.26 1335.81 Q2090.11 1334.88 2086.15 1334.02 L2084.67 1333.68 Q2080.71 1332.84 2078.95 1331.13 Q2077.19 1329.39 2077.19 1326.38 Q2077.19 1322.73 2079.78 1320.74 Q2082.37 1318.75 2087.14 1318.75 Q2089.5 1318.75 2091.59 1319.09 Q2093.67 1319.44 2095.43 1320.13 Z" fill="#000000" fill-rule="evenodd" fill-opacity="1" /><path clip-path="url(#clip310)" d="M2107.72 1341.41 L2107.72 1355.16 L2103.44 1355.16 L2103.44 1319.37 L2107.72 1319.37 L2107.72 1323.31 Q2109.06 1320.99 2111.1 1319.88 Q2113.16 1318.75 2116.01 1318.75 Q2120.73 1318.75 2123.67 1322.5 Q2126.63 1326.25 2126.63 1332.36 Q2126.63 1338.47 2123.67 1342.22 Q2120.73 1345.97 2116.01 1345.97 Q2113.16 1345.97 2111.1 1344.86 Q2109.06 1343.72 2107.72 1341.41 M2122.21 1332.36 Q2122.21 1327.66 2120.27 1325 Q2118.35 1322.31 2114.97 1322.31 Q2111.59 1322.31 2109.64 1325 Q2107.72 1327.66 2107.72 1332.36 Q2107.72 1337.06 2109.64 1339.74 Q2111.59 1342.4 2114.97 1342.4 Q2118.35 1342.4 2120.27 1339.74 Q2122.21 1337.06 2122.21 1332.36 Z" fill="#000000" fill-rule="evenodd" fill-opacity="1" /><path clip-path="url(#clip310)" d="M2143.74 1322.36 Q2140.31 1322.36 2138.32 1325.04 Q2136.33 1327.7 2136.33 1332.36 Q2136.33 1337.01 2138.3 1339.69 Q2140.29 1342.36 2143.74 1342.36 Q2147.14 1342.36 2149.13 1339.67 Q2151.12 1336.99 2151.12 1332.36 Q2151.12 1327.75 2149.13 1325.06 Q2147.14 1322.36 2143.74 1322.36 M2143.74 1318.75 Q2149.3 1318.75 2152.47 1322.36 Q2155.64 1325.97 2155.64 1332.36 Q2155.64 1338.72 2152.47 1342.36 Q2149.3 1345.97 2143.74 1345.97 Q2138.16 1345.97 2134.99 1342.36 Q2131.84 1338.72 2131.84 1332.36 Q2131.84 1325.97 2134.99 1322.36 Q2138.16 1318.75 2143.74 1318.75 Z" fill="#000000" fill-rule="evenodd" fill-opacity="1" /><path clip-path="url(#clip310)" d="M2184.25 1329.65 L2184.25 1345.3 L2179.99 1345.3 L2179.99 1329.79 Q2179.99 1326.11 2178.56 1324.28 Q2177.12 1322.45 2174.25 1322.45 Q2170.8 1322.45 2168.81 1324.65 Q2166.82 1326.85 2166.82 1330.64 L2166.82 1345.3 L2162.54 1345.3 L2162.54 1319.37 L2166.82 1319.37 L2166.82 1323.4 Q2168.35 1321.06 2170.41 1319.9 Q2172.49 1318.75 2175.2 1318.75 Q2179.67 1318.75 2181.96 1321.52 Q2184.25 1324.28 2184.25 1329.65 Z" fill="#000000" fill-rule="evenodd" fill-opacity="1" /><path clip-path="url(#clip310)" d="M2209.27 1320.13 L2209.27 1324.16 Q2207.47 1323.24 2205.52 1322.77 Q2203.58 1322.31 2201.49 1322.31 Q2198.32 1322.31 2196.73 1323.28 Q2195.15 1324.25 2195.15 1326.2 Q2195.15 1327.68 2196.29 1328.54 Q2197.42 1329.37 2200.85 1330.13 L2202.3 1330.46 Q2206.84 1331.43 2208.74 1333.21 Q2210.66 1334.97 2210.66 1338.14 Q2210.66 1341.75 2207.79 1343.86 Q2204.94 1345.97 2199.94 1345.97 Q2197.86 1345.97 2195.59 1345.55 Q2193.35 1345.16 2190.85 1344.35 L2190.85 1339.95 Q2193.21 1341.18 2195.5 1341.8 Q2197.79 1342.4 2200.04 1342.4 Q2203.05 1342.4 2204.67 1341.38 Q2206.29 1340.34 2206.29 1338.47 Q2206.29 1336.73 2205.11 1335.81 Q2203.95 1334.88 2199.99 1334.02 L2198.51 1333.68 Q2194.55 1332.84 2192.79 1331.13 Q2191.03 1329.39 2191.03 1326.38 Q2191.03 1322.73 2193.62 1320.74 Q2196.22 1318.75 2200.99 1318.75 Q2203.35 1318.75 2205.43 1319.09 Q2207.51 1319.44 2209.27 1320.13 Z" fill="#000000" fill-rule="evenodd" fill-opacity="1" /><path clip-path="url(#clip310)" d="M2239.62 1331.27 L2239.62 1333.35 L2220.04 1333.35 Q2220.31 1337.75 2222.68 1340.06 Q2225.06 1342.36 2229.3 1342.36 Q2231.75 1342.36 2234.04 1341.75 Q2236.36 1341.15 2238.62 1339.95 L2238.62 1343.98 Q2236.33 1344.95 2233.93 1345.46 Q2231.52 1345.97 2229.04 1345.97 Q2222.84 1345.97 2219.2 1342.36 Q2215.59 1338.75 2215.59 1332.59 Q2215.59 1326.22 2219.02 1322.5 Q2222.47 1318.75 2228.3 1318.75 Q2233.53 1318.75 2236.56 1322.13 Q2239.62 1325.48 2239.62 1331.27 M2235.36 1330.02 Q2235.31 1326.52 2233.39 1324.44 Q2231.49 1322.36 2228.35 1322.36 Q2224.78 1322.36 2222.63 1324.37 Q2220.5 1326.38 2220.18 1330.04 L2235.36 1330.02 Z" fill="#000000" fill-rule="evenodd" fill-opacity="1" /></svg>
