<?xml version="1.0" encoding="utf-8"?>
<svg xmlns="http://www.w3.org/2000/svg" xmlns:xlink="http://www.w3.org/1999/xlink" width="600" height="400" viewBox="0 0 2400 1600">
<defs>
  <clipPath id="clip990">
    <rect x="0" y="0" width="2400" height="1600"/>
  </clipPath>
</defs>
<path clip-path="url(#clip990)" d="
M0 1600 L2400 1600 L2400 0 L0 0  Z
  " fill="#ffffff" fill-rule="evenodd" fill-opacity="1"/>
<defs>
  <clipPath id="clip991">
    <rect x="480" y="0" width="1681" height="1600"/>
  </clipPath>
</defs>
<path clip-path="url(#clip990)" d="
M317.528 1423.18 L2352.76 1423.18 L2352.76 123.472 L317.528 123.472  Z
  " fill="#ffffff" fill-rule="evenodd" fill-opacity="1"/>
<defs>
  <clipPath id="clip992">
    <rect x="317" y="123" width="2036" height="1301"/>
  </clipPath>
</defs>
<polyline clip-path="url(#clip992)" style="stroke:#000000; stroke-linecap:butt; stroke-linejoin:round; stroke-width:2; stroke-opacity:0.1; fill:none" points="
  481.797,1423.18 481.797,123.472 
  "/>
<polyline clip-path="url(#clip992)" style="stroke:#000000; stroke-linecap:butt; stroke-linejoin:round; stroke-width:2; stroke-opacity:0.1; fill:none" points="
  1015.14,1423.18 1015.14,123.472 
  "/>
<polyline clip-path="url(#clip992)" style="stroke:#000000; stroke-linecap:butt; stroke-linejoin:round; stroke-width:2; stroke-opacity:0.1; fill:none" points="
  1548.48,1423.18 1548.48,123.472 
  "/>
<polyline clip-path="url(#clip992)" style="stroke:#000000; stroke-linecap:butt; stroke-linejoin:round; stroke-width:2; stroke-opacity:0.1; fill:none" points="
  2081.82,1423.18 2081.82,123.472 
  "/>
<polyline clip-path="url(#clip990)" style="stroke:#000000; stroke-linecap:butt; stroke-linejoin:round; stroke-width:4; stroke-opacity:1; fill:none" points="
  317.528,1423.18 2352.76,1423.18 
  "/>
<polyline clip-path="url(#clip990)" style="stroke:#000000; stroke-linecap:butt; stroke-linejoin:round; stroke-width:4; stroke-opacity:1; fill:none" points="
  481.797,1423.18 481.797,1404.28 
  "/>
<polyline clip-path="url(#clip990)" style="stroke:#000000; stroke-linecap:butt; stroke-linejoin:round; stroke-width:4; stroke-opacity:1; fill:none" points="
  1015.14,1423.18 1015.14,1404.28 
  "/>
<polyline clip-path="url(#clip990)" style="stroke:#000000; stroke-linecap:butt; stroke-linejoin:round; stroke-width:4; stroke-opacity:1; fill:none" points="
  1548.48,1423.18 1548.48,1404.28 
  "/>
<polyline clip-path="url(#clip990)" style="stroke:#000000; stroke-linecap:butt; stroke-linejoin:round; stroke-width:4; stroke-opacity:1; fill:none" points="
  2081.82,1423.18 2081.82,1404.28 
  "/>
<path clip-path="url(#clip990)" d="M481.797 1454.1 Q478.186 1454.1 476.357 1457.66 Q474.551 1461.2 474.551 1468.33 Q474.551 1475.44 476.357 1479.01 Q478.186 1482.55 481.797 1482.55 Q485.431 1482.55 487.237 1479.01 Q489.065 1475.44 489.065 1468.33 Q489.065 1461.2 487.237 1457.66 Q485.431 1454.1 481.797 1454.1 M481.797 1450.39 Q487.607 1450.39 490.662 1455 Q493.741 1459.58 493.741 1468.33 Q493.741 1477.06 490.662 1481.67 Q487.607 1486.25 481.797 1486.25 Q475.987 1486.25 472.908 1481.67 Q469.852 1477.06 469.852 1468.33 Q469.852 1459.58 472.908 1455 Q475.987 1450.39 481.797 1450.39 Z" fill="#000000" fill-rule="evenodd" fill-opacity="1" /><path clip-path="url(#clip990)" d="M989.825 1481.64 L997.464 1481.64 L997.464 1455.28 L989.154 1456.95 L989.154 1452.69 L997.418 1451.02 L1002.09 1451.02 L1002.09 1481.64 L1009.73 1481.64 L1009.73 1485.58 L989.825 1485.58 L989.825 1481.64 Z" fill="#000000" fill-rule="evenodd" fill-opacity="1" /><path clip-path="url(#clip990)" d="M1029.18 1454.1 Q1025.57 1454.1 1023.74 1457.66 Q1021.93 1461.2 1021.93 1468.33 Q1021.93 1475.44 1023.74 1479.01 Q1025.57 1482.55 1029.18 1482.55 Q1032.81 1482.55 1034.62 1479.01 Q1036.45 1475.44 1036.45 1468.33 Q1036.45 1461.2 1034.62 1457.66 Q1032.81 1454.1 1029.18 1454.1 M1029.18 1450.39 Q1034.99 1450.39 1038.04 1455 Q1041.12 1459.58 1041.12 1468.33 Q1041.12 1477.06 1038.04 1481.67 Q1034.99 1486.25 1029.18 1486.25 Q1023.37 1486.25 1020.29 1481.67 Q1017.23 1477.06 1017.23 1468.33 Q1017.23 1459.58 1020.29 1455 Q1023.37 1450.39 1029.18 1450.39 Z" fill="#000000" fill-rule="evenodd" fill-opacity="1" /><path clip-path="url(#clip990)" d="M1527.25 1481.64 L1543.57 1481.64 L1543.57 1485.58 L1521.63 1485.58 L1521.63 1481.64 Q1524.29 1478.89 1528.87 1474.26 Q1533.48 1469.61 1534.66 1468.27 Q1536.9 1465.74 1537.78 1464.01 Q1538.69 1462.25 1538.69 1460.56 Q1538.69 1457.8 1536.74 1456.07 Q1534.82 1454.33 1531.72 1454.33 Q1529.52 1454.33 1527.07 1455.09 Q1524.64 1455.86 1521.86 1457.41 L1521.86 1452.69 Q1524.68 1451.55 1527.14 1450.97 Q1529.59 1450.39 1531.63 1450.39 Q1537 1450.39 1540.19 1453.08 Q1543.39 1455.77 1543.39 1460.26 Q1543.39 1462.39 1542.58 1464.31 Q1541.79 1466.2 1539.68 1468.8 Q1539.1 1469.47 1536 1472.69 Q1532.9 1475.88 1527.25 1481.64 Z" fill="#000000" fill-rule="evenodd" fill-opacity="1" /><path clip-path="url(#clip990)" d="M1563.39 1454.1 Q1559.77 1454.1 1557.95 1457.66 Q1556.14 1461.2 1556.14 1468.33 Q1556.14 1475.44 1557.95 1479.01 Q1559.77 1482.55 1563.39 1482.55 Q1567.02 1482.55 1568.83 1479.01 Q1570.65 1475.44 1570.65 1468.33 Q1570.65 1461.2 1568.83 1457.66 Q1567.02 1454.1 1563.39 1454.1 M1563.39 1450.39 Q1569.2 1450.39 1572.25 1455 Q1575.33 1459.58 1575.33 1468.33 Q1575.33 1477.06 1572.25 1481.67 Q1569.2 1486.25 1563.39 1486.25 Q1557.58 1486.25 1554.5 1481.67 Q1551.44 1477.06 1551.44 1468.33 Q1551.44 1459.58 1554.5 1455 Q1557.58 1450.39 1563.39 1450.39 Z" fill="#000000" fill-rule="evenodd" fill-opacity="1" /><path clip-path="url(#clip990)" d="M2070.66 1466.95 Q2074.02 1467.66 2075.89 1469.93 Q2077.79 1472.2 2077.79 1475.53 Q2077.79 1480.65 2074.27 1483.45 Q2070.75 1486.25 2064.27 1486.25 Q2062.1 1486.25 2059.78 1485.81 Q2057.49 1485.39 2055.04 1484.54 L2055.04 1480.02 Q2056.98 1481.16 2059.3 1481.74 Q2061.61 1482.32 2064.13 1482.32 Q2068.53 1482.32 2070.82 1480.58 Q2073.14 1478.84 2073.14 1475.53 Q2073.14 1472.48 2070.99 1470.77 Q2068.86 1469.03 2065.04 1469.03 L2061.01 1469.03 L2061.01 1465.19 L2065.22 1465.19 Q2068.67 1465.19 2070.5 1463.82 Q2072.33 1462.43 2072.33 1459.84 Q2072.33 1457.18 2070.43 1455.77 Q2068.56 1454.33 2065.04 1454.33 Q2063.12 1454.33 2060.92 1454.75 Q2058.72 1455.16 2056.08 1456.04 L2056.08 1451.88 Q2058.74 1451.14 2061.06 1450.77 Q2063.39 1450.39 2065.45 1450.39 Q2070.78 1450.39 2073.88 1452.83 Q2076.98 1455.23 2076.98 1459.35 Q2076.98 1462.22 2075.34 1464.21 Q2073.69 1466.18 2070.66 1466.95 Z" fill="#000000" fill-rule="evenodd" fill-opacity="1" /><path clip-path="url(#clip990)" d="M2096.66 1454.1 Q2093.05 1454.1 2091.22 1457.66 Q2089.41 1461.2 2089.41 1468.33 Q2089.41 1475.44 2091.22 1479.01 Q2093.05 1482.55 2096.66 1482.55 Q2100.29 1482.55 2102.1 1479.01 Q2103.93 1475.44 2103.93 1468.33 Q2103.93 1461.2 2102.1 1457.66 Q2100.29 1454.1 2096.66 1454.1 M2096.66 1450.39 Q2102.47 1450.39 2105.52 1455 Q2108.6 1459.58 2108.6 1468.33 Q2108.6 1477.06 2105.52 1481.67 Q2102.47 1486.25 2096.66 1486.25 Q2090.85 1486.25 2087.77 1481.67 Q2084.71 1477.06 2084.71 1468.33 Q2084.71 1459.58 2087.77 1455 Q2090.85 1450.39 2096.66 1450.39 Z" fill="#000000" fill-rule="evenodd" fill-opacity="1" /><path clip-path="url(#clip990)" d="M1008.25 1526.86 L999.526 1550.51 L1017 1550.51 L1008.25 1526.86 M1004.62 1520.52 L1011.91 1520.52 L1030.02 1568.04 L1023.33 1568.04 L1019 1555.85 L997.584 1555.85 L993.256 1568.04 L986.476 1568.04 L1004.62 1520.52 Z" fill="#000000" fill-rule="evenodd" fill-opacity="1" /><path clip-path="url(#clip990)" d="M1028.68 1532.4 L1034.89 1532.4 L1046.03 1562.31 L1057.17 1532.4 L1063.37 1532.4 L1050.01 1568.04 L1042.05 1568.04 L1028.68 1532.4 Z" fill="#000000" fill-rule="evenodd" fill-opacity="1" /><path clip-path="url(#clip990)" d="M1101.95 1548.76 L1101.95 1551.62 L1075.02 1551.62 Q1075.41 1557.67 1078.65 1560.85 Q1081.93 1564 1087.75 1564 Q1091.13 1564 1094.28 1563.17 Q1097.46 1562.35 1100.58 1560.69 L1100.58 1566.23 Q1097.43 1567.57 1094.12 1568.27 Q1090.81 1568.97 1087.4 1568.97 Q1078.87 1568.97 1073.88 1564 Q1068.91 1559.04 1068.91 1550.57 Q1068.91 1541.82 1073.62 1536.69 Q1078.37 1531.54 1086.39 1531.54 Q1093.58 1531.54 1097.75 1536.18 Q1101.95 1540.8 1101.95 1548.76 M1096.09 1547.04 Q1096.03 1542.23 1093.39 1539.37 Q1090.78 1536.5 1086.45 1536.5 Q1081.55 1536.5 1078.59 1539.27 Q1075.66 1542.04 1075.21 1547.07 L1096.09 1547.04 Z" fill="#000000" fill-rule="evenodd" fill-opacity="1" /><path clip-path="url(#clip990)" d="M1132.22 1537.87 Q1131.23 1537.3 1130.05 1537.04 Q1128.91 1536.76 1127.51 1536.76 Q1122.54 1536.76 1119.87 1540 Q1117.23 1543.22 1117.23 1549.27 L1117.23 1568.04 L1111.34 1568.04 L1111.34 1532.4 L1117.23 1532.4 L1117.23 1537.93 Q1119.07 1534.69 1122.03 1533.13 Q1124.99 1531.54 1129.23 1531.54 Q1129.83 1531.54 1130.56 1531.63 Q1131.3 1531.7 1132.19 1531.85 L1132.22 1537.87 Z" fill="#000000" fill-rule="evenodd" fill-opacity="1" /><path clip-path="url(#clip990)" d="M1154.56 1550.12 Q1147.46 1550.12 1144.73 1551.75 Q1141.99 1553.37 1141.99 1557.29 Q1141.99 1560.4 1144.03 1562.25 Q1146.1 1564.07 1149.63 1564.07 Q1154.5 1564.07 1157.43 1560.63 Q1160.39 1557.16 1160.39 1551.43 L1160.39 1550.12 L1154.56 1550.12 M1166.24 1547.71 L1166.24 1568.04 L1160.39 1568.04 L1160.39 1562.63 Q1158.38 1565.88 1155.39 1567.44 Q1152.4 1568.97 1148.07 1568.97 Q1142.6 1568.97 1139.35 1565.91 Q1136.13 1562.82 1136.13 1557.67 Q1136.13 1551.65 1140.14 1548.6 Q1144.19 1545.54 1152.18 1545.54 L1160.39 1545.54 L1160.39 1544.97 Q1160.39 1540.93 1157.71 1538.73 Q1155.07 1536.5 1150.27 1536.5 Q1147.21 1536.5 1144.31 1537.23 Q1141.42 1537.97 1138.74 1539.43 L1138.74 1534.02 Q1141.96 1532.78 1144.98 1532.17 Q1148.01 1531.54 1150.87 1531.54 Q1158.6 1531.54 1162.42 1535.55 Q1166.24 1539.56 1166.24 1547.71 Z" fill="#000000" fill-rule="evenodd" fill-opacity="1" /><path clip-path="url(#clip990)" d="M1201.76 1549.81 Q1201.76 1543.44 1199.12 1539.94 Q1196.51 1536.44 1191.77 1536.44 Q1187.06 1536.44 1184.42 1539.94 Q1181.81 1543.44 1181.81 1549.81 Q1181.81 1556.14 1184.42 1559.64 Q1187.06 1563.14 1191.77 1563.14 Q1196.51 1563.14 1199.12 1559.64 Q1201.76 1556.14 1201.76 1549.81 M1207.62 1563.62 Q1207.62 1572.72 1203.58 1577.15 Q1199.54 1581.6 1191.2 1581.6 Q1188.11 1581.6 1185.37 1581.13 Q1182.64 1580.68 1180.06 1579.72 L1180.06 1574.03 Q1182.64 1575.43 1185.15 1576.1 Q1187.66 1576.76 1190.27 1576.76 Q1196.04 1576.76 1198.9 1573.74 Q1201.76 1570.75 1201.76 1564.67 L1201.76 1561.77 Q1199.95 1564.92 1197.12 1566.48 Q1194.28 1568.04 1190.34 1568.04 Q1183.78 1568.04 1179.77 1563.05 Q1175.76 1558.05 1175.76 1549.81 Q1175.76 1541.53 1179.77 1536.53 Q1183.78 1531.54 1190.34 1531.54 Q1194.28 1531.54 1197.12 1533.1 Q1199.95 1534.66 1201.76 1537.81 L1201.76 1532.4 L1207.62 1532.4 L1207.62 1563.62 Z" fill="#000000" fill-rule="evenodd" fill-opacity="1" /><path clip-path="url(#clip990)" d="M1250.18 1548.76 L1250.18 1551.62 L1223.25 1551.62 Q1223.63 1557.67 1226.88 1560.85 Q1230.16 1564 1235.98 1564 Q1239.35 1564 1242.5 1563.17 Q1245.69 1562.35 1248.81 1560.69 L1248.81 1566.23 Q1245.66 1567.57 1242.35 1568.27 Q1239.04 1568.97 1235.63 1568.97 Q1227.1 1568.97 1222.1 1564 Q1217.14 1559.04 1217.14 1550.57 Q1217.14 1541.82 1221.85 1536.69 Q1226.59 1531.54 1234.61 1531.54 Q1241.8 1531.54 1245.97 1536.18 Q1250.18 1540.8 1250.18 1548.76 M1244.32 1547.04 Q1244.26 1542.23 1241.61 1539.37 Q1239 1536.5 1234.68 1536.5 Q1229.77 1536.5 1226.81 1539.27 Q1223.89 1542.04 1223.44 1547.07 L1244.32 1547.04 Z" fill="#000000" fill-rule="evenodd" fill-opacity="1" /><path clip-path="url(#clip990)" d="M1274.17 1520.52 L1314.37 1520.52 L1314.37 1525.93 L1297.5 1525.93 L1297.5 1568.04 L1291.04 1568.04 L1291.04 1525.93 L1274.17 1525.93 L1274.17 1520.52 Z" fill="#000000" fill-rule="evenodd" fill-opacity="1" /><path clip-path="url(#clip990)" d="M1339.74 1548.76 L1339.74 1551.62 L1312.81 1551.62 Q1313.2 1557.67 1316.44 1560.85 Q1319.72 1564 1325.55 1564 Q1328.92 1564 1332.07 1563.17 Q1335.25 1562.35 1338.37 1560.69 L1338.37 1566.23 Q1335.22 1567.57 1331.91 1568.27 Q1328.6 1568.97 1325.2 1568.97 Q1316.67 1568.97 1311.67 1564 Q1306.7 1559.04 1306.7 1550.57 Q1306.7 1541.82 1311.41 1536.69 Q1316.16 1531.54 1324.18 1531.54 Q1331.37 1531.54 1335.54 1536.18 Q1339.74 1540.8 1339.74 1548.76 M1333.88 1547.04 Q1333.82 1542.23 1331.18 1539.37 Q1328.57 1536.5 1324.24 1536.5 Q1319.34 1536.5 1316.38 1539.27 Q1313.45 1542.04 1313.01 1547.07 L1333.88 1547.04 Z" fill="#000000" fill-rule="evenodd" fill-opacity="1" /><path clip-path="url(#clip990)" d="M1377.11 1539.24 Q1379.3 1535.29 1382.36 1533.41 Q1385.42 1531.54 1389.55 1531.54 Q1395.12 1531.54 1398.15 1535.45 Q1401.17 1539.33 1401.17 1546.53 L1401.17 1568.04 L1395.28 1568.04 L1395.28 1546.72 Q1395.28 1541.59 1393.47 1539.11 Q1391.65 1536.63 1387.93 1536.63 Q1383.38 1536.63 1380.74 1539.65 Q1378.09 1542.68 1378.09 1547.9 L1378.09 1568.04 L1372.21 1568.04 L1372.21 1546.72 Q1372.21 1541.56 1370.39 1539.11 Q1368.58 1536.63 1364.79 1536.63 Q1360.3 1536.63 1357.66 1539.68 Q1355.02 1542.71 1355.02 1547.9 L1355.02 1568.04 L1349.13 1568.04 L1349.13 1532.4 L1355.02 1532.4 L1355.02 1537.93 Q1357.02 1534.66 1359.82 1533.1 Q1362.63 1531.54 1366.48 1531.54 Q1370.36 1531.54 1373.07 1533.51 Q1375.8 1535.48 1377.11 1539.24 Z" fill="#000000" fill-rule="evenodd" fill-opacity="1" /><path clip-path="url(#clip990)" d="M1418.52 1562.7 L1418.52 1581.6 L1412.63 1581.6 L1412.63 1532.4 L1418.52 1532.4 L1418.52 1537.81 Q1420.36 1534.62 1423.16 1533.1 Q1426 1531.54 1429.91 1531.54 Q1436.4 1531.54 1440.45 1536.69 Q1444.52 1541.85 1444.52 1550.25 Q1444.52 1558.65 1440.45 1563.81 Q1436.4 1568.97 1429.91 1568.97 Q1426 1568.97 1423.16 1567.44 Q1420.36 1565.88 1418.52 1562.7 M1438.44 1550.25 Q1438.44 1543.79 1435.77 1540.13 Q1433.13 1536.44 1428.48 1536.44 Q1423.83 1536.44 1421.16 1540.13 Q1418.52 1543.79 1418.52 1550.25 Q1418.52 1556.71 1421.16 1560.4 Q1423.83 1564.07 1428.48 1564.07 Q1433.13 1564.07 1435.77 1560.4 Q1438.44 1556.71 1438.44 1550.25 Z" fill="#000000" fill-rule="evenodd" fill-opacity="1" /><path clip-path="url(#clip990)" d="M1484.72 1548.76 L1484.72 1551.62 L1457.79 1551.62 Q1458.18 1557.67 1461.42 1560.85 Q1464.7 1564 1470.52 1564 Q1473.9 1564 1477.05 1563.17 Q1480.23 1562.35 1483.35 1560.69 L1483.35 1566.23 Q1480.2 1567.57 1476.89 1568.27 Q1473.58 1568.97 1470.17 1568.97 Q1461.64 1568.97 1456.65 1564 Q1451.68 1559.04 1451.68 1550.57 Q1451.68 1541.82 1456.39 1536.69 Q1461.14 1531.54 1469.16 1531.54 Q1476.35 1531.54 1480.52 1536.18 Q1484.72 1540.8 1484.72 1548.76 M1478.86 1547.04 Q1478.8 1542.23 1476.16 1539.37 Q1473.55 1536.5 1469.22 1536.5 Q1464.32 1536.5 1461.36 1539.27 Q1458.43 1542.04 1457.98 1547.07 L1478.86 1547.04 Z" fill="#000000" fill-rule="evenodd" fill-opacity="1" /><path clip-path="url(#clip990)" d="M1514.99 1537.87 Q1514 1537.3 1512.82 1537.04 Q1511.68 1536.76 1510.28 1536.76 Q1505.31 1536.76 1502.64 1540 Q1500 1543.22 1500 1549.27 L1500 1568.04 L1494.11 1568.04 L1494.11 1532.4 L1500 1532.4 L1500 1537.93 Q1501.84 1534.69 1504.8 1533.13 Q1507.76 1531.54 1512 1531.54 Q1512.6 1531.54 1513.33 1531.63 Q1514.07 1531.7 1514.96 1531.85 L1514.99 1537.87 Z" fill="#000000" fill-rule="evenodd" fill-opacity="1" /><path clip-path="url(#clip990)" d="M1537.33 1550.12 Q1530.23 1550.12 1527.5 1551.75 Q1524.76 1553.37 1524.76 1557.29 Q1524.76 1560.4 1526.8 1562.25 Q1528.87 1564.07 1532.4 1564.07 Q1537.27 1564.07 1540.2 1560.63 Q1543.16 1557.16 1543.16 1551.43 L1543.16 1550.12 L1537.33 1550.12 M1549.01 1547.71 L1549.01 1568.04 L1543.16 1568.04 L1543.16 1562.63 Q1541.15 1565.88 1538.16 1567.44 Q1535.17 1568.97 1530.84 1568.97 Q1525.37 1568.97 1522.12 1565.91 Q1518.9 1562.82 1518.9 1557.67 Q1518.9 1551.65 1522.91 1548.6 Q1526.96 1545.54 1534.95 1545.54 L1543.16 1545.54 L1543.16 1544.97 Q1543.16 1540.93 1540.48 1538.73 Q1537.84 1536.5 1533.04 1536.5 Q1529.98 1536.5 1527.08 1537.23 Q1524.19 1537.97 1521.51 1539.43 L1521.51 1534.02 Q1524.73 1532.78 1527.75 1532.17 Q1530.78 1531.54 1533.64 1531.54 Q1541.37 1531.54 1545.19 1535.55 Q1549.01 1539.56 1549.01 1547.71 Z" fill="#000000" fill-rule="evenodd" fill-opacity="1" /><path clip-path="url(#clip990)" d="M1566.87 1522.27 L1566.87 1532.4 L1578.93 1532.4 L1578.93 1536.95 L1566.87 1536.95 L1566.87 1556.3 Q1566.87 1560.66 1568.05 1561.9 Q1569.26 1563.14 1572.92 1563.14 L1578.93 1563.14 L1578.93 1568.04 L1572.92 1568.04 Q1566.14 1568.04 1563.56 1565.53 Q1560.98 1562.98 1560.98 1556.3 L1560.98 1536.95 L1556.68 1536.95 L1556.68 1532.4 L1560.98 1532.4 L1560.98 1522.27 L1566.87 1522.27 Z" fill="#000000" fill-rule="evenodd" fill-opacity="1" /><path clip-path="url(#clip990)" d="M1586.03 1553.98 L1586.03 1532.4 L1591.89 1532.4 L1591.89 1553.75 Q1591.89 1558.81 1593.86 1561.36 Q1595.83 1563.87 1599.78 1563.87 Q1604.52 1563.87 1607.26 1560.85 Q1610.03 1557.83 1610.03 1552.61 L1610.03 1532.4 L1615.89 1532.4 L1615.89 1568.04 L1610.03 1568.04 L1610.03 1562.57 Q1607.9 1565.82 1605.06 1567.41 Q1602.26 1568.97 1598.54 1568.97 Q1592.4 1568.97 1589.21 1565.15 Q1586.03 1561.33 1586.03 1553.98 M1600.77 1531.54 L1600.77 1531.54 Z" fill="#000000" fill-rule="evenodd" fill-opacity="1" /><path clip-path="url(#clip990)" d="M1648.61 1537.87 Q1647.62 1537.3 1646.44 1537.04 Q1645.29 1536.76 1643.89 1536.76 Q1638.93 1536.76 1636.26 1540 Q1633.61 1543.22 1633.61 1549.27 L1633.61 1568.04 L1627.73 1568.04 L1627.73 1532.4 L1633.61 1532.4 L1633.61 1537.93 Q1635.46 1534.69 1638.42 1533.13 Q1641.38 1531.54 1645.61 1531.54 Q1646.22 1531.54 1646.95 1531.63 Q1647.68 1531.7 1648.57 1531.85 L1648.61 1537.87 Z" fill="#000000" fill-rule="evenodd" fill-opacity="1" /><path clip-path="url(#clip990)" d="M1683.81 1548.76 L1683.81 1551.62 L1656.88 1551.62 Q1657.26 1557.67 1660.51 1560.85 Q1663.79 1564 1669.61 1564 Q1672.99 1564 1676.14 1563.17 Q1679.32 1562.35 1682.44 1560.69 L1682.44 1566.23 Q1679.29 1567.57 1675.98 1568.27 Q1672.67 1568.97 1669.26 1568.97 Q1660.73 1568.97 1655.73 1564 Q1650.77 1559.04 1650.77 1550.57 Q1650.77 1541.82 1655.48 1536.69 Q1660.22 1531.54 1668.24 1531.54 Q1675.44 1531.54 1679.61 1536.18 Q1683.81 1540.8 1683.81 1548.76 M1677.95 1547.04 Q1677.89 1542.23 1675.25 1539.37 Q1672.64 1536.5 1668.31 1536.5 Q1663.41 1536.5 1660.45 1539.27 Q1657.52 1542.04 1657.07 1547.07 L1677.95 1547.04 Z" fill="#000000" fill-rule="evenodd" fill-opacity="1" /><polyline clip-path="url(#clip992)" style="stroke:#000000; stroke-linecap:butt; stroke-linejoin:round; stroke-width:2; stroke-opacity:0.1; fill:none" points="
  317.528,1280.02 2352.76,1280.02 
  "/>
<polyline clip-path="url(#clip992)" style="stroke:#000000; stroke-linecap:butt; stroke-linejoin:round; stroke-width:2; stroke-opacity:0.1; fill:none" points="
  317.528,1078.12 2352.76,1078.12 
  "/>
<polyline clip-path="url(#clip992)" style="stroke:#000000; stroke-linecap:butt; stroke-linejoin:round; stroke-width:2; stroke-opacity:0.1; fill:none" points="
  317.528,876.226 2352.76,876.226 
  "/>
<polyline clip-path="url(#clip992)" style="stroke:#000000; stroke-linecap:butt; stroke-linejoin:round; stroke-width:2; stroke-opacity:0.1; fill:none" points="
  317.528,674.327 2352.76,674.327 
  "/>
<polyline clip-path="url(#clip992)" style="stroke:#000000; stroke-linecap:butt; stroke-linejoin:round; stroke-width:2; stroke-opacity:0.1; fill:none" points="
  317.528,472.429 2352.76,472.429 
  "/>
<polyline clip-path="url(#clip992)" style="stroke:#000000; stroke-linecap:butt; stroke-linejoin:round; stroke-width:2; stroke-opacity:0.1; fill:none" points="
  317.528,270.531 2352.76,270.531 
  "/>
<polyline clip-path="url(#clip990)" style="stroke:#000000; stroke-linecap:butt; stroke-linejoin:round; stroke-width:4; stroke-opacity:1; fill:none" points="
  317.528,1423.18 317.528,123.472 
  "/>
<polyline clip-path="url(#clip990)" style="stroke:#000000; stroke-linecap:butt; stroke-linejoin:round; stroke-width:4; stroke-opacity:1; fill:none" points="
  317.528,1280.02 336.425,1280.02 
  "/>
<polyline clip-path="url(#clip990)" style="stroke:#000000; stroke-linecap:butt; stroke-linejoin:round; stroke-width:4; stroke-opacity:1; fill:none" points="
  317.528,1078.12 336.425,1078.12 
  "/>
<polyline clip-path="url(#clip990)" style="stroke:#000000; stroke-linecap:butt; stroke-linejoin:round; stroke-width:4; stroke-opacity:1; fill:none" points="
  317.528,876.226 336.425,876.226 
  "/>
<polyline clip-path="url(#clip990)" style="stroke:#000000; stroke-linecap:butt; stroke-linejoin:round; stroke-width:4; stroke-opacity:1; fill:none" points="
  317.528,674.327 336.425,674.327 
  "/>
<polyline clip-path="url(#clip990)" style="stroke:#000000; stroke-linecap:butt; stroke-linejoin:round; stroke-width:4; stroke-opacity:1; fill:none" points="
  317.528,472.429 336.425,472.429 
  "/>
<polyline clip-path="url(#clip990)" style="stroke:#000000; stroke-linecap:butt; stroke-linejoin:round; stroke-width:4; stroke-opacity:1; fill:none" points="
  317.528,270.531 336.425,270.531 
  "/>
<path clip-path="url(#clip990)" d="M115.256 1280.47 L144.931 1280.47 L144.931 1284.41 L115.256 1284.41 L115.256 1280.47 Z" fill="#000000" fill-rule="evenodd" fill-opacity="1" /><path clip-path="url(#clip990)" d="M165.024 1265.82 Q161.413 1265.82 159.584 1269.39 Q157.778 1272.93 157.778 1280.06 Q157.778 1287.16 159.584 1290.73 Q161.413 1294.27 165.024 1294.27 Q168.658 1294.27 170.464 1290.73 Q172.292 1287.16 172.292 1280.06 Q172.292 1272.93 170.464 1269.39 Q168.658 1265.82 165.024 1265.82 M165.024 1262.12 Q170.834 1262.12 173.889 1266.72 Q176.968 1271.31 176.968 1280.06 Q176.968 1288.78 173.889 1293.39 Q170.834 1297.97 165.024 1297.97 Q159.214 1297.97 156.135 1293.39 Q153.079 1288.78 153.079 1280.06 Q153.079 1271.31 156.135 1266.72 Q159.214 1262.12 165.024 1262.12 Z" fill="#000000" fill-rule="evenodd" fill-opacity="1" /><path clip-path="url(#clip990)" d="M185.186 1291.42 L190.07 1291.42 L190.07 1297.3 L185.186 1297.3 L185.186 1291.42 Z" fill="#000000" fill-rule="evenodd" fill-opacity="1" /><path clip-path="url(#clip990)" d="M210.255 1265.82 Q206.644 1265.82 204.815 1269.39 Q203.01 1272.93 203.01 1280.06 Q203.01 1287.16 204.815 1290.73 Q206.644 1294.27 210.255 1294.27 Q213.889 1294.27 215.695 1290.73 Q217.523 1287.16 217.523 1280.06 Q217.523 1272.93 215.695 1269.39 Q213.889 1265.82 210.255 1265.82 M210.255 1262.12 Q216.065 1262.12 219.121 1266.72 Q222.199 1271.31 222.199 1280.06 Q222.199 1288.78 219.121 1293.39 Q216.065 1297.97 210.255 1297.97 Q204.445 1297.97 201.366 1293.39 Q198.311 1288.78 198.311 1280.06 Q198.311 1271.31 201.366 1266.72 Q204.445 1262.12 210.255 1262.12 Z" fill="#000000" fill-rule="evenodd" fill-opacity="1" /><path clip-path="url(#clip990)" d="M234.445 1293.37 L250.764 1293.37 L250.764 1297.3 L228.82 1297.3 L228.82 1293.37 Q231.482 1290.61 236.065 1285.98 Q240.672 1281.33 241.852 1279.99 Q244.097 1277.46 244.977 1275.73 Q245.88 1273.97 245.88 1272.28 Q245.88 1269.52 243.935 1267.79 Q242.014 1266.05 238.912 1266.05 Q236.713 1266.05 234.26 1266.82 Q231.829 1267.58 229.051 1269.13 L229.051 1264.41 Q231.875 1263.27 234.329 1262.7 Q236.783 1262.12 238.82 1262.12 Q244.19 1262.12 247.384 1264.8 Q250.579 1267.49 250.579 1271.98 Q250.579 1274.11 249.769 1276.03 Q248.982 1277.93 246.875 1280.52 Q246.296 1281.19 243.195 1284.41 Q240.093 1287.6 234.445 1293.37 Z" fill="#000000" fill-rule="evenodd" fill-opacity="1" /><path clip-path="url(#clip990)" d="M260.625 1262.74 L278.981 1262.74 L278.981 1266.68 L264.907 1266.68 L264.907 1275.15 Q265.926 1274.8 266.945 1274.64 Q267.963 1274.45 268.982 1274.45 Q274.769 1274.45 278.148 1277.63 Q281.528 1280.8 281.528 1286.21 Q281.528 1291.79 278.056 1294.89 Q274.583 1297.97 268.264 1297.97 Q266.088 1297.97 263.82 1297.6 Q261.574 1297.23 259.167 1296.49 L259.167 1291.79 Q261.25 1292.93 263.472 1293.48 Q265.695 1294.04 268.171 1294.04 Q272.176 1294.04 274.514 1291.93 Q276.852 1289.83 276.852 1286.21 Q276.852 1282.6 274.514 1280.5 Q272.176 1278.39 268.171 1278.39 Q266.296 1278.39 264.421 1278.81 Q262.57 1279.22 260.625 1280.1 L260.625 1262.74 Z" fill="#000000" fill-rule="evenodd" fill-opacity="1" /><path clip-path="url(#clip990)" d="M114.26 1078.58 L143.936 1078.58 L143.936 1082.51 L114.26 1082.51 L114.26 1078.58 Z" fill="#000000" fill-rule="evenodd" fill-opacity="1" /><path clip-path="url(#clip990)" d="M164.028 1063.92 Q160.417 1063.92 158.589 1067.49 Q156.783 1071.03 156.783 1078.16 Q156.783 1085.26 158.589 1088.83 Q160.417 1092.37 164.028 1092.37 Q167.663 1092.37 169.468 1088.83 Q171.297 1085.26 171.297 1078.16 Q171.297 1071.03 169.468 1067.49 Q167.663 1063.92 164.028 1063.92 M164.028 1060.22 Q169.839 1060.22 172.894 1064.83 Q175.973 1069.41 175.973 1078.16 Q175.973 1086.89 172.894 1091.49 Q169.839 1096.08 164.028 1096.08 Q158.218 1096.08 155.14 1091.49 Q152.084 1086.89 152.084 1078.16 Q152.084 1069.41 155.14 1064.83 Q158.218 1060.22 164.028 1060.22 Z" fill="#000000" fill-rule="evenodd" fill-opacity="1" /><path clip-path="url(#clip990)" d="M184.19 1089.52 L189.075 1089.52 L189.075 1095.4 L184.19 1095.4 L184.19 1089.52 Z" fill="#000000" fill-rule="evenodd" fill-opacity="1" /><path clip-path="url(#clip990)" d="M209.26 1063.92 Q205.649 1063.92 203.82 1067.49 Q202.014 1071.03 202.014 1078.16 Q202.014 1085.26 203.82 1088.83 Q205.649 1092.37 209.26 1092.37 Q212.894 1092.37 214.699 1088.83 Q216.528 1085.26 216.528 1078.16 Q216.528 1071.03 214.699 1067.49 Q212.894 1063.92 209.26 1063.92 M209.26 1060.22 Q215.07 1060.22 218.125 1064.83 Q221.204 1069.41 221.204 1078.16 Q221.204 1086.89 218.125 1091.49 Q215.07 1096.08 209.26 1096.08 Q203.449 1096.08 200.371 1091.49 Q197.315 1086.89 197.315 1078.16 Q197.315 1069.41 200.371 1064.83 Q203.449 1060.22 209.26 1060.22 Z" fill="#000000" fill-rule="evenodd" fill-opacity="1" /><path clip-path="url(#clip990)" d="M233.449 1091.47 L249.769 1091.47 L249.769 1095.4 L227.824 1095.4 L227.824 1091.47 Q230.486 1088.71 235.07 1084.08 Q239.676 1079.43 240.857 1078.09 Q243.102 1075.57 243.982 1073.83 Q244.884 1072.07 244.884 1070.38 Q244.884 1067.63 242.94 1065.89 Q241.019 1064.15 237.917 1064.15 Q235.718 1064.15 233.264 1064.92 Q230.834 1065.68 228.056 1067.23 L228.056 1062.51 Q230.88 1061.38 233.334 1060.8 Q235.787 1060.22 237.824 1060.22 Q243.195 1060.22 246.389 1062.9 Q249.584 1065.59 249.584 1070.08 Q249.584 1072.21 248.773 1074.13 Q247.986 1076.03 245.88 1078.62 Q245.301 1079.29 242.199 1082.51 Q239.097 1085.7 233.449 1091.47 Z" fill="#000000" fill-rule="evenodd" fill-opacity="1" /><path clip-path="url(#clip990)" d="M269.583 1063.92 Q265.972 1063.92 264.144 1067.49 Q262.338 1071.03 262.338 1078.16 Q262.338 1085.26 264.144 1088.83 Q265.972 1092.37 269.583 1092.37 Q273.218 1092.37 275.023 1088.83 Q276.852 1085.26 276.852 1078.16 Q276.852 1071.03 275.023 1067.49 Q273.218 1063.92 269.583 1063.92 M269.583 1060.22 Q275.394 1060.22 278.449 1064.83 Q281.528 1069.41 281.528 1078.16 Q281.528 1086.89 278.449 1091.49 Q275.394 1096.08 269.583 1096.08 Q263.773 1096.08 260.695 1091.49 Q257.639 1086.89 257.639 1078.16 Q257.639 1069.41 260.695 1064.83 Q263.773 1060.22 269.583 1060.22 Z" fill="#000000" fill-rule="evenodd" fill-opacity="1" /><path clip-path="url(#clip990)" d="M115.256 876.677 L144.931 876.677 L144.931 880.612 L115.256 880.612 L115.256 876.677 Z" fill="#000000" fill-rule="evenodd" fill-opacity="1" /><path clip-path="url(#clip990)" d="M165.024 862.024 Q161.413 862.024 159.584 865.589 Q157.778 869.131 157.778 876.26 Q157.778 883.367 159.584 886.932 Q161.413 890.473 165.024 890.473 Q168.658 890.473 170.464 886.932 Q172.292 883.367 172.292 876.26 Q172.292 869.131 170.464 865.589 Q168.658 862.024 165.024 862.024 M165.024 858.321 Q170.834 858.321 173.889 862.927 Q176.968 867.51 176.968 876.26 Q176.968 884.987 173.889 889.594 Q170.834 894.177 165.024 894.177 Q159.214 894.177 156.135 889.594 Q153.079 884.987 153.079 876.26 Q153.079 867.51 156.135 862.927 Q159.214 858.321 165.024 858.321 Z" fill="#000000" fill-rule="evenodd" fill-opacity="1" /><path clip-path="url(#clip990)" d="M185.186 887.626 L190.07 887.626 L190.07 893.506 L185.186 893.506 L185.186 887.626 Z" fill="#000000" fill-rule="evenodd" fill-opacity="1" /><path clip-path="url(#clip990)" d="M210.255 862.024 Q206.644 862.024 204.815 865.589 Q203.01 869.131 203.01 876.26 Q203.01 883.367 204.815 886.932 Q206.644 890.473 210.255 890.473 Q213.889 890.473 215.695 886.932 Q217.523 883.367 217.523 876.26 Q217.523 869.131 215.695 865.589 Q213.889 862.024 210.255 862.024 M210.255 858.321 Q216.065 858.321 219.121 862.927 Q222.199 867.51 222.199 876.26 Q222.199 884.987 219.121 889.594 Q216.065 894.177 210.255 894.177 Q204.445 894.177 201.366 889.594 Q198.311 884.987 198.311 876.26 Q198.311 867.51 201.366 862.927 Q204.445 858.321 210.255 858.321 Z" fill="#000000" fill-rule="evenodd" fill-opacity="1" /><path clip-path="url(#clip990)" d="M231.227 889.57 L238.866 889.57 L238.866 863.205 L230.556 864.871 L230.556 860.612 L238.82 858.946 L243.496 858.946 L243.496 889.57 L251.134 889.57 L251.134 893.506 L231.227 893.506 L231.227 889.57 Z" fill="#000000" fill-rule="evenodd" fill-opacity="1" /><path clip-path="url(#clip990)" d="M260.625 858.946 L278.981 858.946 L278.981 862.881 L264.907 862.881 L264.907 871.353 Q265.926 871.006 266.945 870.844 Q267.963 870.658 268.982 870.658 Q274.769 870.658 278.148 873.83 Q281.528 877.001 281.528 882.418 Q281.528 887.996 278.056 891.098 Q274.583 894.177 268.264 894.177 Q266.088 894.177 263.82 893.806 Q261.574 893.436 259.167 892.695 L259.167 887.996 Q261.25 889.131 263.472 889.686 Q265.695 890.242 268.171 890.242 Q272.176 890.242 274.514 888.135 Q276.852 886.029 276.852 882.418 Q276.852 878.807 274.514 876.7 Q272.176 874.594 268.171 874.594 Q266.296 874.594 264.421 875.01 Q262.57 875.427 260.625 876.307 L260.625 858.946 Z" fill="#000000" fill-rule="evenodd" fill-opacity="1" /><path clip-path="url(#clip990)" d="M114.26 674.779 L143.936 674.779 L143.936 678.714 L114.26 678.714 L114.26 674.779 Z" fill="#000000" fill-rule="evenodd" fill-opacity="1" /><path clip-path="url(#clip990)" d="M164.028 660.126 Q160.417 660.126 158.589 663.691 Q156.783 667.232 156.783 674.362 Q156.783 681.469 158.589 685.033 Q160.417 688.575 164.028 688.575 Q167.663 688.575 169.468 685.033 Q171.297 681.469 171.297 674.362 Q171.297 667.232 169.468 663.691 Q167.663 660.126 164.028 660.126 M164.028 656.422 Q169.839 656.422 172.894 661.029 Q175.973 665.612 175.973 674.362 Q175.973 683.089 172.894 687.695 Q169.839 692.279 164.028 692.279 Q158.218 692.279 155.14 687.695 Q152.084 683.089 152.084 674.362 Q152.084 665.612 155.14 661.029 Q158.218 656.422 164.028 656.422 Z" fill="#000000" fill-rule="evenodd" fill-opacity="1" /><path clip-path="url(#clip990)" d="M184.19 685.728 L189.075 685.728 L189.075 691.607 L184.19 691.607 L184.19 685.728 Z" fill="#000000" fill-rule="evenodd" fill-opacity="1" /><path clip-path="url(#clip990)" d="M209.26 660.126 Q205.649 660.126 203.82 663.691 Q202.014 667.232 202.014 674.362 Q202.014 681.469 203.82 685.033 Q205.649 688.575 209.26 688.575 Q212.894 688.575 214.699 685.033 Q216.528 681.469 216.528 674.362 Q216.528 667.232 214.699 663.691 Q212.894 660.126 209.26 660.126 M209.26 656.422 Q215.07 656.422 218.125 661.029 Q221.204 665.612 221.204 674.362 Q221.204 683.089 218.125 687.695 Q215.07 692.279 209.26 692.279 Q203.449 692.279 200.371 687.695 Q197.315 683.089 197.315 674.362 Q197.315 665.612 200.371 661.029 Q203.449 656.422 209.26 656.422 Z" fill="#000000" fill-rule="evenodd" fill-opacity="1" /><path clip-path="url(#clip990)" d="M230.232 687.672 L237.871 687.672 L237.871 661.307 L229.56 662.973 L229.56 658.714 L237.824 657.047 L242.5 657.047 L242.5 687.672 L250.139 687.672 L250.139 691.607 L230.232 691.607 L230.232 687.672 Z" fill="#000000" fill-rule="evenodd" fill-opacity="1" /><path clip-path="url(#clip990)" d="M269.583 660.126 Q265.972 660.126 264.144 663.691 Q262.338 667.232 262.338 674.362 Q262.338 681.469 264.144 685.033 Q265.972 688.575 269.583 688.575 Q273.218 688.575 275.023 685.033 Q276.852 681.469 276.852 674.362 Q276.852 667.232 275.023 663.691 Q273.218 660.126 269.583 660.126 M269.583 656.422 Q275.394 656.422 278.449 661.029 Q281.528 665.612 281.528 674.362 Q281.528 683.089 278.449 687.695 Q275.394 692.279 269.583 692.279 Q263.773 692.279 260.695 687.695 Q257.639 683.089 257.639 674.362 Q257.639 665.612 260.695 661.029 Q263.773 656.422 269.583 656.422 Z" fill="#000000" fill-rule="evenodd" fill-opacity="1" /><path clip-path="url(#clip990)" d="M115.256 472.881 L144.931 472.881 L144.931 476.816 L115.256 476.816 L115.256 472.881 Z" fill="#000000" fill-rule="evenodd" fill-opacity="1" /><path clip-path="url(#clip990)" d="M165.024 458.228 Q161.413 458.228 159.584 461.793 Q157.778 465.334 157.778 472.464 Q157.778 479.57 159.584 483.135 Q161.413 486.677 165.024 486.677 Q168.658 486.677 170.464 483.135 Q172.292 479.57 172.292 472.464 Q172.292 465.334 170.464 461.793 Q168.658 458.228 165.024 458.228 M165.024 454.524 Q170.834 454.524 173.889 459.131 Q176.968 463.714 176.968 472.464 Q176.968 481.191 173.889 485.797 Q170.834 490.38 165.024 490.38 Q159.214 490.38 156.135 485.797 Q153.079 481.191 153.079 472.464 Q153.079 463.714 156.135 459.131 Q159.214 454.524 165.024 454.524 Z" fill="#000000" fill-rule="evenodd" fill-opacity="1" /><path clip-path="url(#clip990)" d="M185.186 483.83 L190.07 483.83 L190.07 489.709 L185.186 489.709 L185.186 483.83 Z" fill="#000000" fill-rule="evenodd" fill-opacity="1" /><path clip-path="url(#clip990)" d="M210.255 458.228 Q206.644 458.228 204.815 461.793 Q203.01 465.334 203.01 472.464 Q203.01 479.57 204.815 483.135 Q206.644 486.677 210.255 486.677 Q213.889 486.677 215.695 483.135 Q217.523 479.57 217.523 472.464 Q217.523 465.334 215.695 461.793 Q213.889 458.228 210.255 458.228 M210.255 454.524 Q216.065 454.524 219.121 459.131 Q222.199 463.714 222.199 472.464 Q222.199 481.191 219.121 485.797 Q216.065 490.38 210.255 490.38 Q204.445 490.38 201.366 485.797 Q198.311 481.191 198.311 472.464 Q198.311 463.714 201.366 459.131 Q204.445 454.524 210.255 454.524 Z" fill="#000000" fill-rule="evenodd" fill-opacity="1" /><path clip-path="url(#clip990)" d="M240.417 458.228 Q236.806 458.228 234.977 461.793 Q233.172 465.334 233.172 472.464 Q233.172 479.57 234.977 483.135 Q236.806 486.677 240.417 486.677 Q244.051 486.677 245.857 483.135 Q247.685 479.57 247.685 472.464 Q247.685 465.334 245.857 461.793 Q244.051 458.228 240.417 458.228 M240.417 454.524 Q246.227 454.524 249.283 459.131 Q252.361 463.714 252.361 472.464 Q252.361 481.191 249.283 485.797 Q246.227 490.38 240.417 490.38 Q234.607 490.38 231.528 485.797 Q228.473 481.191 228.473 472.464 Q228.473 463.714 231.528 459.131 Q234.607 454.524 240.417 454.524 Z" fill="#000000" fill-rule="evenodd" fill-opacity="1" /><path clip-path="url(#clip990)" d="M260.625 455.149 L278.981 455.149 L278.981 459.084 L264.907 459.084 L264.907 467.556 Q265.926 467.209 266.945 467.047 Q267.963 466.862 268.982 466.862 Q274.769 466.862 278.148 470.033 Q281.528 473.205 281.528 478.621 Q281.528 484.2 278.056 487.302 Q274.583 490.38 268.264 490.38 Q266.088 490.38 263.82 490.01 Q261.574 489.64 259.167 488.899 L259.167 484.2 Q261.25 485.334 263.472 485.89 Q265.695 486.445 268.171 486.445 Q272.176 486.445 274.514 484.339 Q276.852 482.232 276.852 478.621 Q276.852 475.01 274.514 472.904 Q272.176 470.797 268.171 470.797 Q266.296 470.797 264.421 471.214 Q262.57 471.631 260.625 472.51 L260.625 455.149 Z" fill="#000000" fill-rule="evenodd" fill-opacity="1" /><path clip-path="url(#clip990)" d="M164.028 256.33 Q160.417 256.33 158.589 259.894 Q156.783 263.436 156.783 270.566 Q156.783 277.672 158.589 281.237 Q160.417 284.779 164.028 284.779 Q167.663 284.779 169.468 281.237 Q171.297 277.672 171.297 270.566 Q171.297 263.436 169.468 259.894 Q167.663 256.33 164.028 256.33 M164.028 252.626 Q169.839 252.626 172.894 257.232 Q175.973 261.816 175.973 270.566 Q175.973 279.292 172.894 283.899 Q169.839 288.482 164.028 288.482 Q158.218 288.482 155.14 283.899 Q152.084 279.292 152.084 270.566 Q152.084 261.816 155.14 257.232 Q158.218 252.626 164.028 252.626 Z" fill="#000000" fill-rule="evenodd" fill-opacity="1" /><path clip-path="url(#clip990)" d="M184.19 281.931 L189.075 281.931 L189.075 287.811 L184.19 287.811 L184.19 281.931 Z" fill="#000000" fill-rule="evenodd" fill-opacity="1" /><path clip-path="url(#clip990)" d="M209.26 256.33 Q205.649 256.33 203.82 259.894 Q202.014 263.436 202.014 270.566 Q202.014 277.672 203.82 281.237 Q205.649 284.779 209.26 284.779 Q212.894 284.779 214.699 281.237 Q216.528 277.672 216.528 270.566 Q216.528 263.436 214.699 259.894 Q212.894 256.33 209.26 256.33 M209.26 252.626 Q215.07 252.626 218.125 257.232 Q221.204 261.816 221.204 270.566 Q221.204 279.292 218.125 283.899 Q215.07 288.482 209.26 288.482 Q203.449 288.482 200.371 283.899 Q197.315 279.292 197.315 270.566 Q197.315 261.816 200.371 257.232 Q203.449 252.626 209.26 252.626 Z" fill="#000000" fill-rule="evenodd" fill-opacity="1" /><path clip-path="url(#clip990)" d="M239.422 256.33 Q235.81 256.33 233.982 259.894 Q232.176 263.436 232.176 270.566 Q232.176 277.672 233.982 281.237 Q235.81 284.779 239.422 284.779 Q243.056 284.779 244.861 281.237 Q246.69 277.672 246.69 270.566 Q246.69 263.436 244.861 259.894 Q243.056 256.33 239.422 256.33 M239.422 252.626 Q245.232 252.626 248.287 257.232 Q251.366 261.816 251.366 270.566 Q251.366 279.292 248.287 283.899 Q245.232 288.482 239.422 288.482 Q233.611 288.482 230.533 283.899 Q227.477 279.292 227.477 270.566 Q227.477 261.816 230.533 257.232 Q233.611 252.626 239.422 252.626 Z" fill="#000000" fill-rule="evenodd" fill-opacity="1" /><path clip-path="url(#clip990)" d="M269.583 256.33 Q265.972 256.33 264.144 259.894 Q262.338 263.436 262.338 270.566 Q262.338 277.672 264.144 281.237 Q265.972 284.779 269.583 284.779 Q273.218 284.779 275.023 281.237 Q276.852 277.672 276.852 270.566 Q276.852 263.436 275.023 259.894 Q273.218 256.33 269.583 256.33 M269.583 252.626 Q275.394 252.626 278.449 257.232 Q281.528 261.816 281.528 270.566 Q281.528 279.292 278.449 283.899 Q275.394 288.482 269.583 288.482 Q263.773 288.482 260.695 283.899 Q257.639 279.292 257.639 270.566 Q257.639 261.816 260.695 257.232 Q263.773 252.626 269.583 252.626 Z" fill="#000000" fill-rule="evenodd" fill-opacity="1" /><path clip-path="url(#clip990)" d="M14.479 1228.41 L14.479 1222.55 L64.0042 1222.55 L64.0042 1228.41 L14.479 1228.41 Z" fill="#000000" fill-rule="evenodd" fill-opacity="1" /><path clip-path="url(#clip990)" d="M32.4621 1196.49 Q32.4621 1201.2 36.1542 1203.93 Q39.8145 1206.67 46.212 1206.67 Q52.6095 1206.67 56.3017 1203.97 Q59.9619 1201.23 59.9619 1196.49 Q59.9619 1191.81 56.2698 1189.07 Q52.5777 1186.33 46.212 1186.33 Q39.8781 1186.33 36.186 1189.07 Q32.4621 1191.81 32.4621 1196.49 M27.4968 1196.49 Q27.4968 1188.85 32.4621 1184.49 Q37.4273 1180.13 46.212 1180.13 Q54.9649 1180.13 59.9619 1184.49 Q64.9272 1188.85 64.9272 1196.49 Q64.9272 1204.16 59.9619 1208.52 Q54.9649 1212.85 46.212 1212.85 Q37.4273 1212.85 32.4621 1208.52 Q27.4968 1204.16 27.4968 1196.49 Z" fill="#000000" fill-rule="evenodd" fill-opacity="1" /><path clip-path="url(#clip990)" d="M45.7664 1146.96 Q39.4007 1146.96 35.8996 1149.6 Q32.3984 1152.21 32.3984 1156.96 Q32.3984 1161.67 35.8996 1164.31 Q39.4007 1166.92 45.7664 1166.92 Q52.1003 1166.92 55.6014 1164.31 Q59.1026 1161.67 59.1026 1156.96 Q59.1026 1152.21 55.6014 1149.6 Q52.1003 1146.96 45.7664 1146.96 M59.58 1141.1 Q68.683 1141.1 73.1071 1145.15 Q77.5631 1149.19 77.5631 1157.53 Q77.5631 1160.62 77.0857 1163.35 Q76.6401 1166.09 75.6852 1168.67 L69.9879 1168.67 Q71.3884 1166.09 72.0568 1163.58 Q72.7252 1161.06 72.7252 1158.45 Q72.7252 1152.69 69.7015 1149.83 Q66.7096 1146.96 60.6303 1146.96 L57.7339 1146.96 Q60.885 1148.78 62.4446 1151.61 Q64.0042 1154.44 64.0042 1158.39 Q64.0042 1164.94 59.0071 1168.95 Q54.01 1172.97 45.7664 1172.97 Q37.491 1172.97 32.4939 1168.95 Q27.4968 1164.94 27.4968 1158.39 Q27.4968 1154.44 29.0564 1151.61 Q30.616 1148.78 33.7671 1146.96 L28.3562 1146.96 L28.3562 1141.1 L59.58 1141.1 Z" fill="#000000" fill-rule="evenodd" fill-opacity="1" /><path clip-path="url(#clip990)" d="M14.5426 1114.97 Q21.8632 1119.24 29.0246 1121.31 Q36.186 1123.38 43.5384 1123.38 Q50.8908 1123.38 58.1159 1121.31 Q65.3091 1119.21 72.5979 1114.97 L72.5979 1120.07 Q65.1182 1124.84 57.8931 1127.23 Q50.668 1129.58 43.5384 1129.58 Q36.4406 1129.58 29.2474 1127.23 Q22.0542 1124.87 14.5426 1120.07 L14.5426 1114.97 Z" fill="#000000" fill-rule="evenodd" fill-opacity="1" /><path clip-path="url(#clip990)" d="M16.4842 1103.36 L16.4842 1076.05 L21.895 1076.05 L21.895 1096.93 L35.8996 1096.93 L35.8996 1078.08 L41.3104 1078.08 L41.3104 1096.93 L64.0042 1096.93 L64.0042 1103.36 L16.4842 1103.36 Z" fill="#000000" fill-rule="evenodd" fill-opacity="1" /><path clip-path="url(#clip990)" d="M46.0847 1055.9 Q46.0847 1063 47.7079 1065.73 Q49.3312 1068.47 53.2461 1068.47 Q56.3653 1068.47 58.2114 1066.43 Q60.0256 1064.37 60.0256 1060.83 Q60.0256 1055.96 56.5881 1053.04 Q53.1188 1050.08 47.3897 1050.08 L46.0847 1050.08 L46.0847 1055.9 M43.6657 1044.22 L64.0042 1044.22 L64.0042 1050.08 L58.5933 1050.08 Q61.8398 1052.08 63.3994 1055.07 Q64.9272 1058.06 64.9272 1062.39 Q64.9272 1067.87 61.8716 1071.11 Q58.7843 1074.33 53.6281 1074.33 Q47.6125 1074.33 44.5569 1070.32 Q41.5014 1066.28 41.5014 1058.29 L41.5014 1050.08 L40.9285 1050.08 Q36.8862 1050.08 34.6901 1052.75 Q32.4621 1055.39 32.4621 1060.2 Q32.4621 1063.25 33.1941 1066.15 Q33.9262 1069.04 35.3903 1071.72 L29.9795 1071.72 Q28.7381 1068.5 28.1334 1065.48 Q27.4968 1062.46 27.4968 1059.59 Q27.4968 1051.86 31.5072 1048.04 Q35.5176 1044.22 43.6657 1044.22 Z" fill="#000000" fill-rule="evenodd" fill-opacity="1" /><path clip-path="url(#clip990)" d="M33.8307 1011.5 Q33.2578 1012.49 33.0032 1013.66 Q32.7167 1014.81 32.7167 1016.21 Q32.7167 1021.17 35.9632 1023.85 Q39.1779 1026.49 45.2253 1026.49 L64.0042 1026.49 L64.0042 1032.38 L28.3562 1032.38 L28.3562 1026.49 L33.8944 1026.49 Q30.6479 1024.64 29.0883 1021.68 Q27.4968 1018.72 27.4968 1014.49 Q27.4968 1013.89 27.5923 1013.15 Q27.656 1012.42 27.8151 1011.53 L33.8307 1011.5 Z" fill="#000000" fill-rule="evenodd" fill-opacity="1" /><path clip-path="url(#clip990)" d="M35.1993 978.747 Q31.2526 976.551 29.3747 973.496 Q27.4968 970.44 27.4968 966.302 Q27.4968 960.732 31.4117 957.709 Q35.2948 954.685 42.4881 954.685 L64.0042 954.685 L64.0042 960.573 L42.679 960.573 Q37.5546 960.573 35.072 962.387 Q32.5894 964.202 32.5894 967.926 Q32.5894 972.477 35.6131 975.119 Q38.6368 977.761 43.8567 977.761 L64.0042 977.761 L64.0042 983.649 L42.679 983.649 Q37.5228 983.649 35.072 985.463 Q32.5894 987.277 32.5894 991.065 Q32.5894 995.553 35.6449 998.195 Q38.6686 1000.84 43.8567 1000.84 L64.0042 1000.84 L64.0042 1006.72 L28.3562 1006.72 L28.3562 1000.84 L33.8944 1000.84 Q30.616 998.831 29.0564 996.03 Q27.4968 993.229 27.4968 989.378 Q27.4968 985.495 29.4702 982.79 Q31.4436 980.052 35.1993 978.747 Z" fill="#000000" fill-rule="evenodd" fill-opacity="1" /><path clip-path="url(#clip990)" d="M16.4842 922.029 L16.4842 915.6 L64.0042 915.6 L64.0042 922.029 L16.4842 922.029 Z" fill="#000000" fill-rule="evenodd" fill-opacity="1" /><path clip-path="url(#clip990)" d="M42.4881 873.427 L64.0042 873.427 L64.0042 879.283 L42.679 879.283 Q37.6183 879.283 35.1038 881.257 Q32.5894 883.23 32.5894 887.177 Q32.5894 891.919 35.6131 894.656 Q38.6368 897.394 43.8567 897.394 L64.0042 897.394 L64.0042 903.282 L28.3562 903.282 L28.3562 897.394 L33.8944 897.394 Q30.6797 895.293 29.0883 892.46 Q27.4968 889.596 27.4968 885.872 Q27.4968 879.729 31.3163 876.578 Q35.1038 873.427 42.4881 873.427 Z" fill="#000000" fill-rule="evenodd" fill-opacity="1" /><path clip-path="url(#clip990)" d="M29.7248 836.092 L35.1993 836.092 Q33.8307 838.574 33.1623 841.089 Q32.4621 843.572 32.4621 846.118 Q32.4621 851.815 36.0905 854.966 Q39.6872 858.117 46.212 858.117 Q52.7369 858.117 56.3653 854.966 Q59.9619 851.815 59.9619 846.118 Q59.9619 843.572 59.2935 841.089 Q58.5933 838.574 57.2247 836.092 L62.6355 836.092 Q63.7814 838.543 64.3543 841.184 Q64.9272 843.794 64.9272 846.754 Q64.9272 854.807 59.8664 859.549 Q54.8057 864.292 46.212 864.292 Q37.491 864.292 32.4939 859.518 Q27.4968 854.712 27.4968 846.372 Q27.4968 843.667 28.0697 841.089 Q28.6108 838.511 29.7248 836.092 Z" fill="#000000" fill-rule="evenodd" fill-opacity="1" /><path clip-path="url(#clip990)" d="M32.4621 812.093 Q32.4621 816.804 36.1542 819.541 Q39.8145 822.278 46.212 822.278 Q52.6095 822.278 56.3017 819.573 Q59.9619 816.836 59.9619 812.093 Q59.9619 807.414 56.2698 804.677 Q52.5777 801.94 46.212 801.94 Q39.8781 801.94 36.186 804.677 Q32.4621 807.414 32.4621 812.093 M27.4968 812.093 Q27.4968 804.454 32.4621 800.094 Q37.4273 795.733 46.212 795.733 Q54.9649 795.733 59.9619 800.094 Q64.9272 804.454 64.9272 812.093 Q64.9272 819.764 59.9619 824.124 Q54.9649 828.453 46.212 828.453 Q37.4273 828.453 32.4621 824.124 Q27.4968 819.764 27.4968 812.093 Z" fill="#000000" fill-rule="evenodd" fill-opacity="1" /><path clip-path="url(#clip990)" d="M35.1993 758.271 Q31.2526 756.075 29.3747 753.019 Q27.4968 749.964 27.4968 745.826 Q27.4968 740.256 31.4117 737.232 Q35.2948 734.209 42.4881 734.209 L64.0042 734.209 L64.0042 740.097 L42.679 740.097 Q37.5546 740.097 35.072 741.911 Q32.5894 743.725 32.5894 747.449 Q32.5894 752.001 35.6131 754.643 Q38.6368 757.284 43.8567 757.284 L64.0042 757.284 L64.0042 763.173 L42.679 763.173 Q37.5228 763.173 35.072 764.987 Q32.5894 766.801 32.5894 770.589 Q32.5894 775.077 35.6449 777.718 Q38.6686 780.36 43.8567 780.36 L64.0042 780.36 L64.0042 786.248 L28.3562 786.248 L28.3562 780.36 L33.8944 780.36 Q30.616 778.355 29.0564 775.554 Q27.4968 772.753 27.4968 768.902 Q27.4968 765.019 29.4702 762.313 Q31.4436 759.576 35.1993 758.271 Z" fill="#000000" fill-rule="evenodd" fill-opacity="1" /><path clip-path="url(#clip990)" d="M44.7161 692.036 L47.5806 692.036 L47.5806 718.963 Q53.6281 718.581 56.8109 715.334 Q59.9619 712.056 59.9619 706.231 Q59.9619 702.858 59.1344 699.707 Q58.3069 696.524 56.6518 693.405 L62.1899 693.405 Q63.5267 696.556 64.227 699.866 Q64.9272 703.176 64.9272 706.582 Q64.9272 715.112 59.9619 720.109 Q54.9967 725.074 46.5303 725.074 Q37.7774 725.074 32.6531 720.363 Q27.4968 715.621 27.4968 707.6 Q27.4968 700.407 32.1438 696.237 Q36.7589 692.036 44.7161 692.036 M42.9973 697.892 Q38.1912 697.956 35.3266 700.598 Q32.4621 703.208 32.4621 707.536 Q32.4621 712.438 35.2312 715.398 Q38.0002 718.326 43.0292 718.772 L42.9973 697.892 Z" fill="#000000" fill-rule="evenodd" fill-opacity="1" /><path clip-path="url(#clip990)" d="M58.657 656.038 L77.5631 656.038 L77.5631 661.926 L28.3562 661.926 L28.3562 656.038 L33.7671 656.038 Q30.5842 654.192 29.0564 651.391 Q27.4968 648.558 27.4968 644.643 Q27.4968 638.15 32.6531 634.108 Q37.8093 630.034 46.212 630.034 Q54.6147 630.034 59.771 634.108 Q64.9272 638.15 64.9272 644.643 Q64.9272 648.558 63.3994 651.391 Q61.8398 654.192 58.657 656.038 M46.212 636.113 Q39.7508 636.113 36.0905 638.787 Q32.3984 641.429 32.3984 646.076 Q32.3984 650.722 36.0905 653.396 Q39.7508 656.038 46.212 656.038 Q52.6732 656.038 56.3653 653.396 Q60.0256 650.722 60.0256 646.076 Q60.0256 641.429 56.3653 638.787 Q52.6732 636.113 46.212 636.113 Z" fill="#000000" fill-rule="evenodd" fill-opacity="1" /><path clip-path="url(#clip990)" d="M44.7161 589.834 L47.5806 589.834 L47.5806 616.761 Q53.6281 616.379 56.8109 613.133 Q59.9619 609.855 59.9619 604.03 Q59.9619 600.656 59.1344 597.505 Q58.3069 594.322 56.6518 591.203 L62.1899 591.203 Q63.5267 594.354 64.227 597.664 Q64.9272 600.974 64.9272 604.38 Q64.9272 612.91 59.9619 617.907 Q54.9967 622.873 46.5303 622.873 Q37.7774 622.873 32.6531 618.162 Q27.4968 613.419 27.4968 605.399 Q27.4968 598.205 32.1438 594.036 Q36.7589 589.834 44.7161 589.834 M42.9973 595.691 Q38.1912 595.755 35.3266 598.396 Q32.4621 601.006 32.4621 605.335 Q32.4621 610.237 35.2312 613.197 Q38.0002 616.125 43.0292 616.57 L42.9973 595.691 Z" fill="#000000" fill-rule="evenodd" fill-opacity="1" /><path clip-path="url(#clip990)" d="M33.8307 559.566 Q33.2578 560.552 33.0032 561.73 Q32.7167 562.876 32.7167 564.276 Q32.7167 569.241 35.9632 571.915 Q39.1779 574.557 45.2253 574.557 L64.0042 574.557 L64.0042 580.445 L28.3562 580.445 L28.3562 574.557 L33.8944 574.557 Q30.6479 572.711 29.0883 569.751 Q27.4968 566.791 27.4968 562.557 Q27.4968 561.953 27.5923 561.221 Q27.656 560.489 27.8151 559.597 L33.8307 559.566 Z" fill="#000000" fill-rule="evenodd" fill-opacity="1" /><path clip-path="url(#clip990)" d="M29.7248 507.048 L35.1993 507.048 Q33.8307 509.531 33.1623 512.046 Q32.4621 514.528 32.4621 517.074 Q32.4621 522.772 36.0905 525.923 Q39.6872 529.074 46.212 529.074 Q52.7369 529.074 56.3653 525.923 Q59.9619 522.772 59.9619 517.074 Q59.9619 514.528 59.2935 512.046 Q58.5933 509.531 57.2247 507.048 L62.6355 507.048 Q63.7814 509.499 64.3543 512.141 Q64.9272 514.751 64.9272 517.711 Q64.9272 525.764 59.8664 530.506 Q54.8057 535.249 46.212 535.249 Q37.491 535.249 32.4939 530.474 Q27.4968 525.668 27.4968 517.329 Q27.4968 514.624 28.0697 512.046 Q28.6108 509.467 29.7248 507.048 Z" fill="#000000" fill-rule="evenodd" fill-opacity="1" /><path clip-path="url(#clip990)" d="M46.0847 480.663 Q46.0847 487.76 47.7079 490.498 Q49.3312 493.235 53.2461 493.235 Q56.3653 493.235 58.2114 491.198 Q60.0256 489.129 60.0256 485.596 Q60.0256 480.726 56.5881 477.798 Q53.1188 474.838 47.3897 474.838 L46.0847 474.838 L46.0847 480.663 M43.6657 468.982 L64.0042 468.982 L64.0042 474.838 L58.5933 474.838 Q61.8398 476.843 63.3994 479.835 Q64.9272 482.827 64.9272 487.156 Q64.9272 492.63 61.8716 495.877 Q58.7843 499.091 53.6281 499.091 Q47.6125 499.091 44.5569 495.081 Q41.5014 491.039 41.5014 483.05 L41.5014 474.838 L40.9285 474.838 Q36.8862 474.838 34.6901 477.512 Q32.4621 480.153 32.4621 484.959 Q32.4621 488.015 33.1941 490.911 Q33.9262 493.808 35.3903 496.481 L29.9795 496.481 Q28.7381 493.267 28.1334 490.243 Q27.4968 487.219 27.4968 484.355 Q27.4968 476.62 31.5072 472.801 Q35.5176 468.982 43.6657 468.982 Z" fill="#000000" fill-rule="evenodd" fill-opacity="1" /><path clip-path="url(#clip990)" d="M58.657 451.253 L77.5631 451.253 L77.5631 457.141 L28.3562 457.141 L28.3562 451.253 L33.7671 451.253 Q30.5842 449.407 29.0564 446.606 Q27.4968 443.773 27.4968 439.858 Q27.4968 433.365 32.6531 429.323 Q37.8093 425.249 46.212 425.249 Q54.6147 425.249 59.771 429.323 Q64.9272 433.365 64.9272 439.858 Q64.9272 443.773 63.3994 446.606 Q61.8398 449.407 58.657 451.253 M46.212 431.328 Q39.7508 431.328 36.0905 434.002 Q32.3984 436.644 32.3984 441.291 Q32.3984 445.938 36.0905 448.611 Q39.7508 451.253 46.212 451.253 Q52.6732 451.253 56.3653 448.611 Q60.0256 445.938 60.0256 441.291 Q60.0256 436.644 56.3653 434.002 Q52.6732 431.328 46.212 431.328 Z" fill="#000000" fill-rule="evenodd" fill-opacity="1" /><path clip-path="url(#clip990)" d="M28.3562 415.541 L28.3562 409.685 L64.0042 409.685 L64.0042 415.541 L28.3562 415.541 M14.479 415.541 L14.479 409.685 L21.895 409.685 L21.895 415.541 L14.479 415.541 Z" fill="#000000" fill-rule="evenodd" fill-opacity="1" /><path clip-path="url(#clip990)" d="M18.2347 391.638 L28.3562 391.638 L28.3562 379.575 L32.9077 379.575 L32.9077 391.638 L52.2594 391.638 Q56.6199 391.638 57.8613 390.461 Q59.1026 389.251 59.1026 385.591 L59.1026 379.575 L64.0042 379.575 L64.0042 385.591 Q64.0042 392.37 61.4897 394.948 Q58.9434 397.526 52.2594 397.526 L32.9077 397.526 L32.9077 401.823 L28.3562 401.823 L28.3562 397.526 L18.2347 397.526 L18.2347 391.638 Z" fill="#000000" fill-rule="evenodd" fill-opacity="1" /><path clip-path="url(#clip990)" d="M46.0847 355.672 Q46.0847 362.77 47.7079 365.507 Q49.3312 368.244 53.2461 368.244 Q56.3653 368.244 58.2114 366.207 Q60.0256 364.138 60.0256 360.605 Q60.0256 355.736 56.5881 352.807 Q53.1188 349.847 47.3897 349.847 L46.0847 349.847 L46.0847 355.672 M43.6657 343.991 L64.0042 343.991 L64.0042 349.847 L58.5933 349.847 Q61.8398 351.853 63.3994 354.844 Q64.9272 357.836 64.9272 362.165 Q64.9272 367.64 61.8716 370.886 Q58.7843 374.101 53.6281 374.101 Q47.6125 374.101 44.5569 370.09 Q41.5014 366.048 41.5014 358.059 L41.5014 349.847 L40.9285 349.847 Q36.8862 349.847 34.6901 352.521 Q32.4621 355.163 32.4621 359.969 Q32.4621 363.024 33.1941 365.921 Q33.9262 368.817 35.3903 371.491 L29.9795 371.491 Q28.7381 368.276 28.1334 365.252 Q27.4968 362.229 27.4968 359.364 Q27.4968 351.63 31.5072 347.81 Q35.5176 343.991 43.6657 343.991 Z" fill="#000000" fill-rule="evenodd" fill-opacity="1" /><path clip-path="url(#clip990)" d="M14.5426 332.851 L14.5426 327.758 Q22.0542 322.984 29.2474 320.629 Q36.4406 318.242 43.5384 318.242 Q50.668 318.242 57.8931 320.629 Q65.1182 322.984 72.5979 327.758 L72.5979 332.851 Q65.3091 328.618 58.1159 326.549 Q50.8908 324.448 43.5384 324.448 Q36.186 324.448 29.0246 326.549 Q21.8632 328.618 14.5426 332.851 Z" fill="#000000" fill-rule="evenodd" fill-opacity="1" /><path clip-path="url(#clip990)" d="M19.3676 43.6931 L19.3676 65.8515 L32.4926 65.8515 Q39.0955 65.8515 42.2553 63.1374 Q45.4555 60.3828 45.4555 54.752 Q45.4555 49.0808 42.2553 46.4072 Q39.0955 43.6931 32.4926 43.6931 L19.3676 43.6931 M19.3676 18.8205 L19.3676 37.0496 L31.4798 37.0496 Q37.4752 37.0496 40.3918 34.8216 Q43.349 32.5531 43.349 27.935 Q43.349 23.3575 40.3918 21.089 Q37.4752 18.8205 31.4798 18.8205 L19.3676 18.8205 M11.1848 12.096 L32.0875 12.096 Q41.4451 12.096 46.5087 15.9849 Q51.5723 19.8737 51.5723 27.0438 Q51.5723 32.5936 48.9798 35.8748 Q46.3872 39.156 41.3641 39.9662 Q47.3999 41.2625 50.7216 45.3944 Q54.0839 49.4858 54.0839 55.6432 Q54.0839 63.745 48.5747 68.1605 Q43.0654 72.576 32.8977 72.576 L11.1848 72.576 L11.1848 12.096 Z" fill="#000000" fill-rule="evenodd" fill-opacity="1" /><path clip-path="url(#clip990)" d="M67.7759 27.2059 L75.2296 27.2059 L75.2296 72.576 L67.7759 72.576 L67.7759 27.2059 M67.7759 9.54393 L75.2296 9.54393 L75.2296 18.9825 L67.7759 18.9825 L67.7759 9.54393 Z" fill="#000000" fill-rule="evenodd" fill-opacity="1" /><path clip-path="url(#clip990)" d="M128.54 45.1919 L128.54 72.576 L121.086 72.576 L121.086 45.4349 Q121.086 38.994 118.574 35.7938 Q116.063 32.5936 111.04 32.5936 Q105.004 32.5936 101.52 36.4419 Q98.0362 40.2903 98.0362 46.9338 L98.0362 72.576 L90.542 72.576 L90.542 27.2059 L98.0362 27.2059 L98.0362 34.2544 Q100.71 30.163 104.315 28.1376 Q107.961 26.1121 112.7 26.1121 Q120.519 26.1121 124.529 30.9732 Q128.54 35.7938 128.54 45.1919 Z" fill="#000000" fill-rule="evenodd" fill-opacity="1" /><path clip-path="url(#clip990)" d="M181.12 45.1919 L181.12 72.576 L173.667 72.576 L173.667 45.4349 Q173.667 38.994 171.155 35.7938 Q168.643 32.5936 163.62 32.5936 Q157.584 32.5936 154.101 36.4419 Q150.617 40.2903 150.617 46.9338 L150.617 72.576 L143.123 72.576 L143.123 27.2059 L150.617 27.2059 L150.617 34.2544 Q153.291 30.163 156.896 28.1376 Q160.542 26.1121 165.281 26.1121 Q173.099 26.1121 177.11 30.9732 Q181.12 35.7938 181.12 45.1919 Z" fill="#000000" fill-rule="evenodd" fill-opacity="1" /><path clip-path="url(#clip990)" d="M234.795 48.0275 L234.795 51.6733 L200.524 51.6733 Q201.01 59.3701 205.142 63.421 Q209.315 67.4314 216.728 67.4314 Q221.022 67.4314 225.032 66.3781 Q229.083 65.3249 233.053 63.2184 L233.053 70.267 Q229.042 71.9684 224.83 72.8596 Q220.617 73.7508 216.282 73.7508 Q205.426 73.7508 199.066 67.4314 Q192.746 61.1119 192.746 50.3365 Q192.746 39.1965 198.742 32.6746 Q204.778 26.1121 214.986 26.1121 Q224.141 26.1121 229.448 32.0264 Q234.795 37.9003 234.795 48.0275 M227.341 45.84 Q227.26 39.7232 223.898 36.0774 Q220.576 32.4315 215.067 32.4315 Q208.828 32.4315 205.061 35.9558 Q201.334 39.4801 200.767 45.8805 L227.341 45.84 Z" fill="#000000" fill-rule="evenodd" fill-opacity="1" /><path clip-path="url(#clip990)" d="M276.884 34.0924 L276.884 9.54393 L284.337 9.54393 L284.337 72.576 L276.884 72.576 L276.884 65.7705 Q274.534 69.8214 270.929 71.8063 Q267.364 73.7508 262.341 73.7508 Q254.118 73.7508 248.932 67.1883 Q243.788 60.6258 243.788 49.9314 Q243.788 39.2371 248.932 32.6746 Q254.118 26.1121 262.341 26.1121 Q267.364 26.1121 270.929 28.0971 Q274.534 30.0415 276.884 34.0924 M251.484 49.9314 Q251.484 58.1548 254.847 62.8538 Q258.249 67.5124 264.164 67.5124 Q270.078 67.5124 273.481 62.8538 Q276.884 58.1548 276.884 49.9314 Q276.884 41.7081 273.481 37.0496 Q270.078 32.3505 264.164 32.3505 Q258.249 32.3505 254.847 37.0496 Q251.484 41.7081 251.484 49.9314 Z" fill="#000000" fill-rule="evenodd" fill-opacity="1" /><path clip-path="url(#clip990)" d="M334.569 18.8205 L334.569 65.8515 L344.453 65.8515 Q356.97 65.8515 362.763 60.1802 Q368.596 54.509 368.596 42.2752 Q368.596 30.1225 362.763 24.4918 Q356.97 18.8205 344.453 18.8205 L334.569 18.8205 M326.386 12.096 L343.197 12.096 Q360.778 12.096 369.001 19.4281 Q377.225 26.7198 377.225 42.2752 Q377.225 57.9117 368.961 65.2439 Q360.697 72.576 343.197 72.576 L326.386 72.576 L326.386 12.096 Z" fill="#000000" fill-rule="evenodd" fill-opacity="1" /><path clip-path="url(#clip990)" d="M398.451 18.8205 L398.451 65.8515 L408.335 65.8515 Q420.853 65.8515 426.646 60.1802 Q432.479 54.509 432.479 42.2752 Q432.479 30.1225 426.646 24.4918 Q420.853 18.8205 408.335 18.8205 L398.451 18.8205 M390.268 12.096 L407.08 12.096 Q424.661 12.096 432.884 19.4281 Q441.107 26.7198 441.107 42.2752 Q441.107 57.9117 432.843 65.2439 Q424.58 72.576 407.08 72.576 L390.268 72.576 L390.268 12.096 Z" fill="#000000" fill-rule="evenodd" fill-opacity="1" /><path clip-path="url(#clip990)" d="M474.446 49.7694 Q465.413 49.7694 461.929 51.8354 Q458.445 53.9013 458.445 58.8839 Q458.445 62.8538 461.038 65.2034 Q463.671 67.5124 468.167 67.5124 Q474.365 67.5124 478.092 63.1374 Q481.859 58.7219 481.859 51.4303 L481.859 49.7694 L474.446 49.7694 M489.313 46.6907 L489.313 72.576 L481.859 72.576 L481.859 65.6895 Q479.307 69.8214 475.499 71.8063 Q471.692 73.7508 466.182 73.7508 Q459.215 73.7508 455.083 69.8619 Q450.991 65.9325 450.991 59.3701 Q450.991 51.7138 456.096 47.825 Q461.24 43.9361 471.408 43.9361 L481.859 43.9361 L481.859 43.2069 Q481.859 38.0623 478.457 35.2672 Q475.094 32.4315 468.978 32.4315 Q465.089 32.4315 461.402 33.3632 Q457.716 34.295 454.313 36.1584 L454.313 29.2718 Q458.405 27.692 462.253 26.9223 Q466.101 26.1121 469.747 26.1121 Q479.591 26.1121 484.452 31.2163 Q489.313 36.3204 489.313 46.6907 Z" fill="#000000" fill-rule="evenodd" fill-opacity="1" /><path clip-path="url(#clip990)" d="M523.543 76.7889 Q520.383 84.8907 517.386 87.3618 Q514.388 89.8329 509.365 89.8329 L503.41 89.8329 L503.41 83.5945 L507.785 83.5945 Q510.864 83.5945 512.565 82.1361 Q514.267 80.6778 516.333 75.2496 L517.669 71.8468 L499.319 27.2059 L507.218 27.2059 L521.396 62.6918 L535.574 27.2059 L543.474 27.2059 L523.543 76.7889 Z" fill="#000000" fill-rule="evenodd" fill-opacity="1" /><path clip-path="url(#clip990)" d="M588.641 18.8205 L588.641 65.8515 L598.525 65.8515 Q611.043 65.8515 616.836 60.1802 Q622.669 54.509 622.669 42.2752 Q622.669 30.1225 616.836 24.4918 Q611.043 18.8205 598.525 18.8205 L588.641 18.8205 M580.458 12.096 L597.27 12.096 Q614.851 12.096 623.074 19.4281 Q631.297 26.7198 631.297 42.2752 Q631.297 57.9117 623.033 65.2439 Q614.77 72.576 597.27 72.576 L580.458 72.576 L580.458 12.096 Z" fill="#000000" fill-rule="evenodd" fill-opacity="1" /><path clip-path="url(#clip990)" d="M682.825 48.0275 L682.825 51.6733 L648.554 51.6733 Q649.04 59.3701 653.172 63.421 Q657.345 67.4314 664.758 67.4314 Q669.052 67.4314 673.062 66.3781 Q677.113 65.3249 681.083 63.2184 L681.083 70.267 Q677.072 71.9684 672.86 72.8596 Q668.647 73.7508 664.312 73.7508 Q653.456 73.7508 647.096 67.4314 Q640.776 61.1119 640.776 50.3365 Q640.776 39.1965 646.772 32.6746 Q652.808 26.1121 663.016 26.1121 Q672.171 26.1121 677.478 32.0264 Q682.825 37.9003 682.825 48.0275 M675.371 45.84 Q675.29 39.7232 671.928 36.0774 Q668.606 32.4315 663.097 32.4315 Q656.858 32.4315 653.091 35.9558 Q649.364 39.4801 648.797 45.8805 L675.371 45.84 Z" fill="#000000" fill-rule="evenodd" fill-opacity="1" /><path clip-path="url(#clip990)" d="M689.711 27.2059 L697.611 27.2059 L711.789 65.2844 L725.967 27.2059 L733.866 27.2059 L716.852 72.576 L706.725 72.576 L689.711 27.2059 Z" fill="#000000" fill-rule="evenodd" fill-opacity="1" /><path clip-path="url(#clip990)" d="M744.155 27.2059 L751.609 27.2059 L751.609 72.576 L744.155 72.576 L744.155 27.2059 M744.155 9.54393 L751.609 9.54393 L751.609 18.9825 L744.155 18.9825 L744.155 9.54393 Z" fill="#000000" fill-rule="evenodd" fill-opacity="1" /><path clip-path="url(#clip990)" d="M787.824 49.7694 Q778.791 49.7694 775.307 51.8354 Q771.823 53.9013 771.823 58.8839 Q771.823 62.8538 774.416 65.2034 Q777.049 67.5124 781.545 67.5124 Q787.743 67.5124 791.47 63.1374 Q795.237 58.7219 795.237 51.4303 L795.237 49.7694 L787.824 49.7694 M802.691 46.6907 L802.691 72.576 L795.237 72.576 L795.237 65.6895 Q792.685 69.8214 788.877 71.8063 Q785.07 73.7508 779.56 73.7508 Q772.593 73.7508 768.461 69.8619 Q764.369 65.9325 764.369 59.3701 Q764.369 51.7138 769.474 47.825 Q774.618 43.9361 784.786 43.9361 L795.237 43.9361 L795.237 43.2069 Q795.237 38.0623 791.835 35.2672 Q788.472 32.4315 782.355 32.4315 Q778.467 32.4315 774.78 33.3632 Q771.094 34.295 767.691 36.1584 L767.691 29.2718 Q771.783 27.692 775.631 26.9223 Q779.479 26.1121 783.125 26.1121 Q792.969 26.1121 797.83 31.2163 Q802.691 36.3204 802.691 46.6907 Z" fill="#000000" fill-rule="evenodd" fill-opacity="1" /><path clip-path="url(#clip990)" d="M855.758 45.1919 L855.758 72.576 L848.304 72.576 L848.304 45.4349 Q848.304 38.994 845.793 35.7938 Q843.281 32.5936 838.258 32.5936 Q832.222 32.5936 828.738 36.4419 Q825.255 40.2903 825.255 46.9338 L825.255 72.576 L817.76 72.576 L817.76 27.2059 L825.255 27.2059 L825.255 34.2544 Q827.928 30.163 831.533 28.1376 Q835.179 26.1121 839.919 26.1121 Q847.737 26.1121 851.747 30.9732 Q855.758 35.7938 855.758 45.1919 Z" fill="#000000" fill-rule="evenodd" fill-opacity="1" /><path clip-path="url(#clip990)" d="M903.275 28.9478 L903.275 35.9153 Q900.115 34.1734 896.915 33.3227 Q893.755 32.4315 890.515 32.4315 Q883.263 32.4315 879.253 37.0496 Q875.243 41.6271 875.243 49.9314 Q875.243 58.2358 879.253 62.8538 Q883.263 67.4314 890.515 67.4314 Q893.755 67.4314 896.915 66.5807 Q900.115 65.6895 903.275 63.9476 L903.275 70.8341 Q900.156 72.2924 896.793 73.0216 Q893.472 73.7508 889.704 73.7508 Q879.456 73.7508 873.42 67.3098 Q867.384 60.8689 867.384 49.9314 Q867.384 38.832 873.46 32.472 Q879.577 26.1121 890.191 26.1121 Q893.634 26.1121 896.915 26.8413 Q900.196 27.5299 903.275 28.9478 Z" fill="#000000" fill-rule="evenodd" fill-opacity="1" /><path clip-path="url(#clip990)" d="M955.045 48.0275 L955.045 51.6733 L920.775 51.6733 Q921.261 59.3701 925.393 63.421 Q929.565 67.4314 936.978 67.4314 Q941.272 67.4314 945.283 66.3781 Q949.334 65.3249 953.304 63.2184 L953.304 70.267 Q949.293 71.9684 945.08 72.8596 Q940.867 73.7508 936.533 73.7508 Q925.676 73.7508 919.317 67.4314 Q912.997 61.1119 912.997 50.3365 Q912.997 39.1965 918.992 32.6746 Q925.028 26.1121 935.237 26.1121 Q944.392 26.1121 949.698 32.0264 Q955.045 37.9003 955.045 48.0275 M947.592 45.84 Q947.511 39.7232 944.149 36.0774 Q940.827 32.4315 935.318 32.4315 Q929.079 32.4315 925.312 35.9558 Q921.585 39.4801 921.018 45.8805 L947.592 45.84 Z" fill="#000000" fill-rule="evenodd" fill-opacity="1" /><path clip-path="url(#clip990)" d="M1016.62 9.54393 L1016.62 15.7418 L1009.49 15.7418 Q1005.48 15.7418 1003.9 17.3622 Q1002.36 18.9825 1002.36 23.1955 L1002.36 27.2059 L1014.63 27.2059 L1014.63 32.9987 L1002.36 32.9987 L1002.36 72.576 L994.866 72.576 L994.866 32.9987 L987.736 32.9987 L987.736 27.2059 L994.866 27.2059 L994.866 24.0462 Q994.866 16.471 998.39 13.0277 Q1001.91 9.54393 1009.57 9.54393 L1016.62 9.54393 Z" fill="#000000" fill-rule="evenodd" fill-opacity="1" /><path clip-path="url(#clip990)" d="M1049.15 34.1734 Q1047.89 33.4443 1046.39 33.1202 Q1044.94 32.7556 1043.15 32.7556 Q1036.83 32.7556 1033.43 36.8875 Q1030.07 40.9789 1030.07 48.6757 L1030.07 72.576 L1022.57 72.576 L1022.57 27.2059 L1030.07 27.2059 L1030.07 34.2544 Q1032.42 30.1225 1036.19 28.1376 Q1039.95 26.1121 1045.34 26.1121 Q1046.11 26.1121 1047.04 26.2337 Q1047.97 26.3147 1049.11 26.5172 L1049.15 34.1734 Z" fill="#000000" fill-rule="evenodd" fill-opacity="1" /><path clip-path="url(#clip990)" d="M1072.72 32.4315 Q1066.73 32.4315 1063.25 37.1306 Q1059.76 41.7891 1059.76 49.9314 Q1059.76 58.0738 1063.2 62.7728 Q1066.69 67.4314 1072.72 67.4314 Q1078.68 67.4314 1082.16 62.7323 Q1085.65 58.0333 1085.65 49.9314 Q1085.65 41.8701 1082.16 37.1711 Q1078.68 32.4315 1072.72 32.4315 M1072.72 26.1121 Q1082.45 26.1121 1088 32.4315 Q1093.55 38.7509 1093.55 49.9314 Q1093.55 61.0714 1088 67.4314 Q1082.45 73.7508 1072.72 73.7508 Q1062.96 73.7508 1057.41 67.4314 Q1051.9 61.0714 1051.9 49.9314 Q1051.9 38.7509 1057.41 32.4315 Q1062.96 26.1121 1072.72 26.1121 Z" fill="#000000" fill-rule="evenodd" fill-opacity="1" /><path clip-path="url(#clip990)" d="M1141.23 35.9153 Q1144.02 30.8922 1147.91 28.5022 Q1151.8 26.1121 1157.06 26.1121 Q1164.15 26.1121 1168 31.0947 Q1171.85 36.0368 1171.85 45.1919 L1171.85 72.576 L1164.36 72.576 L1164.36 45.4349 Q1164.36 38.913 1162.05 35.7533 Q1159.74 32.5936 1155 32.5936 Q1149.21 32.5936 1145.84 36.4419 Q1142.48 40.2903 1142.48 46.9338 L1142.48 72.576 L1134.99 72.576 L1134.99 45.4349 Q1134.99 38.8725 1132.68 35.7533 Q1130.37 32.5936 1125.55 32.5936 Q1119.84 32.5936 1116.47 36.4824 Q1113.11 40.3308 1113.11 46.9338 L1113.11 72.576 L1105.62 72.576 L1105.62 27.2059 L1113.11 27.2059 L1113.11 34.2544 Q1115.66 30.082 1119.23 28.0971 Q1122.79 26.1121 1127.7 26.1121 Q1132.64 26.1121 1136.08 28.6237 Q1139.56 31.1352 1141.23 35.9153 Z" fill="#000000" fill-rule="evenodd" fill-opacity="1" /><path clip-path="url(#clip990)" d="M1233.63 20.1573 L1222.53 50.2555 L1244.77 50.2555 L1233.63 20.1573 M1229.01 12.096 L1238.28 12.096 L1261.33 72.576 L1252.83 72.576 L1247.32 57.061 L1220.06 57.061 L1214.55 72.576 L1205.92 72.576 L1229.01 12.096 Z" fill="#000000" fill-rule="evenodd" fill-opacity="1" /><path clip-path="url(#clip990)" d="M1259.63 27.2059 L1267.53 27.2059 L1281.71 65.2844 L1295.89 27.2059 L1303.79 27.2059 L1286.77 72.576 L1276.65 72.576 L1259.63 27.2059 Z" fill="#000000" fill-rule="evenodd" fill-opacity="1" /><path clip-path="url(#clip990)" d="M1343.93 49.3643 Q1343.93 41.2625 1340.57 36.8065 Q1337.25 32.3505 1331.21 32.3505 Q1325.22 32.3505 1321.85 36.8065 Q1318.53 41.2625 1318.53 49.3643 Q1318.53 57.4256 1321.85 61.8816 Q1325.22 66.3376 1331.21 66.3376 Q1337.25 66.3376 1340.57 61.8816 Q1343.93 57.4256 1343.93 49.3643 M1351.39 66.9452 Q1351.39 78.5308 1346.24 84.1616 Q1341.1 89.8329 1330.48 89.8329 Q1326.55 89.8329 1323.07 89.2252 Q1319.59 88.6581 1316.31 87.4428 L1316.31 80.1917 Q1319.59 81.9741 1322.79 82.8248 Q1325.99 83.6755 1329.31 83.6755 Q1336.64 83.6755 1340.29 79.8271 Q1343.93 76.0193 1343.93 68.282 L1343.93 64.5957 Q1341.62 68.6061 1338.02 70.5911 Q1334.41 72.576 1329.39 72.576 Q1321.04 72.576 1315.94 66.2161 Q1310.84 59.8562 1310.84 49.3643 Q1310.84 38.832 1315.94 32.472 Q1321.04 26.1121 1329.39 26.1121 Q1334.41 26.1121 1338.02 28.0971 Q1341.62 30.082 1343.93 34.0924 L1343.93 27.2059 L1351.39 27.2059 L1351.39 66.9452 Z" fill="#000000" fill-rule="evenodd" fill-opacity="1" /><path clip-path="url(#clip990)" d="M1368.64 62.2867 L1377.19 62.2867 L1377.19 72.576 L1368.64 72.576 L1368.64 62.2867 M1368.64 29.6769 L1377.19 29.6769 L1377.19 39.9662 L1368.64 39.9662 L1368.64 29.6769 Z" fill="#000000" fill-rule="evenodd" fill-opacity="1" /><path clip-path="url(#clip990)" d="M1421.39 12.096 L1456.14 12.096 L1456.14 18.9825 L1429.57 18.9825 L1429.57 36.8065 L1453.55 36.8065 L1453.55 43.6931 L1429.57 43.6931 L1429.57 72.576 L1421.39 72.576 L1421.39 12.096 Z" fill="#000000" fill-rule="evenodd" fill-opacity="1" /><path clip-path="url(#clip990)" d="M1481.78 49.7694 Q1472.75 49.7694 1469.27 51.8354 Q1465.78 53.9013 1465.78 58.8839 Q1465.78 62.8538 1468.38 65.2034 Q1471.01 67.5124 1475.51 67.5124 Q1481.7 67.5124 1485.43 63.1374 Q1489.2 58.7219 1489.2 51.4303 L1489.2 49.7694 L1481.78 49.7694 M1496.65 46.6907 L1496.65 72.576 L1489.2 72.576 L1489.2 65.6895 Q1486.65 69.8214 1482.84 71.8063 Q1479.03 73.7508 1473.52 73.7508 Q1466.55 73.7508 1462.42 69.8619 Q1458.33 65.9325 1458.33 59.3701 Q1458.33 51.7138 1463.43 47.825 Q1468.58 43.9361 1478.75 43.9361 L1489.2 43.9361 L1489.2 43.2069 Q1489.2 38.0623 1485.79 35.2672 Q1482.43 32.4315 1476.32 32.4315 Q1472.43 32.4315 1468.74 33.3632 Q1465.05 34.295 1461.65 36.1584 L1461.65 29.2718 Q1465.74 27.692 1469.59 26.9223 Q1473.44 26.1121 1477.09 26.1121 Q1486.93 26.1121 1491.79 31.2163 Q1496.65 36.3204 1496.65 46.6907 Z" fill="#000000" fill-rule="evenodd" fill-opacity="1" /><path clip-path="url(#clip990)" d="M1538.29 34.1734 Q1537.04 33.4443 1535.54 33.1202 Q1534.08 32.7556 1532.3 32.7556 Q1525.98 32.7556 1522.58 36.8875 Q1519.21 40.9789 1519.21 48.6757 L1519.21 72.576 L1511.72 72.576 L1511.72 27.2059 L1519.21 27.2059 L1519.21 34.2544 Q1521.56 30.1225 1525.33 28.1376 Q1529.1 26.1121 1534.49 26.1121 Q1535.26 26.1121 1536.19 26.2337 Q1537.12 26.3147 1538.25 26.5172 L1538.29 34.1734 Z" fill="#000000" fill-rule="evenodd" fill-opacity="1" /><path clip-path="url(#clip990)" d="M1579.98 35.9153 Q1582.77 30.8922 1586.66 28.5022 Q1590.55 26.1121 1595.82 26.1121 Q1602.91 26.1121 1606.75 31.0947 Q1610.6 36.0368 1610.6 45.1919 L1610.6 72.576 L1603.11 72.576 L1603.11 45.4349 Q1603.11 38.913 1600.8 35.7533 Q1598.49 32.5936 1593.75 32.5936 Q1587.96 32.5936 1584.6 36.4419 Q1581.23 40.2903 1581.23 46.9338 L1581.23 72.576 L1573.74 72.576 L1573.74 45.4349 Q1573.74 38.8725 1571.43 35.7533 Q1569.12 32.5936 1564.3 32.5936 Q1558.59 32.5936 1555.23 36.4824 Q1551.87 40.3308 1551.87 46.9338 L1551.87 72.576 L1544.37 72.576 L1544.37 27.2059 L1551.87 27.2059 L1551.87 34.2544 Q1554.42 30.082 1557.98 28.0971 Q1561.55 26.1121 1566.45 26.1121 Q1571.39 26.1121 1574.83 28.6237 Q1578.32 31.1352 1579.98 35.9153 Z" fill="#000000" fill-rule="evenodd" fill-opacity="1" /><path clip-path="url(#clip990)" d="M1652.17 12.096 L1660.35 12.096 L1660.35 72.576 L1652.17 72.576 L1652.17 12.096 Z" fill="#000000" fill-rule="evenodd" fill-opacity="1" /><path clip-path="url(#clip990)" d="M1714.02 45.1919 L1714.02 72.576 L1706.57 72.576 L1706.57 45.4349 Q1706.57 38.994 1704.06 35.7938 Q1701.55 32.5936 1696.52 32.5936 Q1690.49 32.5936 1687 36.4419 Q1683.52 40.2903 1683.52 46.9338 L1683.52 72.576 L1676.03 72.576 L1676.03 27.2059 L1683.52 27.2059 L1683.52 34.2544 Q1686.19 30.163 1689.8 28.1376 Q1693.44 26.1121 1698.18 26.1121 Q1706 26.1121 1710.01 30.9732 Q1714.02 35.7938 1714.02 45.1919 Z" fill="#000000" fill-rule="evenodd" fill-opacity="1" /><path clip-path="url(#clip990)" d="M1761.54 28.9478 L1761.54 35.9153 Q1758.38 34.1734 1755.18 33.3227 Q1752.02 32.4315 1748.78 32.4315 Q1741.53 32.4315 1737.52 37.0496 Q1733.51 41.6271 1733.51 49.9314 Q1733.51 58.2358 1737.52 62.8538 Q1741.53 67.4314 1748.78 67.4314 Q1752.02 67.4314 1755.18 66.5807 Q1758.38 65.6895 1761.54 63.9476 L1761.54 70.8341 Q1758.42 72.2924 1755.06 73.0216 Q1751.74 73.7508 1747.97 73.7508 Q1737.72 73.7508 1731.68 67.3098 Q1725.65 60.8689 1725.65 49.9314 Q1725.65 38.832 1731.73 32.472 Q1737.84 26.1121 1748.46 26.1121 Q1751.9 26.1121 1755.18 26.8413 Q1758.46 27.5299 1761.54 28.9478 Z" fill="#000000" fill-rule="evenodd" fill-opacity="1" /><path clip-path="url(#clip990)" d="M1792.08 32.4315 Q1786.09 32.4315 1782.6 37.1306 Q1779.12 41.7891 1779.12 49.9314 Q1779.12 58.0738 1782.56 62.7728 Q1786.05 67.4314 1792.08 67.4314 Q1798.04 67.4314 1801.52 62.7323 Q1805.01 58.0333 1805.01 49.9314 Q1805.01 41.8701 1801.52 37.1711 Q1798.04 32.4315 1792.08 32.4315 M1792.08 26.1121 Q1801.81 26.1121 1807.36 32.4315 Q1812.91 38.7509 1812.91 49.9314 Q1812.91 61.0714 1807.36 67.4314 Q1801.81 73.7508 1792.08 73.7508 Q1782.32 73.7508 1776.77 67.4314 Q1771.26 61.0714 1771.26 49.9314 Q1771.26 38.7509 1776.77 32.4315 Q1782.32 26.1121 1792.08 26.1121 Z" fill="#000000" fill-rule="evenodd" fill-opacity="1" /><path clip-path="url(#clip990)" d="M1860.58 35.9153 Q1863.38 30.8922 1867.27 28.5022 Q1871.16 26.1121 1876.42 26.1121 Q1883.51 26.1121 1887.36 31.0947 Q1891.21 36.0368 1891.21 45.1919 L1891.21 72.576 L1883.72 72.576 L1883.72 45.4349 Q1883.72 38.913 1881.41 35.7533 Q1879.1 32.5936 1874.36 32.5936 Q1868.56 32.5936 1865.2 36.4419 Q1861.84 40.2903 1861.84 46.9338 L1861.84 72.576 L1854.35 72.576 L1854.35 45.4349 Q1854.35 38.8725 1852.04 35.7533 Q1849.73 32.5936 1844.91 32.5936 Q1839.2 32.5936 1835.83 36.4824 Q1832.47 40.3308 1832.47 46.9338 L1832.47 72.576 L1824.98 72.576 L1824.98 27.2059 L1832.47 27.2059 L1832.47 34.2544 Q1835.02 30.082 1838.59 28.0971 Q1842.15 26.1121 1847.05 26.1121 Q1852 26.1121 1855.44 28.6237 Q1858.92 31.1352 1860.58 35.9153 Z" fill="#000000" fill-rule="evenodd" fill-opacity="1" /><path clip-path="url(#clip990)" d="M1944.88 48.0275 L1944.88 51.6733 L1910.61 51.6733 Q1911.1 59.3701 1915.23 63.421 Q1919.4 67.4314 1926.82 67.4314 Q1931.11 67.4314 1935.12 66.3781 Q1939.17 65.3249 1943.14 63.2184 L1943.14 70.267 Q1939.13 71.9684 1934.92 72.8596 Q1930.71 73.7508 1926.37 73.7508 Q1915.51 73.7508 1909.15 67.4314 Q1902.84 61.1119 1902.84 50.3365 Q1902.84 39.1965 1908.83 32.6746 Q1914.87 26.1121 1925.08 26.1121 Q1934.23 26.1121 1939.54 32.0264 Q1944.88 37.9003 1944.88 48.0275 M1937.43 45.84 Q1937.35 39.7232 1933.99 36.0774 Q1930.67 32.4315 1925.16 32.4315 Q1918.92 32.4315 1915.15 35.9558 Q1911.42 39.4801 1910.86 45.8805 L1937.43 45.84 Z" fill="#000000" fill-rule="evenodd" fill-opacity="1" /><path clip-path="url(#clip990)" d="M1990.7 65.7705 L1990.7 89.8329 L1983.21 89.8329 L1983.21 27.2059 L1990.7 27.2059 L1990.7 34.0924 Q1993.05 30.0415 1996.61 28.0971 Q2000.22 26.1121 2005.2 26.1121 Q2013.47 26.1121 2018.61 32.6746 Q2023.8 39.2371 2023.8 49.9314 Q2023.8 60.6258 2018.61 67.1883 Q2013.47 73.7508 2005.2 73.7508 Q2000.22 73.7508 1996.61 71.8063 Q1993.05 69.8214 1990.7 65.7705 M2016.06 49.9314 Q2016.06 41.7081 2012.66 37.0496 Q2009.29 32.3505 2003.38 32.3505 Q1997.46 32.3505 1994.06 37.0496 Q1990.7 41.7081 1990.7 49.9314 Q1990.7 58.1548 1994.06 62.8538 Q1997.46 67.5124 2003.38 67.5124 Q2009.29 67.5124 2012.66 62.8538 Q2016.06 58.1548 2016.06 49.9314 Z" fill="#000000" fill-rule="evenodd" fill-opacity="1" /><path clip-path="url(#clip990)" d="M2074.96 48.0275 L2074.96 51.6733 L2040.69 51.6733 Q2041.17 59.3701 2045.31 63.421 Q2049.48 67.4314 2056.89 67.4314 Q2061.19 67.4314 2065.2 66.3781 Q2069.25 65.3249 2073.22 63.2184 L2073.22 70.267 Q2069.21 71.9684 2064.99 72.8596 Q2060.78 73.7508 2056.45 73.7508 Q2045.59 73.7508 2039.23 67.4314 Q2032.91 61.1119 2032.91 50.3365 Q2032.91 39.1965 2038.91 32.6746 Q2044.94 26.1121 2055.15 26.1121 Q2064.3 26.1121 2069.61 32.0264 Q2074.96 37.9003 2074.96 48.0275 M2067.5 45.84 Q2067.42 39.7232 2064.06 36.0774 Q2060.74 32.4315 2055.23 32.4315 Q2048.99 32.4315 2045.22 35.9558 Q2041.5 39.4801 2040.93 45.8805 L2067.5 45.84 Z" fill="#000000" fill-rule="evenodd" fill-opacity="1" /><path clip-path="url(#clip990)" d="M2113.48 34.1734 Q2112.23 33.4443 2110.73 33.1202 Q2109.27 32.7556 2107.49 32.7556 Q2101.17 32.7556 2097.77 36.8875 Q2094.4 40.9789 2094.4 48.6757 L2094.4 72.576 L2086.91 72.576 L2086.91 27.2059 L2094.4 27.2059 L2094.4 34.2544 Q2096.75 30.1225 2100.52 28.1376 Q2104.29 26.1121 2109.67 26.1121 Q2110.44 26.1121 2111.38 26.2337 Q2112.31 26.3147 2113.44 26.5172 L2113.48 34.1734 Z" fill="#000000" fill-rule="evenodd" fill-opacity="1" /><path clip-path="url(#clip990)" d="M2180.32 28.9478 L2180.32 35.9153 Q2177.16 34.1734 2173.96 33.3227 Q2170.8 32.4315 2167.56 32.4315 Q2160.31 32.4315 2156.3 37.0496 Q2152.29 41.6271 2152.29 49.9314 Q2152.29 58.2358 2156.3 62.8538 Q2160.31 67.4314 2167.56 67.4314 Q2170.8 67.4314 2173.96 66.5807 Q2177.16 65.6895 2180.32 63.9476 L2180.32 70.8341 Q2177.2 72.2924 2173.84 73.0216 Q2170.52 73.7508 2166.75 73.7508 Q2156.5 73.7508 2150.47 67.3098 Q2144.43 60.8689 2144.43 49.9314 Q2144.43 38.832 2150.51 32.472 Q2156.62 26.1121 2167.24 26.1121 Q2170.68 26.1121 2173.96 26.8413 Q2177.24 27.5299 2180.32 28.9478 Z" fill="#000000" fill-rule="evenodd" fill-opacity="1" /><path clip-path="url(#clip990)" d="M2213.9 49.7694 Q2204.87 49.7694 2201.39 51.8354 Q2197.9 53.9013 2197.9 58.8839 Q2197.9 62.8538 2200.5 65.2034 Q2203.13 67.5124 2207.63 67.5124 Q2213.82 67.5124 2217.55 63.1374 Q2221.32 58.7219 2221.32 51.4303 L2221.32 49.7694 L2213.9 49.7694 M2228.77 46.6907 L2228.77 72.576 L2221.32 72.576 L2221.32 65.6895 Q2218.77 69.8214 2214.96 71.8063 Q2211.15 73.7508 2205.64 73.7508 Q2198.67 73.7508 2194.54 69.8619 Q2190.45 65.9325 2190.45 59.3701 Q2190.45 51.7138 2195.55 47.825 Q2200.7 43.9361 2210.87 43.9361 L2221.32 43.9361 L2221.32 43.2069 Q2221.32 38.0623 2217.91 35.2672 Q2214.55 32.4315 2208.44 32.4315 Q2204.55 32.4315 2200.86 33.3632 Q2197.17 34.295 2193.77 36.1584 L2193.77 29.2718 Q2197.86 27.692 2201.71 26.9223 Q2205.56 26.1121 2209.21 26.1121 Q2219.05 26.1121 2223.91 31.2163 Q2228.77 36.3204 2228.77 46.6907 Z" fill="#000000" fill-rule="evenodd" fill-opacity="1" /><path clip-path="url(#clip990)" d="M2251.33 65.7705 L2251.33 89.8329 L2243.84 89.8329 L2243.84 27.2059 L2251.33 27.2059 L2251.33 34.0924 Q2253.68 30.0415 2257.25 28.0971 Q2260.85 26.1121 2265.84 26.1121 Q2274.1 26.1121 2279.25 32.6746 Q2284.43 39.2371 2284.43 49.9314 Q2284.43 60.6258 2279.25 67.1883 Q2274.1 73.7508 2265.84 73.7508 Q2260.85 73.7508 2257.25 71.8063 Q2253.68 69.8214 2251.33 65.7705 M2276.69 49.9314 Q2276.69 41.7081 2273.29 37.0496 Q2269.93 32.3505 2264.01 32.3505 Q2258.1 32.3505 2254.7 37.0496 Q2251.33 41.7081 2251.33 49.9314 Q2251.33 58.1548 2254.7 62.8538 Q2258.1 67.5124 2264.01 67.5124 Q2269.93 67.5124 2273.29 62.8538 Q2276.69 58.1548 2276.69 49.9314 Z" fill="#000000" fill-rule="evenodd" fill-opacity="1" /><path clip-path="url(#clip990)" d="M2296.79 27.2059 L2304.24 27.2059 L2304.24 72.576 L2296.79 72.576 L2296.79 27.2059 M2296.79 9.54393 L2304.24 9.54393 L2304.24 18.9825 L2296.79 18.9825 L2296.79 9.54393 Z" fill="#000000" fill-rule="evenodd" fill-opacity="1" /><path clip-path="url(#clip990)" d="M2327.21 14.324 L2327.21 27.2059 L2342.56 27.2059 L2342.56 32.9987 L2327.21 32.9987 L2327.21 57.6282 Q2327.21 63.1779 2328.71 64.7578 Q2330.25 66.3376 2334.91 66.3376 L2342.56 66.3376 L2342.56 72.576 L2334.91 72.576 Q2326.28 72.576 2323 69.3758 Q2319.71 66.1351 2319.71 57.6282 L2319.71 32.9987 L2314.25 32.9987 L2314.25 27.2059 L2319.71 27.2059 L2319.71 14.324 L2327.21 14.324 Z" fill="#000000" fill-rule="evenodd" fill-opacity="1" /><path clip-path="url(#clip990)" d="M2372.98 49.7694 Q2363.95 49.7694 2360.47 51.8354 Q2356.98 53.9013 2356.98 58.8839 Q2356.98 62.8538 2359.58 65.2034 Q2362.21 67.5124 2366.7 67.5124 Q2372.9 67.5124 2376.63 63.1374 Q2380.4 58.7219 2380.4 51.4303 L2380.4 49.7694 L2372.98 49.7694 M2387.85 46.6907 L2387.85 72.576 L2380.4 72.576 L2380.4 65.6895 Q2377.84 69.8214 2374.04 71.8063 Q2370.23 73.7508 2364.72 73.7508 Q2357.75 73.7508 2353.62 69.8619 Q2349.53 65.9325 2349.53 59.3701 Q2349.53 51.7138 2354.63 47.825 Q2359.78 43.9361 2369.95 43.9361 L2380.4 43.9361 L2380.4 43.2069 Q2380.4 38.0623 2376.99 35.2672 Q2373.63 32.4315 2367.51 32.4315 Q2363.63 32.4315 2359.94 33.3632 Q2356.25 34.295 2352.85 36.1584 L2352.85 29.2718 Q2356.94 27.692 2360.79 26.9223 Q2364.64 26.1121 2368.28 26.1121 Q2378.13 26.1121 2382.99 31.2163 Q2387.85 36.3204 2387.85 46.6907 Z" fill="#000000" fill-rule="evenodd" fill-opacity="1" /><polyline clip-path="url(#clip992)" style="stroke:#808080; stroke-linecap:butt; stroke-linejoin:round; stroke-width:4; stroke-opacity:1; fill:none" stroke-dasharray="16, 10" points="
  375.129,270.531 588.465,270.531 801.801,270.531 1015.14,270.531 1228.47,270.531 1441.81,270.531 1655.15,270.531 1868.48,270.531 2081.82,270.531 2295.16,270.531 
  
  "/>
<path clip-path="url(#clip992)" d="
M375.129 337.944 L588.465 440.334 L801.801 315.601 L1015.14 362.049 L1228.47 253.624 L1441.81 257.892 L1655.15 270.531 L1868.48 575.96 L2081.82 893.408 L2295.16 1386.4 
  L2295.16 874.715 L2081.82 803.818 L1868.48 500.773 L1655.15 270.531 L1441.81 177.085 L1228.47 160.256 L1015.14 255.005 L801.801 203.665 L588.465 317.237 L375.129 225.552 
   Z
  " fill="#009af9" fill-rule="evenodd" fill-opacity="0.35"/>
<polyline clip-path="url(#clip992)" style="stroke:#009af9; stroke-linecap:butt; stroke-linejoin:round; stroke-width:0; stroke-opacity:1; fill:none" points="
  375.129,337.944 588.465,440.334 801.801,315.601 1015.14,362.049 1228.47,253.624 1441.81,257.892 1655.15,270.531 1868.48,575.96 2081.82,893.408 2295.16,1386.4 
  
  "/>
<polyline clip-path="url(#clip992)" style="stroke:#e26f46; stroke-linecap:butt; stroke-linejoin:round; stroke-width:4; stroke-opacity:1; fill:none" points="
  375.129,281.748 588.465,378.785 801.801,259.633 1015.14,308.527 1228.47,206.94 1441.81,217.488 1655.15,270.531 1868.48,538.366 2081.82,848.613 2295.16,1130.56 
  
  "/>
<circle clip-path="url(#clip992)" cx="375.129" cy="281.748" r="14" fill="#e26f46" fill-rule="evenodd" fill-opacity="1" stroke="#000000" stroke-opacity="1" stroke-width="0"/>
<circle clip-path="url(#clip992)" cx="588.465" cy="378.785" r="14" fill="#e26f46" fill-rule="evenodd" fill-opacity="1" stroke="#000000" stroke-opacity="1" stroke-width="0"/>
<circle clip-path="url(#clip992)" cx="801.801" cy="259.633" r="14" fill="#e26f46" fill-rule="evenodd" fill-opacity="1" stroke="#000000" stroke-opacity="1" stroke-width="0"/>
<circle clip-path="url(#clip992)" cx="1015.14" cy="308.527" r="14" fill="#e26f46" fill-rule="evenodd" fill-opacity="1" stroke="#000000" stroke-opacity="1" stroke-width="0"/>
<circle clip-path="url(#clip992)" cx="1228.47" cy="206.94" r="14" fill="#e26f46" fill-rule="evenodd" fill-opacity="1" stroke="#000000" stroke-opacity="1" stroke-width="0"/>
<circle clip-path="url(#clip992)" cx="1441.81" cy="217.488" r="14" fill="#e26f46" fill-rule="evenodd" fill-opacity="1" stroke="#000000" stroke-opacity="1" stroke-width="0"/>
<circle clip-path="url(#clip992)" cx="1655.15" cy="270.531" r="14" fill="#e26f46" fill-rule="evenodd" fill-opacity="1" stroke="#000000" stroke-opacity="1" stroke-width="0"/>
<circle clip-path="url(#clip992)" cx="1868.48" cy="538.366" r="14" fill="#e26f46" fill-rule="evenodd" fill-opacity="1" stroke="#000000" stroke-opacity="1" stroke-width="0"/>
<circle clip-path="url(#clip992)" cx="2081.82" cy="848.613" r="14" fill="#e26f46" fill-rule="evenodd" fill-opacity="1" stroke="#000000" stroke-opacity="1" stroke-width="0"/>
<circle clip-path="url(#clip992)" cx="2295.16" cy="1130.56" r="14" fill="#e26f46" fill-rule="evenodd" fill-opacity="1" stroke="#000000" stroke-opacity="1" stroke-width="0"/>
<path clip-path="url(#clip990)" d="
M1600.66 1379.86 L2284.91 1379.86 L2284.91 1224.34 L1600.66 1224.34  Z
  " fill="#ffffff" fill-rule="evenodd" fill-opacity="1"/>
<polyline clip-path="url(#clip990)" style="stroke:#000000; stroke-linecap:butt; stroke-linejoin:round; stroke-width:4; stroke-opacity:1; fill:none" points="
  1600.66,1379.86 2284.91,1379.86 2284.91,1224.34 1600.66,1224.34 1600.66,1379.86 
  "/>
<path clip-path="url(#clip990)" d="
M1623.27 1296.91 L1758.95 1296.91 L1758.95 1255.44 L1623.27 1255.44 L1623.27 1296.91  Z
  " fill="#009af9" fill-rule="evenodd" fill-opacity="0.35"/>
<polyline clip-path="url(#clip990)" style="stroke:#009af9; stroke-linecap:butt; stroke-linejoin:round; stroke-width:0; stroke-opacity:1; fill:none" points="
  1623.27,1255.44 1758.95,1255.44 
  "/>
<path clip-path="url(#clip990)" d="M1783.79 1292.74 L1783.79 1288.48 Q1785.55 1289.31 1787.35 1289.75 Q1789.16 1290.19 1790.89 1290.19 Q1795.52 1290.19 1797.95 1287.09 Q1800.41 1283.97 1800.75 1277.62 Q1799.41 1279.61 1797.35 1280.68 Q1795.29 1281.74 1792.79 1281.74 Q1787.61 1281.74 1784.57 1278.62 Q1781.57 1275.47 1781.57 1270.03 Q1781.57 1264.71 1784.71 1261.49 Q1787.86 1258.27 1793.09 1258.27 Q1799.09 1258.27 1802.24 1262.88 Q1805.41 1267.46 1805.41 1276.21 Q1805.41 1284.38 1801.52 1289.27 Q1797.65 1294.13 1791.1 1294.13 Q1789.34 1294.13 1787.54 1293.78 Q1785.73 1293.43 1783.79 1292.74 M1793.09 1278.09 Q1796.24 1278.09 1798.07 1275.93 Q1799.92 1273.78 1799.92 1270.03 Q1799.92 1266.3 1798.07 1264.15 Q1796.24 1261.97 1793.09 1261.97 Q1789.94 1261.97 1788.09 1264.15 Q1786.26 1266.3 1786.26 1270.03 Q1786.26 1273.78 1788.09 1275.93 Q1789.94 1278.09 1793.09 1278.09 Z" fill="#000000" fill-rule="evenodd" fill-opacity="1" /><path clip-path="url(#clip990)" d="M1813.86 1258.9 L1832.21 1258.9 L1832.21 1262.83 L1818.14 1262.83 L1818.14 1271.3 Q1819.16 1270.96 1820.18 1270.79 Q1821.19 1270.61 1822.21 1270.61 Q1828 1270.61 1831.38 1273.78 Q1834.76 1276.95 1834.76 1282.37 Q1834.76 1287.95 1831.29 1291.05 Q1827.81 1294.13 1821.5 1294.13 Q1819.32 1294.13 1817.05 1293.76 Q1814.81 1293.39 1812.4 1292.65 L1812.4 1287.95 Q1814.48 1289.08 1816.7 1289.64 Q1818.93 1290.19 1821.4 1290.19 Q1825.41 1290.19 1827.75 1288.09 Q1830.08 1285.98 1830.08 1282.37 Q1830.08 1278.76 1827.75 1276.65 Q1825.41 1274.54 1821.4 1274.54 Q1819.53 1274.54 1817.65 1274.96 Q1815.8 1275.38 1813.86 1276.26 L1813.86 1258.9 Z" fill="#000000" fill-rule="evenodd" fill-opacity="1" /><path clip-path="url(#clip990)" d="M1873.37 1278.25 Q1871.36 1278.25 1870.2 1279.96 Q1869.06 1281.67 1869.06 1284.73 Q1869.06 1287.74 1870.2 1289.47 Q1871.36 1291.19 1873.37 1291.19 Q1875.34 1291.19 1876.47 1289.47 Q1877.63 1287.74 1877.63 1284.73 Q1877.63 1281.7 1876.47 1279.98 Q1875.34 1278.25 1873.37 1278.25 M1873.37 1275.31 Q1877.03 1275.31 1879.18 1277.85 Q1881.33 1280.4 1881.33 1284.73 Q1881.33 1289.06 1879.16 1291.6 Q1877 1294.13 1873.37 1294.13 Q1869.67 1294.13 1867.51 1291.6 Q1865.36 1289.06 1865.36 1284.73 Q1865.36 1280.38 1867.51 1277.85 Q1869.69 1275.31 1873.37 1275.31 M1849.48 1261.21 Q1847.49 1261.21 1846.33 1262.95 Q1845.2 1264.66 1845.2 1267.67 Q1845.2 1270.72 1846.33 1272.44 Q1847.47 1274.15 1849.48 1274.15 Q1851.5 1274.15 1852.63 1272.44 Q1853.79 1270.72 1853.79 1267.67 Q1853.79 1264.68 1852.63 1262.95 Q1851.47 1261.21 1849.48 1261.21 M1870.38 1258.27 L1874.09 1258.27 L1852.47 1294.13 L1848.76 1294.13 L1870.38 1258.27 M1849.48 1258.27 Q1853.14 1258.27 1855.31 1260.82 Q1857.49 1263.34 1857.49 1267.67 Q1857.49 1272.04 1855.31 1274.57 Q1853.16 1277.09 1849.48 1277.09 Q1845.8 1277.09 1843.65 1274.57 Q1841.52 1272.02 1841.52 1267.67 Q1841.52 1263.36 1843.67 1260.82 Q1845.82 1258.27 1849.48 1258.27 Z" fill="#000000" fill-rule="evenodd" fill-opacity="1" /><path clip-path="url(#clip990)" d="M1929.55 1261.56 L1929.55 1266.49 Q1927.19 1264.29 1924.5 1263.2 Q1921.84 1262.11 1918.83 1262.11 Q1912.91 1262.11 1909.76 1265.75 Q1906.61 1269.36 1906.61 1276.21 Q1906.61 1283.04 1909.76 1286.67 Q1912.91 1290.28 1918.83 1290.28 Q1921.84 1290.28 1924.5 1289.2 Q1927.19 1288.11 1929.55 1285.91 L1929.55 1290.79 Q1927.1 1292.46 1924.34 1293.29 Q1921.61 1294.13 1918.56 1294.13 Q1910.71 1294.13 1906.19 1289.34 Q1901.68 1284.52 1901.68 1276.21 Q1901.68 1267.88 1906.19 1263.09 Q1910.71 1258.27 1918.56 1258.27 Q1921.66 1258.27 1924.39 1259.1 Q1927.14 1259.91 1929.55 1261.56 Z" fill="#000000" fill-rule="evenodd" fill-opacity="1" /><path clip-path="url(#clip990)" d="M1936.77 1258.9 L1941.45 1258.9 L1941.45 1293.46 L1936.77 1293.46 L1936.77 1258.9 Z" fill="#000000" fill-rule="evenodd" fill-opacity="1" /><polyline clip-path="url(#clip990)" style="stroke:#e26f46; stroke-linecap:butt; stroke-linejoin:round; stroke-width:4; stroke-opacity:1; fill:none" points="
  1623.27,1328.02 1758.95,1328.02 
  "/>
<circle clip-path="url(#clip990)" cx="1691.11" cy="1328.02" r="23" fill="#e26f46" fill-rule="evenodd" fill-opacity="1" stroke="#000000" stroke-opacity="1" stroke-width="0"/>
<path clip-path="url(#clip990)" d="M1786.24 1314.58 L1786.24 1327.56 L1792.12 1327.56 Q1795.38 1327.56 1797.17 1325.88 Q1798.95 1324.19 1798.95 1321.06 Q1798.95 1317.96 1797.17 1316.27 Q1795.38 1314.58 1792.12 1314.58 L1786.24 1314.58 M1781.57 1310.74 L1792.12 1310.74 Q1797.93 1310.74 1800.89 1313.38 Q1803.88 1315.99 1803.88 1321.06 Q1803.88 1326.18 1800.89 1328.79 Q1797.93 1331.41 1792.12 1331.41 L1786.24 1331.41 L1786.24 1345.3 L1781.57 1345.3 L1781.57 1310.74 Z" fill="#000000" fill-rule="evenodd" fill-opacity="1" /><path clip-path="url(#clip990)" d="M1824.16 1323.35 Q1823.44 1322.94 1822.58 1322.75 Q1821.75 1322.54 1820.73 1322.54 Q1817.12 1322.54 1815.18 1324.9 Q1813.25 1327.24 1813.25 1331.64 L1813.25 1345.3 L1808.97 1345.3 L1808.97 1319.37 L1813.25 1319.37 L1813.25 1323.4 Q1814.6 1321.04 1816.75 1319.9 Q1818.9 1318.75 1821.98 1318.75 Q1822.42 1318.75 1822.95 1318.81 Q1823.49 1318.86 1824.13 1318.98 L1824.16 1323.35 Z" fill="#000000" fill-rule="evenodd" fill-opacity="1" /><path clip-path="url(#clip990)" d="M1849.76 1331.27 L1849.76 1333.35 L1830.18 1333.35 Q1830.45 1337.75 1832.81 1340.06 Q1835.2 1342.36 1839.44 1342.36 Q1841.89 1342.36 1844.18 1341.75 Q1846.5 1341.15 1848.76 1339.95 L1848.76 1343.98 Q1846.47 1344.95 1844.06 1345.46 Q1841.66 1345.97 1839.18 1345.97 Q1832.98 1345.97 1829.34 1342.36 Q1825.73 1338.75 1825.73 1332.59 Q1825.73 1326.22 1829.16 1322.5 Q1832.61 1318.75 1838.44 1318.75 Q1843.67 1318.75 1846.7 1322.13 Q1849.76 1325.48 1849.76 1331.27 M1845.5 1330.02 Q1845.45 1326.52 1843.53 1324.44 Q1841.63 1322.36 1838.49 1322.36 Q1834.92 1322.36 1832.77 1324.37 Q1830.64 1326.38 1830.31 1330.04 L1845.5 1330.02 Z" fill="#000000" fill-rule="evenodd" fill-opacity="1" /><path clip-path="url(#clip990)" d="M1873.81 1323.31 L1873.81 1309.28 L1878.07 1309.28 L1878.07 1345.3 L1873.81 1345.3 L1873.81 1341.41 Q1872.47 1343.72 1870.41 1344.86 Q1868.37 1345.97 1865.5 1345.97 Q1860.8 1345.97 1857.84 1342.22 Q1854.9 1338.47 1854.9 1332.36 Q1854.9 1326.25 1857.84 1322.5 Q1860.8 1318.75 1865.5 1318.75 Q1868.37 1318.75 1870.41 1319.88 Q1872.47 1320.99 1873.81 1323.31 M1859.3 1332.36 Q1859.3 1337.06 1861.22 1339.74 Q1863.16 1342.4 1866.54 1342.4 Q1869.92 1342.4 1871.87 1339.74 Q1873.81 1337.06 1873.81 1332.36 Q1873.81 1327.66 1871.87 1325 Q1869.92 1322.31 1866.54 1322.31 Q1863.16 1322.31 1861.22 1325 Q1859.3 1327.66 1859.3 1332.36 Z" fill="#000000" fill-rule="evenodd" fill-opacity="1" /><path clip-path="url(#clip990)" d="M1886.84 1319.37 L1891.1 1319.37 L1891.1 1345.3 L1886.84 1345.3 L1886.84 1319.37 M1886.84 1309.28 L1891.1 1309.28 L1891.1 1314.67 L1886.84 1314.67 L1886.84 1309.28 Z" fill="#000000" fill-rule="evenodd" fill-opacity="1" /><path clip-path="url(#clip990)" d="M1918.67 1320.37 L1918.67 1324.35 Q1916.87 1323.35 1915.04 1322.87 Q1913.23 1322.36 1911.38 1322.36 Q1907.24 1322.36 1904.94 1325 Q1902.65 1327.61 1902.65 1332.36 Q1902.65 1337.1 1904.94 1339.74 Q1907.24 1342.36 1911.38 1342.36 Q1913.23 1342.36 1915.04 1341.87 Q1916.87 1341.36 1918.67 1340.37 L1918.67 1344.3 Q1916.89 1345.13 1914.97 1345.55 Q1913.07 1345.97 1910.92 1345.97 Q1905.06 1345.97 1901.61 1342.29 Q1898.16 1338.61 1898.16 1332.36 Q1898.16 1326.01 1901.63 1322.38 Q1905.13 1318.75 1911.19 1318.75 Q1913.16 1318.75 1915.04 1319.16 Q1916.91 1319.56 1918.67 1320.37 Z" fill="#000000" fill-rule="evenodd" fill-opacity="1" /><path clip-path="url(#clip990)" d="M1930.29 1312.01 L1930.29 1319.37 L1939.06 1319.37 L1939.06 1322.68 L1930.29 1322.68 L1930.29 1336.75 Q1930.29 1339.93 1931.15 1340.83 Q1932.03 1341.73 1934.69 1341.73 L1939.06 1341.73 L1939.06 1345.3 L1934.69 1345.3 Q1929.76 1345.3 1927.88 1343.47 Q1926.01 1341.62 1926.01 1336.75 L1926.01 1322.68 L1922.88 1322.68 L1922.88 1319.37 L1926.01 1319.37 L1926.01 1312.01 L1930.29 1312.01 Z" fill="#000000" fill-rule="evenodd" fill-opacity="1" /><path clip-path="url(#clip990)" d="M1966.84 1331.27 L1966.84 1333.35 L1947.26 1333.35 Q1947.54 1337.75 1949.9 1340.06 Q1952.28 1342.36 1956.52 1342.36 Q1958.97 1342.36 1961.26 1341.75 Q1963.58 1341.15 1965.85 1339.95 L1965.85 1343.98 Q1963.55 1344.95 1961.15 1345.46 Q1958.74 1345.97 1956.26 1345.97 Q1950.06 1345.97 1946.43 1342.36 Q1942.81 1338.75 1942.81 1332.59 Q1942.81 1326.22 1946.24 1322.5 Q1949.69 1318.75 1955.52 1318.75 Q1960.75 1318.75 1963.79 1322.13 Q1966.84 1325.48 1966.84 1331.27 M1962.58 1330.02 Q1962.54 1326.52 1960.62 1324.44 Q1958.72 1322.36 1955.57 1322.36 Q1952 1322.36 1949.85 1324.37 Q1947.72 1326.38 1947.4 1330.04 L1962.58 1330.02 Z" fill="#000000" fill-rule="evenodd" fill-opacity="1" /><path clip-path="url(#clip990)" d="M1990.89 1323.31 L1990.89 1309.28 L1995.15 1309.28 L1995.15 1345.3 L1990.89 1345.3 L1990.89 1341.41 Q1989.55 1343.72 1987.49 1344.86 Q1985.45 1345.97 1982.58 1345.97 Q1977.88 1345.97 1974.92 1342.22 Q1971.98 1338.47 1971.98 1332.36 Q1971.98 1326.25 1974.92 1322.5 Q1977.88 1318.75 1982.58 1318.75 Q1985.45 1318.75 1987.49 1319.88 Q1989.55 1320.99 1990.89 1323.31 M1976.38 1332.36 Q1976.38 1337.06 1978.3 1339.74 Q1980.24 1342.4 1983.62 1342.4 Q1987 1342.4 1988.95 1339.74 Q1990.89 1337.06 1990.89 1332.36 Q1990.89 1327.66 1988.95 1325 Q1987 1322.31 1983.62 1322.31 Q1980.24 1322.31 1978.3 1325 Q1976.38 1327.66 1976.38 1332.36 Z" fill="#000000" fill-rule="evenodd" fill-opacity="1" /><path clip-path="url(#clip990)" d="M2035.57 1329.09 Q2037.07 1329.6 2038.49 1331.27 Q2039.92 1332.94 2041.36 1335.85 L2046.1 1345.3 L2041.08 1345.3 L2036.66 1336.43 Q2034.94 1332.96 2033.32 1331.82 Q2031.73 1330.69 2028.95 1330.69 L2023.86 1330.69 L2023.86 1345.3 L2019.18 1345.3 L2019.18 1310.74 L2029.74 1310.74 Q2035.66 1310.74 2038.58 1313.21 Q2041.49 1315.69 2041.49 1320.69 Q2041.49 1323.95 2039.97 1326.11 Q2038.46 1328.26 2035.57 1329.09 M2023.86 1314.58 L2023.86 1326.85 L2029.74 1326.85 Q2033.11 1326.85 2034.83 1325.3 Q2036.56 1323.72 2036.56 1320.69 Q2036.56 1317.66 2034.83 1316.13 Q2033.11 1314.58 2029.74 1314.58 L2023.86 1314.58 Z" fill="#000000" fill-rule="evenodd" fill-opacity="1" /><path clip-path="url(#clip990)" d="M2071.98 1331.27 L2071.98 1333.35 L2052.4 1333.35 Q2052.67 1337.75 2055.04 1340.06 Q2057.42 1342.36 2061.66 1342.36 Q2064.11 1342.36 2066.4 1341.75 Q2068.72 1341.15 2070.98 1339.95 L2070.98 1343.98 Q2068.69 1344.95 2066.29 1345.46 Q2063.88 1345.97 2061.4 1345.97 Q2055.2 1345.97 2051.56 1342.36 Q2047.95 1338.75 2047.95 1332.59 Q2047.95 1326.22 2051.38 1322.5 Q2054.83 1318.75 2060.66 1318.75 Q2065.89 1318.75 2068.92 1322.13 Q2071.98 1325.48 2071.98 1331.27 M2067.72 1330.02 Q2067.67 1326.52 2065.75 1324.44 Q2063.86 1322.36 2060.71 1322.36 Q2057.14 1322.36 2054.99 1324.37 Q2052.86 1326.38 2052.54 1330.04 L2067.72 1330.02 Z" fill="#000000" fill-rule="evenodd" fill-opacity="1" /><path clip-path="url(#clip990)" d="M2095.5 1320.13 L2095.5 1324.16 Q2093.69 1323.24 2091.75 1322.77 Q2089.8 1322.31 2087.72 1322.31 Q2084.55 1322.31 2082.95 1323.28 Q2081.38 1324.25 2081.38 1326.2 Q2081.38 1327.68 2082.51 1328.54 Q2083.65 1329.37 2087.07 1330.13 L2088.53 1330.46 Q2093.07 1331.43 2094.97 1333.21 Q2096.89 1334.97 2096.89 1338.14 Q2096.89 1341.75 2094.02 1343.86 Q2091.17 1345.97 2086.17 1345.97 Q2084.09 1345.97 2081.82 1345.55 Q2079.57 1345.16 2077.07 1344.35 L2077.07 1339.95 Q2079.43 1341.18 2081.73 1341.8 Q2084.02 1342.4 2086.26 1342.4 Q2089.27 1342.4 2090.89 1341.38 Q2092.51 1340.34 2092.51 1338.47 Q2092.51 1336.73 2091.33 1335.81 Q2090.17 1334.88 2086.22 1334.02 L2084.73 1333.68 Q2080.78 1332.84 2079.02 1331.13 Q2077.26 1329.39 2077.26 1326.38 Q2077.26 1322.73 2079.85 1320.74 Q2082.44 1318.75 2087.21 1318.75 Q2089.57 1318.75 2091.66 1319.09 Q2093.74 1319.44 2095.5 1320.13 Z" fill="#000000" fill-rule="evenodd" fill-opacity="1" /><path clip-path="url(#clip990)" d="M2107.79 1341.41 L2107.79 1355.16 L2103.51 1355.16 L2103.51 1319.37 L2107.79 1319.37 L2107.79 1323.31 Q2109.13 1320.99 2111.17 1319.88 Q2113.23 1318.75 2116.08 1318.75 Q2120.8 1318.75 2123.74 1322.5 Q2126.7 1326.25 2126.7 1332.36 Q2126.7 1338.47 2123.74 1342.22 Q2120.8 1345.97 2116.08 1345.97 Q2113.23 1345.97 2111.17 1344.86 Q2109.13 1343.72 2107.79 1341.41 M2122.28 1332.36 Q2122.28 1327.66 2120.34 1325 Q2118.42 1322.31 2115.04 1322.31 Q2111.66 1322.31 2109.71 1325 Q2107.79 1327.66 2107.79 1332.36 Q2107.79 1337.06 2109.71 1339.74 Q2111.66 1342.4 2115.04 1342.4 Q2118.42 1342.4 2120.34 1339.74 Q2122.28 1337.06 2122.28 1332.36 Z" fill="#000000" fill-rule="evenodd" fill-opacity="1" /><path clip-path="url(#clip990)" d="M2143.81 1322.36 Q2140.38 1322.36 2138.39 1325.04 Q2136.4 1327.7 2136.4 1332.36 Q2136.4 1337.01 2138.37 1339.69 Q2140.36 1342.36 2143.81 1342.36 Q2147.21 1342.36 2149.2 1339.67 Q2151.19 1336.99 2151.19 1332.36 Q2151.19 1327.75 2149.2 1325.06 Q2147.21 1322.36 2143.81 1322.36 M2143.81 1318.75 Q2149.36 1318.75 2152.54 1322.36 Q2155.71 1325.97 2155.71 1332.36 Q2155.71 1338.72 2152.54 1342.36 Q2149.36 1345.97 2143.81 1345.97 Q2138.23 1345.97 2135.06 1342.36 Q2131.91 1338.72 2131.91 1332.36 Q2131.91 1325.97 2135.06 1322.36 Q2138.23 1318.75 2143.81 1318.75 Z" fill="#000000" fill-rule="evenodd" fill-opacity="1" /><path clip-path="url(#clip990)" d="M2184.32 1329.65 L2184.32 1345.3 L2180.06 1345.3 L2180.06 1329.79 Q2180.06 1326.11 2178.62 1324.28 Q2177.19 1322.45 2174.32 1322.45 Q2170.87 1322.45 2168.88 1324.65 Q2166.89 1326.85 2166.89 1330.64 L2166.89 1345.3 L2162.6 1345.3 L2162.6 1319.37 L2166.89 1319.37 L2166.89 1323.4 Q2168.41 1321.06 2170.48 1319.9 Q2172.56 1318.75 2175.27 1318.75 Q2179.73 1318.75 2182.03 1321.52 Q2184.32 1324.28 2184.32 1329.65 Z" fill="#000000" fill-rule="evenodd" fill-opacity="1" /><path clip-path="url(#clip990)" d="M2209.34 1320.13 L2209.34 1324.16 Q2207.54 1323.24 2205.59 1322.77 Q2203.65 1322.31 2201.56 1322.31 Q2198.39 1322.31 2196.79 1323.28 Q2195.22 1324.25 2195.22 1326.2 Q2195.22 1327.68 2196.35 1328.54 Q2197.49 1329.37 2200.91 1330.13 L2202.37 1330.46 Q2206.91 1331.43 2208.81 1333.21 Q2210.73 1334.97 2210.73 1338.14 Q2210.73 1341.75 2207.86 1343.86 Q2205.01 1345.97 2200.01 1345.97 Q2197.93 1345.97 2195.66 1345.55 Q2193.41 1345.16 2190.91 1344.35 L2190.91 1339.95 Q2193.28 1341.18 2195.57 1341.8 Q2197.86 1342.4 2200.1 1342.4 Q2203.11 1342.4 2204.73 1341.38 Q2206.35 1340.34 2206.35 1338.47 Q2206.35 1336.73 2205.17 1335.81 Q2204.02 1334.88 2200.06 1334.02 L2198.58 1333.68 Q2194.62 1332.84 2192.86 1331.13 Q2191.1 1329.39 2191.1 1326.38 Q2191.1 1322.73 2193.69 1320.74 Q2196.29 1318.75 2201.05 1318.75 Q2203.41 1318.75 2205.5 1319.09 Q2207.58 1319.44 2209.34 1320.13 Z" fill="#000000" fill-rule="evenodd" fill-opacity="1" /><path clip-path="url(#clip990)" d="M2239.69 1331.27 L2239.69 1333.35 L2220.1 1333.35 Q2220.38 1337.75 2222.74 1340.06 Q2225.13 1342.36 2229.36 1342.36 Q2231.82 1342.36 2234.11 1341.75 Q2236.42 1341.15 2238.69 1339.95 L2238.69 1343.98 Q2236.4 1344.95 2233.99 1345.46 Q2231.59 1345.97 2229.11 1345.97 Q2222.91 1345.97 2219.27 1342.36 Q2215.66 1338.75 2215.66 1332.59 Q2215.66 1326.22 2219.09 1322.5 Q2222.53 1318.75 2228.37 1318.75 Q2233.6 1318.75 2236.63 1322.13 Q2239.69 1325.48 2239.69 1331.27 M2235.43 1330.02 Q2235.38 1326.52 2233.46 1324.44 Q2231.56 1322.36 2228.41 1322.36 Q2224.85 1322.36 2222.7 1324.37 Q2220.57 1326.38 2220.24 1330.04 L2235.43 1330.02 Z" fill="#000000" fill-rule="evenodd" fill-opacity="1" /></svg>
