<?xml version="1.0" encoding="utf-8"?>
<svg xmlns="http://www.w3.org/2000/svg" xmlns:xlink="http://www.w3.org/1999/xlink" width="600" height="400" viewBox="0 0 2400 1600">
<defs>
  <clipPath id="clip280">
    <rect x="0" y="0" width="2400" height="1600"/>
  </clipPath>
</defs>
<path clip-path="url(#clip280)" d="
M0 1600 L2400 1600 L2400 0 L0 0  Z
  " fill="#ffffff" fill-rule="evenodd" fill-opacity="1"/>
<defs>
  <clipPath id="clip281">
    <rect x="480" y="0" width="1681" height="1600"/>
  </clipPath>
</defs>
<path clip-path="url(#clip280)" d="
M223.45 1486.45 L2352.76 1486.45 L2352.76 47.2441 L223.45 47.2441  Z
  " fill="#ffffff" fill-rule="evenodd" fill-opacity="1"/>
<defs>
  <clipPath id="clip282">
    <rect x="223" y="47" width="2130" height="1440"/>
  </clipPath>
</defs>
<polyline clip-path="url(#clip282)" style="stroke:#000000; stroke-linecap:butt; stroke-linejoin:round; stroke-width:2; stroke-opacity:0.1; fill:none" points="
  283.713,1486.45 283.713,47.2441 
  "/>
<polyline clip-path="url(#clip282)" style="stroke:#000000; stroke-linecap:butt; stroke-linejoin:round; stroke-width:2; stroke-opacity:0.1; fill:none" points="
  785.908,1486.45 785.908,47.2441 
  "/>
<polyline clip-path="url(#clip282)" style="stroke:#000000; stroke-linecap:butt; stroke-linejoin:round; stroke-width:2; stroke-opacity:0.1; fill:none" points="
  1288.1,1486.45 1288.1,47.2441 
  "/>
<polyline clip-path="url(#clip282)" style="stroke:#000000; stroke-linecap:butt; stroke-linejoin:round; stroke-width:2; stroke-opacity:0.1; fill:none" points="
  1790.3,1486.45 1790.3,47.2441 
  "/>
<polyline clip-path="url(#clip282)" style="stroke:#000000; stroke-linecap:butt; stroke-linejoin:round; stroke-width:2; stroke-opacity:0.1; fill:none" points="
  2292.49,1486.45 2292.49,47.2441 
  "/>
<polyline clip-path="url(#clip280)" style="stroke:#000000; stroke-linecap:butt; stroke-linejoin:round; stroke-width:4; stroke-opacity:1; fill:none" points="
  223.45,1486.45 2352.76,1486.45 
  "/>
<polyline clip-path="url(#clip280)" style="stroke:#000000; stroke-linecap:butt; stroke-linejoin:round; stroke-width:4; stroke-opacity:1; fill:none" points="
  283.713,1486.45 283.713,1467.55 
  "/>
<polyline clip-path="url(#clip280)" style="stroke:#000000; stroke-linecap:butt; stroke-linejoin:round; stroke-width:4; stroke-opacity:1; fill:none" points="
  785.908,1486.45 785.908,1467.55 
  "/>
<polyline clip-path="url(#clip280)" style="stroke:#000000; stroke-linecap:butt; stroke-linejoin:round; stroke-width:4; stroke-opacity:1; fill:none" points="
  1288.1,1486.45 1288.1,1467.55 
  "/>
<polyline clip-path="url(#clip280)" style="stroke:#000000; stroke-linecap:butt; stroke-linejoin:round; stroke-width:4; stroke-opacity:1; fill:none" points="
  1790.3,1486.45 1790.3,1467.55 
  "/>
<polyline clip-path="url(#clip280)" style="stroke:#000000; stroke-linecap:butt; stroke-linejoin:round; stroke-width:4; stroke-opacity:1; fill:none" points="
  2292.49,1486.45 2292.49,1467.55 
  "/>
<path clip-path="url(#clip280)" d="M283.713 1517.37 Q280.102 1517.37 278.273 1520.93 Q276.468 1524.47 276.468 1531.6 Q276.468 1538.71 278.273 1542.27 Q280.102 1545.82 283.713 1545.82 Q287.347 1545.82 289.153 1542.27 Q290.982 1538.71 290.982 1531.6 Q290.982 1524.47 289.153 1520.93 Q287.347 1517.37 283.713 1517.37 M283.713 1513.66 Q289.523 1513.66 292.579 1518.27 Q295.657 1522.85 295.657 1531.6 Q295.657 1540.33 292.579 1544.94 Q289.523 1549.52 283.713 1549.52 Q277.903 1549.52 274.824 1544.94 Q271.769 1540.33 271.769 1531.6 Q271.769 1522.85 274.824 1518.27 Q277.903 1513.66 283.713 1513.66 Z" fill="#000000" fill-rule="evenodd" fill-opacity="1" /><path clip-path="url(#clip280)" d="M760.596 1544.91 L768.234 1544.91 L768.234 1518.55 L759.924 1520.21 L759.924 1515.95 L768.188 1514.29 L772.864 1514.29 L772.864 1544.91 L780.503 1544.91 L780.503 1548.85 L760.596 1548.85 L760.596 1544.91 Z" fill="#000000" fill-rule="evenodd" fill-opacity="1" /><path clip-path="url(#clip280)" d="M799.947 1517.37 Q796.336 1517.37 794.507 1520.93 Q792.702 1524.47 792.702 1531.6 Q792.702 1538.71 794.507 1542.27 Q796.336 1545.82 799.947 1545.82 Q803.581 1545.82 805.387 1542.27 Q807.216 1538.71 807.216 1531.6 Q807.216 1524.47 805.387 1520.93 Q803.581 1517.37 799.947 1517.37 M799.947 1513.66 Q805.757 1513.66 808.813 1518.27 Q811.892 1522.85 811.892 1531.6 Q811.892 1540.33 808.813 1544.94 Q805.757 1549.52 799.947 1549.52 Q794.137 1549.52 791.058 1544.94 Q788.003 1540.33 788.003 1531.6 Q788.003 1522.85 791.058 1518.27 Q794.137 1513.66 799.947 1513.66 Z" fill="#000000" fill-rule="evenodd" fill-opacity="1" /><path clip-path="url(#clip280)" d="M1266.88 1544.91 L1283.2 1544.91 L1283.2 1548.85 L1261.25 1548.85 L1261.25 1544.91 Q1263.91 1542.16 1268.5 1537.53 Q1273.1 1532.88 1274.28 1531.53 Q1276.53 1529.01 1277.41 1527.27 Q1278.31 1525.51 1278.31 1523.82 Q1278.31 1521.07 1276.37 1519.33 Q1274.45 1517.6 1271.34 1517.6 Q1269.14 1517.6 1266.69 1518.36 Q1264.26 1519.13 1261.48 1520.68 L1261.48 1515.95 Q1264.31 1514.82 1266.76 1514.24 Q1269.21 1513.66 1271.25 1513.66 Q1276.62 1513.66 1279.82 1516.35 Q1283.01 1519.03 1283.01 1523.52 Q1283.01 1525.65 1282.2 1527.57 Q1281.41 1529.47 1279.31 1532.07 Q1278.73 1532.74 1275.63 1535.95 Q1272.52 1539.15 1266.88 1544.91 Z" fill="#000000" fill-rule="evenodd" fill-opacity="1" /><path clip-path="url(#clip280)" d="M1303.01 1517.37 Q1299.4 1517.37 1297.57 1520.93 Q1295.76 1524.47 1295.76 1531.6 Q1295.76 1538.71 1297.57 1542.27 Q1299.4 1545.82 1303.01 1545.82 Q1306.64 1545.82 1308.45 1542.27 Q1310.28 1538.71 1310.28 1531.6 Q1310.28 1524.47 1308.45 1520.93 Q1306.64 1517.37 1303.01 1517.37 M1303.01 1513.66 Q1308.82 1513.66 1311.88 1518.27 Q1314.95 1522.85 1314.95 1531.6 Q1314.95 1540.33 1311.88 1544.94 Q1308.82 1549.52 1303.01 1549.52 Q1297.2 1549.52 1294.12 1544.94 Q1291.07 1540.33 1291.07 1531.6 Q1291.07 1522.85 1294.12 1518.27 Q1297.2 1513.66 1303.01 1513.66 Z" fill="#000000" fill-rule="evenodd" fill-opacity="1" /><path clip-path="url(#clip280)" d="M1779.14 1530.21 Q1782.5 1530.93 1784.37 1533.2 Q1786.27 1535.47 1786.27 1538.8 Q1786.27 1543.92 1782.75 1546.72 Q1779.23 1549.52 1772.75 1549.52 Q1770.58 1549.52 1768.26 1549.08 Q1765.97 1548.66 1763.52 1547.81 L1763.52 1543.29 Q1765.46 1544.43 1767.77 1545.01 Q1770.09 1545.58 1772.61 1545.58 Q1777.01 1545.58 1779.3 1543.85 Q1781.62 1542.11 1781.62 1538.8 Q1781.62 1535.75 1779.46 1534.03 Q1777.33 1532.3 1773.52 1532.3 L1769.49 1532.3 L1769.49 1528.45 L1773.7 1528.45 Q1777.15 1528.45 1778.98 1527.09 Q1780.81 1525.7 1780.81 1523.11 Q1780.81 1520.45 1778.91 1519.03 Q1777.03 1517.6 1773.52 1517.6 Q1771.59 1517.6 1769.4 1518.01 Q1767.2 1518.43 1764.56 1519.31 L1764.56 1515.14 Q1767.22 1514.4 1769.53 1514.03 Q1771.87 1513.66 1773.93 1513.66 Q1779.26 1513.66 1782.36 1516.09 Q1785.46 1518.5 1785.46 1522.62 Q1785.46 1525.49 1783.82 1527.48 Q1782.17 1529.45 1779.14 1530.21 Z" fill="#000000" fill-rule="evenodd" fill-opacity="1" /><path clip-path="url(#clip280)" d="M1805.14 1517.37 Q1801.52 1517.37 1799.7 1520.93 Q1797.89 1524.47 1797.89 1531.6 Q1797.89 1538.71 1799.7 1542.27 Q1801.52 1545.82 1805.14 1545.82 Q1808.77 1545.82 1810.58 1542.27 Q1812.4 1538.71 1812.4 1531.6 Q1812.4 1524.47 1810.58 1520.93 Q1808.77 1517.37 1805.14 1517.37 M1805.14 1513.66 Q1810.95 1513.66 1814 1518.27 Q1817.08 1522.85 1817.08 1531.6 Q1817.08 1540.33 1814 1544.94 Q1810.95 1549.52 1805.14 1549.52 Q1799.33 1549.52 1796.25 1544.94 Q1793.19 1540.33 1793.19 1531.6 Q1793.19 1522.85 1796.25 1518.27 Q1799.33 1513.66 1805.14 1513.66 Z" fill="#000000" fill-rule="evenodd" fill-opacity="1" /><path clip-path="url(#clip280)" d="M2280.66 1518.36 L2268.86 1536.81 L2280.66 1536.81 L2280.66 1518.36 M2279.44 1514.29 L2285.32 1514.29 L2285.32 1536.81 L2290.25 1536.81 L2290.25 1540.7 L2285.32 1540.7 L2285.32 1548.85 L2280.66 1548.85 L2280.66 1540.7 L2265.06 1540.7 L2265.06 1536.19 L2279.44 1514.29 Z" fill="#000000" fill-rule="evenodd" fill-opacity="1" /><path clip-path="url(#clip280)" d="M2307.98 1517.37 Q2304.37 1517.37 2302.54 1520.93 Q2300.73 1524.47 2300.73 1531.6 Q2300.73 1538.71 2302.54 1542.27 Q2304.37 1545.82 2307.98 1545.82 Q2311.61 1545.82 2313.42 1542.27 Q2315.25 1538.71 2315.25 1531.6 Q2315.25 1524.47 2313.42 1520.93 Q2311.61 1517.37 2307.98 1517.37 M2307.98 1513.66 Q2313.79 1513.66 2316.84 1518.27 Q2319.92 1522.85 2319.92 1531.6 Q2319.92 1540.33 2316.84 1544.94 Q2313.79 1549.52 2307.98 1549.52 Q2302.17 1549.52 2299.09 1544.94 Q2296.03 1540.33 2296.03 1531.6 Q2296.03 1522.85 2299.09 1518.27 Q2302.17 1513.66 2307.98 1513.66 Z" fill="#000000" fill-rule="evenodd" fill-opacity="1" /><polyline clip-path="url(#clip282)" style="stroke:#000000; stroke-linecap:butt; stroke-linejoin:round; stroke-width:2; stroke-opacity:0.1; fill:none" points="
  223.45,1157.64 2352.76,1157.64 
  "/>
<polyline clip-path="url(#clip282)" style="stroke:#000000; stroke-linecap:butt; stroke-linejoin:round; stroke-width:2; stroke-opacity:0.1; fill:none" points="
  223.45,823.395 2352.76,823.395 
  "/>
<polyline clip-path="url(#clip282)" style="stroke:#000000; stroke-linecap:butt; stroke-linejoin:round; stroke-width:2; stroke-opacity:0.1; fill:none" points="
  223.45,489.146 2352.76,489.146 
  "/>
<polyline clip-path="url(#clip282)" style="stroke:#000000; stroke-linecap:butt; stroke-linejoin:round; stroke-width:2; stroke-opacity:0.1; fill:none" points="
  223.45,154.897 2352.76,154.897 
  "/>
<polyline clip-path="url(#clip280)" style="stroke:#000000; stroke-linecap:butt; stroke-linejoin:round; stroke-width:4; stroke-opacity:1; fill:none" points="
  223.45,1486.45 223.45,47.2441 
  "/>
<polyline clip-path="url(#clip280)" style="stroke:#000000; stroke-linecap:butt; stroke-linejoin:round; stroke-width:4; stroke-opacity:1; fill:none" points="
  223.45,1157.64 242.347,1157.64 
  "/>
<polyline clip-path="url(#clip280)" style="stroke:#000000; stroke-linecap:butt; stroke-linejoin:round; stroke-width:4; stroke-opacity:1; fill:none" points="
  223.45,823.395 242.347,823.395 
  "/>
<polyline clip-path="url(#clip280)" style="stroke:#000000; stroke-linecap:butt; stroke-linejoin:round; stroke-width:4; stroke-opacity:1; fill:none" points="
  223.45,489.146 242.347,489.146 
  "/>
<polyline clip-path="url(#clip280)" style="stroke:#000000; stroke-linecap:butt; stroke-linejoin:round; stroke-width:4; stroke-opacity:1; fill:none" points="
  223.45,154.897 242.347,154.897 
  "/>
<path clip-path="url(#clip280)" d="M50.9921 1158.1 L80.6679 1158.1 L80.6679 1162.03 L50.9921 1162.03 L50.9921 1158.1 Z" fill="#000000" fill-rule="evenodd" fill-opacity="1" /><path clip-path="url(#clip280)" d="M100.76 1143.44 Q97.1493 1143.44 95.3206 1147.01 Q93.515 1150.55 93.515 1157.68 Q93.515 1164.79 95.3206 1168.35 Q97.1493 1171.89 100.76 1171.89 Q104.395 1171.89 106.2 1168.35 Q108.029 1164.79 108.029 1157.68 Q108.029 1150.55 106.2 1147.01 Q104.395 1143.44 100.76 1143.44 M100.76 1139.74 Q106.571 1139.74 109.626 1144.35 Q112.705 1148.93 112.705 1157.68 Q112.705 1166.41 109.626 1171.01 Q106.571 1175.6 100.76 1175.6 Q94.9502 1175.6 91.8715 1171.01 Q88.816 1166.41 88.816 1157.68 Q88.816 1148.93 91.8715 1144.35 Q94.9502 1139.74 100.76 1139.74 Z" fill="#000000" fill-rule="evenodd" fill-opacity="1" /><path clip-path="url(#clip280)" d="M120.922 1169.04 L125.807 1169.04 L125.807 1174.92 L120.922 1174.92 L120.922 1169.04 Z" fill="#000000" fill-rule="evenodd" fill-opacity="1" /><path clip-path="url(#clip280)" d="M145.992 1143.44 Q142.381 1143.44 140.552 1147.01 Q138.746 1150.55 138.746 1157.68 Q138.746 1164.79 140.552 1168.35 Q142.381 1171.89 145.992 1171.89 Q149.626 1171.89 151.431 1168.35 Q153.26 1164.79 153.26 1157.68 Q153.26 1150.55 151.431 1147.01 Q149.626 1143.44 145.992 1143.44 M145.992 1139.74 Q151.802 1139.74 154.857 1144.35 Q157.936 1148.93 157.936 1157.68 Q157.936 1166.41 154.857 1171.01 Q151.802 1175.6 145.992 1175.6 Q140.181 1175.6 137.103 1171.01 Q134.047 1166.41 134.047 1157.68 Q134.047 1148.93 137.103 1144.35 Q140.181 1139.74 145.992 1139.74 Z" fill="#000000" fill-rule="evenodd" fill-opacity="1" /><path clip-path="url(#clip280)" d="M180.32 1156.29 Q183.677 1157.01 185.552 1159.28 Q187.45 1161.54 187.45 1164.88 Q187.45 1169.99 183.931 1172.79 Q180.413 1175.6 173.931 1175.6 Q171.755 1175.6 169.441 1175.16 Q167.149 1174.74 164.695 1173.88 L164.695 1169.37 Q166.64 1170.5 168.954 1171.08 Q171.269 1171.66 173.792 1171.66 Q178.191 1171.66 180.482 1169.92 Q182.797 1168.19 182.797 1164.88 Q182.797 1161.82 180.644 1160.11 Q178.515 1158.37 174.695 1158.37 L170.667 1158.37 L170.667 1154.53 L174.88 1154.53 Q178.329 1154.53 180.158 1153.16 Q181.987 1151.78 181.987 1149.18 Q181.987 1146.52 180.089 1145.11 Q178.214 1143.67 174.695 1143.67 Q172.774 1143.67 170.575 1144.09 Q168.376 1144.51 165.737 1145.39 L165.737 1141.22 Q168.399 1140.48 170.714 1140.11 Q173.052 1139.74 175.112 1139.74 Q180.436 1139.74 183.538 1142.17 Q186.64 1144.58 186.64 1148.7 Q186.64 1151.57 184.996 1153.56 Q183.353 1155.53 180.32 1156.29 Z" fill="#000000" fill-rule="evenodd" fill-opacity="1" /><path clip-path="url(#clip280)" d="M51.9412 823.846 L81.617 823.846 L81.617 827.782 L51.9412 827.782 L51.9412 823.846 Z" fill="#000000" fill-rule="evenodd" fill-opacity="1" /><path clip-path="url(#clip280)" d="M101.709 809.194 Q98.0984 809.194 96.2697 812.759 Q94.4641 816.3 94.4641 823.43 Q94.4641 830.536 96.2697 834.101 Q98.0984 837.643 101.709 837.643 Q105.344 837.643 107.149 834.101 Q108.978 830.536 108.978 823.43 Q108.978 816.3 107.149 812.759 Q105.344 809.194 101.709 809.194 M101.709 805.49 Q107.52 805.49 110.575 810.097 Q113.654 814.68 113.654 823.43 Q113.654 832.157 110.575 836.763 Q107.52 841.346 101.709 841.346 Q95.8993 841.346 92.8206 836.763 Q89.7651 832.157 89.7651 823.43 Q89.7651 814.68 92.8206 810.097 Q95.8993 805.49 101.709 805.49 Z" fill="#000000" fill-rule="evenodd" fill-opacity="1" /><path clip-path="url(#clip280)" d="M121.871 834.795 L126.756 834.795 L126.756 840.675 L121.871 840.675 L121.871 834.795 Z" fill="#000000" fill-rule="evenodd" fill-opacity="1" /><path clip-path="url(#clip280)" d="M146.941 809.194 Q143.33 809.194 141.501 812.759 Q139.695 816.3 139.695 823.43 Q139.695 830.536 141.501 834.101 Q143.33 837.643 146.941 837.643 Q150.575 837.643 152.38 834.101 Q154.209 830.536 154.209 823.43 Q154.209 816.3 152.38 812.759 Q150.575 809.194 146.941 809.194 M146.941 805.49 Q152.751 805.49 155.806 810.097 Q158.885 814.68 158.885 823.43 Q158.885 832.157 155.806 836.763 Q152.751 841.346 146.941 841.346 Q141.131 841.346 138.052 836.763 Q134.996 832.157 134.996 823.43 Q134.996 814.68 138.052 810.097 Q141.131 805.49 146.941 805.49 Z" fill="#000000" fill-rule="evenodd" fill-opacity="1" /><path clip-path="url(#clip280)" d="M171.13 836.74 L187.45 836.74 L187.45 840.675 L165.505 840.675 L165.505 836.74 Q168.167 833.985 172.751 829.356 Q177.357 824.703 178.538 823.36 Q180.783 820.837 181.663 819.101 Q182.565 817.342 182.565 815.652 Q182.565 812.897 180.621 811.161 Q178.7 809.425 175.598 809.425 Q173.399 809.425 170.945 810.189 Q168.515 810.953 165.737 812.504 L165.737 807.782 Q168.561 806.647 171.015 806.069 Q173.468 805.49 175.505 805.49 Q180.876 805.49 184.07 808.175 Q187.265 810.86 187.265 815.351 Q187.265 817.481 186.454 819.402 Q185.667 821.3 183.561 823.893 Q182.982 824.564 179.88 827.782 Q176.778 830.976 171.13 836.74 Z" fill="#000000" fill-rule="evenodd" fill-opacity="1" /><path clip-path="url(#clip280)" d="M51.5708 489.597 L81.2466 489.597 L81.2466 493.533 L51.5708 493.533 L51.5708 489.597 Z" fill="#000000" fill-rule="evenodd" fill-opacity="1" /><path clip-path="url(#clip280)" d="M101.339 474.945 Q97.728 474.945 95.8993 478.51 Q94.0937 482.051 94.0937 489.181 Q94.0937 496.287 95.8993 499.852 Q97.728 503.394 101.339 503.394 Q104.973 503.394 106.779 499.852 Q108.608 496.287 108.608 489.181 Q108.608 482.051 106.779 478.51 Q104.973 474.945 101.339 474.945 M101.339 471.241 Q107.149 471.241 110.205 475.848 Q113.283 480.431 113.283 489.181 Q113.283 497.908 110.205 502.514 Q107.149 507.097 101.339 507.097 Q95.5289 507.097 92.4502 502.514 Q89.3947 497.908 89.3947 489.181 Q89.3947 480.431 92.4502 475.848 Q95.5289 471.241 101.339 471.241 Z" fill="#000000" fill-rule="evenodd" fill-opacity="1" /><path clip-path="url(#clip280)" d="M121.501 500.546 L126.385 500.546 L126.385 506.426 L121.501 506.426 L121.501 500.546 Z" fill="#000000" fill-rule="evenodd" fill-opacity="1" /><path clip-path="url(#clip280)" d="M146.57 474.945 Q142.959 474.945 141.131 478.51 Q139.325 482.051 139.325 489.181 Q139.325 496.287 141.131 499.852 Q142.959 503.394 146.57 503.394 Q150.205 503.394 152.01 499.852 Q153.839 496.287 153.839 489.181 Q153.839 482.051 152.01 478.51 Q150.205 474.945 146.57 474.945 M146.57 471.241 Q152.38 471.241 155.436 475.848 Q158.515 480.431 158.515 489.181 Q158.515 497.908 155.436 502.514 Q152.38 507.097 146.57 507.097 Q140.76 507.097 137.681 502.514 Q134.626 497.908 134.626 489.181 Q134.626 480.431 137.681 475.848 Q140.76 471.241 146.57 471.241 Z" fill="#000000" fill-rule="evenodd" fill-opacity="1" /><path clip-path="url(#clip280)" d="M167.542 502.491 L175.181 502.491 L175.181 476.125 L166.871 477.792 L166.871 473.533 L175.135 471.866 L179.811 471.866 L179.811 502.491 L187.45 502.491 L187.45 506.426 L167.542 506.426 L167.542 502.491 Z" fill="#000000" fill-rule="evenodd" fill-opacity="1" /><path clip-path="url(#clip280)" d="M100.112 140.696 Q96.5011 140.696 94.6724 144.261 Q92.8669 147.802 92.8669 154.932 Q92.8669 162.038 94.6724 165.603 Q96.5011 169.145 100.112 169.145 Q103.746 169.145 105.552 165.603 Q107.381 162.038 107.381 154.932 Q107.381 147.802 105.552 144.261 Q103.746 140.696 100.112 140.696 M100.112 136.992 Q105.922 136.992 108.978 141.599 Q112.057 146.182 112.057 154.932 Q112.057 163.659 108.978 168.265 Q105.922 172.848 100.112 172.848 Q94.3021 172.848 91.2234 168.265 Q88.1679 163.659 88.1679 154.932 Q88.1679 146.182 91.2234 141.599 Q94.3021 136.992 100.112 136.992 Z" fill="#000000" fill-rule="evenodd" fill-opacity="1" /><path clip-path="url(#clip280)" d="M120.274 166.297 L125.158 166.297 L125.158 172.177 L120.274 172.177 L120.274 166.297 Z" fill="#000000" fill-rule="evenodd" fill-opacity="1" /><path clip-path="url(#clip280)" d="M145.343 140.696 Q141.732 140.696 139.904 144.261 Q138.098 147.802 138.098 154.932 Q138.098 162.038 139.904 165.603 Q141.732 169.145 145.343 169.145 Q148.978 169.145 150.783 165.603 Q152.612 162.038 152.612 154.932 Q152.612 147.802 150.783 144.261 Q148.978 140.696 145.343 140.696 M145.343 136.992 Q151.154 136.992 154.209 141.599 Q157.288 146.182 157.288 154.932 Q157.288 163.659 154.209 168.265 Q151.154 172.848 145.343 172.848 Q139.533 172.848 136.455 168.265 Q133.399 163.659 133.399 154.932 Q133.399 146.182 136.455 141.599 Q139.533 136.992 145.343 136.992 Z" fill="#000000" fill-rule="evenodd" fill-opacity="1" /><path clip-path="url(#clip280)" d="M175.505 140.696 Q171.894 140.696 170.066 144.261 Q168.26 147.802 168.26 154.932 Q168.26 162.038 170.066 165.603 Q171.894 169.145 175.505 169.145 Q179.14 169.145 180.945 165.603 Q182.774 162.038 182.774 154.932 Q182.774 147.802 180.945 144.261 Q179.14 140.696 175.505 140.696 M175.505 136.992 Q181.316 136.992 184.371 141.599 Q187.45 146.182 187.45 154.932 Q187.45 163.659 184.371 168.265 Q181.316 172.848 175.505 172.848 Q169.695 172.848 166.617 168.265 Q163.561 163.659 163.561 154.932 Q163.561 146.182 166.617 141.599 Q169.695 136.992 175.505 136.992 Z" fill="#000000" fill-rule="evenodd" fill-opacity="1" /><path clip-path="url(#clip282)" d="
M283.713 185.489 L296.268 188.148 L308.823 190.801 L321.378 193.441 L333.933 196.056 L346.487 198.636 L359.042 201.172 L371.597 203.652 L384.152 206.068 L396.707 208.408 
  L409.262 210.663 L421.817 212.822 L434.372 214.875 L446.926 216.812 L459.481 218.622 L472.036 220.295 L484.591 221.821 L497.146 223.189 L509.701 224.389 L522.256 225.411 
  L534.811 226.245 L547.365 226.88 L559.92 227.306 L572.475 227.514 L585.03 227.492 L597.585 227.231 L610.14 226.721 L622.695 225.953 L635.25 224.916 L647.804 223.6 
  L660.359 221.997 L672.914 220.097 L685.469 217.891 L698.024 215.376 L710.579 212.571 L723.134 209.503 L735.688 206.195 L748.243 202.675 L760.798 198.966 L773.353 195.096 
  L785.908 191.088 L798.463 186.97 L811.018 182.764 L823.573 178.498 L836.127 174.196 L848.682 169.881 L861.237 165.58 L873.792 161.315 L886.347 157.11 L898.902 152.988 
  L911.457 148.971 L924.012 145.082 L936.566 141.341 L949.121 137.769 L961.676 134.386 L974.231 131.21 L986.786 128.259 L999.341 125.551 L1011.9 123.103 L1024.45 120.932 
  L1037.01 119.052 L1049.56 117.48 L1062.12 116.23 L1074.67 115.317 L1087.22 114.757 L1099.78 114.561 L1112.33 114.728 L1124.89 115.257 L1137.44 116.147 L1150 117.396 
  L1162.55 119.003 L1175.11 120.969 L1187.66 123.294 L1200.22 125.978 L1212.77 129.022 L1225.33 132.427 L1237.88 136.193 L1250.44 140.322 L1262.99 144.815 L1275.55 149.673 
  L1288.1 154.897 L1300.66 162.351 L1313.21 170.158 L1325.77 178.312 L1338.32 186.807 L1350.88 195.636 L1363.43 204.795 L1375.99 214.278 L1388.54 224.079 L1401.1 234.194 
  L1413.65 244.619 L1426.21 255.35 L1438.76 266.385 L1451.32 277.72 L1463.87 289.354 L1476.43 301.287 L1488.98 313.52 L1501.54 326.055 L1514.09 338.891 L1526.65 352.03 
  L1539.2 365.472 L1551.76 379.217 L1564.31 393.264 L1576.86 407.611 L1589.42 422.257 L1601.97 437.198 L1614.53 452.43 L1627.08 467.946 L1639.64 483.74 L1652.19 499.802 
  L1664.75 516.124 L1677.3 532.696 L1689.86 549.506 L1702.41 566.542 L1714.97 583.792 L1727.52 601.243 L1740.08 618.882 L1752.63 636.696 L1765.19 654.672 L1777.74 672.795 
  L1790.3 691.052 L1802.85 709.429 L1815.41 727.912 L1827.96 746.488 L1840.52 765.143 L1853.07 783.863 L1865.63 802.635 L1878.18 821.445 L1890.74 840.279 L1903.29 859.125 
  L1915.85 877.982 L1928.4 896.847 L1940.96 915.72 L1953.51 934.6 L1966.07 953.487 L1978.62 972.379 L1991.18 991.277 L2003.73 1010.18 L2016.29 1029.09 L2028.84 1048 
  L2041.4 1066.91 L2053.95 1085.83 L2066.5 1104.75 L2079.06 1123.68 L2091.61 1142.61 L2104.17 1161.54 L2116.72 1180.47 L2129.28 1199.41 L2141.83 1218.34 L2154.39 1237.28 
  L2166.94 1256.22 L2179.5 1275.17 L2192.05 1294.11 L2204.61 1313.06 L2217.16 1332 L2229.72 1350.95 L2242.27 1369.9 L2254.83 1388.85 L2267.38 1407.81 L2279.94 1426.76 
  L2292.49 1445.72 L2292.49 1217.25 L2279.94 1202.29 L2267.38 1187.33 L2254.83 1172.36 L2242.27 1157.4 L2229.72 1142.44 L2217.16 1127.47 L2204.61 1112.51 L2192.05 1097.54 
  L2179.5 1082.57 L2166.94 1067.6 L2154.39 1052.63 L2141.83 1037.65 L2129.28 1022.67 L2116.72 1007.69 L2104.17 992.714 L2091.61 977.73 L2079.06 962.744 L2066.5 947.755 
  L2053.95 932.763 L2041.4 917.768 L2028.84 902.769 L2016.29 887.766 L2003.73 872.76 L1991.18 857.748 L1978.62 842.732 L1966.07 827.711 L1953.51 812.683 L1940.96 797.649 
  L1928.4 782.608 L1915.85 767.56 L1903.29 752.502 L1890.74 737.435 L1878.18 722.358 L1865.63 707.277 L1853.07 692.199 L1840.52 677.129 L1827.96 662.074 L1815.41 647.04 
  L1802.85 632.035 L1790.3 617.063 L1777.74 602.132 L1765.19 587.248 L1752.63 572.417 L1740.08 557.646 L1727.52 542.94 L1714.97 528.308 L1702.41 513.756 L1689.86 499.29 
  L1677.3 484.92 L1664.75 470.653 L1652.19 456.498 L1639.64 442.465 L1627.08 428.564 L1614.53 414.807 L1601.97 401.208 L1589.42 387.78 L1576.86 374.539 L1564.31 361.501 
  L1551.76 348.685 L1539.2 336.108 L1526.65 323.791 L1514.09 311.754 L1501.54 300.016 L1488.98 288.599 L1476.43 277.52 L1463.87 266.789 L1451.32 256.412 L1438.76 246.394 
  L1426.21 236.739 L1413.65 227.45 L1401.1 218.528 L1388.54 209.976 L1375.99 201.794 L1363.43 193.983 L1350.88 186.543 L1338.32 179.474 L1325.77 172.776 L1313.21 166.447 
  L1300.66 160.488 L1288.1 154.897 L1275.55 147.802 L1262.99 141.073 L1250.44 134.715 L1237.88 128.736 L1225.33 123.142 L1212.77 117.938 L1200.22 113.131 L1187.66 108.728 
  L1175.11 104.734 L1162.55 101.154 L1150 97.995 L1137.44 95.261 L1124.89 92.9571 L1112.33 91.0875 L1099.78 89.6559 L1087.22 88.6654 L1074.67 88.1132 L1062.12 87.9763 
  L1049.56 88.2265 L1037.01 88.8359 L1024.45 89.7767 L1011.9 91.0214 L999.341 92.543 L986.786 94.315 L974.231 96.3112 L961.676 98.5063 L949.121 100.876 L936.566 103.395 
  L924.012 106.042 L911.457 108.794 L898.902 111.628 L886.347 114.524 L873.792 117.461 L861.237 120.42 L848.682 123.381 L836.127 126.325 L823.573 129.234 L811.018 132.089 
  L798.463 134.872 L785.908 137.566 L773.353 140.153 L760.798 142.615 L748.243 144.936 L735.688 147.096 L723.134 149.081 L710.579 150.87 L698.024 152.448 L685.469 153.798 
  L672.914 154.904 L660.359 155.773 L647.804 156.413 L635.25 156.831 L622.695 157.036 L610.14 157.036 L597.585 156.838 L585.03 156.451 L572.475 155.882 L559.92 155.139 
  L547.365 154.228 L534.811 153.158 L522.256 151.935 L509.701 150.567 L497.146 149.062 L484.591 147.426 L472.036 145.668 L459.481 143.793 L446.926 141.809 L434.372 139.725 
  L421.817 137.546 L409.262 135.28 L396.707 132.934 L384.152 130.516 L371.597 128.033 L359.042 125.492 L346.487 122.9 L333.933 120.266 L321.378 117.596 L308.823 114.898 
  L296.268 112.179 L283.713 109.447  Z
  " fill="#009af9" fill-rule="evenodd" fill-opacity="0.35"/>
<polyline clip-path="url(#clip282)" style="stroke:#009af9; stroke-linecap:butt; stroke-linejoin:round; stroke-width:0; stroke-opacity:1; fill:none" points="
  283.713,185.489 296.268,188.148 308.823,190.801 321.378,193.441 333.933,196.056 346.487,198.636 359.042,201.172 371.597,203.652 384.152,206.068 396.707,208.408 
  409.262,210.663 421.817,212.822 434.372,214.875 446.926,216.812 459.481,218.622 472.036,220.295 484.591,221.821 497.146,223.189 509.701,224.389 522.256,225.411 
  534.811,226.245 547.365,226.88 559.92,227.306 572.475,227.514 585.03,227.492 597.585,227.231 610.14,226.721 622.695,225.953 635.25,224.916 647.804,223.6 
  660.359,221.997 672.914,220.097 685.469,217.891 698.024,215.376 710.579,212.571 723.134,209.503 735.688,206.195 748.243,202.675 760.798,198.966 773.353,195.096 
  785.908,191.088 798.463,186.97 811.018,182.764 823.573,178.498 836.127,174.196 848.682,169.881 861.237,165.58 873.792,161.315 886.347,157.11 898.902,152.988 
  911.457,148.971 924.012,145.082 936.566,141.341 949.121,137.769 961.676,134.386 974.231,131.21 986.786,128.259 999.341,125.551 1011.9,123.103 1024.45,120.932 
  1037.01,119.052 1049.56,117.48 1062.12,116.23 1074.67,115.317 1087.22,114.757 1099.78,114.561 1112.33,114.728 1124.89,115.257 1137.44,116.147 1150,117.396 
  1162.55,119.003 1175.11,120.969 1187.66,123.294 1200.22,125.978 1212.77,129.022 1225.33,132.427 1237.88,136.193 1250.44,140.322 1262.99,144.815 1275.55,149.673 
  1288.1,154.897 1300.66,162.351 1313.21,170.158 1325.77,178.312 1338.32,186.807 1350.88,195.636 1363.43,204.795 1375.99,214.278 1388.54,224.079 1401.1,234.194 
  1413.65,244.619 1426.21,255.35 1438.76,266.385 1451.32,277.72 1463.87,289.354 1476.43,301.287 1488.98,313.52 1501.54,326.055 1514.09,338.891 1526.65,352.03 
  1539.2,365.472 1551.76,379.217 1564.31,393.264 1576.86,407.611 1589.42,422.257 1601.97,437.198 1614.53,452.43 1627.08,467.946 1639.64,483.74 1652.19,499.802 
  1664.75,516.124 1677.3,532.696 1689.86,549.506 1702.41,566.542 1714.97,583.792 1727.52,601.243 1740.08,618.882 1752.63,636.696 1765.19,654.672 1777.74,672.795 
  1790.3,691.052 1802.85,709.429 1815.41,727.912 1827.96,746.488 1840.52,765.143 1853.07,783.863 1865.63,802.635 1878.18,821.445 1890.74,840.279 1903.29,859.125 
  1915.85,877.982 1928.4,896.847 1940.96,915.72 1953.51,934.6 1966.07,953.487 1978.62,972.379 1991.18,991.277 2003.73,1010.18 2016.29,1029.09 2028.84,1048 
  2041.4,1066.91 2053.95,1085.83 2066.5,1104.75 2079.06,1123.68 2091.61,1142.61 2104.17,1161.54 2116.72,1180.47 2129.28,1199.41 2141.83,1218.34 2154.39,1237.28 
  2166.94,1256.22 2179.5,1275.17 2192.05,1294.11 2204.61,1313.06 2217.16,1332 2229.72,1350.95 2242.27,1369.9 2254.83,1388.85 2267.38,1407.81 2279.94,1426.76 
  2292.49,1445.72 
  "/>
<path clip-path="url(#clip282)" d="
M283.713 182.823 L296.268 185.429 L308.823 188.011 L321.378 190.47 L333.933 192.918 L346.487 195.547 L359.042 197.965 L371.597 200.378 L384.152 202.715 L396.707 205.088 
  L409.262 207.273 L421.817 209.316 L434.372 211.423 L446.926 213.246 L459.481 215.113 L472.036 216.657 L484.591 218.16 L497.146 219.558 L509.701 220.773 L522.256 221.713 
  L534.811 222.476 L547.365 223.117 L559.92 223.57 L572.475 223.751 L585.03 223.791 L597.585 223.482 L610.14 222.915 L622.695 222.124 L635.25 221.116 L647.804 219.917 
  L660.359 218.328 L672.914 216.445 L685.469 214.443 L698.024 211.873 L710.579 209.114 L723.134 205.94 L735.688 202.741 L748.243 199.342 L760.798 195.78 L773.353 192.038 
  L785.908 188.139 L798.463 184.185 L811.018 180.165 L823.573 176.064 L836.127 171.838 L848.682 167.716 L861.237 163.561 L873.792 159.363 L886.347 155.293 L898.902 151.232 
  L911.457 147.36 L924.012 143.79 L936.566 140.109 L949.121 136.621 L961.676 133.288 L974.231 130.227 L986.786 127.454 L999.341 124.902 L1011.9 122.575 L1024.45 120.538 
  L1037.01 118.756 L1049.56 117.283 L1062.12 116.143 L1074.67 115.324 L1087.22 114.82 L1099.78 114.556 L1112.33 114.726 L1124.89 115.33 L1137.44 116.232 L1150 117.521 
  L1162.55 119.182 L1175.11 121.177 L1187.66 123.495 L1200.22 126.177 L1212.77 129.213 L1225.33 132.597 L1237.88 136.332 L1250.44 140.435 L1262.99 144.892 L1275.55 149.712 
  L1288.1 154.897 L1300.66 162.382 L1313.21 170.222 L1325.77 178.412 L1338.32 186.944 L1350.88 195.82 L1363.43 205.032 L1375.99 214.545 L1388.54 224.382 L1401.1 234.539 
  L1413.65 244.997 L1426.21 255.779 L1438.76 266.829 L1451.32 278.153 L1463.87 289.782 L1476.43 301.71 L1488.98 313.964 L1501.54 326.502 L1514.09 339.324 L1526.65 352.405 
  L1539.2 365.688 L1551.76 379.449 L1564.31 393.477 L1576.86 407.694 L1589.42 422.117 L1601.97 436.866 L1614.53 451.834 L1627.08 467.013 L1639.64 482.667 L1652.19 498.714 
  L1664.75 514.831 L1677.3 531.351 L1689.86 547.907 L1702.41 564.733 L1714.97 581.931 L1727.52 599.208 L1740.08 616.748 L1752.63 634.383 L1765.19 652.14 L1777.74 670.027 
  L1790.3 688.196 L1802.85 706.489 L1815.41 724.821 L1827.96 743.247 L1840.52 761.739 L1853.07 780.147 L1865.63 798.962 L1878.18 817.433 L1890.74 836.142 L1903.29 854.882 
  L1915.85 873.521 L1928.4 892.369 L1940.96 911.186 L1953.51 929.934 L1966.07 948.894 L1978.62 967.576 L1991.18 986.252 L2003.73 1005.1 L2016.29 1023.78 L2028.84 1042.34 
  L2041.4 1061.03 L2053.95 1079.93 L2066.5 1098.9 L2079.06 1117.69 L2091.61 1136.52 L2104.17 1155.55 L2116.72 1174.4 L2129.28 1193.36 L2141.83 1212.14 L2154.39 1230.8 
  L2166.94 1249.59 L2179.5 1268.31 L2192.05 1287.06 L2204.61 1305.9 L2217.16 1324.73 L2229.72 1343.69 L2242.27 1362.62 L2254.83 1381.65 L2267.38 1400.68 L2279.94 1419.54 
  L2292.49 1438.45 L2292.49 1229.7 L2279.94 1214.6 L2267.38 1199.58 L2254.83 1184.52 L2242.27 1169.54 L2229.72 1154.45 L2217.16 1139.31 L2204.61 1124.22 L2192.05 1108.93 
  L2179.5 1093.91 L2166.94 1078.81 L2154.39 1063.86 L2141.83 1048.68 L2129.28 1033.48 L2116.72 1018.27 L2104.17 1002.9 L2091.61 987.636 L2079.06 972.396 L2066.5 957.138 
  L2053.95 941.943 L2041.4 926.688 L2028.84 911.367 L2016.29 896.124 L2003.73 880.814 L1991.18 865.505 L1978.62 850.437 L1966.07 835.257 L1953.51 820.094 L1940.96 804.746 
  L1928.4 789.422 L1915.85 774.19 L1903.29 758.983 L1890.74 743.672 L1878.18 728.533 L1865.63 713.12 L1853.07 697.722 L1840.52 682.391 L1827.96 667.269 L1815.41 652.028 
  L1802.85 636.865 L1790.3 621.564 L1777.74 606.423 L1765.19 591.185 L1752.63 576.004 L1740.08 560.941 L1727.52 545.777 L1714.97 530.744 L1702.41 515.918 L1689.86 501.258 
  L1677.3 486.754 L1664.75 472.175 L1652.19 457.765 L1639.64 443.59 L1627.08 429.553 L1614.53 415.778 L1601.97 401.895 L1589.42 388.364 L1576.86 374.91 L1564.31 361.716 
  L1551.76 348.806 L1539.2 336.139 L1526.65 323.689 L1514.09 311.605 L1501.54 299.799 L1488.98 288.309 L1476.43 277.162 L1463.87 266.453 L1451.32 256.062 L1438.76 246.04 
  L1426.21 236.404 L1413.65 227.129 L1401.1 218.249 L1388.54 209.745 L1375.99 201.557 L1363.43 193.759 L1350.88 186.359 L1338.32 179.326 L1325.77 172.671 L1313.21 166.375 
  L1300.66 160.452 L1288.1 154.897 L1275.55 147.772 L1262.99 141.011 L1250.44 134.639 L1237.88 128.656 L1225.33 123.065 L1212.77 117.839 L1200.22 113.029 L1187.66 108.643 
  L1175.11 104.629 L1162.55 101.085 L1150 97.9461 L1137.44 95.2586 L1124.89 92.9487 L1112.33 91.1165 L1099.78 89.7021 L1087.22 88.7496 L1074.67 88.3332 L1062.12 88.2319 
  L1049.56 88.5994 L1037.01 89.3827 L1024.45 90.3991 L1011.9 91.6783 L999.341 93.3543 L986.786 95.2671 L974.231 97.3888 L961.676 99.6406 L949.121 102.247 L936.566 104.871 
  L924.012 107.875 L911.457 110.669 L898.902 113.693 L886.347 116.701 L873.792 119.856 L861.237 123.018 L848.682 126.258 L836.127 129.345 L823.573 132.399 L811.018 135.344 
  L798.463 138.353 L785.908 141.179 L773.353 143.797 L760.798 146.381 L748.243 148.753 L735.688 150.964 L723.134 153.118 L710.579 154.96 L698.024 156.685 L685.469 158.044 
  L672.914 159.09 L660.359 159.975 L647.804 160.663 L635.25 161.154 L622.695 161.346 L610.14 161.322 L597.585 161.186 L585.03 160.7 L572.475 160.064 L559.92 159.311 
  L547.365 158.44 L534.811 157.297 L522.256 156.056 L509.701 154.598 L497.146 153.169 L484.591 151.484 L472.036 149.731 L459.481 147.914 L446.926 145.993 L434.372 143.846 
  L421.817 141.533 L409.262 139.223 L396.707 136.761 L384.152 134.379 L371.597 131.706 L359.042 129.062 L346.487 126.408 L333.933 123.709 L321.378 121.188 L308.823 118.391 
  L296.268 115.596 L283.713 112.901  Z
  " fill="#e26f46" fill-rule="evenodd" fill-opacity="0.35"/>
<polyline clip-path="url(#clip282)" style="stroke:#e26f46; stroke-linecap:butt; stroke-linejoin:round; stroke-width:0; stroke-opacity:1; fill:none" points="
  283.713,182.823 296.268,185.429 308.823,188.011 321.378,190.47 333.933,192.918 346.487,195.547 359.042,197.965 371.597,200.378 384.152,202.715 396.707,205.088 
  409.262,207.273 421.817,209.316 434.372,211.423 446.926,213.246 459.481,215.113 472.036,216.657 484.591,218.16 497.146,219.558 509.701,220.773 522.256,221.713 
  534.811,222.476 547.365,223.117 559.92,223.57 572.475,223.751 585.03,223.791 597.585,223.482 610.14,222.915 622.695,222.124 635.25,221.116 647.804,219.917 
  660.359,218.328 672.914,216.445 685.469,214.443 698.024,211.873 710.579,209.114 723.134,205.94 735.688,202.741 748.243,199.342 760.798,195.78 773.353,192.038 
  785.908,188.139 798.463,184.185 811.018,180.165 823.573,176.064 836.127,171.838 848.682,167.716 861.237,163.561 873.792,159.363 886.347,155.293 898.902,151.232 
  911.457,147.36 924.012,143.79 936.566,140.109 949.121,136.621 961.676,133.288 974.231,130.227 986.786,127.454 999.341,124.902 1011.9,122.575 1024.45,120.538 
  1037.01,118.756 1049.56,117.283 1062.12,116.143 1074.67,115.324 1087.22,114.82 1099.78,114.556 1112.33,114.726 1124.89,115.33 1137.44,116.232 1150,117.521 
  1162.55,119.182 1175.11,121.177 1187.66,123.495 1200.22,126.177 1212.77,129.213 1225.33,132.597 1237.88,136.332 1250.44,140.435 1262.99,144.892 1275.55,149.712 
  1288.1,154.897 1300.66,162.382 1313.21,170.222 1325.77,178.412 1338.32,186.944 1350.88,195.82 1363.43,205.032 1375.99,214.545 1388.54,224.382 1401.1,234.539 
  1413.65,244.997 1426.21,255.779 1438.76,266.829 1451.32,278.153 1463.87,289.782 1476.43,301.71 1488.98,313.964 1501.54,326.502 1514.09,339.324 1526.65,352.405 
  1539.2,365.688 1551.76,379.449 1564.31,393.477 1576.86,407.694 1589.42,422.117 1601.97,436.866 1614.53,451.834 1627.08,467.013 1639.64,482.667 1652.19,498.714 
  1664.75,514.831 1677.3,531.351 1689.86,547.907 1702.41,564.733 1714.97,581.931 1727.52,599.208 1740.08,616.748 1752.63,634.383 1765.19,652.14 1777.74,670.027 
  1790.3,688.196 1802.85,706.489 1815.41,724.821 1827.96,743.247 1840.52,761.739 1853.07,780.147 1865.63,798.962 1878.18,817.433 1890.74,836.142 1903.29,854.882 
  1915.85,873.521 1928.4,892.369 1940.96,911.186 1953.51,929.934 1966.07,948.894 1978.62,967.576 1991.18,986.252 2003.73,1005.1 2016.29,1023.78 2028.84,1042.34 
  2041.4,1061.03 2053.95,1079.93 2066.5,1098.9 2079.06,1117.69 2091.61,1136.52 2104.17,1155.55 2116.72,1174.4 2129.28,1193.36 2141.83,1212.14 2154.39,1230.8 
  2166.94,1249.59 2179.5,1268.31 2192.05,1287.06 2204.61,1305.9 2217.16,1324.73 2229.72,1343.69 2242.27,1362.62 2254.83,1381.65 2267.38,1400.68 2279.94,1419.54 
  2292.49,1438.45 
  "/>
<polyline clip-path="url(#clip282)" style="stroke:#3da44d; stroke-linecap:butt; stroke-linejoin:round; stroke-width:4; stroke-opacity:1; fill:none" points="
  283.713,147.483 296.268,150.182 308.823,152.873 321.378,155.546 333.933,158.193 346.487,160.805 359.042,163.373 371.597,165.888 384.152,168.342 396.707,170.725 
  409.262,173.03 421.817,175.247 434.372,177.367 446.926,179.381 459.481,181.282 472.036,183.06 484.591,184.706 497.146,186.211 509.701,187.568 522.256,188.766 
  534.811,189.797 547.365,190.653 559.92,191.324 572.475,191.803 585.03,192.079 597.585,192.145 610.14,191.991 622.695,191.608 635.25,190.989 647.804,190.124 
  660.359,189.004 672.914,187.621 685.469,185.966 698.024,184.035 710.579,181.844 723.134,179.415 735.688,176.77 748.243,173.929 760.798,170.915 773.353,167.748 
  785.908,164.45 798.463,161.043 811.018,157.548 823.573,153.986 836.127,150.379 848.682,146.748 861.237,143.115 873.792,139.501 886.347,135.928 898.902,132.417 
  911.457,128.989 924.012,125.666 936.566,122.47 949.121,119.421 961.676,116.542 974.231,113.853 986.786,111.376 999.341,109.133 1011.9,107.144 1024.45,105.432 
  1037.01,104.018 1049.56,102.923 1062.12,102.169 1074.67,101.777 1087.22,101.769 1099.78,102.161 1112.33,102.956 1124.89,104.151 1137.44,105.743 1150,107.73 
  1162.55,110.109 1175.11,112.877 1187.66,116.033 1200.22,119.573 1212.77,123.494 1225.33,127.795 1237.88,132.472 1250.44,137.524 1262.99,142.947 1275.55,148.739 
  1288.1,154.897 1300.66,161.419 1313.21,168.302 1325.77,175.544 1338.32,183.142 1350.88,191.093 1363.43,199.395 1375.99,208.045 1388.54,217.041 1401.1,226.38 
  1413.65,236.06 1426.21,246.077 1438.76,256.43 1451.32,267.116 1463.87,278.132 1476.43,289.475 1488.98,301.144 1501.54,313.134 1514.09,325.436 1526.65,338.041 
  1539.2,350.938 1551.76,364.117 1564.31,377.568 1576.86,391.281 1589.42,405.246 1601.97,419.453 1614.53,433.892 1627.08,448.552 1639.64,463.424 1652.19,478.498 
  1664.75,493.763 1677.3,509.209 1689.86,524.827 1702.41,540.606 1714.97,556.536 1727.52,572.607 1740.08,588.81 1752.63,605.133 1765.19,621.567 1777.74,638.102 
  1790.3,654.727 1802.85,671.433 1815.41,688.21 1827.96,705.047 1840.52,721.935 1853.07,738.862 1865.63,755.821 1878.18,772.799 1890.74,789.787 1903.29,806.777 
  1915.85,823.767 1928.4,840.757 1940.96,857.747 1953.51,874.737 1966.07,891.727 1978.62,908.717 1991.18,925.707 2003.73,942.697 2016.29,959.687 2028.84,976.677 
  2041.4,993.667 2053.95,1010.66 2066.5,1027.65 2079.06,1044.64 2091.61,1061.63 2104.17,1078.62 2116.72,1095.61 2129.28,1112.6 2141.83,1129.59 2154.39,1146.58 
  2166.94,1163.57 2179.5,1180.56 2192.05,1197.55 2204.61,1214.54 2217.16,1231.53 2229.72,1248.52 2242.27,1265.51 2254.83,1282.5 2267.38,1299.49 2279.94,1316.48 
  2292.49,1333.47 
  "/>
<path clip-path="url(#clip280)" d="
M294.427 1438.47 L1145.85 1438.47 L1145.85 1231.11 L294.427 1231.11  Z
  " fill="#ffffff" fill-rule="evenodd" fill-opacity="1"/>
<polyline clip-path="url(#clip280)" style="stroke:#000000; stroke-linecap:butt; stroke-linejoin:round; stroke-width:4; stroke-opacity:1; fill:none" points="
  294.427,1438.47 1145.85,1438.47 1145.85,1231.11 294.427,1231.11 294.427,1438.47 
  "/>
<path clip-path="url(#clip280)" d="
M318.086 1303.69 L460.039 1303.69 L460.039 1262.22 L318.086 1262.22 L318.086 1303.69  Z
  " fill="#009af9" fill-rule="evenodd" fill-opacity="0.35"/>
<polyline clip-path="url(#clip280)" style="stroke:#009af9; stroke-linecap:butt; stroke-linejoin:round; stroke-width:0; stroke-opacity:1; fill:none" points="
  318.086,1262.22 460.039,1262.22 
  "/>
<path clip-path="url(#clip280)" d="M485.92 1299.52 L485.92 1295.26 Q487.68 1296.09 489.485 1296.53 Q491.291 1296.97 493.027 1296.97 Q497.657 1296.97 500.087 1293.87 Q502.541 1290.74 502.888 1284.4 Q501.545 1286.39 499.485 1287.46 Q497.425 1288.52 494.925 1288.52 Q489.74 1288.52 486.708 1285.4 Q483.698 1282.25 483.698 1276.81 Q483.698 1271.48 486.846 1268.27 Q489.995 1265.05 495.226 1265.05 Q501.221 1265.05 504.369 1269.66 Q507.541 1274.24 507.541 1282.99 Q507.541 1291.16 503.652 1296.04 Q499.786 1300.91 493.235 1300.91 Q491.476 1300.91 489.67 1300.56 Q487.865 1300.21 485.92 1299.52 M495.226 1284.86 Q498.374 1284.86 500.203 1282.71 Q502.055 1280.56 502.055 1276.81 Q502.055 1273.08 500.203 1270.93 Q498.374 1268.75 495.226 1268.75 Q492.078 1268.75 490.226 1270.93 Q488.397 1273.08 488.397 1276.81 Q488.397 1280.56 490.226 1282.71 Q492.078 1284.86 495.226 1284.86 Z" fill="#000000" fill-rule="evenodd" fill-opacity="1" /><path clip-path="url(#clip280)" d="M515.99 1265.67 L534.346 1265.67 L534.346 1269.61 L520.272 1269.61 L520.272 1278.08 Q521.291 1277.73 522.309 1277.57 Q523.328 1277.39 524.346 1277.39 Q530.133 1277.39 533.513 1280.56 Q536.892 1283.73 536.892 1289.15 Q536.892 1294.73 533.42 1297.83 Q529.948 1300.91 523.629 1300.91 Q521.453 1300.91 519.184 1300.54 Q516.939 1300.16 514.531 1299.42 L514.531 1294.73 Q516.615 1295.86 518.837 1296.41 Q521.059 1296.97 523.536 1296.97 Q527.541 1296.97 529.879 1294.86 Q532.217 1292.76 532.217 1289.15 Q532.217 1285.54 529.879 1283.43 Q527.541 1281.32 523.536 1281.32 Q521.661 1281.32 519.786 1281.74 Q517.934 1282.16 515.99 1283.04 L515.99 1265.67 Z" fill="#000000" fill-rule="evenodd" fill-opacity="1" /><path clip-path="url(#clip280)" d="M575.503 1285.03 Q573.489 1285.03 572.332 1286.74 Q571.198 1288.45 571.198 1291.51 Q571.198 1294.52 572.332 1296.25 Q573.489 1297.97 575.503 1297.97 Q577.471 1297.97 578.605 1296.25 Q579.763 1294.52 579.763 1291.51 Q579.763 1288.48 578.605 1286.76 Q577.471 1285.03 575.503 1285.03 M575.503 1282.09 Q579.161 1282.09 581.313 1284.63 Q583.466 1287.18 583.466 1291.51 Q583.466 1295.84 581.29 1298.38 Q579.138 1300.91 575.503 1300.91 Q571.8 1300.91 569.647 1298.38 Q567.494 1295.84 567.494 1291.51 Q567.494 1287.16 569.647 1284.63 Q571.823 1282.09 575.503 1282.09 M551.615 1267.99 Q549.624 1267.99 548.466 1269.73 Q547.332 1271.44 547.332 1274.45 Q547.332 1277.5 548.466 1279.22 Q549.601 1280.93 551.615 1280.93 Q553.628 1280.93 554.763 1279.22 Q555.92 1277.5 555.92 1274.45 Q555.92 1271.46 554.763 1269.73 Q553.605 1267.99 551.615 1267.99 M572.517 1265.05 L576.221 1265.05 L554.601 1300.91 L550.897 1300.91 L572.517 1265.05 M551.615 1265.05 Q555.272 1265.05 557.448 1267.6 Q559.624 1270.12 559.624 1274.45 Q559.624 1278.82 557.448 1281.35 Q555.295 1283.87 551.615 1283.87 Q547.934 1283.87 545.781 1281.35 Q543.652 1278.8 543.652 1274.45 Q543.652 1270.14 545.804 1267.6 Q547.957 1265.05 551.615 1265.05 Z" fill="#000000" fill-rule="evenodd" fill-opacity="1" /><path clip-path="url(#clip280)" d="M631.684 1268.34 L631.684 1273.27 Q629.322 1271.07 626.637 1269.98 Q623.975 1268.89 620.966 1268.89 Q615.04 1268.89 611.892 1272.53 Q608.744 1276.14 608.744 1282.99 Q608.744 1289.82 611.892 1293.45 Q615.04 1297.06 620.966 1297.06 Q623.975 1297.06 626.637 1295.98 Q629.322 1294.89 631.684 1292.69 L631.684 1297.57 Q629.23 1299.24 626.475 1300.07 Q623.744 1300.91 620.688 1300.91 Q612.841 1300.91 608.327 1296.11 Q603.813 1291.3 603.813 1282.99 Q603.813 1274.66 608.327 1269.86 Q612.841 1265.05 620.688 1265.05 Q623.79 1265.05 626.522 1265.88 Q629.276 1266.69 631.684 1268.34 Z" fill="#000000" fill-rule="evenodd" fill-opacity="1" /><path clip-path="url(#clip280)" d="M638.906 1265.67 L643.582 1265.67 L643.582 1300.23 L638.906 1300.23 L638.906 1265.67 Z" fill="#000000" fill-rule="evenodd" fill-opacity="1" /><path clip-path="url(#clip280)" d="M672.632 1269.52 L672.632 1296.39 L678.281 1296.39 Q685.433 1296.39 688.743 1293.15 Q692.077 1289.91 692.077 1282.92 Q692.077 1275.98 688.743 1272.76 Q685.433 1269.52 678.281 1269.52 L672.632 1269.52 M667.957 1265.67 L677.563 1265.67 Q687.609 1265.67 692.308 1269.86 Q697.007 1274.03 697.007 1282.92 Q697.007 1291.85 692.285 1296.04 Q687.563 1300.23 677.563 1300.23 L667.957 1300.23 L667.957 1265.67 Z" fill="#000000" fill-rule="evenodd" fill-opacity="1" /><path clip-path="url(#clip280)" d="M726.452 1286.21 L726.452 1288.29 L706.868 1288.29 Q707.146 1292.69 709.507 1295 Q711.891 1297.29 716.128 1297.29 Q718.581 1297.29 720.873 1296.69 Q723.188 1296.09 725.456 1294.89 L725.456 1298.91 Q723.165 1299.89 720.757 1300.4 Q718.35 1300.91 715.873 1300.91 Q709.669 1300.91 706.035 1297.29 Q702.424 1293.68 702.424 1287.53 Q702.424 1281.16 705.85 1277.43 Q709.299 1273.68 715.132 1273.68 Q720.364 1273.68 723.396 1277.06 Q726.452 1280.42 726.452 1286.21 M722.192 1284.96 Q722.146 1281.46 720.225 1279.38 Q718.327 1277.29 715.179 1277.29 Q711.614 1277.29 709.461 1279.31 Q707.331 1281.32 707.007 1284.98 L722.192 1284.96 Z" fill="#000000" fill-rule="evenodd" fill-opacity="1" /><path clip-path="url(#clip280)" d="M733.442 1264.22 L737.702 1264.22 L737.702 1300.23 L733.442 1300.23 L733.442 1264.22 Z" fill="#000000" fill-rule="evenodd" fill-opacity="1" /><path clip-path="url(#clip280)" d="M750.826 1266.95 L750.826 1274.31 L759.6 1274.31 L759.6 1277.62 L750.826 1277.62 L750.826 1291.69 Q750.826 1294.86 751.683 1295.77 Q752.563 1296.67 755.225 1296.67 L759.6 1296.67 L759.6 1300.23 L755.225 1300.23 Q750.294 1300.23 748.419 1298.41 Q746.544 1296.55 746.544 1291.69 L746.544 1277.62 L743.419 1277.62 L743.419 1274.31 L746.544 1274.31 L746.544 1266.95 L750.826 1266.95 Z" fill="#000000" fill-rule="evenodd" fill-opacity="1" /><path clip-path="url(#clip280)" d="M776.984 1287.2 Q771.822 1287.2 769.831 1288.38 Q767.84 1289.56 767.84 1292.41 Q767.84 1294.68 769.322 1296.02 Q770.826 1297.34 773.396 1297.34 Q776.937 1297.34 779.067 1294.84 Q781.22 1292.32 781.22 1288.15 L781.22 1287.2 L776.984 1287.2 M785.479 1285.44 L785.479 1300.23 L781.22 1300.23 L781.22 1296.3 Q779.761 1298.66 777.586 1299.79 Q775.41 1300.91 772.262 1300.91 Q768.28 1300.91 765.919 1298.68 Q763.581 1296.44 763.581 1292.69 Q763.581 1288.31 766.498 1286.09 Q769.437 1283.87 775.248 1283.87 L781.22 1283.87 L781.22 1283.45 Q781.22 1280.51 779.275 1278.92 Q777.354 1277.29 773.859 1277.29 Q771.637 1277.29 769.53 1277.83 Q767.424 1278.36 765.479 1279.42 L765.479 1275.49 Q767.817 1274.59 770.016 1274.15 Q772.215 1273.68 774.299 1273.68 Q779.924 1273.68 782.701 1276.6 Q785.479 1279.52 785.479 1285.44 Z" fill="#000000" fill-rule="evenodd" fill-opacity="1" /><path clip-path="url(#clip280)" d="M809.507 1265.67 L816.474 1265.67 L825.294 1289.19 L834.159 1265.67 L841.127 1265.67 L841.127 1300.23 L836.567 1300.23 L836.567 1269.89 L827.655 1293.59 L822.956 1293.59 L814.044 1269.89 L814.044 1300.23 L809.507 1300.23 L809.507 1265.67 Z" fill="#000000" fill-rule="evenodd" fill-opacity="1" /><path clip-path="url(#clip280)" d="M872.4 1286.21 L872.4 1288.29 L852.817 1288.29 Q853.094 1292.69 855.456 1295 Q857.84 1297.29 862.076 1297.29 Q864.53 1297.29 866.821 1296.69 Q869.136 1296.09 871.405 1294.89 L871.405 1298.91 Q869.113 1299.89 866.705 1300.4 Q864.298 1300.91 861.821 1300.91 Q855.618 1300.91 851.983 1297.29 Q848.372 1293.68 848.372 1287.53 Q848.372 1281.16 851.798 1277.43 Q855.247 1273.68 861.08 1273.68 Q866.312 1273.68 869.344 1277.06 Q872.4 1280.42 872.4 1286.21 M868.141 1284.96 Q868.094 1281.46 866.173 1279.38 Q864.275 1277.29 861.127 1277.29 Q857.562 1277.29 855.409 1279.31 Q853.28 1281.32 852.956 1284.98 L868.141 1284.96 Z" fill="#000000" fill-rule="evenodd" fill-opacity="1" /><path clip-path="url(#clip280)" d="M883.604 1266.95 L883.604 1274.31 L892.377 1274.31 L892.377 1277.62 L883.604 1277.62 L883.604 1291.69 Q883.604 1294.86 884.46 1295.77 Q885.34 1296.67 888.002 1296.67 L892.377 1296.67 L892.377 1300.23 L888.002 1300.23 Q883.071 1300.23 881.196 1298.41 Q879.321 1296.55 879.321 1291.69 L879.321 1277.62 L876.196 1277.62 L876.196 1274.31 L879.321 1274.31 L879.321 1266.95 L883.604 1266.95 Z" fill="#000000" fill-rule="evenodd" fill-opacity="1" /><path clip-path="url(#clip280)" d="M919.529 1284.59 L919.529 1300.23 L915.27 1300.23 L915.27 1284.73 Q915.27 1281.04 913.835 1279.22 Q912.4 1277.39 909.529 1277.39 Q906.08 1277.39 904.09 1279.59 Q902.099 1281.79 902.099 1285.58 L902.099 1300.23 L897.816 1300.23 L897.816 1264.22 L902.099 1264.22 L902.099 1278.34 Q903.627 1276 905.687 1274.84 Q907.77 1273.68 910.478 1273.68 Q914.946 1273.68 917.238 1276.46 Q919.529 1279.22 919.529 1284.59 Z" fill="#000000" fill-rule="evenodd" fill-opacity="1" /><path clip-path="url(#clip280)" d="M938.071 1277.29 Q934.645 1277.29 932.654 1279.98 Q930.663 1282.64 930.663 1287.29 Q930.663 1291.95 932.631 1294.63 Q934.622 1297.29 938.071 1297.29 Q941.474 1297.29 943.464 1294.61 Q945.455 1291.92 945.455 1287.29 Q945.455 1282.69 943.464 1280 Q941.474 1277.29 938.071 1277.29 M938.071 1273.68 Q943.626 1273.68 946.798 1277.29 Q949.969 1280.91 949.969 1287.29 Q949.969 1293.66 946.798 1297.29 Q943.626 1300.91 938.071 1300.91 Q932.492 1300.91 929.321 1297.29 Q926.173 1293.66 926.173 1287.29 Q926.173 1280.91 929.321 1277.29 Q932.492 1273.68 938.071 1273.68 Z" fill="#000000" fill-rule="evenodd" fill-opacity="1" /><path clip-path="url(#clip280)" d="M974.089 1278.24 L974.089 1264.22 L978.348 1264.22 L978.348 1300.23 L974.089 1300.23 L974.089 1296.35 Q972.747 1298.66 970.686 1299.79 Q968.649 1300.91 965.779 1300.91 Q961.08 1300.91 958.117 1297.16 Q955.177 1293.41 955.177 1287.29 Q955.177 1281.18 958.117 1277.43 Q961.08 1273.68 965.779 1273.68 Q968.649 1273.68 970.686 1274.82 Q972.747 1275.93 974.089 1278.24 M959.575 1287.29 Q959.575 1291.99 961.497 1294.68 Q963.441 1297.34 966.821 1297.34 Q970.2 1297.34 972.145 1294.68 Q974.089 1291.99 974.089 1287.29 Q974.089 1282.6 972.145 1279.93 Q970.2 1277.25 966.821 1277.25 Q963.441 1277.25 961.497 1279.93 Q959.575 1282.6 959.575 1287.29 Z" fill="#000000" fill-rule="evenodd" fill-opacity="1" /><path clip-path="url(#clip280)" d="
M318.086 1355.53 L460.039 1355.53 L460.039 1314.06 L318.086 1314.06 L318.086 1355.53  Z
  " fill="#e26f46" fill-rule="evenodd" fill-opacity="0.35"/>
<polyline clip-path="url(#clip280)" style="stroke:#e26f46; stroke-linecap:butt; stroke-linejoin:round; stroke-width:0; stroke-opacity:1; fill:none" points="
  318.086,1314.06 460.039,1314.06 
  "/>
<path clip-path="url(#clip280)" d="M485.92 1351.36 L485.92 1347.1 Q487.68 1347.93 489.485 1348.37 Q491.291 1348.81 493.027 1348.81 Q497.657 1348.81 500.087 1345.71 Q502.541 1342.58 502.888 1336.24 Q501.545 1338.23 499.485 1339.3 Q497.425 1340.36 494.925 1340.36 Q489.74 1340.36 486.708 1337.24 Q483.698 1334.09 483.698 1328.65 Q483.698 1323.32 486.846 1320.11 Q489.995 1316.89 495.226 1316.89 Q501.221 1316.89 504.369 1321.5 Q507.541 1326.08 507.541 1334.83 Q507.541 1343 503.652 1347.88 Q499.786 1352.75 493.235 1352.75 Q491.476 1352.75 489.67 1352.4 Q487.865 1352.05 485.92 1351.36 M495.226 1336.7 Q498.374 1336.7 500.203 1334.55 Q502.055 1332.4 502.055 1328.65 Q502.055 1324.92 500.203 1322.77 Q498.374 1320.59 495.226 1320.59 Q492.078 1320.59 490.226 1322.77 Q488.397 1324.92 488.397 1328.65 Q488.397 1332.4 490.226 1334.55 Q492.078 1336.7 495.226 1336.7 Z" fill="#000000" fill-rule="evenodd" fill-opacity="1" /><path clip-path="url(#clip280)" d="M515.99 1317.51 L534.346 1317.51 L534.346 1321.45 L520.272 1321.45 L520.272 1329.92 Q521.291 1329.57 522.309 1329.41 Q523.328 1329.23 524.346 1329.23 Q530.133 1329.23 533.513 1332.4 Q536.892 1335.57 536.892 1340.99 Q536.892 1346.57 533.42 1349.67 Q529.948 1352.75 523.629 1352.75 Q521.453 1352.75 519.184 1352.38 Q516.939 1352 514.531 1351.26 L514.531 1346.57 Q516.615 1347.7 518.837 1348.25 Q521.059 1348.81 523.536 1348.81 Q527.541 1348.81 529.879 1346.7 Q532.217 1344.6 532.217 1340.99 Q532.217 1337.38 529.879 1335.27 Q527.541 1333.16 523.536 1333.16 Q521.661 1333.16 519.786 1333.58 Q517.934 1334 515.99 1334.88 L515.99 1317.51 Z" fill="#000000" fill-rule="evenodd" fill-opacity="1" /><path clip-path="url(#clip280)" d="M575.503 1336.87 Q573.489 1336.87 572.332 1338.58 Q571.198 1340.29 571.198 1343.35 Q571.198 1346.36 572.332 1348.09 Q573.489 1349.81 575.503 1349.81 Q577.471 1349.81 578.605 1348.09 Q579.763 1346.36 579.763 1343.35 Q579.763 1340.32 578.605 1338.6 Q577.471 1336.87 575.503 1336.87 M575.503 1333.93 Q579.161 1333.93 581.313 1336.47 Q583.466 1339.02 583.466 1343.35 Q583.466 1347.68 581.29 1350.22 Q579.138 1352.75 575.503 1352.75 Q571.8 1352.75 569.647 1350.22 Q567.494 1347.68 567.494 1343.35 Q567.494 1339 569.647 1336.47 Q571.823 1333.93 575.503 1333.93 M551.615 1319.83 Q549.624 1319.83 548.466 1321.57 Q547.332 1323.28 547.332 1326.29 Q547.332 1329.34 548.466 1331.06 Q549.601 1332.77 551.615 1332.77 Q553.628 1332.77 554.763 1331.06 Q555.92 1329.34 555.92 1326.29 Q555.92 1323.3 554.763 1321.57 Q553.605 1319.83 551.615 1319.83 M572.517 1316.89 L576.221 1316.89 L554.601 1352.75 L550.897 1352.75 L572.517 1316.89 M551.615 1316.89 Q555.272 1316.89 557.448 1319.44 Q559.624 1321.96 559.624 1326.29 Q559.624 1330.66 557.448 1333.19 Q555.295 1335.71 551.615 1335.71 Q547.934 1335.71 545.781 1333.19 Q543.652 1330.64 543.652 1326.29 Q543.652 1321.98 545.804 1319.44 Q547.957 1316.89 551.615 1316.89 Z" fill="#000000" fill-rule="evenodd" fill-opacity="1" /><path clip-path="url(#clip280)" d="M631.684 1320.18 L631.684 1325.11 Q629.322 1322.91 626.637 1321.82 Q623.975 1320.73 620.966 1320.73 Q615.04 1320.73 611.892 1324.37 Q608.744 1327.98 608.744 1334.83 Q608.744 1341.66 611.892 1345.29 Q615.04 1348.9 620.966 1348.9 Q623.975 1348.9 626.637 1347.82 Q629.322 1346.73 631.684 1344.53 L631.684 1349.41 Q629.23 1351.08 626.475 1351.91 Q623.744 1352.75 620.688 1352.75 Q612.841 1352.75 608.327 1347.95 Q603.813 1343.14 603.813 1334.83 Q603.813 1326.5 608.327 1321.7 Q612.841 1316.89 620.688 1316.89 Q623.79 1316.89 626.522 1317.72 Q629.276 1318.53 631.684 1320.18 Z" fill="#000000" fill-rule="evenodd" fill-opacity="1" /><path clip-path="url(#clip280)" d="M638.906 1317.51 L643.582 1317.51 L643.582 1352.07 L638.906 1352.07 L638.906 1317.51 Z" fill="#000000" fill-rule="evenodd" fill-opacity="1" /><path clip-path="url(#clip280)" d="M672.632 1335.57 L672.632 1348.23 L680.132 1348.23 Q683.906 1348.23 685.711 1346.68 Q687.54 1345.11 687.54 1341.89 Q687.54 1338.65 685.711 1337.12 Q683.906 1335.57 680.132 1335.57 L672.632 1335.57 M672.632 1321.36 L672.632 1331.77 L679.554 1331.77 Q682.98 1331.77 684.646 1330.5 Q686.336 1329.2 686.336 1326.57 Q686.336 1323.95 684.646 1322.65 Q682.98 1321.36 679.554 1321.36 L672.632 1321.36 M667.957 1317.51 L679.901 1317.51 Q685.248 1317.51 688.142 1319.74 Q691.035 1321.96 691.035 1326.06 Q691.035 1329.23 689.554 1331.1 Q688.072 1332.98 685.202 1333.44 Q688.651 1334.18 690.549 1336.54 Q692.47 1338.88 692.47 1342.4 Q692.47 1347.03 689.322 1349.55 Q686.174 1352.07 680.364 1352.07 L667.957 1352.07 L667.957 1317.51 Z" fill="#000000" fill-rule="evenodd" fill-opacity="1" /><path clip-path="url(#clip280)" d="M710.341 1329.13 Q706.915 1329.13 704.924 1331.82 Q702.933 1334.48 702.933 1339.13 Q702.933 1343.79 704.901 1346.47 Q706.892 1349.13 710.341 1349.13 Q713.743 1349.13 715.734 1346.45 Q717.725 1343.76 717.725 1339.13 Q717.725 1334.53 715.734 1331.84 Q713.743 1329.13 710.341 1329.13 M710.341 1325.52 Q715.896 1325.52 719.067 1329.13 Q722.239 1332.75 722.239 1339.13 Q722.239 1345.5 719.067 1349.13 Q715.896 1352.75 710.341 1352.75 Q704.762 1352.75 701.591 1349.13 Q698.442 1345.5 698.442 1339.13 Q698.442 1332.75 701.591 1329.13 Q704.762 1325.52 710.341 1325.52 Z" fill="#000000" fill-rule="evenodd" fill-opacity="1" /><path clip-path="url(#clip280)" d="M739.345 1329.13 Q735.919 1329.13 733.928 1331.82 Q731.938 1334.48 731.938 1339.13 Q731.938 1343.79 733.905 1346.47 Q735.896 1349.13 739.345 1349.13 Q742.748 1349.13 744.739 1346.45 Q746.729 1343.76 746.729 1339.13 Q746.729 1334.53 744.739 1331.84 Q742.748 1329.13 739.345 1329.13 M739.345 1325.52 Q744.901 1325.52 748.072 1329.13 Q751.243 1332.75 751.243 1339.13 Q751.243 1345.5 748.072 1349.13 Q744.901 1352.75 739.345 1352.75 Q733.766 1352.75 730.595 1349.13 Q727.447 1345.5 727.447 1339.13 Q727.447 1332.75 730.595 1329.13 Q733.766 1325.52 739.345 1325.52 Z" fill="#000000" fill-rule="evenodd" fill-opacity="1" /><path clip-path="url(#clip280)" d="M762.516 1318.79 L762.516 1326.15 L771.289 1326.15 L771.289 1329.46 L762.516 1329.46 L762.516 1343.53 Q762.516 1346.7 763.373 1347.61 Q764.252 1348.51 766.914 1348.51 L771.289 1348.51 L771.289 1352.07 L766.914 1352.07 Q761.984 1352.07 760.109 1350.25 Q758.234 1348.39 758.234 1343.53 L758.234 1329.46 L755.109 1329.46 L755.109 1326.15 L758.234 1326.15 L758.234 1318.79 L762.516 1318.79 Z" fill="#000000" fill-rule="evenodd" fill-opacity="1" /><path clip-path="url(#clip280)" d="M797.794 1318.65 L797.794 1323.21 Q795.132 1321.94 792.771 1321.31 Q790.41 1320.69 788.211 1320.69 Q784.391 1320.69 782.308 1322.17 Q780.248 1323.65 780.248 1326.38 Q780.248 1328.67 781.613 1329.85 Q783.002 1331.01 786.845 1331.73 L789.669 1332.31 Q794.9 1333.3 797.377 1335.82 Q799.877 1338.32 799.877 1342.54 Q799.877 1347.56 796.498 1350.15 Q793.141 1352.75 786.636 1352.75 Q784.183 1352.75 781.405 1352.19 Q778.65 1351.63 775.687 1350.55 L775.687 1345.73 Q778.535 1347.33 781.266 1348.14 Q783.998 1348.95 786.636 1348.95 Q790.641 1348.95 792.817 1347.38 Q794.993 1345.8 794.993 1342.88 Q794.993 1340.34 793.419 1338.9 Q791.868 1337.47 788.303 1336.75 L785.456 1336.19 Q780.224 1335.15 777.886 1332.93 Q775.549 1330.71 775.549 1326.75 Q775.549 1322.17 778.766 1319.53 Q782.007 1316.89 787.678 1316.89 Q790.109 1316.89 792.632 1317.33 Q795.155 1317.77 797.794 1318.65 Z" fill="#000000" fill-rule="evenodd" fill-opacity="1" /><path clip-path="url(#clip280)" d="M811.197 1318.79 L811.197 1326.15 L819.97 1326.15 L819.97 1329.46 L811.197 1329.46 L811.197 1343.53 Q811.197 1346.7 812.053 1347.61 Q812.933 1348.51 815.595 1348.51 L819.97 1348.51 L819.97 1352.07 L815.595 1352.07 Q810.664 1352.07 808.789 1350.25 Q806.914 1348.39 806.914 1343.53 L806.914 1329.46 L803.789 1329.46 L803.789 1326.15 L806.914 1326.15 L806.914 1318.79 L811.197 1318.79 Z" fill="#000000" fill-rule="evenodd" fill-opacity="1" /><path clip-path="url(#clip280)" d="M840.594 1330.13 Q839.877 1329.71 839.02 1329.53 Q838.187 1329.32 837.169 1329.32 Q833.557 1329.32 831.613 1331.68 Q829.692 1334.02 829.692 1338.42 L829.692 1352.07 L825.409 1352.07 L825.409 1326.15 L829.692 1326.15 L829.692 1330.18 Q831.034 1327.82 833.187 1326.68 Q835.34 1325.52 838.419 1325.52 Q838.858 1325.52 839.391 1325.59 Q839.923 1325.64 840.571 1325.76 L840.594 1330.13 Z" fill="#000000" fill-rule="evenodd" fill-opacity="1" /><path clip-path="url(#clip280)" d="M856.844 1339.04 Q851.682 1339.04 849.692 1340.22 Q847.701 1341.4 847.701 1344.25 Q847.701 1346.52 849.182 1347.86 Q850.687 1349.18 853.256 1349.18 Q856.798 1349.18 858.928 1346.68 Q861.08 1344.16 861.08 1339.99 L861.08 1339.04 L856.844 1339.04 M865.34 1337.28 L865.34 1352.07 L861.08 1352.07 L861.08 1348.14 Q859.622 1350.5 857.446 1351.63 Q855.27 1352.75 852.122 1352.75 Q848.141 1352.75 845.78 1350.52 Q843.442 1348.28 843.442 1344.53 Q843.442 1340.15 846.358 1337.93 Q849.298 1335.71 855.108 1335.71 L861.08 1335.71 L861.08 1335.29 Q861.08 1332.35 859.136 1330.76 Q857.215 1329.13 853.719 1329.13 Q851.497 1329.13 849.391 1329.67 Q847.284 1330.2 845.34 1331.26 L845.34 1327.33 Q847.678 1326.43 849.877 1325.99 Q852.076 1325.52 854.159 1325.52 Q859.784 1325.52 862.562 1328.44 Q865.34 1331.36 865.34 1337.28 Z" fill="#000000" fill-rule="evenodd" fill-opacity="1" /><path clip-path="url(#clip280)" d="M878.233 1348.19 L878.233 1361.94 L873.951 1361.94 L873.951 1326.15 L878.233 1326.15 L878.233 1330.08 Q879.576 1327.77 881.613 1326.66 Q883.673 1325.52 886.52 1325.52 Q891.242 1325.52 894.182 1329.27 Q897.145 1333.02 897.145 1339.13 Q897.145 1345.25 894.182 1349 Q891.242 1352.75 886.52 1352.75 Q883.673 1352.75 881.613 1351.63 Q879.576 1350.5 878.233 1348.19 M892.724 1339.13 Q892.724 1334.44 890.779 1331.77 Q888.858 1329.09 885.479 1329.09 Q882.099 1329.09 880.154 1331.77 Q878.233 1334.44 878.233 1339.13 Q878.233 1343.83 880.154 1346.52 Q882.099 1349.18 885.479 1349.18 Q888.858 1349.18 890.779 1346.52 Q892.724 1343.83 892.724 1339.13 Z" fill="#000000" fill-rule="evenodd" fill-opacity="1" /><path clip-path="url(#clip280)" d="M929.506 1316.1 Q926.404 1321.43 924.9 1326.63 Q923.395 1331.84 923.395 1337.19 Q923.395 1342.54 924.9 1347.79 Q926.427 1353.02 929.506 1358.32 L925.802 1358.32 Q922.33 1352.88 920.594 1347.63 Q918.881 1342.38 918.881 1337.19 Q918.881 1332.03 920.594 1326.8 Q922.307 1321.57 925.802 1316.1 L929.506 1316.1 Z" fill="#000000" fill-rule="evenodd" fill-opacity="1" /><path clip-path="url(#clip280)" d="M939.182 1348.14 L946.821 1348.14 L946.821 1321.77 L938.511 1323.44 L938.511 1319.18 L946.774 1317.51 L951.45 1317.51 L951.45 1348.14 L959.089 1348.14 L959.089 1352.07 L939.182 1352.07 L939.182 1348.14 Z" fill="#000000" fill-rule="evenodd" fill-opacity="1" /><path clip-path="url(#clip280)" d="M978.534 1320.59 Q974.922 1320.59 973.094 1324.16 Q971.288 1327.7 971.288 1334.83 Q971.288 1341.94 973.094 1345.5 Q974.922 1349.04 978.534 1349.04 Q982.168 1349.04 983.973 1345.5 Q985.802 1341.94 985.802 1334.83 Q985.802 1327.7 983.973 1324.16 Q982.168 1320.59 978.534 1320.59 M978.534 1316.89 Q984.344 1316.89 987.399 1321.5 Q990.478 1326.08 990.478 1334.83 Q990.478 1343.56 987.399 1348.16 Q984.344 1352.75 978.534 1352.75 Q972.723 1352.75 969.645 1348.16 Q966.589 1343.56 966.589 1334.83 Q966.589 1326.08 969.645 1321.5 Q972.723 1316.89 978.534 1316.89 Z" fill="#000000" fill-rule="evenodd" fill-opacity="1" /><path clip-path="url(#clip280)" d="M1008.7 1320.59 Q1005.08 1320.59 1003.26 1324.16 Q1001.45 1327.7 1001.45 1334.83 Q1001.45 1341.94 1003.26 1345.5 Q1005.08 1349.04 1008.7 1349.04 Q1012.33 1349.04 1014.14 1345.5 Q1015.96 1341.94 1015.96 1334.83 Q1015.96 1327.7 1014.14 1324.16 Q1012.33 1320.59 1008.7 1320.59 M1008.7 1316.89 Q1014.51 1316.89 1017.56 1321.5 Q1020.64 1326.08 1020.64 1334.83 Q1020.64 1343.56 1017.56 1348.16 Q1014.51 1352.75 1008.7 1352.75 Q1002.89 1352.75 999.807 1348.16 Q996.751 1343.56 996.751 1334.83 Q996.751 1326.08 999.807 1321.5 Q1002.89 1316.89 1008.7 1316.89 Z" fill="#000000" fill-rule="evenodd" fill-opacity="1" /><path clip-path="url(#clip280)" d="M1038.86 1320.59 Q1035.25 1320.59 1033.42 1324.16 Q1031.61 1327.7 1031.61 1334.83 Q1031.61 1341.94 1033.42 1345.5 Q1035.25 1349.04 1038.86 1349.04 Q1042.49 1349.04 1044.3 1345.5 Q1046.13 1341.94 1046.13 1334.83 Q1046.13 1327.7 1044.3 1324.16 Q1042.49 1320.59 1038.86 1320.59 M1038.86 1316.89 Q1044.67 1316.89 1047.72 1321.5 Q1050.8 1326.08 1050.8 1334.83 Q1050.8 1343.56 1047.72 1348.16 Q1044.67 1352.75 1038.86 1352.75 Q1033.05 1352.75 1029.97 1348.16 Q1026.91 1343.56 1026.91 1334.83 Q1026.91 1326.08 1029.97 1321.5 Q1033.05 1316.89 1038.86 1316.89 Z" fill="#000000" fill-rule="evenodd" fill-opacity="1" /><path clip-path="url(#clip280)" d="M1069.02 1320.59 Q1065.41 1320.59 1063.58 1324.16 Q1061.77 1327.7 1061.77 1334.83 Q1061.77 1341.94 1063.58 1345.5 Q1065.41 1349.04 1069.02 1349.04 Q1072.65 1349.04 1074.46 1345.5 Q1076.29 1341.94 1076.29 1334.83 Q1076.29 1327.7 1074.46 1324.16 Q1072.65 1320.59 1069.02 1320.59 M1069.02 1316.89 Q1074.83 1316.89 1077.88 1321.5 Q1080.96 1326.08 1080.96 1334.83 Q1080.96 1343.56 1077.88 1348.16 Q1074.83 1352.75 1069.02 1352.75 Q1063.21 1352.75 1060.13 1348.16 Q1057.07 1343.56 1057.07 1334.83 Q1057.07 1326.08 1060.13 1321.5 Q1063.21 1316.89 1069.02 1316.89 Z" fill="#000000" fill-rule="evenodd" fill-opacity="1" /><path clip-path="url(#clip280)" d="M1087.91 1316.1 L1091.61 1316.1 Q1095.08 1321.57 1096.8 1326.8 Q1098.53 1332.03 1098.53 1337.19 Q1098.53 1342.38 1096.8 1347.63 Q1095.08 1352.88 1091.61 1358.32 L1087.91 1358.32 Q1090.99 1353.02 1092.49 1347.79 Q1094.02 1342.54 1094.02 1337.19 Q1094.02 1331.84 1092.49 1326.63 Q1090.99 1321.43 1087.91 1316.1 Z" fill="#000000" fill-rule="evenodd" fill-opacity="1" /><polyline clip-path="url(#clip280)" style="stroke:#3da44d; stroke-linecap:butt; stroke-linejoin:round; stroke-width:4; stroke-opacity:1; fill:none" points="
  318.086,1386.63 460.039,1386.63 
  "/>
<path clip-path="url(#clip280)" d="M488.374 1373.2 L488.374 1386.18 L494.254 1386.18 Q497.518 1386.18 499.3 1384.49 Q501.082 1382.8 501.082 1379.68 Q501.082 1376.58 499.3 1374.89 Q497.518 1373.2 494.254 1373.2 L488.374 1373.2 M483.698 1369.35 L494.254 1369.35 Q500.064 1369.35 503.027 1371.99 Q506.013 1374.61 506.013 1379.68 Q506.013 1384.79 503.027 1387.41 Q500.064 1390.03 494.254 1390.03 L488.374 1390.03 L488.374 1403.91 L483.698 1403.91 L483.698 1369.35 Z" fill="#000000" fill-rule="evenodd" fill-opacity="1" /><path clip-path="url(#clip280)" d="M526.291 1381.97 Q525.573 1381.55 524.717 1381.37 Q523.883 1381.16 522.865 1381.16 Q519.254 1381.16 517.309 1383.52 Q515.388 1385.86 515.388 1390.26 L515.388 1403.91 L511.106 1403.91 L511.106 1377.99 L515.388 1377.99 L515.388 1382.02 Q516.73 1379.66 518.883 1378.52 Q521.036 1377.36 524.115 1377.36 Q524.555 1377.36 525.087 1377.43 Q525.619 1377.48 526.267 1377.6 L526.291 1381.97 Z" fill="#000000" fill-rule="evenodd" fill-opacity="1" /><path clip-path="url(#clip280)" d="M551.892 1389.89 L551.892 1391.97 L532.309 1391.97 Q532.587 1396.37 534.948 1398.68 Q537.332 1400.97 541.568 1400.97 Q544.022 1400.97 546.314 1400.37 Q548.628 1399.77 550.897 1398.57 L550.897 1402.59 Q548.605 1403.57 546.198 1404.08 Q543.791 1404.59 541.314 1404.59 Q535.11 1404.59 531.476 1400.97 Q527.865 1397.36 527.865 1391.21 Q527.865 1384.84 531.291 1381.11 Q534.74 1377.36 540.573 1377.36 Q545.804 1377.36 548.837 1380.74 Q551.892 1384.1 551.892 1389.89 M547.633 1388.64 Q547.587 1385.14 545.666 1383.06 Q543.767 1380.97 540.619 1380.97 Q537.054 1380.97 534.902 1382.99 Q532.772 1385 532.448 1388.66 L547.633 1388.64 Z" fill="#000000" fill-rule="evenodd" fill-opacity="1" /><path clip-path="url(#clip280)" d="M575.943 1381.92 L575.943 1367.9 L580.202 1367.9 L580.202 1403.91 L575.943 1403.91 L575.943 1400.03 Q574.601 1402.34 572.54 1403.47 Q570.503 1404.59 567.633 1404.59 Q562.934 1404.59 559.971 1400.84 Q557.031 1397.09 557.031 1390.97 Q557.031 1384.86 559.971 1381.11 Q562.934 1377.36 567.633 1377.36 Q570.503 1377.36 572.54 1378.5 Q574.601 1379.61 575.943 1381.92 M561.429 1390.97 Q561.429 1395.67 563.351 1398.36 Q565.295 1401.02 568.675 1401.02 Q572.054 1401.02 573.999 1398.36 Q575.943 1395.67 575.943 1390.97 Q575.943 1386.28 573.999 1383.61 Q572.054 1380.93 568.675 1380.93 Q565.295 1380.93 563.351 1383.61 Q561.429 1386.28 561.429 1390.97 Z" fill="#000000" fill-rule="evenodd" fill-opacity="1" /><path clip-path="url(#clip280)" d="M588.975 1377.99 L593.235 1377.99 L593.235 1403.91 L588.975 1403.91 L588.975 1377.99 M588.975 1367.9 L593.235 1367.9 L593.235 1373.29 L588.975 1373.29 L588.975 1367.9 Z" fill="#000000" fill-rule="evenodd" fill-opacity="1" /><path clip-path="url(#clip280)" d="M620.804 1378.98 L620.804 1382.97 Q618.998 1381.97 617.17 1381.48 Q615.364 1380.97 613.512 1380.97 Q609.369 1380.97 607.077 1383.61 Q604.786 1386.23 604.786 1390.97 Q604.786 1395.72 607.077 1398.36 Q609.369 1400.97 613.512 1400.97 Q615.364 1400.97 617.17 1400.49 Q618.998 1399.98 620.804 1398.98 L620.804 1402.92 Q619.022 1403.75 617.1 1404.17 Q615.202 1404.59 613.049 1404.59 Q607.193 1404.59 603.744 1400.91 Q600.295 1397.22 600.295 1390.97 Q600.295 1384.63 603.767 1381 Q607.262 1377.36 613.327 1377.36 Q615.295 1377.36 617.17 1377.78 Q619.045 1378.17 620.804 1378.98 Z" fill="#000000" fill-rule="evenodd" fill-opacity="1" /><path clip-path="url(#clip280)" d="M632.424 1370.63 L632.424 1377.99 L641.197 1377.99 L641.197 1381.3 L632.424 1381.3 L632.424 1395.37 Q632.424 1398.54 633.281 1399.45 Q634.16 1400.35 636.822 1400.35 L641.197 1400.35 L641.197 1403.91 L636.822 1403.91 Q631.892 1403.91 630.017 1402.09 Q628.142 1400.23 628.142 1395.37 L628.142 1381.3 L625.017 1381.3 L625.017 1377.99 L628.142 1377.99 L628.142 1370.63 L632.424 1370.63 Z" fill="#000000" fill-rule="evenodd" fill-opacity="1" /><path clip-path="url(#clip280)" d="M668.975 1389.89 L668.975 1391.97 L649.392 1391.97 Q649.67 1396.37 652.031 1398.68 Q654.415 1400.97 658.651 1400.97 Q661.105 1400.97 663.396 1400.37 Q665.711 1399.77 667.98 1398.57 L667.98 1402.59 Q665.688 1403.57 663.281 1404.08 Q660.873 1404.59 658.396 1404.59 Q652.193 1404.59 648.558 1400.97 Q644.947 1397.36 644.947 1391.21 Q644.947 1384.84 648.373 1381.11 Q651.822 1377.36 657.656 1377.36 Q662.887 1377.36 665.92 1380.74 Q668.975 1384.1 668.975 1389.89 M664.716 1388.64 Q664.67 1385.14 662.748 1383.06 Q660.85 1380.97 657.702 1380.97 Q654.137 1380.97 651.984 1382.99 Q649.855 1385 649.531 1388.66 L664.716 1388.64 Z" fill="#000000" fill-rule="evenodd" fill-opacity="1" /><path clip-path="url(#clip280)" d="M693.026 1381.92 L693.026 1367.9 L697.285 1367.9 L697.285 1403.91 L693.026 1403.91 L693.026 1400.03 Q691.683 1402.34 689.623 1403.47 Q687.586 1404.59 684.716 1404.59 Q680.017 1404.59 677.054 1400.84 Q674.114 1397.09 674.114 1390.97 Q674.114 1384.86 677.054 1381.11 Q680.017 1377.36 684.716 1377.36 Q687.586 1377.36 689.623 1378.5 Q691.683 1379.61 693.026 1381.92 M678.512 1390.97 Q678.512 1395.67 680.433 1398.36 Q682.378 1401.02 685.757 1401.02 Q689.137 1401.02 691.081 1398.36 Q693.026 1395.67 693.026 1390.97 Q693.026 1386.28 691.081 1383.61 Q689.137 1380.93 685.757 1380.93 Q682.378 1380.93 680.433 1383.61 Q678.512 1386.28 678.512 1390.97 Z" fill="#000000" fill-rule="evenodd" fill-opacity="1" /><path clip-path="url(#clip280)" d="M737.702 1387.71 Q739.206 1388.22 740.618 1389.89 Q742.053 1391.55 743.489 1394.47 L748.234 1403.91 L743.211 1403.91 L738.789 1395.05 Q737.077 1391.58 735.456 1390.44 Q733.859 1389.31 731.081 1389.31 L725.989 1389.31 L725.989 1403.91 L721.313 1403.91 L721.313 1369.35 L731.868 1369.35 Q737.794 1369.35 740.711 1371.83 Q743.627 1374.31 743.627 1379.31 Q743.627 1382.57 742.1 1384.72 Q740.595 1386.88 737.702 1387.71 M725.989 1373.2 L725.989 1385.47 L731.868 1385.47 Q735.248 1385.47 736.961 1383.91 Q738.697 1382.34 738.697 1379.31 Q738.697 1376.28 736.961 1374.75 Q735.248 1373.2 731.868 1373.2 L725.989 1373.2 Z" fill="#000000" fill-rule="evenodd" fill-opacity="1" /><path clip-path="url(#clip280)" d="M774.113 1389.89 L774.113 1391.97 L754.53 1391.97 Q754.808 1396.37 757.169 1398.68 Q759.553 1400.97 763.789 1400.97 Q766.243 1400.97 768.535 1400.37 Q770.85 1399.77 773.118 1398.57 L773.118 1402.59 Q770.826 1403.57 768.419 1404.08 Q766.012 1404.59 763.535 1404.59 Q757.331 1404.59 753.697 1400.97 Q750.086 1397.36 750.086 1391.21 Q750.086 1384.84 753.512 1381.11 Q756.961 1377.36 762.794 1377.36 Q768.025 1377.36 771.058 1380.74 Q774.113 1384.1 774.113 1389.89 M769.854 1388.64 Q769.808 1385.14 767.887 1383.06 Q765.988 1380.97 762.84 1380.97 Q759.275 1380.97 757.123 1382.99 Q754.993 1385 754.669 1388.66 L769.854 1388.64 Z" fill="#000000" fill-rule="evenodd" fill-opacity="1" /><path clip-path="url(#clip280)" d="M797.632 1378.75 L797.632 1382.78 Q795.826 1381.85 793.882 1381.39 Q791.937 1380.93 789.854 1380.93 Q786.683 1380.93 785.086 1381.9 Q783.511 1382.87 783.511 1384.82 Q783.511 1386.3 784.646 1387.16 Q785.78 1387.99 789.206 1388.75 L790.664 1389.08 Q795.201 1390.05 797.099 1391.83 Q799.021 1393.59 799.021 1396.76 Q799.021 1400.37 796.15 1402.48 Q793.303 1404.59 788.303 1404.59 Q786.22 1404.59 783.951 1404.17 Q781.706 1403.78 779.206 1402.97 L779.206 1398.57 Q781.567 1399.79 783.859 1400.42 Q786.15 1401.02 788.396 1401.02 Q791.405 1401.02 793.025 1400 Q794.646 1398.96 794.646 1397.09 Q794.646 1395.35 793.465 1394.42 Q792.308 1393.5 788.349 1392.64 L786.868 1392.29 Q782.91 1391.46 781.15 1389.75 Q779.391 1388.01 779.391 1385 Q779.391 1381.35 781.984 1379.35 Q784.576 1377.36 789.345 1377.36 Q791.706 1377.36 793.789 1377.71 Q795.873 1378.06 797.632 1378.75 Z" fill="#000000" fill-rule="evenodd" fill-opacity="1" /><path clip-path="url(#clip280)" d="M809.923 1400.03 L809.923 1413.78 L805.641 1413.78 L805.641 1377.99 L809.923 1377.99 L809.923 1381.92 Q811.266 1379.61 813.303 1378.5 Q815.363 1377.36 818.21 1377.36 Q822.933 1377.36 825.872 1381.11 Q828.835 1384.86 828.835 1390.97 Q828.835 1397.09 825.872 1400.84 Q822.933 1404.59 818.21 1404.59 Q815.363 1404.59 813.303 1403.47 Q811.266 1402.34 809.923 1400.03 M824.414 1390.97 Q824.414 1386.28 822.47 1383.61 Q820.548 1380.93 817.169 1380.93 Q813.789 1380.93 811.845 1383.61 Q809.923 1386.28 809.923 1390.97 Q809.923 1395.67 811.845 1398.36 Q813.789 1401.02 817.169 1401.02 Q820.548 1401.02 822.47 1398.36 Q824.414 1395.67 824.414 1390.97 Z" fill="#000000" fill-rule="evenodd" fill-opacity="1" /><path clip-path="url(#clip280)" d="M845.942 1380.97 Q842.516 1380.97 840.525 1383.66 Q838.534 1386.32 838.534 1390.97 Q838.534 1395.63 840.502 1398.31 Q842.493 1400.97 845.942 1400.97 Q849.344 1400.97 851.335 1398.29 Q853.326 1395.6 853.326 1390.97 Q853.326 1386.37 851.335 1383.68 Q849.344 1380.97 845.942 1380.97 M845.942 1377.36 Q851.497 1377.36 854.668 1380.97 Q857.84 1384.59 857.84 1390.97 Q857.84 1397.34 854.668 1400.97 Q851.497 1404.59 845.942 1404.59 Q840.363 1404.59 837.192 1400.97 Q834.044 1397.34 834.044 1390.97 Q834.044 1384.59 837.192 1380.97 Q840.363 1377.36 845.942 1377.36 Z" fill="#000000" fill-rule="evenodd" fill-opacity="1" /><path clip-path="url(#clip280)" d="M886.451 1388.27 L886.451 1403.91 L882.191 1403.91 L882.191 1388.41 Q882.191 1384.72 880.756 1382.9 Q879.321 1381.07 876.451 1381.07 Q873.002 1381.07 871.011 1383.27 Q869.02 1385.47 869.02 1389.26 L869.02 1403.91 L864.738 1403.91 L864.738 1377.99 L869.02 1377.99 L869.02 1382.02 Q870.548 1379.68 872.608 1378.52 Q874.692 1377.36 877.4 1377.36 Q881.867 1377.36 884.159 1380.14 Q886.451 1382.9 886.451 1388.27 Z" fill="#000000" fill-rule="evenodd" fill-opacity="1" /><path clip-path="url(#clip280)" d="M911.474 1378.75 L911.474 1382.78 Q909.668 1381.85 907.724 1381.39 Q905.779 1380.93 903.696 1380.93 Q900.525 1380.93 898.928 1381.9 Q897.353 1382.87 897.353 1384.82 Q897.353 1386.3 898.488 1387.16 Q899.622 1387.99 903.048 1388.75 L904.506 1389.08 Q909.043 1390.05 910.941 1391.83 Q912.863 1393.59 912.863 1396.76 Q912.863 1400.37 909.992 1402.48 Q907.145 1404.59 902.145 1404.59 Q900.062 1404.59 897.793 1404.17 Q895.548 1403.78 893.048 1402.97 L893.048 1398.57 Q895.409 1399.79 897.701 1400.42 Q899.992 1401.02 902.238 1401.02 Q905.247 1401.02 906.867 1400 Q908.488 1398.96 908.488 1397.09 Q908.488 1395.35 907.307 1394.42 Q906.15 1393.5 902.191 1392.64 L900.71 1392.29 Q896.752 1391.46 894.992 1389.75 Q893.233 1388.01 893.233 1385 Q893.233 1381.35 895.826 1379.35 Q898.418 1377.36 903.187 1377.36 Q905.548 1377.36 907.631 1377.71 Q909.714 1378.06 911.474 1378.75 Z" fill="#000000" fill-rule="evenodd" fill-opacity="1" /><path clip-path="url(#clip280)" d="M941.821 1389.89 L941.821 1391.97 L922.238 1391.97 Q922.515 1396.37 924.876 1398.68 Q927.261 1400.97 931.497 1400.97 Q933.95 1400.97 936.242 1400.37 Q938.557 1399.77 940.825 1398.57 L940.825 1402.59 Q938.534 1403.57 936.126 1404.08 Q933.719 1404.59 931.242 1404.59 Q925.038 1404.59 921.404 1400.97 Q917.793 1397.36 917.793 1391.21 Q917.793 1384.84 921.219 1381.11 Q924.668 1377.36 930.501 1377.36 Q935.733 1377.36 938.765 1380.74 Q941.821 1384.1 941.821 1389.89 M937.562 1388.64 Q937.515 1385.14 935.594 1383.06 Q933.696 1380.97 930.548 1380.97 Q926.983 1380.97 924.83 1382.99 Q922.701 1385 922.376 1388.66 L937.562 1388.64 Z" fill="#000000" fill-rule="evenodd" fill-opacity="1" /></svg>
