<?xml version="1.0" encoding="utf-8"?>
<svg xmlns="http://www.w3.org/2000/svg" xmlns:xlink="http://www.w3.org/1999/xlink" width="600" height="400" viewBox="0 0 2400 1600">
<defs>
  <clipPath id="clip950">
    <rect x="0" y="0" width="2400" height="1600"/>
  </clipPath>
</defs>
<path clip-path="url(#clip950)" d="
M0 1600 L2400 1600 L2400 0 L0 0  Z
  " fill="#ffffff" fill-rule="evenodd" fill-opacity="1"/>
<defs>
  <clipPath id="clip951">
    <rect x="480" y="0" width="1681" height="1600"/>
  </clipPath>
</defs>
<path clip-path="url(#clip950)" d="
M309.866 1423.18 L2352.76 1423.18 L2352.76 123.472 L309.866 123.472  Z
  " fill="#ffffff" fill-rule="evenodd" fill-opacity="1"/>
<defs>
  <clipPath id="clip952">
    <rect x="309" y="123" width="2044" height="1301"/>
  </clipPath>
</defs>
<polyline clip-path="url(#clip952)" style="stroke:#000000; stroke-linecap:butt; stroke-linejoin:round; stroke-width:2; stroke-opacity:0.1; fill:none" points="
  474.753,1423.18 474.753,123.472 
  "/>
<polyline clip-path="url(#clip952)" style="stroke:#000000; stroke-linecap:butt; stroke-linejoin:round; stroke-width:2; stroke-opacity:0.1; fill:none" points="
  1010.1,1423.18 1010.1,123.472 
  "/>
<polyline clip-path="url(#clip952)" style="stroke:#000000; stroke-linecap:butt; stroke-linejoin:round; stroke-width:2; stroke-opacity:0.1; fill:none" points="
  1545.45,1423.18 1545.45,123.472 
  "/>
<polyline clip-path="url(#clip952)" style="stroke:#000000; stroke-linecap:butt; stroke-linejoin:round; stroke-width:2; stroke-opacity:0.1; fill:none" points="
  2080.8,1423.18 2080.8,123.472 
  "/>
<polyline clip-path="url(#clip950)" style="stroke:#000000; stroke-linecap:butt; stroke-linejoin:round; stroke-width:4; stroke-opacity:1; fill:none" points="
  309.866,1423.18 2352.76,1423.18 
  "/>
<polyline clip-path="url(#clip950)" style="stroke:#000000; stroke-linecap:butt; stroke-linejoin:round; stroke-width:4; stroke-opacity:1; fill:none" points="
  474.753,1423.18 474.753,1404.28 
  "/>
<polyline clip-path="url(#clip950)" style="stroke:#000000; stroke-linecap:butt; stroke-linejoin:round; stroke-width:4; stroke-opacity:1; fill:none" points="
  1010.1,1423.18 1010.1,1404.28 
  "/>
<polyline clip-path="url(#clip950)" style="stroke:#000000; stroke-linecap:butt; stroke-linejoin:round; stroke-width:4; stroke-opacity:1; fill:none" points="
  1545.45,1423.18 1545.45,1404.28 
  "/>
<polyline clip-path="url(#clip950)" style="stroke:#000000; stroke-linecap:butt; stroke-linejoin:round; stroke-width:4; stroke-opacity:1; fill:none" points="
  2080.8,1423.18 2080.8,1404.28 
  "/>
<path clip-path="url(#clip950)" d="M474.753 1454.1 Q471.142 1454.1 469.313 1457.66 Q467.508 1461.2 467.508 1468.33 Q467.508 1475.44 469.313 1479.01 Q471.142 1482.55 474.753 1482.55 Q478.387 1482.55 480.193 1479.01 Q482.022 1475.44 482.022 1468.33 Q482.022 1461.2 480.193 1457.66 Q478.387 1454.1 474.753 1454.1 M474.753 1450.39 Q480.563 1450.39 483.619 1455 Q486.698 1459.58 486.698 1468.33 Q486.698 1477.06 483.619 1481.67 Q480.563 1486.25 474.753 1486.25 Q468.943 1486.25 465.864 1481.67 Q462.809 1477.06 462.809 1468.33 Q462.809 1459.58 465.864 1455 Q468.943 1450.39 474.753 1450.39 Z" fill="#000000" fill-rule="evenodd" fill-opacity="1" /><path clip-path="url(#clip950)" d="M984.789 1481.64 L992.428 1481.64 L992.428 1455.28 L984.118 1456.95 L984.118 1452.69 L992.382 1451.02 L997.058 1451.02 L997.058 1481.64 L1004.7 1481.64 L1004.7 1485.58 L984.789 1485.58 L984.789 1481.64 Z" fill="#000000" fill-rule="evenodd" fill-opacity="1" /><path clip-path="url(#clip950)" d="M1024.14 1454.1 Q1020.53 1454.1 1018.7 1457.66 Q1016.9 1461.2 1016.9 1468.33 Q1016.9 1475.44 1018.7 1479.01 Q1020.53 1482.55 1024.14 1482.55 Q1027.78 1482.55 1029.58 1479.01 Q1031.41 1475.44 1031.41 1468.33 Q1031.41 1461.2 1029.58 1457.66 Q1027.78 1454.1 1024.14 1454.1 M1024.14 1450.39 Q1029.95 1450.39 1033.01 1455 Q1036.09 1459.58 1036.09 1468.33 Q1036.09 1477.06 1033.01 1481.67 Q1029.95 1486.25 1024.14 1486.25 Q1018.33 1486.25 1015.25 1481.67 Q1012.2 1477.06 1012.2 1468.33 Q1012.2 1459.58 1015.25 1455 Q1018.33 1450.39 1024.14 1450.39 Z" fill="#000000" fill-rule="evenodd" fill-opacity="1" /><path clip-path="url(#clip950)" d="M1524.22 1481.64 L1540.54 1481.64 L1540.54 1485.58 L1518.6 1485.58 L1518.6 1481.64 Q1521.26 1478.89 1525.84 1474.26 Q1530.45 1469.61 1531.63 1468.27 Q1533.88 1465.74 1534.76 1464.01 Q1535.66 1462.25 1535.66 1460.56 Q1535.66 1457.8 1533.71 1456.07 Q1531.79 1454.33 1528.69 1454.33 Q1526.49 1454.33 1524.04 1455.09 Q1521.61 1455.86 1518.83 1457.41 L1518.83 1452.69 Q1521.65 1451.55 1524.11 1450.97 Q1526.56 1450.39 1528.6 1450.39 Q1533.97 1450.39 1537.16 1453.08 Q1540.36 1455.77 1540.36 1460.26 Q1540.36 1462.39 1539.55 1464.31 Q1538.76 1466.2 1536.65 1468.8 Q1536.08 1469.47 1532.97 1472.69 Q1529.87 1475.88 1524.22 1481.64 Z" fill="#000000" fill-rule="evenodd" fill-opacity="1" /><path clip-path="url(#clip950)" d="M1560.36 1454.1 Q1556.75 1454.1 1554.92 1457.66 Q1553.11 1461.2 1553.11 1468.33 Q1553.11 1475.44 1554.92 1479.01 Q1556.75 1482.55 1560.36 1482.55 Q1563.99 1482.55 1565.8 1479.01 Q1567.63 1475.44 1567.63 1468.33 Q1567.63 1461.2 1565.8 1457.66 Q1563.99 1454.1 1560.36 1454.1 M1560.36 1450.39 Q1566.17 1450.39 1569.22 1455 Q1572.3 1459.58 1572.3 1468.33 Q1572.3 1477.06 1569.22 1481.67 Q1566.17 1486.25 1560.36 1486.25 Q1554.55 1486.25 1551.47 1481.67 Q1548.41 1477.06 1548.41 1468.33 Q1548.41 1459.58 1551.47 1455 Q1554.55 1450.39 1560.36 1450.39 Z" fill="#000000" fill-rule="evenodd" fill-opacity="1" /><path clip-path="url(#clip950)" d="M2069.64 1466.95 Q2073 1467.66 2074.87 1469.93 Q2076.77 1472.2 2076.77 1475.53 Q2076.77 1480.65 2073.25 1483.45 Q2069.73 1486.25 2063.25 1486.25 Q2061.08 1486.25 2058.76 1485.81 Q2056.47 1485.39 2054.02 1484.54 L2054.02 1480.02 Q2055.96 1481.16 2058.28 1481.74 Q2060.59 1482.32 2063.11 1482.32 Q2067.51 1482.32 2069.8 1480.58 Q2072.12 1478.84 2072.12 1475.53 Q2072.12 1472.48 2069.97 1470.77 Q2067.84 1469.03 2064.02 1469.03 L2059.99 1469.03 L2059.99 1465.19 L2064.2 1465.19 Q2067.65 1465.19 2069.48 1463.82 Q2071.31 1462.43 2071.31 1459.84 Q2071.31 1457.18 2069.41 1455.77 Q2067.54 1454.33 2064.02 1454.33 Q2062.1 1454.33 2059.9 1454.75 Q2057.7 1455.16 2055.06 1456.04 L2055.06 1451.88 Q2057.72 1451.14 2060.04 1450.77 Q2062.37 1450.39 2064.43 1450.39 Q2069.76 1450.39 2072.86 1452.83 Q2075.96 1455.23 2075.96 1459.35 Q2075.96 1462.22 2074.32 1464.21 Q2072.67 1466.18 2069.64 1466.95 Z" fill="#000000" fill-rule="evenodd" fill-opacity="1" /><path clip-path="url(#clip950)" d="M2095.64 1454.1 Q2092.03 1454.1 2090.2 1457.66 Q2088.39 1461.2 2088.39 1468.33 Q2088.39 1475.44 2090.2 1479.01 Q2092.03 1482.55 2095.64 1482.55 Q2099.27 1482.55 2101.08 1479.01 Q2102.91 1475.44 2102.91 1468.33 Q2102.91 1461.2 2101.08 1457.66 Q2099.27 1454.1 2095.64 1454.1 M2095.64 1450.39 Q2101.45 1450.39 2104.5 1455 Q2107.58 1459.58 2107.58 1468.33 Q2107.58 1477.06 2104.5 1481.67 Q2101.45 1486.25 2095.64 1486.25 Q2089.83 1486.25 2086.75 1481.67 Q2083.69 1477.06 2083.69 1468.33 Q2083.69 1459.58 2086.75 1455 Q2089.83 1450.39 2095.64 1450.39 Z" fill="#000000" fill-rule="evenodd" fill-opacity="1" /><path clip-path="url(#clip950)" d="M1004.42 1526.86 L995.695 1550.51 L1013.17 1550.51 L1004.42 1526.86 M1000.79 1520.52 L1008.08 1520.52 L1026.19 1568.04 L1019.5 1568.04 L1015.17 1555.85 L993.753 1555.85 L989.425 1568.04 L982.645 1568.04 L1000.79 1520.52 Z" fill="#000000" fill-rule="evenodd" fill-opacity="1" /><path clip-path="url(#clip950)" d="M1024.85 1532.4 L1031.06 1532.4 L1042.2 1562.31 L1053.34 1532.4 L1059.54 1532.4 L1046.17 1568.04 L1038.22 1568.04 L1024.85 1532.4 Z" fill="#000000" fill-rule="evenodd" fill-opacity="1" /><path clip-path="url(#clip950)" d="M1098.12 1548.76 L1098.12 1551.62 L1071.19 1551.62 Q1071.57 1557.67 1074.82 1560.85 Q1078.1 1564 1083.92 1564 Q1087.3 1564 1090.45 1563.17 Q1093.63 1562.35 1096.75 1560.69 L1096.75 1566.23 Q1093.6 1567.57 1090.29 1568.27 Q1086.98 1568.97 1083.57 1568.97 Q1075.04 1568.97 1070.05 1564 Q1065.08 1559.04 1065.08 1550.57 Q1065.08 1541.82 1069.79 1536.69 Q1074.53 1531.54 1082.55 1531.54 Q1089.75 1531.54 1093.92 1536.18 Q1098.12 1540.8 1098.12 1548.76 M1092.26 1547.04 Q1092.2 1542.23 1089.56 1539.37 Q1086.95 1536.5 1082.62 1536.5 Q1077.72 1536.5 1074.76 1539.27 Q1071.83 1542.04 1071.38 1547.07 L1092.26 1547.04 Z" fill="#000000" fill-rule="evenodd" fill-opacity="1" /><path clip-path="url(#clip950)" d="M1128.39 1537.87 Q1127.4 1537.3 1126.22 1537.04 Q1125.08 1536.76 1123.68 1536.76 Q1118.71 1536.76 1116.04 1540 Q1113.4 1543.22 1113.4 1549.27 L1113.4 1568.04 L1107.51 1568.04 L1107.51 1532.4 L1113.4 1532.4 L1113.4 1537.93 Q1115.24 1534.69 1118.2 1533.13 Q1121.16 1531.54 1125.4 1531.54 Q1126 1531.54 1126.73 1531.63 Q1127.47 1531.7 1128.36 1531.85 L1128.39 1537.87 Z" fill="#000000" fill-rule="evenodd" fill-opacity="1" /><path clip-path="url(#clip950)" d="M1150.73 1550.12 Q1143.63 1550.12 1140.9 1551.75 Q1138.16 1553.37 1138.16 1557.29 Q1138.16 1560.4 1140.2 1562.25 Q1142.27 1564.07 1145.8 1564.07 Q1150.67 1564.07 1153.6 1560.63 Q1156.56 1557.16 1156.56 1551.43 L1156.56 1550.12 L1150.73 1550.12 M1162.41 1547.71 L1162.41 1568.04 L1156.56 1568.04 L1156.56 1562.63 Q1154.55 1565.88 1151.56 1567.44 Q1148.57 1568.97 1144.24 1568.97 Q1138.76 1568.97 1135.52 1565.91 Q1132.3 1562.82 1132.3 1557.67 Q1132.3 1551.65 1136.31 1548.6 Q1140.36 1545.54 1148.34 1545.54 L1156.56 1545.54 L1156.56 1544.97 Q1156.56 1540.93 1153.88 1538.73 Q1151.24 1536.5 1146.43 1536.5 Q1143.38 1536.5 1140.48 1537.23 Q1137.59 1537.97 1134.91 1539.43 L1134.91 1534.02 Q1138.13 1532.78 1141.15 1532.17 Q1144.17 1531.54 1147.04 1531.54 Q1154.77 1531.54 1158.59 1535.55 Q1162.41 1539.56 1162.41 1547.71 Z" fill="#000000" fill-rule="evenodd" fill-opacity="1" /><path clip-path="url(#clip950)" d="M1197.93 1549.81 Q1197.93 1543.44 1195.29 1539.94 Q1192.68 1536.44 1187.94 1536.44 Q1183.23 1536.44 1180.59 1539.94 Q1177.98 1543.44 1177.98 1549.81 Q1177.98 1556.14 1180.59 1559.64 Q1183.23 1563.14 1187.94 1563.14 Q1192.68 1563.14 1195.29 1559.64 Q1197.93 1556.14 1197.93 1549.81 M1203.79 1563.62 Q1203.79 1572.72 1199.75 1577.15 Q1195.71 1581.6 1187.37 1581.6 Q1184.28 1581.6 1181.54 1581.13 Q1178.8 1580.68 1176.23 1579.72 L1176.23 1574.03 Q1178.8 1575.43 1181.32 1576.1 Q1183.83 1576.76 1186.44 1576.76 Q1192.2 1576.76 1195.07 1573.74 Q1197.93 1570.75 1197.93 1564.67 L1197.93 1561.77 Q1196.12 1564.92 1193.29 1566.48 Q1190.45 1568.04 1186.51 1568.04 Q1179.95 1568.04 1175.94 1563.05 Q1171.93 1558.05 1171.93 1549.81 Q1171.93 1541.53 1175.94 1536.53 Q1179.95 1531.54 1186.51 1531.54 Q1190.45 1531.54 1193.29 1533.1 Q1196.12 1534.66 1197.93 1537.81 L1197.93 1532.4 L1203.79 1532.4 L1203.79 1563.62 Z" fill="#000000" fill-rule="evenodd" fill-opacity="1" /><path clip-path="url(#clip950)" d="M1246.34 1548.76 L1246.34 1551.62 L1219.42 1551.62 Q1219.8 1557.67 1223.05 1560.85 Q1226.32 1564 1232.15 1564 Q1235.52 1564 1238.67 1563.17 Q1241.86 1562.35 1244.98 1560.69 L1244.98 1566.23 Q1241.82 1567.57 1238.51 1568.27 Q1235.2 1568.97 1231.8 1568.97 Q1223.27 1568.97 1218.27 1564 Q1213.31 1559.04 1213.31 1550.57 Q1213.31 1541.82 1218.02 1536.69 Q1222.76 1531.54 1230.78 1531.54 Q1237.97 1531.54 1242.14 1536.18 Q1246.34 1540.8 1246.34 1548.76 M1240.49 1547.04 Q1240.42 1542.23 1237.78 1539.37 Q1235.17 1536.5 1230.84 1536.5 Q1225.94 1536.5 1222.98 1539.27 Q1220.05 1542.04 1219.61 1547.07 L1240.49 1547.04 Z" fill="#000000" fill-rule="evenodd" fill-opacity="1" /><path clip-path="url(#clip950)" d="M1270.34 1520.52 L1310.54 1520.52 L1310.54 1525.93 L1293.67 1525.93 L1293.67 1568.04 L1287.21 1568.04 L1287.21 1525.93 L1270.34 1525.93 L1270.34 1520.52 Z" fill="#000000" fill-rule="evenodd" fill-opacity="1" /><path clip-path="url(#clip950)" d="M1335.91 1548.76 L1335.91 1551.62 L1308.98 1551.62 Q1309.37 1557.67 1312.61 1560.85 Q1315.89 1564 1321.71 1564 Q1325.09 1564 1328.24 1563.17 Q1331.42 1562.35 1334.54 1560.69 L1334.54 1566.23 Q1331.39 1567.57 1328.08 1568.27 Q1324.77 1568.97 1321.36 1568.97 Q1312.83 1568.97 1307.84 1564 Q1302.87 1559.04 1302.87 1550.57 Q1302.87 1541.82 1307.58 1536.69 Q1312.33 1531.54 1320.35 1531.54 Q1327.54 1531.54 1331.71 1536.18 Q1335.91 1540.8 1335.91 1548.76 M1330.05 1547.04 Q1329.99 1542.23 1327.35 1539.37 Q1324.74 1536.5 1320.41 1536.5 Q1315.51 1536.5 1312.55 1539.27 Q1309.62 1542.04 1309.17 1547.07 L1330.05 1547.04 Z" fill="#000000" fill-rule="evenodd" fill-opacity="1" /><path clip-path="url(#clip950)" d="M1373.28 1539.24 Q1375.47 1535.29 1378.53 1533.41 Q1381.58 1531.54 1385.72 1531.54 Q1391.29 1531.54 1394.32 1535.45 Q1397.34 1539.33 1397.34 1546.53 L1397.34 1568.04 L1391.45 1568.04 L1391.45 1546.72 Q1391.45 1541.59 1389.64 1539.11 Q1387.82 1536.63 1384.1 1536.63 Q1379.55 1536.63 1376.91 1539.65 Q1374.26 1542.68 1374.26 1547.9 L1374.26 1568.04 L1368.38 1568.04 L1368.38 1546.72 Q1368.38 1541.56 1366.56 1539.11 Q1364.75 1536.63 1360.96 1536.63 Q1356.47 1536.63 1353.83 1539.68 Q1351.19 1542.71 1351.19 1547.9 L1351.19 1568.04 L1345.3 1568.04 L1345.3 1532.4 L1351.19 1532.4 L1351.19 1537.93 Q1353.19 1534.66 1355.99 1533.1 Q1358.79 1531.54 1362.65 1531.54 Q1366.53 1531.54 1369.23 1533.51 Q1371.97 1535.48 1373.28 1539.24 Z" fill="#000000" fill-rule="evenodd" fill-opacity="1" /><path clip-path="url(#clip950)" d="M1414.69 1562.7 L1414.69 1581.6 L1408.8 1581.6 L1408.8 1532.4 L1414.69 1532.4 L1414.69 1537.81 Q1416.53 1534.62 1419.33 1533.1 Q1422.17 1531.54 1426.08 1531.54 Q1432.57 1531.54 1436.62 1536.69 Q1440.69 1541.85 1440.69 1550.25 Q1440.69 1558.65 1436.62 1563.81 Q1432.57 1568.97 1426.08 1568.97 Q1422.17 1568.97 1419.33 1567.44 Q1416.53 1565.88 1414.69 1562.7 M1434.61 1550.25 Q1434.61 1543.79 1431.94 1540.13 Q1429.29 1536.44 1424.65 1536.44 Q1420 1536.44 1417.33 1540.13 Q1414.69 1543.79 1414.69 1550.25 Q1414.69 1556.71 1417.33 1560.4 Q1420 1564.07 1424.65 1564.07 Q1429.29 1564.07 1431.94 1560.4 Q1434.61 1556.71 1434.61 1550.25 Z" fill="#000000" fill-rule="evenodd" fill-opacity="1" /><path clip-path="url(#clip950)" d="M1480.89 1548.76 L1480.89 1551.62 L1453.96 1551.62 Q1454.34 1557.67 1457.59 1560.85 Q1460.87 1564 1466.69 1564 Q1470.07 1564 1473.22 1563.17 Q1476.4 1562.35 1479.52 1560.69 L1479.52 1566.23 Q1476.37 1567.57 1473.06 1568.27 Q1469.75 1568.97 1466.34 1568.97 Q1457.81 1568.97 1452.82 1564 Q1447.85 1559.04 1447.85 1550.57 Q1447.85 1541.82 1452.56 1536.69 Q1457.3 1531.54 1465.32 1531.54 Q1472.52 1531.54 1476.69 1536.18 Q1480.89 1540.8 1480.89 1548.76 M1475.03 1547.04 Q1474.97 1542.23 1472.33 1539.37 Q1469.72 1536.5 1465.39 1536.5 Q1460.49 1536.5 1457.53 1539.27 Q1454.6 1542.04 1454.15 1547.07 L1475.03 1547.04 Z" fill="#000000" fill-rule="evenodd" fill-opacity="1" /><path clip-path="url(#clip950)" d="M1511.16 1537.87 Q1510.17 1537.3 1508.99 1537.04 Q1507.85 1536.76 1506.45 1536.76 Q1501.48 1536.76 1498.81 1540 Q1496.17 1543.22 1496.17 1549.27 L1496.17 1568.04 L1490.28 1568.04 L1490.28 1532.4 L1496.17 1532.4 L1496.17 1537.93 Q1498.01 1534.69 1500.97 1533.13 Q1503.93 1531.54 1508.17 1531.54 Q1508.77 1531.54 1509.5 1531.63 Q1510.23 1531.7 1511.13 1531.85 L1511.16 1537.87 Z" fill="#000000" fill-rule="evenodd" fill-opacity="1" /><path clip-path="url(#clip950)" d="M1533.5 1550.12 Q1526.4 1550.12 1523.67 1551.75 Q1520.93 1553.37 1520.93 1557.29 Q1520.93 1560.4 1522.97 1562.25 Q1525.04 1564.07 1528.57 1564.07 Q1533.44 1564.07 1536.37 1560.63 Q1539.33 1557.16 1539.33 1551.43 L1539.33 1550.12 L1533.5 1550.12 M1545.18 1547.71 L1545.18 1568.04 L1539.33 1568.04 L1539.33 1562.63 Q1537.32 1565.88 1534.33 1567.44 Q1531.34 1568.97 1527.01 1568.97 Q1521.53 1568.97 1518.29 1565.91 Q1515.07 1562.82 1515.07 1557.67 Q1515.07 1551.65 1519.08 1548.6 Q1523.13 1545.54 1531.11 1545.54 L1539.33 1545.54 L1539.33 1544.97 Q1539.33 1540.93 1536.65 1538.73 Q1534.01 1536.5 1529.2 1536.5 Q1526.15 1536.5 1523.25 1537.23 Q1520.36 1537.97 1517.68 1539.43 L1517.68 1534.02 Q1520.9 1532.78 1523.92 1532.17 Q1526.94 1531.54 1529.81 1531.54 Q1537.54 1531.54 1541.36 1535.55 Q1545.18 1539.56 1545.18 1547.71 Z" fill="#000000" fill-rule="evenodd" fill-opacity="1" /><path clip-path="url(#clip950)" d="M1563.04 1522.27 L1563.04 1532.4 L1575.1 1532.4 L1575.1 1536.95 L1563.04 1536.95 L1563.04 1556.3 Q1563.04 1560.66 1564.22 1561.9 Q1565.43 1563.14 1569.09 1563.14 L1575.1 1563.14 L1575.1 1568.04 L1569.09 1568.04 Q1562.31 1568.04 1559.73 1565.53 Q1557.15 1562.98 1557.15 1556.3 L1557.15 1536.95 L1552.85 1536.95 L1552.85 1532.4 L1557.15 1532.4 L1557.15 1522.27 L1563.04 1522.27 Z" fill="#000000" fill-rule="evenodd" fill-opacity="1" /><path clip-path="url(#clip950)" d="M1582.2 1553.98 L1582.2 1532.4 L1588.06 1532.4 L1588.06 1553.75 Q1588.06 1558.81 1590.03 1561.36 Q1592 1563.87 1595.95 1563.87 Q1600.69 1563.87 1603.43 1560.85 Q1606.2 1557.83 1606.2 1552.61 L1606.2 1532.4 L1612.05 1532.4 L1612.05 1568.04 L1606.2 1568.04 L1606.2 1562.57 Q1604.07 1565.82 1601.23 1567.41 Q1598.43 1568.97 1594.71 1568.97 Q1588.56 1568.97 1585.38 1565.15 Q1582.2 1561.33 1582.2 1553.98 M1596.94 1531.54 L1596.94 1531.54 Z" fill="#000000" fill-rule="evenodd" fill-opacity="1" /><path clip-path="url(#clip950)" d="M1644.77 1537.87 Q1643.79 1537.3 1642.61 1537.04 Q1641.46 1536.76 1640.06 1536.76 Q1635.1 1536.76 1632.42 1540 Q1629.78 1543.22 1629.78 1549.27 L1629.78 1568.04 L1623.89 1568.04 L1623.89 1532.4 L1629.78 1532.4 L1629.78 1537.93 Q1631.63 1534.69 1634.59 1533.13 Q1637.55 1531.54 1641.78 1531.54 Q1642.39 1531.54 1643.12 1531.63 Q1643.85 1531.7 1644.74 1531.85 L1644.77 1537.87 Z" fill="#000000" fill-rule="evenodd" fill-opacity="1" /><path clip-path="url(#clip950)" d="M1679.98 1548.76 L1679.98 1551.62 L1653.05 1551.62 Q1653.43 1557.67 1656.68 1560.85 Q1659.96 1564 1665.78 1564 Q1669.15 1564 1672.31 1563.17 Q1675.49 1562.35 1678.61 1560.69 L1678.61 1566.23 Q1675.46 1567.57 1672.15 1568.27 Q1668.84 1568.97 1665.43 1568.97 Q1656.9 1568.97 1651.9 1564 Q1646.94 1559.04 1646.94 1550.57 Q1646.94 1541.82 1651.65 1536.69 Q1656.39 1531.54 1664.41 1531.54 Q1671.61 1531.54 1675.78 1536.18 Q1679.98 1540.8 1679.98 1548.76 M1674.12 1547.04 Q1674.06 1542.23 1671.41 1539.37 Q1668.8 1536.5 1664.48 1536.5 Q1659.57 1536.5 1656.61 1539.27 Q1653.69 1542.04 1653.24 1547.07 L1674.12 1547.04 Z" fill="#000000" fill-rule="evenodd" fill-opacity="1" /><polyline clip-path="url(#clip952)" style="stroke:#000000; stroke-linecap:butt; stroke-linejoin:round; stroke-width:2; stroke-opacity:0.1; fill:none" points="
  309.866,1197.38 2352.76,1197.38 
  "/>
<polyline clip-path="url(#clip952)" style="stroke:#000000; stroke-linecap:butt; stroke-linejoin:round; stroke-width:2; stroke-opacity:0.1; fill:none" points="
  309.866,907.076 2352.76,907.076 
  "/>
<polyline clip-path="url(#clip952)" style="stroke:#000000; stroke-linecap:butt; stroke-linejoin:round; stroke-width:2; stroke-opacity:0.1; fill:none" points="
  309.866,616.77 2352.76,616.77 
  "/>
<polyline clip-path="url(#clip952)" style="stroke:#000000; stroke-linecap:butt; stroke-linejoin:round; stroke-width:2; stroke-opacity:0.1; fill:none" points="
  309.866,326.463 2352.76,326.463 
  "/>
<polyline clip-path="url(#clip950)" style="stroke:#000000; stroke-linecap:butt; stroke-linejoin:round; stroke-width:4; stroke-opacity:1; fill:none" points="
  309.866,1423.18 309.866,123.472 
  "/>
<polyline clip-path="url(#clip950)" style="stroke:#000000; stroke-linecap:butt; stroke-linejoin:round; stroke-width:4; stroke-opacity:1; fill:none" points="
  309.866,1197.38 328.763,1197.38 
  "/>
<polyline clip-path="url(#clip950)" style="stroke:#000000; stroke-linecap:butt; stroke-linejoin:round; stroke-width:4; stroke-opacity:1; fill:none" points="
  309.866,907.076 328.763,907.076 
  "/>
<polyline clip-path="url(#clip950)" style="stroke:#000000; stroke-linecap:butt; stroke-linejoin:round; stroke-width:4; stroke-opacity:1; fill:none" points="
  309.866,616.77 328.763,616.77 
  "/>
<polyline clip-path="url(#clip950)" style="stroke:#000000; stroke-linecap:butt; stroke-linejoin:round; stroke-width:4; stroke-opacity:1; fill:none" points="
  309.866,326.463 328.763,326.463 
  "/>
<path clip-path="url(#clip950)" d="M126.205 1183.18 Q122.593 1183.18 120.765 1186.75 Q118.959 1190.29 118.959 1197.42 Q118.959 1204.52 120.765 1208.09 Q122.593 1211.63 126.205 1211.63 Q129.839 1211.63 131.644 1208.09 Q133.473 1204.52 133.473 1197.42 Q133.473 1190.29 131.644 1186.75 Q129.839 1183.18 126.205 1183.18 M126.205 1179.48 Q132.015 1179.48 135.07 1184.08 Q138.149 1188.67 138.149 1197.42 Q138.149 1206.14 135.07 1210.75 Q132.015 1215.33 126.205 1215.33 Q120.394 1215.33 117.316 1210.75 Q114.26 1206.14 114.26 1197.42 Q114.26 1188.67 117.316 1184.08 Q120.394 1179.48 126.205 1179.48 Z" fill="#000000" fill-rule="evenodd" fill-opacity="1" /><path clip-path="url(#clip950)" d="M146.366 1208.78 L151.251 1208.78 L151.251 1214.66 L146.366 1214.66 L146.366 1208.78 Z" fill="#000000" fill-rule="evenodd" fill-opacity="1" /><path clip-path="url(#clip950)" d="M171.436 1183.18 Q167.825 1183.18 165.996 1186.75 Q164.19 1190.29 164.19 1197.42 Q164.19 1204.52 165.996 1208.09 Q167.825 1211.63 171.436 1211.63 Q175.07 1211.63 176.876 1208.09 Q178.704 1204.52 178.704 1197.42 Q178.704 1190.29 176.876 1186.75 Q175.07 1183.18 171.436 1183.18 M171.436 1179.48 Q177.246 1179.48 180.301 1184.08 Q183.38 1188.67 183.38 1197.42 Q183.38 1206.14 180.301 1210.75 Q177.246 1215.33 171.436 1215.33 Q165.626 1215.33 162.547 1210.75 Q159.491 1206.14 159.491 1197.42 Q159.491 1188.67 162.547 1184.08 Q165.626 1179.48 171.436 1179.48 Z" fill="#000000" fill-rule="evenodd" fill-opacity="1" /><path clip-path="url(#clip950)" d="M201.598 1183.18 Q197.987 1183.18 196.158 1186.75 Q194.352 1190.29 194.352 1197.42 Q194.352 1204.52 196.158 1208.09 Q197.987 1211.63 201.598 1211.63 Q205.232 1211.63 207.037 1208.09 Q208.866 1204.52 208.866 1197.42 Q208.866 1190.29 207.037 1186.75 Q205.232 1183.18 201.598 1183.18 M201.598 1179.48 Q207.408 1179.48 210.463 1184.08 Q213.542 1188.67 213.542 1197.42 Q213.542 1206.14 210.463 1210.75 Q207.408 1215.33 201.598 1215.33 Q195.787 1215.33 192.709 1210.75 Q189.653 1206.14 189.653 1197.42 Q189.653 1188.67 192.709 1184.08 Q195.787 1179.48 201.598 1179.48 Z" fill="#000000" fill-rule="evenodd" fill-opacity="1" /><path clip-path="url(#clip950)" d="M231.76 1183.18 Q228.148 1183.18 226.32 1186.75 Q224.514 1190.29 224.514 1197.42 Q224.514 1204.52 226.32 1208.09 Q228.148 1211.63 231.76 1211.63 Q235.394 1211.63 237.199 1208.09 Q239.028 1204.52 239.028 1197.42 Q239.028 1190.29 237.199 1186.75 Q235.394 1183.18 231.76 1183.18 M231.76 1179.48 Q237.57 1179.48 240.625 1184.08 Q243.704 1188.67 243.704 1197.42 Q243.704 1206.14 240.625 1210.75 Q237.57 1215.33 231.76 1215.33 Q225.949 1215.33 222.871 1210.75 Q219.815 1206.14 219.815 1197.42 Q219.815 1188.67 222.871 1184.08 Q225.949 1179.48 231.76 1179.48 Z" fill="#000000" fill-rule="evenodd" fill-opacity="1" /><path clip-path="url(#clip950)" d="M261.921 1183.18 Q258.31 1183.18 256.482 1186.75 Q254.676 1190.29 254.676 1197.42 Q254.676 1204.52 256.482 1208.09 Q258.31 1211.63 261.921 1211.63 Q265.556 1211.63 267.361 1208.09 Q269.19 1204.52 269.19 1197.42 Q269.19 1190.29 267.361 1186.75 Q265.556 1183.18 261.921 1183.18 M261.921 1179.48 Q267.732 1179.48 270.787 1184.08 Q273.866 1188.67 273.866 1197.42 Q273.866 1206.14 270.787 1210.75 Q267.732 1215.33 261.921 1215.33 Q256.111 1215.33 253.033 1210.75 Q249.977 1206.14 249.977 1197.42 Q249.977 1188.67 253.033 1184.08 Q256.111 1179.48 261.921 1179.48 Z" fill="#000000" fill-rule="evenodd" fill-opacity="1" /><path clip-path="url(#clip950)" d="M127.2 892.874 Q123.589 892.874 121.76 896.439 Q119.955 899.981 119.955 907.11 Q119.955 914.217 121.76 917.782 Q123.589 921.323 127.2 921.323 Q130.834 921.323 132.64 917.782 Q134.468 914.217 134.468 907.11 Q134.468 899.981 132.64 896.439 Q130.834 892.874 127.2 892.874 M127.2 889.171 Q133.01 889.171 136.066 893.777 Q139.144 898.36 139.144 907.11 Q139.144 915.837 136.066 920.444 Q133.01 925.027 127.2 925.027 Q121.39 925.027 118.311 920.444 Q115.256 915.837 115.256 907.11 Q115.256 898.36 118.311 893.777 Q121.39 889.171 127.2 889.171 Z" fill="#000000" fill-rule="evenodd" fill-opacity="1" /><path clip-path="url(#clip950)" d="M147.362 918.476 L152.246 918.476 L152.246 924.356 L147.362 924.356 L147.362 918.476 Z" fill="#000000" fill-rule="evenodd" fill-opacity="1" /><path clip-path="url(#clip950)" d="M172.431 892.874 Q168.82 892.874 166.991 896.439 Q165.186 899.981 165.186 907.11 Q165.186 914.217 166.991 917.782 Q168.82 921.323 172.431 921.323 Q176.065 921.323 177.871 917.782 Q179.7 914.217 179.7 907.11 Q179.7 899.981 177.871 896.439 Q176.065 892.874 172.431 892.874 M172.431 889.171 Q178.241 889.171 181.297 893.777 Q184.376 898.36 184.376 907.11 Q184.376 915.837 181.297 920.444 Q178.241 925.027 172.431 925.027 Q166.621 925.027 163.542 920.444 Q160.487 915.837 160.487 907.11 Q160.487 898.36 163.542 893.777 Q166.621 889.171 172.431 889.171 Z" fill="#000000" fill-rule="evenodd" fill-opacity="1" /><path clip-path="url(#clip950)" d="M202.593 892.874 Q198.982 892.874 197.153 896.439 Q195.348 899.981 195.348 907.11 Q195.348 914.217 197.153 917.782 Q198.982 921.323 202.593 921.323 Q206.227 921.323 208.033 917.782 Q209.861 914.217 209.861 907.11 Q209.861 899.981 208.033 896.439 Q206.227 892.874 202.593 892.874 M202.593 889.171 Q208.403 889.171 211.459 893.777 Q214.537 898.36 214.537 907.11 Q214.537 915.837 211.459 920.444 Q208.403 925.027 202.593 925.027 Q196.783 925.027 193.704 920.444 Q190.649 915.837 190.649 907.11 Q190.649 898.36 193.704 893.777 Q196.783 889.171 202.593 889.171 Z" fill="#000000" fill-rule="evenodd" fill-opacity="1" /><path clip-path="url(#clip950)" d="M232.755 892.874 Q229.144 892.874 227.315 896.439 Q225.51 899.981 225.51 907.11 Q225.51 914.217 227.315 917.782 Q229.144 921.323 232.755 921.323 Q236.389 921.323 238.195 917.782 Q240.023 914.217 240.023 907.11 Q240.023 899.981 238.195 896.439 Q236.389 892.874 232.755 892.874 M232.755 889.171 Q238.565 889.171 241.621 893.777 Q244.699 898.36 244.699 907.11 Q244.699 915.837 241.621 920.444 Q238.565 925.027 232.755 925.027 Q226.945 925.027 223.866 920.444 Q220.811 915.837 220.811 907.11 Q220.811 898.36 223.866 893.777 Q226.945 889.171 232.755 889.171 Z" fill="#000000" fill-rule="evenodd" fill-opacity="1" /><path clip-path="url(#clip950)" d="M252.963 889.796 L271.32 889.796 L271.32 893.731 L257.246 893.731 L257.246 902.203 Q258.264 901.856 259.283 901.694 Q260.301 901.509 261.32 901.509 Q267.107 901.509 270.486 904.68 Q273.866 907.851 273.866 913.268 Q273.866 918.846 270.394 921.948 Q266.921 925.027 260.602 925.027 Q258.426 925.027 256.158 924.657 Q253.912 924.286 251.505 923.546 L251.505 918.846 Q253.588 919.981 255.81 920.536 Q258.033 921.092 260.509 921.092 Q264.514 921.092 266.852 918.985 Q269.19 916.879 269.19 913.268 Q269.19 909.657 266.852 907.55 Q264.514 905.444 260.509 905.444 Q258.634 905.444 256.759 905.86 Q254.908 906.277 252.963 907.157 L252.963 889.796 Z" fill="#000000" fill-rule="evenodd" fill-opacity="1" /><path clip-path="url(#clip950)" d="M126.205 602.568 Q122.593 602.568 120.765 606.133 Q118.959 609.675 118.959 616.804 Q118.959 623.911 120.765 627.476 Q122.593 631.017 126.205 631.017 Q129.839 631.017 131.644 627.476 Q133.473 623.911 133.473 616.804 Q133.473 609.675 131.644 606.133 Q129.839 602.568 126.205 602.568 M126.205 598.865 Q132.015 598.865 135.07 603.471 Q138.149 608.054 138.149 616.804 Q138.149 625.531 135.07 630.138 Q132.015 634.721 126.205 634.721 Q120.394 634.721 117.316 630.138 Q114.26 625.531 114.26 616.804 Q114.26 608.054 117.316 603.471 Q120.394 598.865 126.205 598.865 Z" fill="#000000" fill-rule="evenodd" fill-opacity="1" /><path clip-path="url(#clip950)" d="M146.366 628.17 L151.251 628.17 L151.251 634.05 L146.366 634.05 L146.366 628.17 Z" fill="#000000" fill-rule="evenodd" fill-opacity="1" /><path clip-path="url(#clip950)" d="M171.436 602.568 Q167.825 602.568 165.996 606.133 Q164.19 609.675 164.19 616.804 Q164.19 623.911 165.996 627.476 Q167.825 631.017 171.436 631.017 Q175.07 631.017 176.876 627.476 Q178.704 623.911 178.704 616.804 Q178.704 609.675 176.876 606.133 Q175.07 602.568 171.436 602.568 M171.436 598.865 Q177.246 598.865 180.301 603.471 Q183.38 608.054 183.38 616.804 Q183.38 625.531 180.301 630.138 Q177.246 634.721 171.436 634.721 Q165.626 634.721 162.547 630.138 Q159.491 625.531 159.491 616.804 Q159.491 608.054 162.547 603.471 Q165.626 598.865 171.436 598.865 Z" fill="#000000" fill-rule="evenodd" fill-opacity="1" /><path clip-path="url(#clip950)" d="M201.598 602.568 Q197.987 602.568 196.158 606.133 Q194.352 609.675 194.352 616.804 Q194.352 623.911 196.158 627.476 Q197.987 631.017 201.598 631.017 Q205.232 631.017 207.037 627.476 Q208.866 623.911 208.866 616.804 Q208.866 609.675 207.037 606.133 Q205.232 602.568 201.598 602.568 M201.598 598.865 Q207.408 598.865 210.463 603.471 Q213.542 608.054 213.542 616.804 Q213.542 625.531 210.463 630.138 Q207.408 634.721 201.598 634.721 Q195.787 634.721 192.709 630.138 Q189.653 625.531 189.653 616.804 Q189.653 608.054 192.709 603.471 Q195.787 598.865 201.598 598.865 Z" fill="#000000" fill-rule="evenodd" fill-opacity="1" /><path clip-path="url(#clip950)" d="M222.57 630.114 L230.209 630.114 L230.209 603.749 L221.898 605.415 L221.898 601.156 L230.162 599.49 L234.838 599.49 L234.838 630.114 L242.477 630.114 L242.477 634.05 L222.57 634.05 L222.57 630.114 Z" fill="#000000" fill-rule="evenodd" fill-opacity="1" /><path clip-path="url(#clip950)" d="M261.921 602.568 Q258.31 602.568 256.482 606.133 Q254.676 609.675 254.676 616.804 Q254.676 623.911 256.482 627.476 Q258.31 631.017 261.921 631.017 Q265.556 631.017 267.361 627.476 Q269.19 623.911 269.19 616.804 Q269.19 609.675 267.361 606.133 Q265.556 602.568 261.921 602.568 M261.921 598.865 Q267.732 598.865 270.787 603.471 Q273.866 608.054 273.866 616.804 Q273.866 625.531 270.787 630.138 Q267.732 634.721 261.921 634.721 Q256.111 634.721 253.033 630.138 Q249.977 625.531 249.977 616.804 Q249.977 608.054 253.033 603.471 Q256.111 598.865 261.921 598.865 Z" fill="#000000" fill-rule="evenodd" fill-opacity="1" /><path clip-path="url(#clip950)" d="M127.2 312.262 Q123.589 312.262 121.76 315.827 Q119.955 319.369 119.955 326.498 Q119.955 333.605 121.76 337.169 Q123.589 340.711 127.2 340.711 Q130.834 340.711 132.64 337.169 Q134.468 333.605 134.468 326.498 Q134.468 319.369 132.64 315.827 Q130.834 312.262 127.2 312.262 M127.2 308.558 Q133.01 308.558 136.066 313.165 Q139.144 317.748 139.144 326.498 Q139.144 335.225 136.066 339.831 Q133.01 344.415 127.2 344.415 Q121.39 344.415 118.311 339.831 Q115.256 335.225 115.256 326.498 Q115.256 317.748 118.311 313.165 Q121.39 308.558 127.2 308.558 Z" fill="#000000" fill-rule="evenodd" fill-opacity="1" /><path clip-path="url(#clip950)" d="M147.362 337.864 L152.246 337.864 L152.246 343.743 L147.362 343.743 L147.362 337.864 Z" fill="#000000" fill-rule="evenodd" fill-opacity="1" /><path clip-path="url(#clip950)" d="M172.431 312.262 Q168.82 312.262 166.991 315.827 Q165.186 319.369 165.186 326.498 Q165.186 333.605 166.991 337.169 Q168.82 340.711 172.431 340.711 Q176.065 340.711 177.871 337.169 Q179.7 333.605 179.7 326.498 Q179.7 319.369 177.871 315.827 Q176.065 312.262 172.431 312.262 M172.431 308.558 Q178.241 308.558 181.297 313.165 Q184.376 317.748 184.376 326.498 Q184.376 335.225 181.297 339.831 Q178.241 344.415 172.431 344.415 Q166.621 344.415 163.542 339.831 Q160.487 335.225 160.487 326.498 Q160.487 317.748 163.542 313.165 Q166.621 308.558 172.431 308.558 Z" fill="#000000" fill-rule="evenodd" fill-opacity="1" /><path clip-path="url(#clip950)" d="M202.593 312.262 Q198.982 312.262 197.153 315.827 Q195.348 319.369 195.348 326.498 Q195.348 333.605 197.153 337.169 Q198.982 340.711 202.593 340.711 Q206.227 340.711 208.033 337.169 Q209.861 333.605 209.861 326.498 Q209.861 319.369 208.033 315.827 Q206.227 312.262 202.593 312.262 M202.593 308.558 Q208.403 308.558 211.459 313.165 Q214.537 317.748 214.537 326.498 Q214.537 335.225 211.459 339.831 Q208.403 344.415 202.593 344.415 Q196.783 344.415 193.704 339.831 Q190.649 335.225 190.649 326.498 Q190.649 317.748 193.704 313.165 Q196.783 308.558 202.593 308.558 Z" fill="#000000" fill-rule="evenodd" fill-opacity="1" /><path clip-path="url(#clip950)" d="M223.565 339.808 L231.204 339.808 L231.204 313.443 L222.894 315.109 L222.894 310.85 L231.158 309.183 L235.834 309.183 L235.834 339.808 L243.472 339.808 L243.472 343.743 L223.565 343.743 L223.565 339.808 Z" fill="#000000" fill-rule="evenodd" fill-opacity="1" /><path clip-path="url(#clip950)" d="M252.963 309.183 L271.32 309.183 L271.32 313.119 L257.246 313.119 L257.246 321.591 Q258.264 321.244 259.283 321.082 Q260.301 320.896 261.32 320.896 Q267.107 320.896 270.486 324.068 Q273.866 327.239 273.866 332.656 Q273.866 338.234 270.394 341.336 Q266.921 344.415 260.602 344.415 Q258.426 344.415 256.158 344.044 Q253.912 343.674 251.505 342.933 L251.505 338.234 Q253.588 339.368 255.81 339.924 Q258.033 340.48 260.509 340.48 Q264.514 340.48 266.852 338.373 Q269.19 336.267 269.19 332.656 Q269.19 329.044 266.852 326.938 Q264.514 324.831 260.509 324.831 Q258.634 324.831 256.759 325.248 Q254.908 325.665 252.963 326.544 L252.963 309.183 Z" fill="#000000" fill-rule="evenodd" fill-opacity="1" /><path clip-path="url(#clip950)" d="M14.479 1139.78 L14.479 1133.93 L64.0042 1133.93 L64.0042 1139.78 L14.479 1139.78 Z" fill="#000000" fill-rule="evenodd" fill-opacity="1" /><path clip-path="url(#clip950)" d="M32.4621 1107.86 Q32.4621 1112.57 36.1542 1115.31 Q39.8145 1118.04 46.212 1118.04 Q52.6095 1118.04 56.3017 1115.34 Q59.9619 1112.6 59.9619 1107.86 Q59.9619 1103.18 56.2698 1100.44 Q52.5777 1097.71 46.212 1097.71 Q39.8781 1097.71 36.186 1100.44 Q32.4621 1103.18 32.4621 1107.86 M27.4968 1107.86 Q27.4968 1100.22 32.4621 1095.86 Q37.4273 1091.5 46.212 1091.5 Q54.9649 1091.5 59.9619 1095.86 Q64.9272 1100.22 64.9272 1107.86 Q64.9272 1115.53 59.9619 1119.89 Q54.9649 1124.22 46.212 1124.22 Q37.4273 1124.22 32.4621 1119.89 Q27.4968 1115.53 27.4968 1107.86 Z" fill="#000000" fill-rule="evenodd" fill-opacity="1" /><path clip-path="url(#clip950)" d="M45.7664 1058.33 Q39.4007 1058.33 35.8996 1060.98 Q32.3984 1063.59 32.3984 1068.33 Q32.3984 1073.04 35.8996 1075.68 Q39.4007 1078.29 45.7664 1078.29 Q52.1003 1078.29 55.6014 1075.68 Q59.1026 1073.04 59.1026 1068.33 Q59.1026 1063.59 55.6014 1060.98 Q52.1003 1058.33 45.7664 1058.33 M59.58 1052.48 Q68.683 1052.48 73.1071 1056.52 Q77.5631 1060.56 77.5631 1068.9 Q77.5631 1071.99 77.0857 1074.73 Q76.6401 1077.46 75.6852 1080.04 L69.9879 1080.04 Q71.3884 1077.46 72.0568 1074.95 Q72.7252 1072.43 72.7252 1069.82 Q72.7252 1064.06 69.7015 1061.2 Q66.7096 1058.33 60.6303 1058.33 L57.7339 1058.33 Q60.885 1060.15 62.4446 1062.98 Q64.0042 1065.81 64.0042 1069.76 Q64.0042 1076.32 59.0071 1080.33 Q54.01 1084.34 45.7664 1084.34 Q37.491 1084.34 32.4939 1080.33 Q27.4968 1076.32 27.4968 1069.76 Q27.4968 1065.81 29.0564 1062.98 Q30.616 1060.15 33.7671 1058.33 L28.3562 1058.33 L28.3562 1052.48 L59.58 1052.48 Z" fill="#000000" fill-rule="evenodd" fill-opacity="1" /><path clip-path="url(#clip950)" d="M14.5426 1026.35 Q21.8632 1030.61 29.0246 1032.68 Q36.186 1034.75 43.5384 1034.75 Q50.8908 1034.75 58.1159 1032.68 Q65.3091 1030.58 72.5979 1026.35 L72.5979 1031.44 Q65.1182 1036.21 57.8931 1038.6 Q50.668 1040.96 43.5384 1040.96 Q36.4406 1040.96 29.2474 1038.6 Q22.0542 1036.25 14.5426 1031.44 L14.5426 1026.35 Z" fill="#000000" fill-rule="evenodd" fill-opacity="1" /><path clip-path="url(#clip950)" d="M16.4842 1014.73 L16.4842 987.421 L21.895 987.421 L21.895 1008.3 L35.8996 1008.3 L35.8996 989.458 L41.3104 989.458 L41.3104 1008.3 L64.0042 1008.3 L64.0042 1014.73 L16.4842 1014.73 Z" fill="#000000" fill-rule="evenodd" fill-opacity="1" /><path clip-path="url(#clip950)" d="M46.0847 967.273 Q46.0847 974.371 47.7079 977.108 Q49.3312 979.845 53.2461 979.845 Q56.3653 979.845 58.2114 977.808 Q60.0256 975.74 60.0256 972.207 Q60.0256 967.337 56.5881 964.409 Q53.1188 961.449 47.3897 961.449 L46.0847 961.449 L46.0847 967.273 M43.6657 955.592 L64.0042 955.592 L64.0042 961.449 L58.5933 961.449 Q61.8398 963.454 63.3994 966.446 Q64.9272 969.437 64.9272 973.766 Q64.9272 979.241 61.8716 982.487 Q58.7843 985.702 53.6281 985.702 Q47.6125 985.702 44.5569 981.691 Q41.5014 977.649 41.5014 969.66 L41.5014 961.449 L40.9285 961.449 Q36.8862 961.449 34.6901 964.122 Q32.4621 966.764 32.4621 971.57 Q32.4621 974.626 33.1941 977.522 Q33.9262 980.418 35.3903 983.092 L29.9795 983.092 Q28.7381 979.877 28.1334 976.854 Q27.4968 973.83 27.4968 970.965 Q27.4968 963.231 31.5072 959.412 Q35.5176 955.592 43.6657 955.592 Z" fill="#000000" fill-rule="evenodd" fill-opacity="1" /><path clip-path="url(#clip950)" d="M33.8307 922.872 Q33.2578 923.859 33.0032 925.037 Q32.7167 926.183 32.7167 927.583 Q32.7167 932.548 35.9632 935.222 Q39.1779 937.864 45.2253 937.864 L64.0042 937.864 L64.0042 943.752 L28.3562 943.752 L28.3562 937.864 L33.8944 937.864 Q30.6479 936.018 29.0883 933.057 Q27.4968 930.097 27.4968 925.864 Q27.4968 925.259 27.5923 924.527 Q27.656 923.795 27.8151 922.904 L33.8307 922.872 Z" fill="#000000" fill-rule="evenodd" fill-opacity="1" /><path clip-path="url(#clip950)" d="M35.1993 890.121 Q31.2526 887.925 29.3747 884.869 Q27.4968 881.814 27.4968 877.676 Q27.4968 872.106 31.4117 869.082 Q35.2948 866.058 42.4881 866.058 L64.0042 866.058 L64.0042 871.947 L42.679 871.947 Q37.5546 871.947 35.072 873.761 Q32.5894 875.575 32.5894 879.299 Q32.5894 883.851 35.6131 886.492 Q38.6368 889.134 43.8567 889.134 L64.0042 889.134 L64.0042 895.022 L42.679 895.022 Q37.5228 895.022 35.072 896.837 Q32.5894 898.651 32.5894 902.438 Q32.5894 906.926 35.6449 909.568 Q38.6686 912.21 43.8567 912.21 L64.0042 912.21 L64.0042 918.098 L28.3562 918.098 L28.3562 912.21 L33.8944 912.21 Q30.616 910.205 29.0564 907.404 Q27.4968 904.603 27.4968 900.752 Q27.4968 896.868 29.4702 894.163 Q31.4436 891.426 35.1993 890.121 Z" fill="#000000" fill-rule="evenodd" fill-opacity="1" /><path clip-path="url(#clip950)" d="M16.4842 833.402 L16.4842 803.356 L21.895 803.356 L21.895 826.973 L35.9632 826.973 L35.9632 804.343 L41.3741 804.343 L41.3741 826.973 L58.5933 826.973 L58.5933 802.783 L64.0042 802.783 L64.0042 833.402 L16.4842 833.402 Z" fill="#000000" fill-rule="evenodd" fill-opacity="1" /><path clip-path="url(#clip950)" d="M35.1993 764.716 Q31.2526 762.52 29.3747 759.465 Q27.4968 756.409 27.4968 752.271 Q27.4968 746.701 31.4117 743.678 Q35.2948 740.654 42.4881 740.654 L64.0042 740.654 L64.0042 746.542 L42.679 746.542 Q37.5546 746.542 35.072 748.356 Q32.5894 750.171 32.5894 753.895 Q32.5894 758.446 35.6131 761.088 Q38.6368 763.73 43.8567 763.73 L64.0042 763.73 L64.0042 769.618 L42.679 769.618 Q37.5228 769.618 35.072 771.432 Q32.5894 773.246 32.5894 777.034 Q32.5894 781.522 35.6449 784.164 Q38.6686 786.805 43.8567 786.805 L64.0042 786.805 L64.0042 792.694 L28.3562 792.694 L28.3562 786.805 L33.8944 786.805 Q30.616 784.8 29.0564 781.999 Q27.4968 779.198 27.4968 775.347 Q27.4968 771.464 29.4702 768.759 Q31.4436 766.021 35.1993 764.716 Z" fill="#000000" fill-rule="evenodd" fill-opacity="1" /><path clip-path="url(#clip950)" d="M58.657 723.307 L77.5631 723.307 L77.5631 729.196 L28.3562 729.196 L28.3562 723.307 L33.7671 723.307 Q30.5842 721.461 29.0564 718.66 Q27.4968 715.828 27.4968 711.913 Q27.4968 705.42 32.6531 701.378 Q37.8093 697.304 46.212 697.304 Q54.6147 697.304 59.771 701.378 Q64.9272 705.42 64.9272 711.913 Q64.9272 715.828 63.3994 718.66 Q61.8398 721.461 58.657 723.307 M46.212 703.383 Q39.7508 703.383 36.0905 706.056 Q32.3984 708.698 32.3984 713.345 Q32.3984 717.992 36.0905 720.666 Q39.7508 723.307 46.212 723.307 Q52.6732 723.307 56.3653 720.666 Q60.0256 717.992 60.0256 713.345 Q60.0256 708.698 56.3653 706.056 Q52.6732 703.383 46.212 703.383 Z" fill="#000000" fill-rule="evenodd" fill-opacity="1" /><path clip-path="url(#clip950)" d="M14.479 687.596 L14.479 681.739 L64.0042 681.739 L64.0042 687.596 L14.479 687.596 Z" fill="#000000" fill-rule="evenodd" fill-opacity="1" /><path clip-path="url(#clip950)" d="M32.4621 655.672 Q32.4621 660.382 36.1542 663.12 Q39.8145 665.857 46.212 665.857 Q52.6095 665.857 56.3017 663.152 Q59.9619 660.414 59.9619 655.672 Q59.9619 650.993 56.2698 648.256 Q52.5777 645.519 46.212 645.519 Q39.8781 645.519 36.186 648.256 Q32.4621 650.993 32.4621 655.672 M27.4968 655.672 Q27.4968 648.033 32.4621 643.672 Q37.4273 639.312 46.212 639.312 Q54.9649 639.312 59.9619 643.672 Q64.9272 648.033 64.9272 655.672 Q64.9272 663.342 59.9619 667.703 Q54.9649 672.032 46.212 672.032 Q37.4273 672.032 32.4621 667.703 Q27.4968 663.342 27.4968 655.672 Z" fill="#000000" fill-rule="evenodd" fill-opacity="1" /><path clip-path="url(#clip950)" d="M67.3143 614.772 Q73.68 617.255 75.6216 619.61 Q77.5631 621.965 77.5631 625.912 L77.5631 630.591 L72.6615 630.591 L72.6615 627.153 Q72.6615 624.734 71.5157 623.398 Q70.3699 622.061 66.1048 620.438 L63.4312 619.387 L28.3562 633.806 L28.3562 627.599 L56.238 616.459 L28.3562 605.319 L28.3562 599.113 L67.3143 614.772 Z" fill="#000000" fill-rule="evenodd" fill-opacity="1" /><path clip-path="url(#clip950)" d="M35.1993 563.274 Q31.2526 561.077 29.3747 558.022 Q27.4968 554.966 27.4968 550.829 Q27.4968 545.259 31.4117 542.235 Q35.2948 539.211 42.4881 539.211 L64.0042 539.211 L64.0042 545.099 L42.679 545.099 Q37.5546 545.099 35.072 546.914 Q32.5894 548.728 32.5894 552.452 Q32.5894 557.003 35.6131 559.645 Q38.6368 562.287 43.8567 562.287 L64.0042 562.287 L64.0042 568.175 L42.679 568.175 Q37.5228 568.175 35.072 569.989 Q32.5894 571.804 32.5894 575.591 Q32.5894 580.079 35.6449 582.721 Q38.6686 585.363 43.8567 585.363 L64.0042 585.363 L64.0042 591.251 L28.3562 591.251 L28.3562 585.363 L33.8944 585.363 Q30.616 583.357 29.0564 580.556 Q27.4968 577.756 27.4968 573.904 Q27.4968 570.021 29.4702 567.316 Q31.4436 564.579 35.1993 563.274 Z" fill="#000000" fill-rule="evenodd" fill-opacity="1" /><path clip-path="url(#clip950)" d="M44.7161 497.038 L47.5806 497.038 L47.5806 523.965 Q53.6281 523.583 56.8109 520.337 Q59.9619 517.059 59.9619 511.234 Q59.9619 507.86 59.1344 504.709 Q58.3069 501.526 56.6518 498.407 L62.1899 498.407 Q63.5267 501.558 64.227 504.868 Q64.9272 508.178 64.9272 511.584 Q64.9272 520.114 59.9619 525.111 Q54.9967 530.076 46.5303 530.076 Q37.7774 530.076 32.6531 525.366 Q27.4968 520.623 27.4968 512.603 Q27.4968 505.409 32.1438 501.24 Q36.7589 497.038 44.7161 497.038 M42.9973 502.895 Q38.1912 502.959 35.3266 505.6 Q32.4621 508.21 32.4621 512.539 Q32.4621 517.44 35.2312 520.401 Q38.0002 523.329 43.0292 523.774 L42.9973 502.895 Z" fill="#000000" fill-rule="evenodd" fill-opacity="1" /><path clip-path="url(#clip950)" d="M42.4881 457.794 L64.0042 457.794 L64.0042 463.65 L42.679 463.65 Q37.6183 463.65 35.1038 465.624 Q32.5894 467.597 32.5894 471.544 Q32.5894 476.286 35.6131 479.023 Q38.6368 481.761 43.8567 481.761 L64.0042 481.761 L64.0042 487.649 L28.3562 487.649 L28.3562 481.761 L33.8944 481.761 Q30.6797 479.66 29.0883 476.827 Q27.4968 473.963 27.4968 470.239 Q27.4968 464.096 31.3163 460.945 Q35.1038 457.794 42.4881 457.794 Z" fill="#000000" fill-rule="evenodd" fill-opacity="1" /><path clip-path="url(#clip950)" d="M18.2347 440.32 L28.3562 440.32 L28.3562 428.257 L32.9077 428.257 L32.9077 440.32 L52.2594 440.32 Q56.6199 440.32 57.8613 439.142 Q59.1026 437.933 59.1026 434.273 L59.1026 428.257 L64.0042 428.257 L64.0042 434.273 Q64.0042 441.052 61.4897 443.63 Q58.9434 446.208 52.2594 446.208 L32.9077 446.208 L32.9077 450.505 L28.3562 450.505 L28.3562 446.208 L18.2347 446.208 L18.2347 440.32 Z" fill="#000000" fill-rule="evenodd" fill-opacity="1" /><path clip-path="url(#clip950)" d="M14.5426 421.477 L14.5426 416.385 Q22.0542 411.611 29.2474 409.255 Q36.4406 406.868 43.5384 406.868 Q50.668 406.868 57.8931 409.255 Q65.1182 411.611 72.5979 416.385 L72.5979 421.477 Q65.3091 417.244 58.1159 415.175 Q50.8908 413.075 43.5384 413.075 Q36.186 413.075 29.0246 415.175 Q21.8632 417.244 14.5426 421.477 Z" fill="#000000" fill-rule="evenodd" fill-opacity="1" /><path clip-path="url(#clip950)" d="M128.334 43.6931 L128.334 65.8515 L141.459 65.8515 Q148.062 65.8515 151.222 63.1374 Q154.422 60.3828 154.422 54.752 Q154.422 49.0808 151.222 46.4072 Q148.062 43.6931 141.459 43.6931 L128.334 43.6931 M128.334 18.8205 L128.334 37.0496 L140.446 37.0496 Q146.442 37.0496 149.358 34.8216 Q152.315 32.5531 152.315 27.935 Q152.315 23.3575 149.358 21.089 Q146.442 18.8205 140.446 18.8205 L128.334 18.8205 M120.151 12.096 L141.054 12.096 Q150.412 12.096 155.475 15.9849 Q160.539 19.8737 160.539 27.0438 Q160.539 32.5936 157.946 35.8748 Q155.354 39.156 150.33 39.9662 Q156.366 41.2625 159.688 45.3944 Q163.05 49.4858 163.05 55.6432 Q163.05 63.745 157.541 68.1605 Q152.032 72.576 141.864 72.576 L120.151 72.576 L120.151 12.096 Z" fill="#000000" fill-rule="evenodd" fill-opacity="1" /><path clip-path="url(#clip950)" d="M176.742 27.2059 L184.196 27.2059 L184.196 72.576 L176.742 72.576 L176.742 27.2059 M176.742 9.54393 L184.196 9.54393 L184.196 18.9825 L176.742 18.9825 L176.742 9.54393 Z" fill="#000000" fill-rule="evenodd" fill-opacity="1" /><path clip-path="url(#clip950)" d="M237.506 45.1919 L237.506 72.576 L230.052 72.576 L230.052 45.4349 Q230.052 38.994 227.541 35.7938 Q225.029 32.5936 220.006 32.5936 Q213.97 32.5936 210.486 36.4419 Q207.003 40.2903 207.003 46.9338 L207.003 72.576 L199.508 72.576 L199.508 27.2059 L207.003 27.2059 L207.003 34.2544 Q209.676 30.163 213.282 28.1376 Q216.927 26.1121 221.667 26.1121 Q229.485 26.1121 233.496 30.9732 Q237.506 35.7938 237.506 45.1919 Z" fill="#000000" fill-rule="evenodd" fill-opacity="1" /><path clip-path="url(#clip950)" d="M290.087 45.1919 L290.087 72.576 L282.633 72.576 L282.633 45.4349 Q282.633 38.994 280.121 35.7938 Q277.61 32.5936 272.587 32.5936 Q266.551 32.5936 263.067 36.4419 Q259.583 40.2903 259.583 46.9338 L259.583 72.576 L252.089 72.576 L252.089 27.2059 L259.583 27.2059 L259.583 34.2544 Q262.257 30.163 265.862 28.1376 Q269.508 26.1121 274.248 26.1121 Q282.066 26.1121 286.076 30.9732 Q290.087 35.7938 290.087 45.1919 Z" fill="#000000" fill-rule="evenodd" fill-opacity="1" /><path clip-path="url(#clip950)" d="M343.761 48.0275 L343.761 51.6733 L309.491 51.6733 Q309.977 59.3701 314.109 63.421 Q318.281 67.4314 325.694 67.4314 Q329.988 67.4314 333.998 66.3781 Q338.049 65.3249 342.019 63.2184 L342.019 70.267 Q338.009 71.9684 333.796 72.8596 Q329.583 73.7508 325.249 73.7508 Q314.392 73.7508 308.032 67.4314 Q301.713 61.1119 301.713 50.3365 Q301.713 39.1965 307.708 32.6746 Q313.744 26.1121 323.952 26.1121 Q333.107 26.1121 338.414 32.0264 Q343.761 37.9003 343.761 48.0275 M336.307 45.84 Q336.226 39.7232 332.864 36.0774 Q329.542 32.4315 324.033 32.4315 Q317.795 32.4315 314.028 35.9558 Q310.301 39.4801 309.734 45.8805 L336.307 45.84 Z" fill="#000000" fill-rule="evenodd" fill-opacity="1" /><path clip-path="url(#clip950)" d="M385.85 34.0924 L385.85 9.54393 L393.304 9.54393 L393.304 72.576 L385.85 72.576 L385.85 65.7705 Q383.501 69.8214 379.895 71.8063 Q376.33 73.7508 371.307 73.7508 Q363.084 73.7508 357.899 67.1883 Q352.754 60.6258 352.754 49.9314 Q352.754 39.2371 357.899 32.6746 Q363.084 26.1121 371.307 26.1121 Q376.33 26.1121 379.895 28.0971 Q383.501 30.0415 385.85 34.0924 M360.451 49.9314 Q360.451 58.1548 363.813 62.8538 Q367.216 67.5124 373.13 67.5124 Q379.045 67.5124 382.447 62.8538 Q385.85 58.1548 385.85 49.9314 Q385.85 41.7081 382.447 37.0496 Q379.045 32.3505 373.13 32.3505 Q367.216 32.3505 363.813 37.0496 Q360.451 41.7081 360.451 49.9314 Z" fill="#000000" fill-rule="evenodd" fill-opacity="1" /><path clip-path="url(#clip950)" d="M443.535 18.8205 L443.535 65.8515 L453.419 65.8515 Q465.936 65.8515 471.729 60.1802 Q477.563 54.509 477.563 42.2752 Q477.563 30.1225 471.729 24.4918 Q465.936 18.8205 453.419 18.8205 L443.535 18.8205 M435.352 12.096 L452.163 12.096 Q469.744 12.096 477.968 19.4281 Q486.191 26.7198 486.191 42.2752 Q486.191 57.9117 477.927 65.2439 Q469.663 72.576 452.163 72.576 L435.352 72.576 L435.352 12.096 Z" fill="#000000" fill-rule="evenodd" fill-opacity="1" /><path clip-path="url(#clip950)" d="M507.418 18.8205 L507.418 65.8515 L517.302 65.8515 Q529.819 65.8515 535.612 60.1802 Q541.445 54.509 541.445 42.2752 Q541.445 30.1225 535.612 24.4918 Q529.819 18.8205 517.302 18.8205 L507.418 18.8205 M499.235 12.096 L516.046 12.096 Q533.627 12.096 541.85 19.4281 Q550.074 26.7198 550.074 42.2752 Q550.074 57.9117 541.81 65.2439 Q533.546 72.576 516.046 72.576 L499.235 72.576 L499.235 12.096 Z" fill="#000000" fill-rule="evenodd" fill-opacity="1" /><path clip-path="url(#clip950)" d="M583.413 49.7694 Q574.379 49.7694 570.895 51.8354 Q567.412 53.9013 567.412 58.8839 Q567.412 62.8538 570.004 65.2034 Q572.637 67.5124 577.134 67.5124 Q583.332 67.5124 587.058 63.1374 Q590.826 58.7219 590.826 51.4303 L590.826 49.7694 L583.413 49.7694 M598.279 46.6907 L598.279 72.576 L590.826 72.576 L590.826 65.6895 Q588.274 69.8214 584.466 71.8063 Q580.658 73.7508 575.149 73.7508 Q568.181 73.7508 564.049 69.8619 Q559.958 65.9325 559.958 59.3701 Q559.958 51.7138 565.062 47.825 Q570.207 43.9361 580.374 43.9361 L590.826 43.9361 L590.826 43.2069 Q590.826 38.0623 587.423 35.2672 Q584.061 32.4315 577.944 32.4315 Q574.055 32.4315 570.369 33.3632 Q566.682 34.295 563.28 36.1584 L563.28 29.2718 Q567.371 27.692 571.219 26.9223 Q575.068 26.1121 578.714 26.1121 Q588.557 26.1121 593.418 31.2163 Q598.279 36.3204 598.279 46.6907 Z" fill="#000000" fill-rule="evenodd" fill-opacity="1" /><path clip-path="url(#clip950)" d="M632.51 76.7889 Q629.35 84.8907 626.352 87.3618 Q623.355 89.8329 618.331 89.8329 L612.377 89.8329 L612.377 83.5945 L616.752 83.5945 Q619.83 83.5945 621.532 82.1361 Q623.233 80.6778 625.299 75.2496 L626.636 71.8468 L608.285 27.2059 L616.184 27.2059 L630.363 62.6918 L644.541 27.2059 L652.44 27.2059 L632.51 76.7889 Z" fill="#000000" fill-rule="evenodd" fill-opacity="1" /><path clip-path="url(#clip950)" d="M697.608 18.8205 L697.608 65.8515 L707.492 65.8515 Q720.009 65.8515 725.802 60.1802 Q731.635 54.509 731.635 42.2752 Q731.635 30.1225 725.802 24.4918 Q720.009 18.8205 707.492 18.8205 L697.608 18.8205 M689.425 12.096 L706.236 12.096 Q723.817 12.096 732.04 19.4281 Q740.264 26.7198 740.264 42.2752 Q740.264 57.9117 732 65.2439 Q723.736 72.576 706.236 72.576 L689.425 72.576 L689.425 12.096 Z" fill="#000000" fill-rule="evenodd" fill-opacity="1" /><path clip-path="url(#clip950)" d="M791.791 48.0275 L791.791 51.6733 L757.521 51.6733 Q758.007 59.3701 762.139 63.421 Q766.311 67.4314 773.724 67.4314 Q778.018 67.4314 782.028 66.3781 Q786.079 65.3249 790.049 63.2184 L790.049 70.267 Q786.039 71.9684 781.826 72.8596 Q777.613 73.7508 773.279 73.7508 Q762.422 73.7508 756.062 67.4314 Q749.743 61.1119 749.743 50.3365 Q749.743 39.1965 755.738 32.6746 Q761.774 26.1121 771.982 26.1121 Q781.137 26.1121 786.444 32.0264 Q791.791 37.9003 791.791 48.0275 M784.338 45.84 Q784.256 39.7232 780.894 36.0774 Q777.572 32.4315 772.063 32.4315 Q765.825 32.4315 762.058 35.9558 Q758.331 39.4801 757.764 45.8805 L784.338 45.84 Z" fill="#000000" fill-rule="evenodd" fill-opacity="1" /><path clip-path="url(#clip950)" d="M798.678 27.2059 L806.577 27.2059 L820.755 65.2844 L834.933 27.2059 L842.833 27.2059 L825.819 72.576 L815.692 72.576 L798.678 27.2059 Z" fill="#000000" fill-rule="evenodd" fill-opacity="1" /><path clip-path="url(#clip950)" d="M853.122 27.2059 L860.576 27.2059 L860.576 72.576 L853.122 72.576 L853.122 27.2059 M853.122 9.54393 L860.576 9.54393 L860.576 18.9825 L853.122 18.9825 L853.122 9.54393 Z" fill="#000000" fill-rule="evenodd" fill-opacity="1" /><path clip-path="url(#clip950)" d="M896.791 49.7694 Q887.757 49.7694 884.273 51.8354 Q880.79 53.9013 880.79 58.8839 Q880.79 62.8538 883.382 65.2034 Q886.015 67.5124 890.512 67.5124 Q896.71 67.5124 900.436 63.1374 Q904.204 58.7219 904.204 51.4303 L904.204 49.7694 L896.791 49.7694 M911.657 46.6907 L911.657 72.576 L904.204 72.576 L904.204 65.6895 Q901.652 69.8214 897.844 71.8063 Q894.036 73.7508 888.527 73.7508 Q881.559 73.7508 877.427 69.8619 Q873.336 65.9325 873.336 59.3701 Q873.336 51.7138 878.44 47.825 Q883.585 43.9361 893.752 43.9361 L904.204 43.9361 L904.204 43.2069 Q904.204 38.0623 900.801 35.2672 Q897.439 32.4315 891.322 32.4315 Q887.433 32.4315 883.747 33.3632 Q880.06 34.295 876.658 36.1584 L876.658 29.2718 Q880.749 27.692 884.597 26.9223 Q888.446 26.1121 892.092 26.1121 Q901.935 26.1121 906.796 31.2163 Q911.657 36.3204 911.657 46.6907 Z" fill="#000000" fill-rule="evenodd" fill-opacity="1" /><path clip-path="url(#clip950)" d="M964.724 45.1919 L964.724 72.576 L957.271 72.576 L957.271 45.4349 Q957.271 38.994 954.759 35.7938 Q952.247 32.5936 947.224 32.5936 Q941.189 32.5936 937.705 36.4419 Q934.221 40.2903 934.221 46.9338 L934.221 72.576 L926.727 72.576 L926.727 27.2059 L934.221 27.2059 L934.221 34.2544 Q936.895 30.163 940.5 28.1376 Q944.146 26.1121 948.885 26.1121 Q956.703 26.1121 960.714 30.9732 Q964.724 35.7938 964.724 45.1919 Z" fill="#000000" fill-rule="evenodd" fill-opacity="1" /><path clip-path="url(#clip950)" d="M1012.24 28.9478 L1012.24 35.9153 Q1009.08 34.1734 1005.88 33.3227 Q1002.72 32.4315 999.481 32.4315 Q992.23 32.4315 988.22 37.0496 Q984.209 41.6271 984.209 49.9314 Q984.209 58.2358 988.22 62.8538 Q992.23 67.4314 999.481 67.4314 Q1002.72 67.4314 1005.88 66.5807 Q1009.08 65.6895 1012.24 63.9476 L1012.24 70.8341 Q1009.12 72.2924 1005.76 73.0216 Q1002.44 73.7508 998.671 73.7508 Q988.422 73.7508 982.386 67.3098 Q976.35 60.8689 976.35 49.9314 Q976.35 38.832 982.427 32.472 Q988.544 26.1121 999.157 26.1121 Q1002.6 26.1121 1005.88 26.8413 Q1009.16 27.5299 1012.24 28.9478 Z" fill="#000000" fill-rule="evenodd" fill-opacity="1" /><path clip-path="url(#clip950)" d="M1064.01 48.0275 L1064.01 51.6733 L1029.74 51.6733 Q1030.23 59.3701 1034.36 63.421 Q1038.53 67.4314 1045.94 67.4314 Q1050.24 67.4314 1054.25 66.3781 Q1058.3 65.3249 1062.27 63.2184 L1062.27 70.267 Q1058.26 71.9684 1054.05 72.8596 Q1049.83 73.7508 1045.5 73.7508 Q1034.64 73.7508 1028.28 67.4314 Q1021.96 61.1119 1021.96 50.3365 Q1021.96 39.1965 1027.96 32.6746 Q1033.99 26.1121 1044.2 26.1121 Q1053.36 26.1121 1058.66 32.0264 Q1064.01 37.9003 1064.01 48.0275 M1056.56 45.84 Q1056.48 39.7232 1053.11 36.0774 Q1049.79 32.4315 1044.28 32.4315 Q1038.05 32.4315 1034.28 35.9558 Q1030.55 39.4801 1029.98 45.8805 L1056.56 45.84 Z" fill="#000000" fill-rule="evenodd" fill-opacity="1" /><path clip-path="url(#clip950)" d="M1125.59 9.54393 L1125.59 15.7418 L1118.46 15.7418 Q1114.45 15.7418 1112.87 17.3622 Q1111.33 18.9825 1111.33 23.1955 L1111.33 27.2059 L1123.6 27.2059 L1123.6 32.9987 L1111.33 32.9987 L1111.33 72.576 L1103.83 72.576 L1103.83 32.9987 L1096.7 32.9987 L1096.7 27.2059 L1103.83 27.2059 L1103.83 24.0462 Q1103.83 16.471 1107.36 13.0277 Q1110.88 9.54393 1118.54 9.54393 L1125.59 9.54393 Z" fill="#000000" fill-rule="evenodd" fill-opacity="1" /><path clip-path="url(#clip950)" d="M1158.11 34.1734 Q1156.86 33.4443 1155.36 33.1202 Q1153.9 32.7556 1152.12 32.7556 Q1145.8 32.7556 1142.4 36.8875 Q1139.03 40.9789 1139.03 48.6757 L1139.03 72.576 L1131.54 72.576 L1131.54 27.2059 L1139.03 27.2059 L1139.03 34.2544 Q1141.38 30.1225 1145.15 28.1376 Q1148.92 26.1121 1154.31 26.1121 Q1155.08 26.1121 1156.01 26.2337 Q1156.94 26.3147 1158.07 26.5172 L1158.11 34.1734 Z" fill="#000000" fill-rule="evenodd" fill-opacity="1" /><path clip-path="url(#clip950)" d="M1181.69 32.4315 Q1175.7 32.4315 1172.21 37.1306 Q1168.73 41.7891 1168.73 49.9314 Q1168.73 58.0738 1172.17 62.7728 Q1175.65 67.4314 1181.69 67.4314 Q1187.65 67.4314 1191.13 62.7323 Q1194.61 58.0333 1194.61 49.9314 Q1194.61 41.8701 1191.13 37.1711 Q1187.65 32.4315 1181.69 32.4315 M1181.69 26.1121 Q1191.41 26.1121 1196.96 32.4315 Q1202.51 38.7509 1202.51 49.9314 Q1202.51 61.0714 1196.96 67.4314 Q1191.41 73.7508 1181.69 73.7508 Q1171.93 73.7508 1166.38 67.4314 Q1160.87 61.0714 1160.87 49.9314 Q1160.87 38.7509 1166.38 32.4315 Q1171.93 26.1121 1181.69 26.1121 Z" fill="#000000" fill-rule="evenodd" fill-opacity="1" /><path clip-path="url(#clip950)" d="M1250.19 35.9153 Q1252.99 30.8922 1256.88 28.5022 Q1260.76 26.1121 1266.03 26.1121 Q1273.12 26.1121 1276.97 31.0947 Q1280.82 36.0368 1280.82 45.1919 L1280.82 72.576 L1273.32 72.576 L1273.32 45.4349 Q1273.32 38.913 1271.01 35.7533 Q1268.7 32.5936 1263.96 32.5936 Q1258.17 32.5936 1254.81 36.4419 Q1251.45 40.2903 1251.45 46.9338 L1251.45 72.576 L1243.95 72.576 L1243.95 45.4349 Q1243.95 38.8725 1241.64 35.7533 Q1239.34 32.5936 1234.51 32.5936 Q1228.8 32.5936 1225.44 36.4824 Q1222.08 40.3308 1222.08 46.9338 L1222.08 72.576 L1214.58 72.576 L1214.58 27.2059 L1222.08 27.2059 L1222.08 34.2544 Q1224.63 30.082 1228.2 28.0971 Q1231.76 26.1121 1236.66 26.1121 Q1241.6 26.1121 1245.05 28.6237 Q1248.53 31.1352 1250.19 35.9153 Z" fill="#000000" fill-rule="evenodd" fill-opacity="1" /><path clip-path="url(#clip950)" d="M1342.59 20.1573 L1331.49 50.2555 L1353.73 50.2555 L1342.59 20.1573 M1337.97 12.096 L1347.25 12.096 L1370.3 72.576 L1361.79 72.576 L1356.28 57.061 L1329.02 57.061 L1323.51 72.576 L1314.88 72.576 L1337.97 12.096 Z" fill="#000000" fill-rule="evenodd" fill-opacity="1" /><path clip-path="url(#clip950)" d="M1368.6 27.2059 L1376.5 27.2059 L1390.68 65.2844 L1404.86 27.2059 L1412.75 27.2059 L1395.74 72.576 L1385.61 72.576 L1368.6 27.2059 Z" fill="#000000" fill-rule="evenodd" fill-opacity="1" /><path clip-path="url(#clip950)" d="M1452.9 49.3643 Q1452.9 41.2625 1449.54 36.8065 Q1446.21 32.3505 1440.18 32.3505 Q1434.18 32.3505 1430.82 36.8065 Q1427.5 41.2625 1427.5 49.3643 Q1427.5 57.4256 1430.82 61.8816 Q1434.18 66.3376 1440.18 66.3376 Q1446.21 66.3376 1449.54 61.8816 Q1452.9 57.4256 1452.9 49.3643 M1460.35 66.9452 Q1460.35 78.5308 1455.21 84.1616 Q1450.06 89.8329 1439.45 89.8329 Q1435.52 89.8329 1432.04 89.2252 Q1428.55 88.6581 1425.27 87.4428 L1425.27 80.1917 Q1428.55 81.9741 1431.75 82.8248 Q1434.95 83.6755 1438.27 83.6755 Q1445.61 83.6755 1449.25 79.8271 Q1452.9 76.0193 1452.9 68.282 L1452.9 64.5957 Q1450.59 68.6061 1446.98 70.5911 Q1443.38 72.576 1438.36 72.576 Q1430.01 72.576 1424.91 66.2161 Q1419.8 59.8562 1419.8 49.3643 Q1419.8 38.832 1424.91 32.472 Q1430.01 26.1121 1438.36 26.1121 Q1443.38 26.1121 1446.98 28.0971 Q1450.59 30.082 1452.9 34.0924 L1452.9 27.2059 L1460.35 27.2059 L1460.35 66.9452 Z" fill="#000000" fill-rule="evenodd" fill-opacity="1" /><path clip-path="url(#clip950)" d="M1477.61 62.2867 L1486.16 62.2867 L1486.16 72.576 L1477.61 72.576 L1477.61 62.2867 M1477.61 29.6769 L1486.16 29.6769 L1486.16 39.9662 L1477.61 39.9662 L1477.61 29.6769 Z" fill="#000000" fill-rule="evenodd" fill-opacity="1" /><path clip-path="url(#clip950)" d="M1530.35 12.096 L1565.11 12.096 L1565.11 18.9825 L1538.53 18.9825 L1538.53 36.8065 L1562.52 36.8065 L1562.52 43.6931 L1538.53 43.6931 L1538.53 72.576 L1530.35 72.576 L1530.35 12.096 Z" fill="#000000" fill-rule="evenodd" fill-opacity="1" /><path clip-path="url(#clip950)" d="M1590.75 49.7694 Q1581.72 49.7694 1578.23 51.8354 Q1574.75 53.9013 1574.75 58.8839 Q1574.75 62.8538 1577.34 65.2034 Q1579.98 67.5124 1584.47 67.5124 Q1590.67 67.5124 1594.4 63.1374 Q1598.16 58.7219 1598.16 51.4303 L1598.16 49.7694 L1590.75 49.7694 M1605.62 46.6907 L1605.62 72.576 L1598.16 72.576 L1598.16 65.6895 Q1595.61 69.8214 1591.8 71.8063 Q1588 73.7508 1582.49 73.7508 Q1575.52 73.7508 1571.39 69.8619 Q1567.3 65.9325 1567.3 59.3701 Q1567.3 51.7138 1572.4 47.825 Q1577.55 43.9361 1587.71 43.9361 L1598.16 43.9361 L1598.16 43.2069 Q1598.16 38.0623 1594.76 35.2672 Q1591.4 32.4315 1585.28 32.4315 Q1581.39 32.4315 1577.71 33.3632 Q1574.02 34.295 1570.62 36.1584 L1570.62 29.2718 Q1574.71 27.692 1578.56 26.9223 Q1582.41 26.1121 1586.05 26.1121 Q1595.9 26.1121 1600.76 31.2163 Q1605.62 36.3204 1605.62 46.6907 Z" fill="#000000" fill-rule="evenodd" fill-opacity="1" /><path clip-path="url(#clip950)" d="M1647.26 34.1734 Q1646.01 33.4443 1644.51 33.1202 Q1643.05 32.7556 1641.27 32.7556 Q1634.95 32.7556 1631.54 36.8875 Q1628.18 40.9789 1628.18 48.6757 L1628.18 72.576 L1620.69 72.576 L1620.69 27.2059 L1628.18 27.2059 L1628.18 34.2544 Q1630.53 30.1225 1634.3 28.1376 Q1638.07 26.1121 1643.45 26.1121 Q1644.22 26.1121 1645.15 26.2337 Q1646.09 26.3147 1647.22 26.5172 L1647.26 34.1734 Z" fill="#000000" fill-rule="evenodd" fill-opacity="1" /><path clip-path="url(#clip950)" d="M1688.94 35.9153 Q1691.74 30.8922 1695.63 28.5022 Q1699.52 26.1121 1704.78 26.1121 Q1711.87 26.1121 1715.72 31.0947 Q1719.57 36.0368 1719.57 45.1919 L1719.57 72.576 L1712.08 72.576 L1712.08 45.4349 Q1712.08 38.913 1709.77 35.7533 Q1707.46 32.5936 1702.72 32.5936 Q1696.93 32.5936 1693.56 36.4419 Q1690.2 40.2903 1690.2 46.9338 L1690.2 72.576 L1682.71 72.576 L1682.71 45.4349 Q1682.71 38.8725 1680.4 35.7533 Q1678.09 32.5936 1673.27 32.5936 Q1667.56 32.5936 1664.19 36.4824 Q1660.83 40.3308 1660.83 46.9338 L1660.83 72.576 L1653.34 72.576 L1653.34 27.2059 L1660.83 27.2059 L1660.83 34.2544 Q1663.38 30.082 1666.95 28.0971 Q1670.51 26.1121 1675.41 26.1121 Q1680.36 26.1121 1683.8 28.6237 Q1687.28 31.1352 1688.94 35.9153 Z" fill="#000000" fill-rule="evenodd" fill-opacity="1" /><path clip-path="url(#clip950)" d="M1761.13 12.096 L1799.37 12.096 L1799.37 18.9825 L1769.31 18.9825 L1769.31 36.8875 L1798.12 36.8875 L1798.12 43.7741 L1769.31 43.7741 L1769.31 65.6895 L1800.1 65.6895 L1800.1 72.576 L1761.13 72.576 L1761.13 12.096 Z" fill="#000000" fill-rule="evenodd" fill-opacity="1" /><path clip-path="url(#clip950)" d="M1848.55 35.9153 Q1851.35 30.8922 1855.23 28.5022 Q1859.12 26.1121 1864.39 26.1121 Q1871.48 26.1121 1875.33 31.0947 Q1879.18 36.0368 1879.18 45.1919 L1879.18 72.576 L1871.68 72.576 L1871.68 45.4349 Q1871.68 38.913 1869.37 35.7533 Q1867.06 32.5936 1862.32 32.5936 Q1856.53 32.5936 1853.17 36.4419 Q1849.81 40.2903 1849.81 46.9338 L1849.81 72.576 L1842.31 72.576 L1842.31 45.4349 Q1842.31 38.8725 1840 35.7533 Q1837.69 32.5936 1832.87 32.5936 Q1827.16 32.5936 1823.8 36.4824 Q1820.44 40.3308 1820.44 46.9338 L1820.44 72.576 L1812.94 72.576 L1812.94 27.2059 L1820.44 27.2059 L1820.44 34.2544 Q1822.99 30.082 1826.55 28.0971 Q1830.12 26.1121 1835.02 26.1121 Q1839.96 26.1121 1843.41 28.6237 Q1846.89 31.1352 1848.55 35.9153 Z" fill="#000000" fill-rule="evenodd" fill-opacity="1" /><path clip-path="url(#clip950)" d="M1901.25 65.7705 L1901.25 89.8329 L1893.76 89.8329 L1893.76 27.2059 L1901.25 27.2059 L1901.25 34.0924 Q1903.6 30.0415 1907.17 28.0971 Q1910.77 26.1121 1915.76 26.1121 Q1924.02 26.1121 1929.16 32.6746 Q1934.35 39.2371 1934.35 49.9314 Q1934.35 60.6258 1929.16 67.1883 Q1924.02 73.7508 1915.76 73.7508 Q1910.77 73.7508 1907.17 71.8063 Q1903.6 69.8214 1901.25 65.7705 M1926.61 49.9314 Q1926.61 41.7081 1923.21 37.0496 Q1919.85 32.3505 1913.93 32.3505 Q1908.02 32.3505 1904.62 37.0496 Q1901.25 41.7081 1901.25 49.9314 Q1901.25 58.1548 1904.62 62.8538 Q1908.02 67.5124 1913.93 67.5124 Q1919.85 67.5124 1923.21 62.8538 Q1926.61 58.1548 1926.61 49.9314 Z" fill="#000000" fill-rule="evenodd" fill-opacity="1" /><path clip-path="url(#clip950)" d="M1946.7 9.54393 L1954.16 9.54393 L1954.16 72.576 L1946.7 72.576 L1946.7 9.54393 Z" fill="#000000" fill-rule="evenodd" fill-opacity="1" /><path clip-path="url(#clip950)" d="M1987.33 32.4315 Q1981.34 32.4315 1977.86 37.1306 Q1974.37 41.7891 1974.37 49.9314 Q1974.37 58.0738 1977.81 62.7728 Q1981.3 67.4314 1987.33 67.4314 Q1993.29 67.4314 1996.77 62.7323 Q2000.26 58.0333 2000.26 49.9314 Q2000.26 41.8701 1996.77 37.1711 Q1993.29 32.4315 1987.33 32.4315 M1987.33 26.1121 Q1997.06 26.1121 2002.61 32.4315 Q2008.16 38.7509 2008.16 49.9314 Q2008.16 61.0714 2002.61 67.4314 Q1997.06 73.7508 1987.33 73.7508 Q1977.57 73.7508 1972.02 67.4314 Q1966.51 61.0714 1966.51 49.9314 Q1966.51 38.7509 1972.02 32.4315 Q1977.57 26.1121 1987.33 26.1121 Z" fill="#000000" fill-rule="evenodd" fill-opacity="1" /><path clip-path="url(#clip950)" d="M2039.39 76.7889 Q2036.23 84.8907 2033.23 87.3618 Q2030.23 89.8329 2025.21 89.8329 L2019.26 89.8329 L2019.26 83.5945 L2023.63 83.5945 Q2026.71 83.5945 2028.41 82.1361 Q2030.11 80.6778 2032.18 75.2496 L2033.51 71.8468 L2015.16 27.2059 L2023.06 27.2059 L2037.24 62.6918 L2051.42 27.2059 L2059.32 27.2059 L2039.39 76.7889 Z" fill="#000000" fill-rule="evenodd" fill-opacity="1" /><path clip-path="url(#clip950)" d="M2104.93 35.9153 Q2107.73 30.8922 2111.62 28.5022 Q2115.51 26.1121 2120.77 26.1121 Q2127.86 26.1121 2131.71 31.0947 Q2135.56 36.0368 2135.56 45.1919 L2135.56 72.576 L2128.06 72.576 L2128.06 45.4349 Q2128.06 38.913 2125.75 35.7533 Q2123.44 32.5936 2118.71 32.5936 Q2112.91 32.5936 2109.55 36.4419 Q2106.19 40.2903 2106.19 46.9338 L2106.19 72.576 L2098.69 72.576 L2098.69 45.4349 Q2098.69 38.8725 2096.38 35.7533 Q2094.08 32.5936 2089.26 32.5936 Q2083.54 32.5936 2080.18 36.4824 Q2076.82 40.3308 2076.82 46.9338 L2076.82 72.576 L2069.32 72.576 L2069.32 27.2059 L2076.82 27.2059 L2076.82 34.2544 Q2079.37 30.082 2082.94 28.0971 Q2086.5 26.1121 2091.4 26.1121 Q2096.34 26.1121 2099.79 28.6237 Q2103.27 31.1352 2104.93 35.9153 Z" fill="#000000" fill-rule="evenodd" fill-opacity="1" /><path clip-path="url(#clip950)" d="M2189.23 48.0275 L2189.23 51.6733 L2154.96 51.6733 Q2155.45 59.3701 2159.58 63.421 Q2163.75 67.4314 2171.16 67.4314 Q2175.46 67.4314 2179.47 66.3781 Q2183.52 65.3249 2187.49 63.2184 L2187.49 70.267 Q2183.48 71.9684 2179.27 72.8596 Q2175.05 73.7508 2170.72 73.7508 Q2159.86 73.7508 2153.5 67.4314 Q2147.18 61.1119 2147.18 50.3365 Q2147.18 39.1965 2153.18 32.6746 Q2159.21 26.1121 2169.42 26.1121 Q2178.58 26.1121 2183.88 32.0264 Q2189.23 37.9003 2189.23 48.0275 M2181.78 45.84 Q2181.7 39.7232 2178.33 36.0774 Q2175.01 32.4315 2169.5 32.4315 Q2163.27 32.4315 2159.5 35.9558 Q2155.77 39.4801 2155.2 45.8805 L2181.78 45.84 Z" fill="#000000" fill-rule="evenodd" fill-opacity="1" /><path clip-path="url(#clip950)" d="M2239.18 45.1919 L2239.18 72.576 L2231.73 72.576 L2231.73 45.4349 Q2231.73 38.994 2229.21 35.7938 Q2226.7 32.5936 2221.68 32.5936 Q2215.64 32.5936 2212.16 36.4419 Q2208.68 40.2903 2208.68 46.9338 L2208.68 72.576 L2201.18 72.576 L2201.18 27.2059 L2208.68 27.2059 L2208.68 34.2544 Q2211.35 30.163 2214.95 28.1376 Q2218.6 26.1121 2223.34 26.1121 Q2231.16 26.1121 2235.17 30.9732 Q2239.18 35.7938 2239.18 45.1919 Z" fill="#000000" fill-rule="evenodd" fill-opacity="1" /><path clip-path="url(#clip950)" d="M2261.42 14.324 L2261.42 27.2059 L2276.77 27.2059 L2276.77 32.9987 L2261.42 32.9987 L2261.42 57.6282 Q2261.42 63.1779 2262.92 64.7578 Q2264.46 66.3376 2269.12 66.3376 L2276.77 66.3376 L2276.77 72.576 L2269.12 72.576 Q2260.49 72.576 2257.21 69.3758 Q2253.92 66.1351 2253.92 57.6282 L2253.92 32.9987 L2248.46 32.9987 L2248.46 27.2059 L2253.92 27.2059 L2253.92 14.324 L2261.42 14.324 Z" fill="#000000" fill-rule="evenodd" fill-opacity="1" /><polyline clip-path="url(#clip952)" style="stroke:#808080; stroke-linecap:butt; stroke-linejoin:round; stroke-width:4; stroke-opacity:1; fill:none" stroke-dasharray="16, 10" points="
  367.683,1197.38 581.823,1197.38 795.962,1197.38 1010.1,1197.38 1224.24,1197.38 1438.38,1197.38 1652.52,1197.38 1866.66,1197.38 2080.8,1197.38 2294.94,1197.38 
  
  "/>
<path clip-path="url(#clip952)" d="
M367.683 673.716 L581.823 428.718 L795.962 646.266 L1010.1 839.159 L1224.24 935.673 L1438.38 1112.33 L1652.52 1197.38 L1866.66 1250.06 L2080.8 1130.68 L2294.94 1386.4 
  L2294.94 786.08 L2080.8 983.456 L1866.66 1128.5 L1652.52 1197.38 L1438.38 958.233 L1224.24 750.28 L1010.1 607.369 L795.962 396.62 L581.823 160.256 L367.683 437.116 
   Z
  " fill="#009af9" fill-rule="evenodd" fill-opacity="0.35"/>
<polyline clip-path="url(#clip952)" style="stroke:#009af9; stroke-linecap:butt; stroke-linejoin:round; stroke-width:0; stroke-opacity:1; fill:none" points="
  367.683,673.716 581.823,428.718 795.962,646.266 1010.1,839.159 1224.24,935.673 1438.38,1112.33 1652.52,1197.38 1866.66,1250.06 2080.8,1130.68 2294.94,1386.4 
  
  "/>
<polyline clip-path="url(#clip952)" style="stroke:#e26f46; stroke-linecap:butt; stroke-linejoin:round; stroke-width:4; stroke-opacity:1; fill:none" points="
  367.683,555.416 581.823,294.487 795.962,521.443 1010.1,723.264 1224.24,842.976 1438.38,1035.28 1652.52,1197.38 1866.66,1189.28 2080.8,1057.07 2294.94,1086.24 
  
  "/>
<circle clip-path="url(#clip952)" cx="367.683" cy="555.416" r="14" fill="#e26f46" fill-rule="evenodd" fill-opacity="1" stroke="#000000" stroke-opacity="1" stroke-width="0"/>
<circle clip-path="url(#clip952)" cx="581.823" cy="294.487" r="14" fill="#e26f46" fill-rule="evenodd" fill-opacity="1" stroke="#000000" stroke-opacity="1" stroke-width="0"/>
<circle clip-path="url(#clip952)" cx="795.962" cy="521.443" r="14" fill="#e26f46" fill-rule="evenodd" fill-opacity="1" stroke="#000000" stroke-opacity="1" stroke-width="0"/>
<circle clip-path="url(#clip952)" cx="1010.1" cy="723.264" r="14" fill="#e26f46" fill-rule="evenodd" fill-opacity="1" stroke="#000000" stroke-opacity="1" stroke-width="0"/>
<circle clip-path="url(#clip952)" cx="1224.24" cy="842.976" r="14" fill="#e26f46" fill-rule="evenodd" fill-opacity="1" stroke="#000000" stroke-opacity="1" stroke-width="0"/>
<circle clip-path="url(#clip952)" cx="1438.38" cy="1035.28" r="14" fill="#e26f46" fill-rule="evenodd" fill-opacity="1" stroke="#000000" stroke-opacity="1" stroke-width="0"/>
<circle clip-path="url(#clip952)" cx="1652.52" cy="1197.38" r="14" fill="#e26f46" fill-rule="evenodd" fill-opacity="1" stroke="#000000" stroke-opacity="1" stroke-width="0"/>
<circle clip-path="url(#clip952)" cx="1866.66" cy="1189.28" r="14" fill="#e26f46" fill-rule="evenodd" fill-opacity="1" stroke="#000000" stroke-opacity="1" stroke-width="0"/>
<circle clip-path="url(#clip952)" cx="2080.8" cy="1057.07" r="14" fill="#e26f46" fill-rule="evenodd" fill-opacity="1" stroke="#000000" stroke-opacity="1" stroke-width="0"/>
<circle clip-path="url(#clip952)" cx="2294.94" cy="1086.24" r="14" fill="#e26f46" fill-rule="evenodd" fill-opacity="1" stroke="#000000" stroke-opacity="1" stroke-width="0"/>
<path clip-path="url(#clip950)" d="
M1599.55 1379.86 L2284.66 1379.86 L2284.66 1224.34 L1599.55 1224.34  Z
  " fill="#ffffff" fill-rule="evenodd" fill-opacity="1"/>
<polyline clip-path="url(#clip950)" style="stroke:#000000; stroke-linecap:butt; stroke-linejoin:round; stroke-width:4; stroke-opacity:1; fill:none" points="
  1599.55,1379.86 2284.66,1379.86 2284.66,1224.34 1599.55,1224.34 1599.55,1379.86 
  "/>
<path clip-path="url(#clip950)" d="
M1622.25 1296.91 L1758.44 1296.91 L1758.44 1255.44 L1622.25 1255.44 L1622.25 1296.91  Z
  " fill="#009af9" fill-rule="evenodd" fill-opacity="0.35"/>
<polyline clip-path="url(#clip950)" style="stroke:#009af9; stroke-linecap:butt; stroke-linejoin:round; stroke-width:0; stroke-opacity:1; fill:none" points="
  1622.25,1255.44 1758.44,1255.44 
  "/>
<path clip-path="url(#clip950)" d="M1783.36 1292.74 L1783.36 1288.48 Q1785.12 1289.31 1786.93 1289.75 Q1788.73 1290.19 1790.47 1290.19 Q1795.1 1290.19 1797.53 1287.09 Q1799.98 1283.97 1800.33 1277.62 Q1798.99 1279.61 1796.93 1280.68 Q1794.87 1281.74 1792.37 1281.74 Q1787.18 1281.74 1784.15 1278.62 Q1781.14 1275.47 1781.14 1270.03 Q1781.14 1264.71 1784.29 1261.49 Q1787.44 1258.27 1792.67 1258.27 Q1798.66 1258.27 1801.81 1262.88 Q1804.98 1267.46 1804.98 1276.21 Q1804.98 1284.38 1801.09 1289.27 Q1797.23 1294.13 1790.68 1294.13 Q1788.92 1294.13 1787.11 1293.78 Q1785.31 1293.43 1783.36 1292.74 M1792.67 1278.09 Q1795.82 1278.09 1797.64 1275.93 Q1799.5 1273.78 1799.5 1270.03 Q1799.5 1266.3 1797.64 1264.15 Q1795.82 1261.97 1792.67 1261.97 Q1789.52 1261.97 1787.67 1264.15 Q1785.84 1266.3 1785.84 1270.03 Q1785.84 1273.78 1787.67 1275.93 Q1789.52 1278.09 1792.67 1278.09 Z" fill="#000000" fill-rule="evenodd" fill-opacity="1" /><path clip-path="url(#clip950)" d="M1813.43 1258.9 L1831.79 1258.9 L1831.79 1262.83 L1817.71 1262.83 L1817.71 1271.3 Q1818.73 1270.96 1819.75 1270.79 Q1820.77 1270.61 1821.79 1270.61 Q1827.57 1270.61 1830.95 1273.78 Q1834.33 1276.95 1834.33 1282.37 Q1834.33 1287.95 1830.86 1291.05 Q1827.39 1294.13 1821.07 1294.13 Q1818.89 1294.13 1816.63 1293.76 Q1814.38 1293.39 1811.97 1292.65 L1811.97 1287.95 Q1814.06 1289.08 1816.28 1289.64 Q1818.5 1290.19 1820.98 1290.19 Q1824.98 1290.19 1827.32 1288.09 Q1829.66 1285.98 1829.66 1282.37 Q1829.66 1278.76 1827.32 1276.65 Q1824.98 1274.54 1820.98 1274.54 Q1819.1 1274.54 1817.23 1274.96 Q1815.38 1275.38 1813.43 1276.26 L1813.43 1258.9 Z" fill="#000000" fill-rule="evenodd" fill-opacity="1" /><path clip-path="url(#clip950)" d="M1872.94 1278.25 Q1870.93 1278.25 1869.77 1279.96 Q1868.64 1281.67 1868.64 1284.73 Q1868.64 1287.74 1869.77 1289.47 Q1870.93 1291.19 1872.94 1291.19 Q1874.91 1291.19 1876.05 1289.47 Q1877.2 1287.74 1877.2 1284.73 Q1877.2 1281.7 1876.05 1279.98 Q1874.91 1278.25 1872.94 1278.25 M1872.94 1275.31 Q1876.6 1275.31 1878.75 1277.85 Q1880.91 1280.4 1880.91 1284.73 Q1880.91 1289.06 1878.73 1291.6 Q1876.58 1294.13 1872.94 1294.13 Q1869.24 1294.13 1867.09 1291.6 Q1864.94 1289.06 1864.94 1284.73 Q1864.94 1280.38 1867.09 1277.85 Q1869.26 1275.31 1872.94 1275.31 M1849.06 1261.21 Q1847.07 1261.21 1845.91 1262.95 Q1844.77 1264.66 1844.77 1267.67 Q1844.77 1270.72 1845.91 1272.44 Q1847.04 1274.15 1849.06 1274.15 Q1851.07 1274.15 1852.2 1272.44 Q1853.36 1270.72 1853.36 1267.67 Q1853.36 1264.68 1852.2 1262.95 Q1851.05 1261.21 1849.06 1261.21 M1869.96 1258.27 L1873.66 1258.27 L1852.04 1294.13 L1848.34 1294.13 L1869.96 1258.27 M1849.06 1258.27 Q1852.71 1258.27 1854.89 1260.82 Q1857.06 1263.34 1857.06 1267.67 Q1857.06 1272.04 1854.89 1274.57 Q1852.74 1277.09 1849.06 1277.09 Q1845.38 1277.09 1843.22 1274.57 Q1841.09 1272.02 1841.09 1267.67 Q1841.09 1263.36 1843.25 1260.82 Q1845.4 1258.27 1849.06 1258.27 Z" fill="#000000" fill-rule="evenodd" fill-opacity="1" /><path clip-path="url(#clip950)" d="M1929.12 1261.56 L1929.12 1266.49 Q1926.76 1264.29 1924.08 1263.2 Q1921.42 1262.11 1918.41 1262.11 Q1912.48 1262.11 1909.33 1265.75 Q1906.19 1269.36 1906.19 1276.21 Q1906.19 1283.04 1909.33 1286.67 Q1912.48 1290.28 1918.41 1290.28 Q1921.42 1290.28 1924.08 1289.2 Q1926.76 1288.11 1929.12 1285.91 L1929.12 1290.79 Q1926.67 1292.46 1923.92 1293.29 Q1921.19 1294.13 1918.13 1294.13 Q1910.28 1294.13 1905.77 1289.34 Q1901.25 1284.52 1901.25 1276.21 Q1901.25 1267.88 1905.77 1263.09 Q1910.28 1258.27 1918.13 1258.27 Q1921.23 1258.27 1923.96 1259.1 Q1926.72 1259.91 1929.12 1261.56 Z" fill="#000000" fill-rule="evenodd" fill-opacity="1" /><path clip-path="url(#clip950)" d="M1936.35 1258.9 L1941.02 1258.9 L1941.02 1293.46 L1936.35 1293.46 L1936.35 1258.9 Z" fill="#000000" fill-rule="evenodd" fill-opacity="1" /><polyline clip-path="url(#clip950)" style="stroke:#e26f46; stroke-linecap:butt; stroke-linejoin:round; stroke-width:4; stroke-opacity:1; fill:none" points="
  1622.25,1328.02 1758.44,1328.02 
  "/>
<circle clip-path="url(#clip950)" cx="1690.34" cy="1328.02" r="23" fill="#e26f46" fill-rule="evenodd" fill-opacity="1" stroke="#000000" stroke-opacity="1" stroke-width="0"/>
<path clip-path="url(#clip950)" d="M1785.82 1314.58 L1785.82 1327.56 L1791.69 1327.56 Q1794.96 1327.56 1796.74 1325.88 Q1798.52 1324.19 1798.52 1321.06 Q1798.52 1317.96 1796.74 1316.27 Q1794.96 1314.58 1791.69 1314.58 L1785.82 1314.58 M1781.14 1310.74 L1791.69 1310.74 Q1797.51 1310.74 1800.47 1313.38 Q1803.45 1315.99 1803.45 1321.06 Q1803.45 1326.18 1800.47 1328.79 Q1797.51 1331.41 1791.69 1331.41 L1785.82 1331.41 L1785.82 1345.3 L1781.14 1345.3 L1781.14 1310.74 Z" fill="#000000" fill-rule="evenodd" fill-opacity="1" /><path clip-path="url(#clip950)" d="M1823.73 1323.35 Q1823.01 1322.94 1822.16 1322.75 Q1821.32 1322.54 1820.31 1322.54 Q1816.69 1322.54 1814.75 1324.9 Q1812.83 1327.24 1812.83 1331.64 L1812.83 1345.3 L1808.55 1345.3 L1808.55 1319.37 L1812.83 1319.37 L1812.83 1323.4 Q1814.17 1321.04 1816.32 1319.9 Q1818.48 1318.75 1821.56 1318.75 Q1822 1318.75 1822.53 1318.81 Q1823.06 1318.86 1823.71 1318.98 L1823.73 1323.35 Z" fill="#000000" fill-rule="evenodd" fill-opacity="1" /><path clip-path="url(#clip950)" d="M1849.33 1331.27 L1849.33 1333.35 L1829.75 1333.35 Q1830.03 1337.75 1832.39 1340.06 Q1834.77 1342.36 1839.01 1342.36 Q1841.46 1342.36 1843.75 1341.75 Q1846.07 1341.15 1848.34 1339.95 L1848.34 1343.98 Q1846.05 1344.95 1843.64 1345.46 Q1841.23 1345.97 1838.75 1345.97 Q1832.55 1345.97 1828.92 1342.36 Q1825.31 1338.75 1825.31 1332.59 Q1825.31 1326.22 1828.73 1322.5 Q1832.18 1318.75 1838.01 1318.75 Q1843.25 1318.75 1846.28 1322.13 Q1849.33 1325.48 1849.33 1331.27 M1845.07 1330.02 Q1845.03 1326.52 1843.11 1324.44 Q1841.21 1322.36 1838.06 1322.36 Q1834.5 1322.36 1832.34 1324.37 Q1830.21 1326.38 1829.89 1330.04 L1845.07 1330.02 Z" fill="#000000" fill-rule="evenodd" fill-opacity="1" /><path clip-path="url(#clip950)" d="M1873.38 1323.31 L1873.38 1309.28 L1877.64 1309.28 L1877.64 1345.3 L1873.38 1345.3 L1873.38 1341.41 Q1872.04 1343.72 1869.98 1344.86 Q1867.94 1345.97 1865.07 1345.97 Q1860.38 1345.97 1857.41 1342.22 Q1854.47 1338.47 1854.47 1332.36 Q1854.47 1326.25 1857.41 1322.5 Q1860.38 1318.75 1865.07 1318.75 Q1867.94 1318.75 1869.98 1319.88 Q1872.04 1320.99 1873.38 1323.31 M1858.87 1332.36 Q1858.87 1337.06 1860.79 1339.74 Q1862.74 1342.4 1866.12 1342.4 Q1869.5 1342.4 1871.44 1339.74 Q1873.38 1337.06 1873.38 1332.36 Q1873.38 1327.66 1871.44 1325 Q1869.5 1322.31 1866.12 1322.31 Q1862.74 1322.31 1860.79 1325 Q1858.87 1327.66 1858.87 1332.36 Z" fill="#000000" fill-rule="evenodd" fill-opacity="1" /><path clip-path="url(#clip950)" d="M1886.42 1319.37 L1890.68 1319.37 L1890.68 1345.3 L1886.42 1345.3 L1886.42 1319.37 M1886.42 1309.28 L1890.68 1309.28 L1890.68 1314.67 L1886.42 1314.67 L1886.42 1309.28 Z" fill="#000000" fill-rule="evenodd" fill-opacity="1" /><path clip-path="url(#clip950)" d="M1918.25 1320.37 L1918.25 1324.35 Q1916.44 1323.35 1914.61 1322.87 Q1912.81 1322.36 1910.95 1322.36 Q1906.81 1322.36 1904.52 1325 Q1902.23 1327.61 1902.23 1332.36 Q1902.23 1337.1 1904.52 1339.74 Q1906.81 1342.36 1910.95 1342.36 Q1912.81 1342.36 1914.61 1341.87 Q1916.44 1341.36 1918.25 1340.37 L1918.25 1344.3 Q1916.46 1345.13 1914.54 1345.55 Q1912.64 1345.97 1910.49 1345.97 Q1904.63 1345.97 1901.19 1342.29 Q1897.74 1338.61 1897.74 1332.36 Q1897.74 1326.01 1901.21 1322.38 Q1904.7 1318.75 1910.77 1318.75 Q1912.74 1318.75 1914.61 1319.16 Q1916.49 1319.56 1918.25 1320.37 Z" fill="#000000" fill-rule="evenodd" fill-opacity="1" /><path clip-path="url(#clip950)" d="M1929.87 1312.01 L1929.87 1319.37 L1938.64 1319.37 L1938.64 1322.68 L1929.87 1322.68 L1929.87 1336.75 Q1929.87 1339.93 1930.72 1340.83 Q1931.6 1341.73 1934.26 1341.73 L1938.64 1341.73 L1938.64 1345.3 L1934.26 1345.3 Q1929.33 1345.3 1927.46 1343.47 Q1925.58 1341.62 1925.58 1336.75 L1925.58 1322.68 L1922.46 1322.68 L1922.46 1319.37 L1925.58 1319.37 L1925.58 1312.01 L1929.87 1312.01 Z" fill="#000000" fill-rule="evenodd" fill-opacity="1" /><path clip-path="url(#clip950)" d="M1966.42 1331.27 L1966.42 1333.35 L1946.83 1333.35 Q1947.11 1337.75 1949.47 1340.06 Q1951.86 1342.36 1956.09 1342.36 Q1958.55 1342.36 1960.84 1341.75 Q1963.15 1341.15 1965.42 1339.95 L1965.42 1343.98 Q1963.13 1344.95 1960.72 1345.46 Q1958.31 1345.97 1955.84 1345.97 Q1949.63 1345.97 1946 1342.36 Q1942.39 1338.75 1942.39 1332.59 Q1942.39 1326.22 1945.81 1322.5 Q1949.26 1318.75 1955.1 1318.75 Q1960.33 1318.75 1963.36 1322.13 Q1966.42 1325.48 1966.42 1331.27 M1962.16 1330.02 Q1962.11 1326.52 1960.19 1324.44 Q1958.29 1322.36 1955.14 1322.36 Q1951.58 1322.36 1949.43 1324.37 Q1947.3 1326.38 1946.97 1330.04 L1962.16 1330.02 Z" fill="#000000" fill-rule="evenodd" fill-opacity="1" /><path clip-path="url(#clip950)" d="M1990.47 1323.31 L1990.47 1309.28 L1994.73 1309.28 L1994.73 1345.3 L1990.47 1345.3 L1990.47 1341.41 Q1989.12 1343.72 1987.06 1344.86 Q1985.03 1345.97 1982.16 1345.97 Q1977.46 1345.97 1974.49 1342.22 Q1971.56 1338.47 1971.56 1332.36 Q1971.56 1326.25 1974.49 1322.5 Q1977.46 1318.75 1982.16 1318.75 Q1985.03 1318.75 1987.06 1319.88 Q1989.12 1320.99 1990.47 1323.31 M1975.95 1332.36 Q1975.95 1337.06 1977.87 1339.74 Q1979.82 1342.4 1983.2 1342.4 Q1986.58 1342.4 1988.52 1339.74 Q1990.47 1337.06 1990.47 1332.36 Q1990.47 1327.66 1988.52 1325 Q1986.58 1322.31 1983.2 1322.31 Q1979.82 1322.31 1977.87 1325 Q1975.95 1327.66 1975.95 1332.36 Z" fill="#000000" fill-rule="evenodd" fill-opacity="1" /><path clip-path="url(#clip950)" d="M2035.14 1329.09 Q2036.65 1329.6 2038.06 1331.27 Q2039.49 1332.94 2040.93 1335.85 L2045.68 1345.3 L2040.65 1345.3 L2036.23 1336.43 Q2034.52 1332.96 2032.9 1331.82 Q2031.3 1330.69 2028.52 1330.69 L2023.43 1330.69 L2023.43 1345.3 L2018.75 1345.3 L2018.75 1310.74 L2029.31 1310.74 Q2035.24 1310.74 2038.15 1313.21 Q2041.07 1315.69 2041.07 1320.69 Q2041.07 1323.95 2039.54 1326.11 Q2038.04 1328.26 2035.14 1329.09 M2023.43 1314.58 L2023.43 1326.85 L2029.31 1326.85 Q2032.69 1326.85 2034.4 1325.3 Q2036.14 1323.72 2036.14 1320.69 Q2036.14 1317.66 2034.4 1316.13 Q2032.69 1314.58 2029.31 1314.58 L2023.43 1314.58 Z" fill="#000000" fill-rule="evenodd" fill-opacity="1" /><path clip-path="url(#clip950)" d="M2071.55 1331.27 L2071.55 1333.35 L2051.97 1333.35 Q2052.25 1337.75 2054.61 1340.06 Q2056.99 1342.36 2061.23 1342.36 Q2063.68 1342.36 2065.98 1341.75 Q2068.29 1341.15 2070.56 1339.95 L2070.56 1343.98 Q2068.27 1344.95 2065.86 1345.46 Q2063.45 1345.97 2060.98 1345.97 Q2054.77 1345.97 2051.14 1342.36 Q2047.53 1338.75 2047.53 1332.59 Q2047.53 1326.22 2050.95 1322.5 Q2054.4 1318.75 2060.24 1318.75 Q2065.47 1318.75 2068.5 1322.13 Q2071.55 1325.48 2071.55 1331.27 M2067.3 1330.02 Q2067.25 1326.52 2065.33 1324.44 Q2063.43 1322.36 2060.28 1322.36 Q2056.72 1322.36 2054.56 1324.37 Q2052.43 1326.38 2052.11 1330.04 L2067.3 1330.02 Z" fill="#000000" fill-rule="evenodd" fill-opacity="1" /><path clip-path="url(#clip950)" d="M2095.07 1320.13 L2095.07 1324.16 Q2093.27 1323.24 2091.32 1322.77 Q2089.38 1322.31 2087.3 1322.31 Q2084.12 1322.31 2082.53 1323.28 Q2080.95 1324.25 2080.95 1326.2 Q2080.95 1327.68 2082.09 1328.54 Q2083.22 1329.37 2086.65 1330.13 L2088.11 1330.46 Q2092.64 1331.43 2094.54 1333.21 Q2096.46 1334.97 2096.46 1338.14 Q2096.46 1341.75 2093.59 1343.86 Q2090.74 1345.97 2085.74 1345.97 Q2083.66 1345.97 2081.39 1345.55 Q2079.15 1345.16 2076.65 1344.35 L2076.65 1339.95 Q2079.01 1341.18 2081.3 1341.8 Q2083.59 1342.4 2085.84 1342.4 Q2088.85 1342.4 2090.47 1341.38 Q2092.09 1340.34 2092.09 1338.47 Q2092.09 1336.73 2090.91 1335.81 Q2089.75 1334.88 2085.79 1334.02 L2084.31 1333.68 Q2080.35 1332.84 2078.59 1331.13 Q2076.83 1329.39 2076.83 1326.38 Q2076.83 1322.73 2079.42 1320.74 Q2082.02 1318.75 2086.79 1318.75 Q2089.15 1318.75 2091.23 1319.09 Q2093.31 1319.44 2095.07 1320.13 Z" fill="#000000" fill-rule="evenodd" fill-opacity="1" /><path clip-path="url(#clip950)" d="M2107.36 1341.41 L2107.36 1355.16 L2103.08 1355.16 L2103.08 1319.37 L2107.36 1319.37 L2107.36 1323.31 Q2108.71 1320.99 2110.74 1319.88 Q2112.8 1318.75 2115.65 1318.75 Q2120.37 1318.75 2123.31 1322.5 Q2126.28 1326.25 2126.28 1332.36 Q2126.28 1338.47 2123.31 1342.22 Q2120.37 1345.97 2115.65 1345.97 Q2112.8 1345.97 2110.74 1344.86 Q2108.71 1343.72 2107.36 1341.41 M2121.86 1332.36 Q2121.86 1327.66 2119.91 1325 Q2117.99 1322.31 2114.61 1322.31 Q2111.23 1322.31 2109.29 1325 Q2107.36 1327.66 2107.36 1332.36 Q2107.36 1337.06 2109.29 1339.74 Q2111.23 1342.4 2114.61 1342.4 Q2117.99 1342.4 2119.91 1339.74 Q2121.86 1337.06 2121.86 1332.36 Z" fill="#000000" fill-rule="evenodd" fill-opacity="1" /><path clip-path="url(#clip950)" d="M2143.38 1322.36 Q2139.96 1322.36 2137.97 1325.04 Q2135.98 1327.7 2135.98 1332.36 Q2135.98 1337.01 2137.94 1339.69 Q2139.93 1342.36 2143.38 1342.36 Q2146.79 1342.36 2148.78 1339.67 Q2150.77 1336.99 2150.77 1332.36 Q2150.77 1327.75 2148.78 1325.06 Q2146.79 1322.36 2143.38 1322.36 M2143.38 1318.75 Q2148.94 1318.75 2152.11 1322.36 Q2155.28 1325.97 2155.28 1332.36 Q2155.28 1338.72 2152.11 1342.36 Q2148.94 1345.97 2143.38 1345.97 Q2137.8 1345.97 2134.63 1342.36 Q2131.48 1338.72 2131.48 1332.36 Q2131.48 1325.97 2134.63 1322.36 Q2137.8 1318.75 2143.38 1318.75 Z" fill="#000000" fill-rule="evenodd" fill-opacity="1" /><path clip-path="url(#clip950)" d="M2183.89 1329.65 L2183.89 1345.3 L2179.63 1345.3 L2179.63 1329.79 Q2179.63 1326.11 2178.2 1324.28 Q2176.76 1322.45 2173.89 1322.45 Q2170.44 1322.45 2168.45 1324.65 Q2166.46 1326.85 2166.46 1330.64 L2166.46 1345.3 L2162.18 1345.3 L2162.18 1319.37 L2166.46 1319.37 L2166.46 1323.4 Q2167.99 1321.06 2170.05 1319.9 Q2172.13 1318.75 2174.84 1318.75 Q2179.31 1318.75 2181.6 1321.52 Q2183.89 1324.28 2183.89 1329.65 Z" fill="#000000" fill-rule="evenodd" fill-opacity="1" /><path clip-path="url(#clip950)" d="M2208.91 1320.13 L2208.91 1324.16 Q2207.11 1323.24 2205.16 1322.77 Q2203.22 1322.31 2201.14 1322.31 Q2197.97 1322.31 2196.37 1323.28 Q2194.79 1324.25 2194.79 1326.2 Q2194.79 1327.68 2195.93 1328.54 Q2197.06 1329.37 2200.49 1330.13 L2201.95 1330.46 Q2206.48 1331.43 2208.38 1333.21 Q2210.3 1334.97 2210.3 1338.14 Q2210.3 1341.75 2207.43 1343.86 Q2204.59 1345.97 2199.59 1345.97 Q2197.5 1345.97 2195.23 1345.55 Q2192.99 1345.16 2190.49 1344.35 L2190.49 1339.95 Q2192.85 1341.18 2195.14 1341.8 Q2197.43 1342.4 2199.68 1342.4 Q2202.69 1342.4 2204.31 1341.38 Q2205.93 1340.34 2205.93 1338.47 Q2205.93 1336.73 2204.75 1335.81 Q2203.59 1334.88 2199.63 1334.02 L2198.15 1333.68 Q2194.19 1332.84 2192.43 1331.13 Q2190.67 1329.39 2190.67 1326.38 Q2190.67 1322.73 2193.27 1320.74 Q2195.86 1318.75 2200.63 1318.75 Q2202.99 1318.75 2205.07 1319.09 Q2207.16 1319.44 2208.91 1320.13 Z" fill="#000000" fill-rule="evenodd" fill-opacity="1" /><path clip-path="url(#clip950)" d="M2239.26 1331.27 L2239.26 1333.35 L2219.68 1333.35 Q2219.96 1337.75 2222.32 1340.06 Q2224.7 1342.36 2228.94 1342.36 Q2231.39 1342.36 2233.68 1341.75 Q2236 1341.15 2238.27 1339.95 L2238.27 1343.98 Q2235.97 1344.95 2233.57 1345.46 Q2231.16 1345.97 2228.68 1345.97 Q2222.48 1345.97 2218.85 1342.36 Q2215.23 1338.75 2215.23 1332.59 Q2215.23 1326.22 2218.66 1322.5 Q2222.11 1318.75 2227.94 1318.75 Q2233.17 1318.75 2236.21 1322.13 Q2239.26 1325.48 2239.26 1331.27 M2235 1330.02 Q2234.96 1326.52 2233.04 1324.44 Q2231.14 1322.36 2227.99 1322.36 Q2224.42 1322.36 2222.27 1324.37 Q2220.14 1326.38 2219.82 1330.04 L2235 1330.02 Z" fill="#000000" fill-rule="evenodd" fill-opacity="1" /></svg>
